<svg version="1.1" xmlns="http://www.w3.org/2000/svg" xmlns:xlink="http://www.w3.org/1999/xlink" width="627.43899" height="440.56795" viewBox="0,0,627.43899,440.56795"><g transform="translate(88.71949,40.28397)"><g data-paper-data="{&quot;isPaintingLayer&quot;:true}" fill-rule="nonzero" stroke="none" stroke-width="0.5" stroke-linecap="butt" stroke-linejoin="miter" stroke-miterlimit="10" stroke-dasharray="" stroke-dashoffset="0" style="mix-blend-mode: normal"><path d="M-62.24758,-3.34422c-10.05979,8.36369 -19.81316,-0.87036 -19.81316,-0.87036l-0.16578,-0.5206c-3.91695,-2.50061 -6.49298,-6.74019 -6.49298,-11.5494c0,-7.68772 6.58262,-13.91985 14.70269,-13.91985h2.741c9.47187,-1.30302 18.94036,-2.63867 28.37533,-4.1627c2.75793,-0.44549 5.46533,-1.37193 8.26301,-1.39498c1.82974,-0.01508 3.51205,1.01315 5.31952,1.28308c3.12806,0.46714 6.27929,0.86162 9.44351,0.98127c31.10745,1.17638 62.4693,-1.73386 93.55076,-0.03313c11.96726,0.65482 23.78347,2.22915 35.79642,2.21288c19.09352,0 38.008,-0.15822 57.0703,-1.10333c11.83855,-0.58696 23.69431,-0.81202 35.54458,-1.12083c4.48064,-0.11676 8.97699,0.34246 13.44697,0.02754c5.69546,-0.40126 11.30611,-1.54955 16.97944,-2.17113c16.28407,-1.78412 32.346,-2.31378 48.68611,-2.31378c11.25131,0 23.69087,-1.36823 34.11292,3.52051c5.40717,-0.0984 10.12727,1.15784 15.23266,2.76175c3.11182,0.97762 6.89407,2.68432 10.23346,2.6318c1.21658,-0.01913 2.33873,-0.64748 3.53214,-0.87205c4.2994,-0.80901 8.63211,-1.45152 12.93837,-2.22718c13.04621,-2.34993 27.62322,-5.93028 41.01596,-4.59696c1.60769,0.16006 3.09493,0.97521 4.70486,1.11359c2.44034,0.20976 4.9055,-0.22856 7.35067,-0.07739c3.15427,0.19501 6.26304,0.82922 9.40972,1.11359c6.14511,0.55534 12.94934,-0.02689 19.08207,-0.02689c6.32637,0 12.82123,0.95825 18.81676,-0.93384c7.29325,-0.08937 14.50037,-0.61502 21.73056,-1.18903c2.91959,-0.23178 5.6156,-1.64378 8.50645,-2.09479c6.28288,-0.98022 16.11378,-2.45302 22.44075,-0.29068c2.82899,0.96685 4.86508,3.36277 7.12232,5.24462c2.41086,2.00994 4.27183,4.41105 5.82496,7.00441c5.32357,2.09329 9.0673,7.06308 9.0673,12.86071v1.32254c2.95134,3.418 3.13752,9.88576 4.21232,14.03568c2.27995,8.80317 1.90823,17.69115 -2.59208,26.0213c-0.73484,1.3602 -1.8279,2.50045 -2.91546,3.64706c0.3856,0.59947 0.73326,1.21152 0.90192,1.88676c0.7102,2.84347 -0.30725,5.88193 0.20346,8.76353c0.73985,4.17447 2.60506,9.1009 2.54228,13.3656c-0.05329,3.62052 -0.91008,7.72205 -2.00874,11.65632c3.18496,4.01084 3.18496,9.03163 3.18496,9.03163v2.22718c-0.40931,2.39537 1.86554,5.70672 2.16258,7.79258c0.90255,6.33783 -0.08278,7.92465 -1.57271,13.91664c-1.03483,2.95251 -2.32374,10.12385 -5.22204,12.93413c0.06717,0.27401 -0.32952,0.6722 -0.26254,0.98892c0.12674,0.59938 0.60759,1.08951 0.77972,1.67866c0.89866,3.07573 1.01189,6.31046 1.57271,9.45723c0.20628,1.15746 1.03929,2.17411 1.17622,3.34076c0.25978,2.21356 -0.25978,4.46797 0,6.68153c0.13692,1.16665 0.97448,2.18258 1.17622,3.34076c0.22172,1.27295 -0.10512,2.59148 0.07969,3.86971c0.50595,3.4994 1.97911,6.84101 2.39103,10.35144c1.27965,10.90516 0.07155,22.66637 0.07155,33.66569c0,7.31839 -0.19409,14.53723 -1.28638,21.74536c-0.58678,3.8722 -1.86429,7.64339 -2.27926,11.53546c-0.70257,6.58951 0.03699,13.53731 0.03699,20.17141c0,13.64644 0.11233,27.29941 -0.07155,40.94472c2.5821,12.22308 1.78768,26.18078 0,38.37808c-0.54494,3.71811 0.69906,7.51994 -0.19373,11.28301c-0.8244,3.4748 -4.16585,8.44183 -4.54973,12.43149c-0.63543,6.60391 0.73769,13.06217 1.24939,19.58423c0.03487,0.44454 0.03853,7.28912 0.03798,11.39055c0.77622,3.16627 -0.00305,6.06073 -1.10189,8.29335c-0.83896,2.18042 -2.31726,4.58634 -4.92213,6.2952c-0.54427,1.08203 -0.87957,2.42826 -2.0143,2.76371c-0.30878,0.09128 -0.6183,0.17977 -0.92853,0.26562c-2.52735,4.21378 -7.31011,7.05637 -12.79411,7.05637c-8.12007,0 -14.70269,-6.23213 -14.70269,-13.91985c0,-0.30176 0.01014,-0.60128 0.03012,-0.89828c-0.77974,0.10661 -1.56283,0.18859 -2.35045,0.23719c-0.35028,0.02161 0.55249,-1.18753 0.30141,-0.95529c-0.48184,0.44568 -0.41442,1.40635 -1.04133,1.63969c-5.05814,1.88271 -10.67188,2.00152 -15.91423,3.35939c-2.42313,0.62764 -4.60716,1.98738 -7.06241,2.49086c-1.41219,0.28959 -7.59726,0.25584 -9.83767,0.25117c-12.25263,-0.02553 -24.21115,-2.22718 -36.46267,-2.22718c-7.44936,0 -14.89873,0 -22.34809,0c-2.35238,0 -4.72488,-0.48814 -7.05461,-0.17974c-1.2279,0.16254 -2.30166,0.94499 -3.52865,1.11359c-4.31451,0.59284 -8.68801,-0.44795 -12.93837,0c-3.02213,0.31851 -5.7884,1.85488 -8.7922,2.30262c-0.97829,0.14582 -1.98745,-0.19313 -2.96995,-0.07545c-2.79743,0.33506 -7.27155,2.19007 -10.00657,2.96539c-1.25149,0.35477 -10.67746,3.4998 -12.34152,3.71614c-3.10741,0.40401 -6.33996,-0.60966 -9.40972,0c-3.48298,0.69172 -7.03111,1.20275 -10.58862,1.29333c-14.06167,0 -26.78214,-0.3295 -41.00409,-2.38232c-10.31979,-1.48957 -20.41486,-4.29827 -30.7815,-5.46023c-3.05841,-0.34281 -6.16934,0.24506 -9.2393,0.01241c-2.76353,-0.20942 -5.46867,-0.92026 -8.23351,-1.11359c-10.49843,-0.7341 -21.36571,0.03502 -31.89177,0.03502c-5.88108,0 -11.76215,0 -17.64323,0c-2.35238,0 -4.73465,-0.54829 -7.05461,-0.17974c-3.50972,0.55756 -7.03111,1.20275 -10.58862,1.29333c-9.80179,0 -19.60359,0 -29.40538,0c-4.98405,0 -10.39755,0.35848 -15.29348,-0.17974c-1.23157,-0.13539 -2.3059,-0.91934 -3.52865,-1.11359c-4.22716,-0.67153 -9.80589,0.17974 -14.1119,0.17974c-12.93837,0 -25.87673,0 -38.8151,0c-6.00295,0 -12.93251,-0.95867 -18.81676,-0.17974c-1.2279,0.16254 -2.30166,0.94499 -3.52865,1.11359c-3.99992,0.54961 -10.31061,0.56253 -14.38982,0.11199c-4.603,-0.50838 -9.0913,-1.81418 -13.70807,-2.19445c-1.65476,-0.1363 -3.33637,0.18536 -4.98299,-0.02122c-4.3455,-0.54518 -8.58516,-1.74015 -12.93837,-2.22718c-2.24412,-0.25107 -4.5307,0.2346 -6.77916,0.02122c-4.58262,-0.43487 -9.69609,-1.464 -14.83665,-2.04489v1.52312c0,0 0,13.91985 -14.70269,13.91985c-14.70269,0 -14.70269,-13.91985 -14.70269,-13.91985c0,-1.58438 0,-3.26615 0,-5.01205c-1.30974,-1.4956 -2.39986,-3.47623 -3.08966,-6.08854c-1.604,-6.0744 0.39951,-10.09953 3.08966,-12.68993c0,-2.60008 0,-5.09699 0,-7.38995c0,-5.26592 -0.64258,-10.9713 0.11016,-16.17742c0.8427,-5.82831 3.4872,-11.22917 4.73682,-16.93374c2.19469,-10.01883 1.0341,-21.26277 1.0341,-31.47694c0,-11.13588 0,-22.27176 0,-33.40764c0,-4.59463 0.63195,-9.85699 0.0501,-14.44211c-1.5492,-12.20827 -1.31637,-24.46716 -1.22631,-36.78294c0.02586,-3.53658 -0.24943,-7.08924 0.11016,-10.60948c0.29271,-2.86552 1.83524,-5.50118 2.43212,-8.32406c0.30792,-1.45625 -0.18985,-2.96667 -0.18985,-4.45181c0,-4.40317 0.44417,-8.31908 -0.81802,-12.53639c-0.85171,-4.22125 -1.04174,-8.53906 -1.46286,-12.8181c-0.37093,-3.76915 -1.89783,-7.37496 -2.35243,-11.13588c-0.14403,-1.19156 0.36076,-2.4191 0.11829,-3.59627c-0.71189,-3.45638 -3.0226,-6.53357 -3.52865,-10.02229c-0.93395,-6.43881 -0.18985,-13.53975 -0.18985,-20.04713c0,-2.77406 0.5889,-5.58474 0.11016,-8.32152c-0.26412,-1.50991 -0.99918,-2.93308 -1.17622,-4.45435c-0.75079,-6.4517 -1.42162,-13.02984 -0.53188,-19.46568c0.10907,-0.78895 0.63489,-1.4522 1.28002,-2.03288c-0.04687,-0.77479 0.31792,-1.6839 0.31792,-2.47399c0,-4.30659 -0.08292,-8.1365 1.36607,-12.25201c0.06782,-2.54998 -0.32471,-5.14864 0.20346,-7.64994c0.34373,-1.62783 1.90433,-2.84944 2.35243,-4.45435c0.26715,-0.95684 -0.40164,-1.97367 -0.28315,-2.957c0.18323,-1.52062 0.95204,-2.93866 1.17622,-4.45435c0.34575,-2.33768 -0.33026,-4.73321 -0.07317,-7.08111c0.45758,-4.17894 1.5817,-8.26949 2.50529,-12.37884c0.32648,-1.45263 -0.18985,-2.96667 -0.18985,-4.45181c0,-3.34076 0,-6.68153 0,-10.02229c0,-2.2781 1.29366,-4.71155 0.39331,-6.82417c-0.65607,-1.53945 -1.94894,-2.83887 -2.35243,-4.45435c-0.28973,-1.16 -0.34124,-2.35284 -0.34964,-3.55162c-3.8327,0.53947 -7.75623,1.0611 -11.21065,1.5146z" fill="#ffffff"></path><path d="M142.78052,194.23682c-12.5,0 -12.5,-12.5 -12.5,-12.5v-1c0.02275,-9.14764 1.43321,-17.98966 2.04259,-27.03101c0.62293,-9.24241 0.53404,-18.51886 0.85979,-27.77692c-0.51208,-2.78284 0.21151,-5.30846 1.15617,-7.23866c0.57454,-1.45669 1.4617,-3.03986 2.82952,-4.3714c-0.16809,-0.39363 -0.24661,-0.62917 -0.24661,-0.62917l-1,-3c-1.13897,-3.58109 -3.26919,-6.552 -4.63842,-10.04674c-3.55607,-9.07628 -6.66991,-18.3208 -10.16986,-27.41887c0,0 -4.48724,-11.66682 7.17958,-16.15406c11.66682,-4.48724 16.15406,7.17958 16.15406,7.17958c3.39065,8.8174 6.43176,17.7667 9.83014,26.58113c0.26334,0.68304 0.5481,1.35407 0.84646,2.01759c7.66358,-9.34582 15.32715,-18.69165 22.99073,-28.03747c0,0 7.92599,-9.66585 17.59184,-1.73985c9.66585,7.92599 1.73985,17.59184 1.73985,17.59184c-13.11505,15.99396 -26.2301,31.98792 -39.34515,47.98189c-0.28896,9.04172 -0.26754,18.09714 -0.86329,27.12312c-0.55124,8.35165 -1.98305,16.5117 -1.95741,24.96899v1c0,0 0,12.5 -12.5,12.5z" fill="#000000"></path><path d="M292.78052,116.23682c6.94676,0 10.03292,3.8606 11.40398,7.29081c1.49655,1.59949 2.59273,3.07828 4.02745,6.15227c0.95959,2.05598 0.71851,4.56913 1.79751,6.56503c0.69338,1.28258 1.80808,2.343 2.31955,3.70835c1.06736,2.84925 1.31871,5.95411 2.31005,8.8307c1.91007,6.3889 2.98629,8.21945 1.38618,16.46617c-2.28841,11.79413 -12.45424,26.12864 -25.468,26.96252c-2.66235,0.1706 -10.82545,-1.47984 -13.99993,-3.11943c-2.84291,-1.46834 -5.68877,-3.02756 -8.14853,-5.07395c-1.67072,-1.38995 -2.67024,-3.43114 -4.07144,-5.09243c-0.92638,-1.09834 -2.18423,-1.94073 -2.90767,-3.18216c-1.48336,-2.54548 -2.30057,-5.43006 -3.64016,-8.05405c-3.63125,-7.11286 -7.04203,-14.39549 -10.23259,-21.77523c-0.69866,6.37553 -3.14009,12.67353 -6.37578,17.75518c-8.09882,12.11624 -19.34239,21.44767 -34.92792,19.47259c-12.13911,-1.53833 -23.31289,-11.86309 -26.63832,-23.53443c-0.30544,-1.072 -0.44799,-9.25013 -0.30294,-10.75802c0.38094,-3.96013 1.25608,-12.26893 3.97555,-15.90704c8.93527,-11.95358 19.41472,-12.26104 34.10396,-17.91096c0,0 9.9394,-3.72727 14.93404,4.84727l1.51193,0.42542c3.2784,2.1033 6.40783,3.6682 8.8577,6.47005c0.79595,-2.87133 2.84353,-5.80479 7.443,-7.64458c11.60596,-4.64238 16.24834,6.96358 16.24834,6.96358c4.03886,10.09714 8.66353,19.98638 13.38505,29.68858c1.93609,3.97845 2.38322,6.63136 5.38073,9.67135c1.16147,1.17793 1.67845,0.69131 2.83661,1.20121c0.04331,0.01907 0.09503,0.03842 0.152,0.05817c0.09283,-0.06253 0.17151,-0.12954 0.22756,-0.20266c0.56346,-0.7351 0.86586,-1.63774 1.28255,-2.46492c1.44436,-2.86722 2.73372,-4.40422 1.27099,-7.3565c-0.76212,-2.33398 -0.82643,-4.8709 -1.68995,-7.1693c-0.33315,-0.88673 -1.2749,-1.4356 -1.68045,-2.29165c-1.56776,-3.30926 -1.10095,-6.32828 -3.60989,-8.65306l-3.66117,-9.83883c0,0 0,-12.5 12.5,-12.5zM218.18483,141.33148c-4.42553,1.5996 -8.85037,3.20105 -13.2645,4.83175c-0.21962,2.59454 -1.74219,5.23068 -0.9742,7.70169c0.43448,1.39793 3.04778,2.9149 4.05404,3.66767c1.88846,1.41273 2.99607,0.46824 5.2855,0.20274c1.79247,-0.20787 5.48517,-5.51094 7.09422,-7.93225c0.75182,-0.99979 1.96726,-2.73433 2.06204,-4.06853c0.06575,-0.92559 -0.03813,-1.85285 -0.10742,-2.78059l-0.58568,-0.09035c0,0 -1.64056,-0.41014 -3.56399,-1.53212z" fill="#000000"></path><path d="M224.78052,218.81456c12.5,0 12.5,12.5 12.5,12.5c0,2 0,7 0,9c-0.10117,5.9154 -1.99338,11.30931 -3.16141,17.00228c-0.42621,2.07736 0.38337,4.28869 -0.06414,6.36157c-0.44053,2.04056 -1.69248,3.83884 -2.19845,5.86418c-1.64212,6.57323 -1.41012,14.3564 -3.92791,20.71712c-1.90373,4.80942 -2.40598,11.03567 -6.62065,14.03422c-4.18036,2.97414 -10.28895,2.61799 -15.31099,1.56914c-3.26462,-0.68181 -5.15944,-4.22769 -7.70958,-6.37697c-9.82429,-8.28002 -18.58995,-17.9791 -27.04602,-27.66782c-2.66526,4.83743 -5.3529,9.51852 -9.62203,13.33513c-6.52748,5.83558 -10.25053,10.97127 -20.62238,6.70966c-3.82181,-1.57031 -6.53615,-5.28579 -8.76495,-8.76495c-1.13544,-1.77243 -0.48062,-4.1854 -0.85785,-6.25625c-0.79019,-4.33781 -2.36019,-8.62474 -3,-13c-0.10454,-0.71488 0.31486,-1.46451 0.13189,-2.16345c-0.32693,-1.24883 -1.23223,-2.28644 -1.61921,-3.51798c-1.94602,-6.193 -3.62602,-12.47674 -5.85375,-18.57408c0,0 -4.27179,-11.74742 7.47563,-16.01921c11.74742,-4.27179 16.01921,7.47563 16.01921,7.47563c2.31231,6.38594 4.18073,12.92487 6.14625,19.42592c0.42099,1.39245 1.04324,2.72057 1.58168,4.07404c2.01676,-3.47218 2.64525,-3.97169 3.44341,-8.43652c0.19375,-0.46801 0.3875,-0.93603 0.58125,-1.40404v-1.38761c0,-6.90356 5.59644,-12.5 12.5,-12.5c4.14156,0 7.8127,2.01416 10.08728,5.11638l2.91272,3.88362l-0.79525,0.59643c0.70923,0.48794 1.40429,0.99684 2.08197,1.53142c1.37038,1.08102 0.80631,3.40775 1.43684,5.03532c0.07651,0.19748 2.19069,4.5969 3.11309,5.62384c5.35446,5.96129 10.85358,11.79105 16.27089,17.69529c0.73496,0.80102 1.49918,1.57317 2.28119,2.32781c0.12268,-0.56939 0.23869,-1.14015 0.3444,-1.71302c0.47878,-2.59459 0.55052,-5.26559 1.19086,-7.8251c0.36496,-1.45876 1.32998,-2.70796 1.80155,-4.13582c0.58945,-1.78478 -0.35328,-3.78121 -0.06414,-5.63843c0.68882,-4.42447 3.05014,-8.36061 2.83859,-12.99772c0,-2 0,-4 0,-6v-3c0,0 0,-12.5 12.5,-12.5z" fill="#000000"></path><path d="M251.27596,254.85712c-1.72786,-1.84904 -2.99544,-4.56201 -2.99544,-8.54256c0,-12.5 12.5,-12.5 12.5,-12.5l13.12678,9.4683c1.33314,5.39041 3.49261,10.47412 4.95446,15.82335c1.05808,3.87174 2.62929,9.21696 3.25735,13.20607c0.26316,1.67145 -0.23124,3.53328 0.51995,5.04943c0,0 3.95285,11.85854 -7.90569,15.81139c-11.85854,3.95285 -15.81139,-7.90569 -15.81139,-7.90569c-0.8662,-2.89733 -1.11867,-5.9482 -1.48005,-8.95057c-0.38531,-3.20118 -1.87506,-7.60463 -2.74265,-10.79393c-0.9818,-3.60911 -2.26537,-7.11427 -3.42331,-10.66579z" fill="#000000"></path><path d="M235.28052,214.31456c0,-6.90356 5.59644,-12.5 12.5,-12.5c6.90356,0 12.5,5.59644 12.5,12.5c0,6.90356 -5.59644,12.5 -12.5,12.5c-6.90356,0 -12.5,-5.59644 -12.5,-12.5z" fill="#000000"></path><path d="M360.37069,276.4949c-11.18034,5.59017 -16.77051,-5.59017 -16.77051,-5.59017l-1.6782,-3.63732c-0.90263,-2.72542 -1.57208,-6.34017 -3.28199,-8.64397c-0.41364,-0.55731 -1.14681,-0.82032 -1.59737,-1.34173c-1.68131,0.12495 -3.93471,-0.72935 -5.63918,-1.27342c-0.26705,2.66812 -1.00528,5.66893 -1.16551,7.33728c-0.12648,1.31701 0.10421,2.64735 0.04259,3.96899c-0.10313,2.21226 1.03652,5.0632 -0.53635,6.6223c-0.528,0.52338 -1.07664,1.02109 -1.64261,1.49722c-0.0886,0.51875 -0.20917,1.0266 -0.3596,1.52144l0.43919,0.29279l-1.89246,2.83869c-2.22568,3.44626 -6.10051,5.72756 -10.50817,5.72756c-6.90356,0 -12.5,-5.59644 -12.5,-12.5v-1.21874c-2.58627,-6.90652 -2.06839,-13.71932 -3.71033,-21.10586c-0.84928,-3.82062 -2.3008,-7.49575 -3.06835,-11.33363c-0.68693,-3.43477 -0.34779,-7.10997 -1.57985,-10.38892c0,0 -3.95285,-11.85854 7.90569,-15.81139c11.85854,-3.95285 15.81139,7.90569 15.81139,7.90569c1.17986,3.73177 1.4494,7.68338 2.05754,11.55792c13.07071,-5.04743 30.21707,-0.26011 38.22445,11.08605c3.18326,4.51055 4.98084,10.17093 6.71801,15.35603l0.3218,0.36268c0,0 5.59017,11.18034 -5.59017,16.77051z" fill="#000000"></path></g></g></svg>