<svg version="1.1" xmlns="http://www.w3.org/2000/svg" xmlns:xlink="http://www.w3.org/1999/xlink" width="757.19571" height="556.35494" viewBox="0,0,757.19571,556.35494"><g transform="translate(134.94531,108.96506)"><g data-paper-data="{&quot;isPaintingLayer&quot;:true}" fill-rule="nonzero" stroke="none" stroke-width="0.5" stroke-linecap="butt" stroke-linejoin="miter" stroke-miterlimit="10" stroke-dasharray="" stroke-dashoffset="0" style="mix-blend-mode: normal"><path d="M529.34601,139.54403c0.34891,2.11361 0.00678,4.28443 0.01017,6.42664c-0.91691,8.22829 -1.91282,16.44815 -2.75074,24.68486c-0.54469,5.3542 0.47332,10.8929 -0.04171,16.25868c-0.23205,2.4176 -1.05462,4.74495 -1.42893,7.14464c-0.30882,1.97985 0.26641,4.02996 -0.03282,6.01129c-0.33181,2.19704 -1.18334,4.29181 -1.5478,6.48366c-2.41776,14.54031 -4.35058,29.31021 -5.92392,44.01796c0.13007,2.03709 0.26727,4.07427 0.4128,6.1116c0.00599,19.20091 0.00794,38.40182 0.00794,57.60273v2.85786c0,6.90356 -5.59644,12.5 -12.5,12.5c-3.87775,0 -7.3431,-1.76574 -9.63586,-4.53705c-1.27056,11.49397 -2.56498,22.98522 -3.9145,34.47109c-0.22165,4.20013 -1.929,6.87428 -4.01325,8.57688c-2.07495,2.00692 -5.20938,3.45258 -9.92291,2.89805c-1.1725,-0.13794 -2.22123,-0.37359 -3.15912,-0.68727l-0.84738,-0.14177c-0.46987,0.37014 -1.39298,0.47573 -2.00028,0.58027c-2.07848,0.3578 -4.20964,0.29441 -6.31831,0.33439c-3.02369,0.05733 -6.05913,0.21219 -9.07261,-0.04259c-3.84154,-0.32479 -7.53091,-1.65634 -11.31048,-2.41642c-5.69173,-1.14461 -12.6356,0.86211 -18.10183,2.12462c-6.95916,1.60733 -13.93058,3.16292 -20.87424,4.83594c-5.23596,0.08009 -13.75512,0.29818 -18.18481,-0.24073c-1.35171,-0.16445 -2.46993,-1.16263 -3.76252,-1.59085c-2.36226,-0.78259 -4.81013,-1.29824 -7.2565,-1.7543c-6.14226,-1.14507 -10.47353,-1.42874 -17.04377,-0.9765c-1.94798,0.13408 -3.80587,0.91168 -5.744,1.1488c-5.51432,0.67464 -11.23748,0.27298 -16.70463,1.68185c-2.05108,0.52856 -3.70214,2.22891 -5.78,2.6398c-2.4442,0.48333 -4.97602,0.28761 -7.46712,0.33439c-5.48636,0.10303 -11.01088,0.53823 -16.4617,-0.09366c-1.56837,-0.18181 -3.03246,-0.92366 -4.5952,-1.1488c-6.64084,-0.95675 -13.36525,-1.29518 -20.05731,-2.37402c-4.36809,-0.76015 -8.84623,-0.63068 -13.25791,-1.07238c-1.57102,-0.15729 -3.03664,-0.89636 -4.5952,-1.1488c-5.23526,-0.84797 -11.46891,0.09366 -16.85352,0.09366c-2.68054,0 -5.36107,0 -8.04161,0c-1.72683,0 -3.47723,-0.67719 -5.16969,-0.33439c-0.83922,0.16998 -1.45105,1.02022 -2.2976,1.1488c-2.46328,0.37415 -4.97602,0.28761 -7.46712,0.33439c-8.02907,0.15078 -16.09213,0 -24.12482,0c-2.6041,0 -11.85575,0.01704 -13.0153,-0.09366c-1.57173,-0.15004 -3.02424,-0.99089 -4.5952,-1.1488c-2.03728,-0.20478 -4.09482,0.04633 -6.14223,0.0695c-6.06484,-0.74507 -17.52174,-2.28674 -23.05073,-2.27698c-2.92793,0.00517 -5.79467,0.86836 -8.71106,1.12818c-7.18633,0.64025 -14.5374,-0.62926 -21.71782,-0.00729c-2.69765,0.23367 -5.34411,0.91337 -8.04161,1.1488c-7.25182,0.63292 -14.55876,0.03145 -21.83815,0.03145c-10.37421,0 -20.81815,1.10836 -31.12249,-0.09366c-1.68917,-0.19704 -3.266,-1.03786 -4.95896,-1.19902c-19.80952,-1.88566 -39.82814,-2.22296 -59.68877,-3.32178c0,0 -12.48075,-0.69338 -11.78738,-13.17413c0.27696,-4.98536 2.43467,-7.86872 4.92643,-9.5339c-0.39273,-0.7907 -0.79679,-1.57687 -1.20191,-2.36317c-0.98963,-1.19231 -1.79076,-2.70684 -2.22925,-4.63065c-5.25044,-5.82913 -1.34365,-13.64269 -1.34365,-13.64269l0.78065,-1.49097c1.28822,-2.38873 -0.66491,-6.424 -0.85785,-8.62358c-0.0823,-0.9382 -0.11803,-14.25068 -0.09366,-16.4617c0.02847,-2.5825 -0.27498,-5.20076 0.16141,-7.74628c0.47831,-2.79007 1.7033,-5.39925 2.55495,-8.09888c2.9645,-15.144 1.87885,-30.79751 1.87885,-46.19009c0,-1.11578 -0.02884,-8.6255 0.09366,-9.5689c0.2033,-1.56573 0.93344,-3.03109 1.1488,-4.5952c0.57471,-4.17388 -0.09366,-9.2167 -0.09366,-13.40712c0,-7.65867 0,-15.31735 0,-22.97602c0.04894,-7.78436 1.92953,-15.47541 1.31021,-23.27134c-0.19179,-2.41428 -1.91337,-4.50159 -2.2976,-6.89281c-0.28381,-1.76624 0.08583,-3.5866 -0.10057,-5.36576c-0.52208,-4.98325 -2.52772,-9.70725 -3.41358,-14.63884c-0.22054,-1.22772 0.12137,-2.50417 -0.03282,-3.74197c-0.43231,-3.47054 -1.18922,-6.92482 -1.20963,-10.42213c-0.01399,-2.39661 0.62723,-4.83719 0.16141,-7.18813c-0.66379,-3.35007 -1.94043,-6.57658 -2.39818,-9.96096c-0.11963,-0.88452 0.25121,-1.79607 0.10057,-2.67584c-0.20436,-1.19357 -0.97234,-2.24839 -1.1488,-3.4464c-0.69614,-4.72616 -0.16141,-9.86447 -0.16141,-14.63909c0.0538,-1.81623 -0.10338,-3.65105 0.16141,-5.44868c0.17646,-1.19802 1.01584,-2.24278 1.1488,-3.4464c0.21148,-1.91439 -0.27158,-3.85582 -0.12996,-5.77664c0.19911,-2.70042 0.89248,-5.34602 1.1488,-8.04161c0.31023,-3.26254 -0.34278,-6.57944 0.06221,-9.83159c0.39022,-3.13355 1.81451,-6.06983 2.2976,-9.19041c0.86298,-5.57448 -0.09366,-12.32579 -0.09366,-18.00232c0,-2.86063 0.7743,-5.74953 0.34064,-8.57591c-3.69677,-0.85716 -9.53104,-3.5627 -9.53104,-12.10251c0,-12.5 12.5,-12.5 12.5,-12.5c10.33921,0 21.82722,0 32.16642,0c7.61205,0 15.81022,-0.88592 23.35451,0.09366c1.56573,0.2033 3.03109,0.93344 4.5952,1.1488c3.66869,0.50515 7.40621,-0.09366 11.10952,-0.09366c5.40035,0 10.81977,0.49659 16.20101,0.04259c10.33007,-0.87152 20.52561,-3.64143 30.81691,-4.57696c5.9497,-0.54086 12.16153,0.66032 18.08524,0.03282c1.57009,-0.16632 3.02683,-0.96699 4.5952,-1.1488c5.58165,-0.64706 8.52782,-0.07095 14.08118,-1.18162c15.34406,-0.13381 30.69035,-0.06083 46.03496,-0.06083c7.95459,0 16.32084,-0.60115 24.20774,0.06083c6.24705,0.52434 12.00694,3.82789 18.00257,4.69578c4.7266,0.68419 9.24587,0.98739 14.08093,0.98739c2.19712,0.10722 4.33289,-0.7719 6.51432,-1.05515c2.55495,-0.33174 5.16198,0.14692 7.72884,-0.07453c13.05866,-1.12659 23.53883,-1.76413 37.06896,0.12823c5.01341,0.70119 10.13883,2.16809 14.34543,4.9842c0.15635,0.10467 -0.36157,-0.5059 -0.1759,-0.53635c1.13366,-0.18592 2.2976,0 3.4464,0c3.4464,0 6.89283,-0.01265 10.33921,0c7.99233,0.02933 15.40975,-1.777 23.43356,-2.27847c1.1901,-0.07438 2.3828,0.48316 3.56335,0.31526c0.84774,-0.12056 1.45375,-1.00354 2.2976,-1.1488c4.60002,-0.79187 9.691,-0.33439 14.35992,-0.33439c1.85241,0.0904 3.71375,0.01993 5.32793,-1.08693c1.67203,-1.14653 2.91346,-3.0243 4.82294,-3.70557c2.601,-0.928 5.47748,-0.72721 8.22995,-0.95151c10.92835,-0.89055 22.09375,0.87338 32.95962,1.30839c15.19809,0.60844 30.27303,0.88365 45.4203,0.96345c1.45317,-3.31651 4.56459,-6.86704 11.22655,-6.86704c8.16478,0 10.99647,5.33309 11.97855,9.03231c7.06798,1.49902 9.02709,9.33547 9.02709,9.33547c5.3349,21.33961 12.08104,43.2717 15.85888,64.93354c2.90191,16.63933 4.53762,33.39206 7.15516,50.0669c0.73902,4.70789 2.11486,9.29524 3.01907,13.97422l0.05639,5.11563c1.28153,2.69318 2.22865,5.5516 2.72589,8.56371z" fill="#000000"></path><path d="M615.89125,383.63688c6.40107,7.75465 5.91194,15.20786 -0.53214,22.82708c-2.15787,2.55138 -5.65876,3.68695 -8.82478,4.75571c-1.93747,0.65403 -4.09668,0.05407 -6.12769,0.2918c-6.14384,0.71911 -12.47629,2.43004 -18.7515,1.31011c-1.8855,-0.3365 -3.63362,-1.22631 -5.49286,-1.68628c-5.00089,-1.23719 -10.18064,-1.71295 -15.13765,-3.11569c-0.05802,-0.01642 -0.12335,-0.03515 -0.19382,-0.05596c-0.17092,0.0476 -0.32944,0.08781 -0.4575,0.11983c-3.09575,0.77424 -6.28398,1.11537 -9.42598,1.67305c-3.86103,1.29809 -7.35269,3.51252 -11.08997,5.13281c-0.78014,0.33823 -1.77705,0.06383 -2.49869,0.51357c-0.89867,0.56006 -1.23076,1.7913 -2.12062,2.36525c-2.07073,1.33561 -4.22642,2.71836 -6.62646,3.27658c-5.19936,1.20931 -10.59113,1.34761 -15.89387,1.96137c-27.10765,3.13752 -54.11401,4.36287 -81.36642,5.83597c-0.49356,0.02668 -49.98996,2.70366 -50.26434,2.71243c-22.47429,0.71816 -45.22722,0.31587 -67.70538,0.00282c-39.05779,-0.54394 -77.89042,-4.29063 -116.96393,-4.28505c-9.39618,0 -18.79799,-0.33158 -28.18852,-0.00609c-7.63124,0.26452 -15.23221,1.14795 -22.86286,1.42893c-6.15065,0.22648 -12.35425,0.29347 -18.57228,0.28546c-0.85301,4.12786 -2.79258,8.17353 -5.8443,11.77768c-3.14947,3.71959 -11.53486,5.76569 -15.88512,6.42537c-4.82634,0.73187 -9.28294,-0.64805 -13.98125,-1.57801c-15.79452,-3.1263 -27.58768,-7.23445 -43.57024,-11.5931c-4.29036,-1.17003 -8.75184,-1.6589 -13.02185,-2.90112c-2.89095,-0.84103 -5.75148,-1.77978 -8.60261,-2.74889c-5.99481,-0.2607 -11.98462,-0.65321 -17.96212,-1.15817c-12.05083,-1.01802 -23.81374,-4.32899 -35.82642,-5.72695c-7.12593,-0.82927 -14.34414,-0.64111 -21.47425,-1.43355c-5.79338,-0.64388 -11.46597,-2.14707 -17.24998,-2.87026c-5.7578,-0.71991 -11.59306,-0.70484 -17.34693,-1.4555c-11.48049,-1.49775 -22.72593,-4.42336 -34.06438,-6.78224c-3.20506,0.10616 -5.71552,-1.22292 -7.53136,-2.76298c-2.10274,-1.44208 -4.18164,-3.71632 -4.78625,-7.21828l-1.18816,-2.74432c0,-0.95262 0.23104,-1.93368 0,-2.85786c-0.25832,-1.03326 -1.17061,-1.8246 -1.42893,-2.85786c-0.23104,-0.92418 0.23104,-1.93368 0,-2.85786c-0.25832,-1.03326 -1.21471,-1.81456 -1.42893,-2.85786c-0.89172,-4.3428 -0.45064,-9.82745 -0.33439,-14.30334c0.08674,-3.33959 -0.11893,-6.70674 0.33439,-10.01656c0.14452,-1.05521 1.2199,-1.81351 1.42893,-2.85786c0.22383,-1.11833 -0.35649,-2.2915 -0.17298,-3.41715c0.24236,-1.4866 1.06845,-2.82433 1.42893,-4.28679c0.52552,-2.13206 -0.26869,-4.43435 0.17298,-6.58535c0.21422,-1.04329 1.04636,-1.86388 1.42893,-2.85786c0.04007,-0.10412 -0.32976,0.12552 -0.33439,0.01405c-0.08038,-1.93661 -0.18035,-3.89527 0.09366,-5.81408c0.54185,-3.79449 2.47975,-7.29792 3.04067,-11.08964c0.64048,-4.32952 0.82053,-8.71473 1.2308,-13.07209c1.40618,-11.0581 1.35059,-21.77466 1.35059,-32.89707c0,-2.85786 0,-5.71572 0,-8.57357c0,-1.23898 0.46939,-2.51335 0.16141,-3.71344c-2.50528,-9.7622 -4.8544,-19.58723 -5.84568,-29.69474c-0.39337,-4.01101 -0.03145,-8.27694 -0.03145,-12.31754c0,-1.07608 -0.0611,-11.95401 0.16141,-13.43371c0.26252,-1.7458 1.5948,-3.40754 1.26752,-5.14237c0,-3.81048 0,-7.62095 0,-11.43143c0,-1.4286 0.6889,-2.88882 0.33439,-4.27273c-0.2643,-1.03175 -1.18382,-1.82139 -1.42893,-2.85786c-0.32291,-1.36546 -0.0078,-2.81882 -0.24073,-4.20248c-0.32602,-1.93663 -1.13621,-3.77378 -1.42893,-5.71572c-1.08282,-7.18345 0.79164,-14.73958 -0.05106,-21.93022c-0.33724,-2.87758 -1.17536,-5.68741 -1.42893,-8.57357c-0.10637,-1.21068 -0.16359,-11.68761 0.2918,-13.90542c0.21422,-1.04329 1.22814,-1.8119 1.42893,-2.85786c0.35892,-1.86968 -0.33439,-3.79784 -0.33439,-5.70166c0,-5.23941 0,-10.47881 0,-15.71822c0,-14.7656 0,-29.5312 0,-44.2968c0,-7.60893 -1.14316,-15.93293 0.16141,-23.43621c0.25801,-1.48396 1.12774,-2.81098 1.42893,-4.28679c0.54738,-2.68211 0.85151,-5.40906 1.36118,-8.09859c0.52708,-2.78139 -0.25007,-5.70124 0.24073,-8.48927c0.18465,-1.04893 1.16463,-1.82611 1.42893,-2.85786c0.35452,-1.38391 -0.33439,-2.84413 -0.33439,-4.27273c0,-1.71543 -0.03162,-6.60779 0.16141,-7.71799c0.25801,-1.48396 1.14366,-2.80783 1.42893,-4.28679c0.45106,-2.33844 -0.46608,-4.80915 0,-7.14464c0.84462,-4.23233 3.48527,-7.46752 4.28679,-11.43143c0.5416,-2.67848 -0.16141,-6.62672 -0.16141,-9.42915c0,-2.13424 1.14451,-4.33445 0.53635,-6.3802c-0.48937,-1.64616 -2.32237,-2.65505 -2.85786,-4.28679c-0.52396,-1.59663 0.3292,-3.44293 -0.20196,-5.03718c-0.85153,-2.5558 -2.84041,-4.60895 -3.84474,-7.10866c-0.9017,-2.24429 -1.22143,-4.68057 -1.83215,-7.02085c0,0 -0.78001,-3.12005 0.03385,-6.59061c-1.78188,-2.47585 -2.81216,-6.00475 -1.19454,-10.85759c0.17571,-0.52713 0.36704,-1.02302 0.57226,-1.48941c-1.73099,-1.99035 -2.92847,-4.8817 -2.60583,-9.07602c0.95871,-12.46318 13.42189,-11.50447 13.42189,-11.50447c5.6884,0.4681 11.35757,1.403 17.06519,1.40431c5.32763,0.00122 10.0566,-1.86517 15.46414,-1.42561c4.77112,0.38783 9.50563,1.25407 14.28929,1.42893c8.12035,0.29683 16.25155,-0.01123 24.37733,-0.01552c4.84904,-0.00256 10.43597,0.66456 15.20722,0.06083c2.89443,-0.36624 5.48451,-2.10456 8.36231,-2.5843c4.67121,-0.77871 9.50184,0.3134 14.20498,-0.24073c1.95038,-0.2298 3.77798,-1.10957 5.71572,-1.42893c5.69348,-0.93836 11.42808,-1.47165 17.24551,-1.52258c6.11137,0 12.61437,-0.54766 18.67444,0.09366c1.95297,0.20667 3.78618,1.06328 5.71572,1.42893c2.38372,0.45172 6.14887,-0.09366 8.47521,-0.09366c6.43792,0 12.88404,0.34417 19.31375,0.01913c4.30767,-0.21777 8.56199,-1.07201 12.86036,-1.42893c1.14657,-0.09521 2.31259,0.2427 3.45075,0.07453c1.94278,-0.28706 3.76874,-1.17182 5.71572,-1.42893c9.45943,-1.24918 20.80464,-0.09366 30.10587,-0.09366c12.38405,0 24.7681,0 37.15215,0c4.85906,0 9.48428,-0.92952 14.12936,-1.93156c2.05468,-1.48203 4.57765,-2.35523 7.30457,-2.35523c1.04883,0 2.06749,0.12917 3.04094,0.37248c0.95461,-0.12859 1.91732,-0.2353 2.89012,-0.31343c8.579,-0.68904 17.18313,-1.04318 25.78367,-1.36677c6.52119,-0.24535 13.12136,0.13495 19.52951,1.36855c3.20602,0.61717 7.44913,-0.62659 9.62671,1.80603c2.43343,2.71844 4.2662,5.31452 5.47187,7.77943c5.05296,0.60285 10.09885,1.27422 15.15213,1.87246c11.96128,1.41605 23.93581,2.72909 35.87695,4.30602c2.32365,0.30686 4.65377,0.58147 6.97299,0.92131c2.87635,-3.2543 6.78306,-5.62824 10.63893,-7.63616c2.17163,-1.13087 4.95845,0.21103 7.33574,-0.37494c1.46245,-0.36047 2.80283,-1.17092 4.28679,-1.42893c5.80991,-1.01014 14.07697,-0.51885 19.7721,-0.14589c4.77662,0.31281 9.52175,0.99933 14.28929,1.42893c1.6988,0.15308 3.44106,-0.04672 5.1071,0.31887c0.80614,0.1769 1.53722,0.59783 2.24533,1.04172c4.53381,-0.9647 9.24064,-0.8719 13.85676,-1.33351c2.8829,-0.28829 5.68831,-1.16537 8.57357,-1.42893c1.28989,-0.11783 2.59764,0.50751 3.87481,0.2918c1.05019,-0.17737 1.81456,-1.21471 2.85786,-1.42893c1.89881,-0.38989 6.19766,-0.33439 8.58763,-0.33439c3.54788,0 8.07149,-0.48587 11.44549,0.33439c3.65734,0.88914 6.34358,3.61337 10.08681,4.04605c0.58891,0.06807 1.18638,0.06788 1.78532,0.05127c2.29293,-2.71064 5.71935,-4.43171 9.54774,-4.43171h3.77314c0.38357,-0.02512 0.76517,-0.07927 1.14561,-0.15225c4.78829,-4.05208 9.64278,-3.30076 14.3789,-1.4666c2.3301,-0.39107 4.62758,-1.0429 6.98356,-1.20881c10.21575,-0.7194 29.60486,3.19935 35.67307,4.71892c2.39403,0.5995 4.69147,1.49596 6.96272,2.47526c1.83377,-0.09482 3.6666,-0.16119 5.48567,0.01392c1.95484,0.18818 3.77577,1.12329 5.71572,1.42893c2.32035,0.36557 4.69731,-0.09366 7.04628,-0.09366c5.23941,0 10.47881,0 15.71822,0c14.28929,0 28.57858,0 42.86787,0c4.55523,0 11.35797,-0.60973 15.73227,0.33439c1.98387,0.42818 5.71918,2.94032 5.70166,2.52347l10.26776,5.09009c0,0 8.83883,8.83883 0,17.67767c-0.3309,0.3309 -0.6618,0.63703 -0.99224,0.91977c0.36662,1.64438 0.36662,2.83319 0.36662,2.83319c0,2.38155 0.11156,4.76571 0,7.14464c-0.04471,0.95342 -0.51433,1.90645 -0.33439,2.8438c0.20079,1.04596 1.22339,1.81282 1.42893,2.85786c0.36258,1.84353 -0.03278,3.77257 0.24073,5.63141c0.28589,1.94295 1.13621,3.77378 1.42893,5.71572c0.3314,2.1985 -0.48884,4.48656 -0.06775,6.66966c0.28527,1.47896 1.17092,2.80283 1.42893,4.28679c1.815,10.43911 -0.96684,21.71201 0.10057,32.20699c0.54561,5.36455 2.01159,10.59646 2.8761,15.91893c-0.1106,1.75619 0.72081,3.44482 1.10292,5.1625c0.11438,0.51418 1.14333,6.60299 2.00139,11.78124c1.22507,2.86409 1.22507,5.5212 1.22507,5.5212v1.42893c0,0.30229 0.00206,0.60718 0.00588,0.91445c0.22449,2.49836 0.30513,4.99665 0.26333,7.48985c0.17002,4.46449 0.22362,9.01504 -0.60359,13.04368c-0.13757,0.66999 -0.57875,1.23257 -0.94686,1.82263c-0.12413,0.68244 -0.25443,1.36371 -0.39043,2.0437c-0.05696,0.28482 -0.11789,0.56894 -0.18124,0.85262c0.13309,1.31 0.5331,2.64782 0.33032,3.93893c-0.31344,1.99574 -0.83414,3.94622 -1.42064,5.88277c0.0495,1.36185 0.05005,2.71633 -0.24902,4.03543c-0.38251,1.68712 -1.42631,3.15436 -2.04605,4.76949c-0.29445,0.76739 -0.5165,1.56147 -0.75383,2.3496c-0.28216,3.40821 1.24376,5.67677 -1.63735,9.20535l-1.2539,5.0156c-0.43,1.89483 -1.29046,3.62617 -2.47313,5.08575c-0.0977,1.22503 -0.23103,2.42252 -0.40931,3.58171c-0.23867,1.55185 -1.3365,2.84645 -1.87098,4.32277c-0.81436,2.2494 -0.43633,4.78059 -0.98688,7.10866c-0.24511,1.03647 -1.16463,1.82611 -1.42893,2.85786c-0.12026,0.46946 0.29658,0.93174 0.33439,1.41488c0.09667,1.2352 -0.45792,2.51046 -0.16141,3.71344c0.36047,1.46245 1.17092,2.80283 1.42893,4.28679c1.13006,6.49961 0.16141,13.99125 0.16141,20.57835c0,8.09726 0,16.19453 0,24.29179c0,2.19109 -0.70266,4.44811 -0.16141,6.5713c0.89574,3.51372 2.38652,6.89169 2.92561,10.47749c0.24423,1.62453 -0.10083,3.29329 0.06221,4.92796c1.54668,15.50796 4.18061,30.78363 5.47987,46.36829c0.2453,2.94238 -0.10757,5.91814 0.18973,8.85572c0.24988,2.46904 1.12034,4.84302 1.44566,7.30326c0.81782,6.18474 0.42496,13.08883 -1.5295,18.95222l0.16141,0.85558c0,0 0,10.11029 -9.09265,12.14557c0.02239,0.07849 0.04424,0.15714 0.06552,0.23598c2.20208,8.16082 4.02473,16.62392 5.86475,24.88611c0.53033,2.38134 2.82907,10.83192 3.06873,12.64649c0.24947,1.88884 -0.23632,3.82519 0,5.71572c0.24359,1.94871 1.13621,3.77378 1.42893,5.71572c1.48973,9.88289 -1.19714,19.75123 -5.51279,28.55139l-1.42893,2.85786c0,0 -0.55267,1.10533 -1.658,2.44713c2.63351,1.31974 5.15445,2.89642 6.99328,5.1241zM612.99252,95.84959c-0.02372,0.02245 -0.0461,0.04324 -0.06697,0.06247c0.00217,0.00861 0.00434,0.01723 0.00649,0.02585l0.22726,0.05681z" fill="#000000"></path><path d="M114.96872,222.93544c-12.5,0 -12.5,-12.5 -12.5,-12.5v-1.42893c0,-6.0401 -0.88635,-12.64495 0.33439,-18.59013c0.21422,-1.04329 1.22814,-1.8119 1.42893,-2.85786c0.38194,-1.98959 -0.43445,-4.04567 -0.32899,-6.06883c0.68831,-13.20487 1.42692,-26.42004 1.42354,-39.64284c-0.00054,-2.09182 0.00148,-4.02534 -0.05167,-5.90972c-1.58728,0.77814 -3.56362,1.26257 -6.02441,1.26257c-8.53194,0 -11.24036,-5.82352 -12.10013,-9.52081c-1.82252,-2.70201 -3.22485,-4.93004 -4.35227,-8.68085c-0.1084,-0.36062 0.82473,-0.63207 0.61712,-0.94623c-0.34979,-0.5293 -1.4336,-0.20743 -1.74488,-0.76026c-1.73004,-3.07258 -2.85678,-6.44969 -4.15966,-9.72631c-0.60176,-1.51337 -1.11351,-3.06442 -1.55016,-4.63341c-0.15017,-0.53961 0.10513,-1.20059 -0.20352,-1.668c-0.44395,-0.6723 -1.40718,-0.86081 -1.8915,-1.50464c-1.70688,-2.26904 -3.41438,-4.58522 -4.62251,-7.15473c-0.83562,-1.77723 -0.67251,-3.90336 -1.42893,-5.71572c-0.99448,-2.38273 -2.867,-4.30911 -4.0357,-6.61139c0,0 -5.59017,-11.18034 5.59017,-16.77051c11.18034,-5.59017 16.77051,5.59017 16.77051,5.59017c1.30289,2.67217 3.34665,4.95411 4.53788,7.67789c0.78692,1.79932 0.77438,3.86413 1.42893,5.71572c0.83047,2.34923 3.66282,3.47713 4.91742,5.62993c2.74259,4.70605 2.82094,10.76368 5.51809,15.40872c1.06288,1.8305 3.0677,3.04109 3.97084,4.95545c0.68399,1.44984 0.35809,3.18747 0.61712,4.76949c0.02959,0.18073 -0.04126,-0.68607 0.07469,-0.54432c0.2622,0.32053 0.50703,0.65399 0.74189,0.99487c0.06135,-0.05105 0.12362,-0.10169 0.1868,-0.15189c0.63062,-1.67711 1.42796,-3.30079 2.28396,-4.83666c0.10641,-0.19093 0.20948,-0.37189 0.30927,-0.54319c1.17945,-2.68039 3.4899,-4.23545 5.53368,-6.50042c1.25361,-1.38928 0.93367,-3.6534 1.76944,-5.32766c1.6543,-3.31397 4.01518,-6.25655 5.54166,-9.63131c1.33142,-2.94354 2.2204,-6.10129 3.82534,-8.90508c0.75406,-1.31732 2.20428,-2.10062 3.15284,-3.2856c1.32748,-1.65834 2.2771,-4.91512 3.24697,-6.85487c0,0 5.59017,-11.18034 16.77051,-5.59017c11.18034,5.59017 5.59017,16.77051 5.59017,16.77051c-1.65757,3.31514 -3.17963,7.30255 -5.3266,10.29228c-0.6867,0.95625 -1.97997,1.40728 -2.56287,2.43012c-0.9418,1.65262 -1.13046,3.64046 -1.89037,5.38421c-1.58856,3.64526 -4.10822,6.81877 -5.88978,10.3737c-1.97913,3.94916 -2.41234,9.27507 -6.7257,11.77459c-0.77289,2.51649 -1.31305,5.15595 -2.80905,7.29057c-0.45263,0.64586 -0.84233,1.10626 -1.17541,1.40768c-0.01318,0.03118 -0.02636,0.06236 -0.03956,0.09354c1.15526,9.92256 0.93735,20.08851 0.58395,30.03712c-0.28796,8.10615 -0.99841,16.19196 -1.42893,24.29179c-0.19609,3.68919 0.23354,7.42699 -0.32899,11.07831c-0.16217,1.05264 -1.04636,1.86388 -1.42893,2.85786c-0.04007,0.10412 0.33003,-0.12553 0.33439,-0.01405c0.16734,4.28352 0,8.57357 0,12.86036v1.42893c0,0 0,12.5 -12.5,12.5z" fill="#ffffff"></path><path d="M210.05655,128.6552c-2.04216,1.5446 -3.97032,2.18732 -3.97032,2.18732c-5.02678,1.66531 -10.36402,2.32458 -15.33424,4.15181c-3.32889,1.22382 -6.36979,3.12499 -9.49417,4.80353c-0.61783,0.33192 -1.12638,1.06419 -1.70504,1.46057c-0.33417,0.8744 -0.65547,1.74853 -0.66677,2.66956c-0.01359,1.10744 1.0607,1.97805 1.29168,3.06123c0.08991,0.42164 -0.54041,0.83973 -0.37494,1.23783c0.43643,1.05 1.69119,1.68179 2.29086,2.61377c0.1746,0.02382 0.3763,0.05714 0.60812,0.10137c1.42095,0.27109 2.79164,0.78741 4.12239,1.35808c0.78295,-0.46522 1.55604,-0.97727 2.43486,-1.1851c2.32806,-0.55055 4.79153,-0.39197 7.10866,-0.98688c3.05253,-1.58335 8.73274,-3.8263 10.05255,-7.62265c0.56079,-1.61308 0.5243,-3.40146 1.13679,-4.99562c0.58452,-1.52135 1.97207,-2.6826 2.41581,-4.2508c0.38906,-1.37494 -0.28024,-2.88561 0,-4.28679c0.0216,-0.108 0.04992,-0.2136 0.08377,-0.31723zM197.51747,107.34195c4.45503,-6.99861 13.36332,-4.77154 13.36332,-4.77154l7.02085,1.83215c4.35853,2.3905 9.37529,3.85201 13.07558,7.17151c5.27581,4.73289 6.0909,13.7817 4.75571,20.28432c-0.21422,1.04329 -1.22005,1.81348 -1.42893,2.85786c-0.28024,1.40118 0.39516,2.91358 0,4.28679c-0.72846,2.53147 -2.38855,4.70911 -3.29991,7.18063c-0.76828,2.08352 -0.78182,4.42356 -1.72106,6.43581c-2.53907,5.43972 -7.80436,11.46912 -12.69612,15.08611c-1.4011,1.03598 -11.1471,5.67533 -11.54562,5.86982c-2.84175,0.7039 -5.64718,1.57529 -8.52525,2.11171c-0.50211,0.09358 -1.02037,-0.37471 -1.51324,-0.24073c-1.02777,0.27938 -1.80213,1.28822 -2.85786,1.42893c-3.02743,0.40351 -6.12001,0.45699 -9.16098,0.17298c-1.4997,-0.14006 -2.81149,-1.12529 -4.28679,-1.42893c-1.4671,-0.30195 -3.11438,0.24508 -4.47788,-0.37494c-8.62776,-3.92327 -14.84926,-10.97322 -18.34385,-19.77278c-0.55285,-1.39209 -0.08925,-3.00753 -0.37494,-4.47788c-0.36434,-1.87511 -1.55308,-3.60222 -1.56618,-5.51235c-0.02119,-3.08982 1.00305,-6.09801 1.46561,-9.15308c0.32291,-2.13278 -0.10597,-4.49664 0.89067,-6.40968c2.65849,-5.10293 7.48906,-9.02901 12.41905,-11.74355c4.35701,-2.39905 8.72042,-4.85799 13.36869,-6.6279c4.98445,-1.89792 10.3566,-2.5914 15.43914,-4.20526z" fill="#ffffff"></path><path d="M296.44269,97.91041c9.68326,0 11.86528,7.50124 12.35697,10.88189c1.76229,0.96035 2.6368,3.50057 3.47831,5.40815c1.30503,2.9583 2.85571,5.88277 3.47498,9.05628c0.3649,1.86997 -0.31322,3.8364 0,5.71572c0.17509,1.05057 0.95262,1.90524 1.42893,2.85786c0.29487,13.18039 -3.79839,25.77403 -9.28121,37.87589c-2.56327,5.65774 -4.23001,12.05529 -8.46209,16.60169c-4.59672,4.93813 -10.34206,10.93343 -17.08796,10.846c-13.41186,-0.17382 -11.19968,-9.37264 -14.46639,-15.91062c-3.65096,-7.30701 -8.41442,-14.07379 -11.51707,-21.62995c-6.08374,-14.8163 -11.03563,-30.63728 -14.91911,-46.17121c0,0 -3.0317,-12.12678 9.09509,-15.15848c12.12678,-3.0317 15.15848,9.09509 15.15848,9.09509c3.5756,14.30239 8.08327,28.73456 13.65947,42.42238c1.82791,4.48695 3.53081,7.55533 5.3173,10.57043c0.10804,-0.21781 0.21048,-0.43715 0.30634,-0.6583c1.50092,-3.46279 2.6743,-7.0588 3.96142,-10.60662c0.58813,-1.62111 0.99121,-3.31073 1.66378,-4.89867c0.16208,-0.38267 0.75161,-0.53503 0.81181,-0.94623c0.32689,-2.23272 -0.09677,-4.78818 0.76346,-6.81404c-0.34093,-0.54903 -0.65913,-1.10545 -0.76346,-1.73142c-0.31322,-1.87932 0.23046,-3.82447 0,-5.71572c-0.05027,-0.41253 -0.64823,-0.56419 -0.81181,-0.94623c-0.63525,-1.48355 -0.48159,-3.32824 -1.44989,-4.61931c-1.3737,-1.83159 -2.84388,-3.5888 -4.26582,-5.38319l-0.95151,-7.6414c0,0 0,-12.5 12.5,-12.5z" fill="#ffffff"></path><path d="M212.01034,291.6333c-11.18034,5.59017 -16.77051,-5.59017 -16.77051,-5.59017l-1.79708,-3.66448c-0.73968,-2.35602 -1.67484,-4.65936 -2.21903,-7.06805c-0.1466,-0.64889 0.33988,-1.34425 0.17298,-1.98822c-0.2672,-1.031 -1.22339,-1.81282 -1.42893,-2.85786c-0.36258,-1.84353 0.03033,-3.77221 -0.24073,-5.63141c-0.23765,-1.63005 -0.98898,-3.15215 -1.27635,-4.77417c-1.84364,-10.40586 -3.36628,-20.8786 -5.66429,-31.19364c0,0 -2.71163,-12.20234 9.49071,-14.91397c12.20234,-2.71163 14.91397,9.49071 14.91397,9.49071c2.32313,10.47888 3.90861,21.10806 5.76715,31.67923c0.39494,2.24639 1.266,4.39834 1.5815,6.65726c0.13612,0.97454 -0.43821,1.97819 -0.24073,2.94217c0.21375,1.04339 1.17719,1.82298 1.42893,2.85786c0.41723,1.71519 0.1223,3.60805 0.81181,5.23301l1.06077,2.05123c0,0 5.59017,11.18034 -5.59017,16.77051z" fill="#ffffff"></path><path d="M275.09741,268.66116c-5.65615,1.58998 -9.06493,4.92923 -10.67706,11.29778c-0.15837,0.62564 0.2065,1.27785 0.22555,1.92294c0.07023,2.37844 -0.50124,4.75697 -0.33439,7.13059c0.10319,1.46803 1.72411,2.42609 2.24074,3.80408c0.2985,0.79619 0.15892,1.72587 0.51357,2.49869c0.20729,0.45171 1.4506,0.26683 1.29505,0.73886c-0.07188,0.21812 -0.70682,0.57026 -0.49676,0.47742c0.79654,-0.35203 1.44033,-1.0536 2.28451,-1.26752c0.41792,-0.1059 0.84664,0.55614 1.23783,0.37494c0.71463,-0.331 0.99358,-1.24861 1.635,-1.70558c1.06136,-0.75616 2.30506,-1.32293 3.15097,-2.31425c3.26812,-3.12961 4.69547,-7.18244 7.74563,-10.51746c0.22867,-0.25002 0.85601,0.60027 0.97614,0.28346c0.33774,-0.89074 -0.42602,-2.00581 0,-2.85786c0.60249,-1.20498 2.24165,-1.65984 2.85786,-2.85786c0.20443,-0.39746 -0.92121,-0.58809 -0.85785,-1.03053c0.04962,-0.34651 0.10658,-0.78844 0.19898,-1.21951c-0.30899,-0.45113 -0.60458,-0.92007 -0.91826,-1.27473c-0.18512,-0.2093 0.08613,-0.72734 -0.17776,-0.81919c-2.80185,-0.97524 -5.88529,-1.05429 -8.62731,-2.18686c-0.62215,-0.25697 -0.84552,-0.7096 -0.91675,-0.81616c-0.00986,0.00218 -0.01971,0.00436 -0.02956,0.00654c-0.00143,0.04625 0.00647,0.14998 0.01413,0.33219zM272.05695,243.79063c0.92894,-0.12947 1.52288,-0.12947 1.52288,-0.12947h2.85786c1.90992,0.11146 3.86395,-0.08864 5.72977,0.33439c2.70947,0.6143 5.11404,2.19896 7.76758,3.02197c2.78889,0.86499 5.80523,1.17498 8.37961,2.55293c2.17245,1.16281 3.76295,3.18743 5.53796,4.89652c4.52801,4.35986 8.41277,7.78512 9.30224,14.61952c0.37547,2.88497 -1.03674,5.72687 -1.44795,8.60697c-0.35767,2.50515 -0.00651,5.15999 -0.85785,7.54304c-0.45323,1.26868 -2.25537,1.65288 -2.85786,2.85786c-0.42602,0.85205 0.44946,2.01794 0,2.85786c-1.20242,2.24701 -3.2257,3.94904 -4.73958,5.99918c-3.16563,4.28698 -5.63685,8.49287 -9.40152,12.3454c-4.27409,4.05174 -9.63597,8.125 -15.21904,10.26946c-1.39825,0.53707 -3.00438,0.10599 -4.47788,0.37494c-2.1272,0.38827 -4.12958,1.70142 -6.28906,1.59034c-8.98143,-0.46201 -16.99938,-5.98526 -22.06457,-13.07301c-1.262,-1.76592 -1.50545,-4.07302 -2.34429,-6.07488c-1.32336,-3.15818 -2.51208,-3.16606 -3.47498,-7.62735c-0.50398,-2.33507 -0.27236,-4.77067 -0.33439,-7.1587c-0.03732,-1.43688 -0.02113,-11.37561 0.22555,-12.36635c1.82647,-7.33585 6.91626,-17.24776 12.22196,-22.40098c6.54959,-6.36134 10.79935,-6.7382 18.45473,-8.79589c0,0 0.5762,-0.14405 1.50881,-0.24375z" fill="#ffffff"></path><path d="M331.26742,302.68976c2.05499,-12.32992 14.38491,-10.27494 14.38491,-10.27494l5.54082,1.29715c1.57862,-1.69256 3.70505,-2.01992 5.83755,-2.45822c0.09514,-0.17131 0.24659,-0.4695 0.43485,-0.79892c-1.5668,-1.7087 -2.88998,-3.67184 -4.72164,-5.08446c-0.87461,-0.67452 -2.21686,-0.34378 -3.20704,-0.83312c-1.39806,-0.69092 -2.42387,-2.02853 -3.85181,-2.65537c-1.29459,-0.5683 -2.79278,-0.47549 -4.15364,-0.85886c-3.2139,-0.90539 -8.26947,-2.64804 -10.95868,-4.71883c-8.08969,-6.22937 -11.41066,-14.69277 -8.5264,-24.92657c0.62107,-2.20365 2.96426,-3.49966 4.26582,-5.38319c1.734,-2.50932 3.49004,-5.03208 5.58848,-7.24567c0,0 8.83883,-8.83883 17.67767,0c8.83883,8.83883 0,17.67767 0,17.67767c-0.2483,0.21188 -0.46865,0.44874 -0.67064,0.70217c2.29983,0.62714 4.69635,0.96501 6.89122,1.89043c1.72826,0.72868 3.0469,2.21612 4.72176,3.06035c1.7073,0.86058 3.85979,0.84779 5.36653,2.02473c4.26369,3.33046 8.17286,7.15268 11.66871,11.28185c6.99492,8.26213 7.8049,19.03744 1.90268,28.0941c-1.34931,2.07044 -7.70168,7.60311 -9.2846,9.03997c-5.96477,2.3018 -10.80676,4.31559 -17.02531,6.11535l-11.60632,-1.56071c0,0 -12.32992,-2.05499 -10.27494,-14.38491z" fill="#ffffff"></path><path d="M444.69094,283.31081c0,12.5 -12.5,12.5 -12.5,12.5h-1.42893c-2.24304,0 -6.98389,0.0555 -8.58763,-0.33439c-2.06983,-0.5032 -5.07636,-0.82595 -5.71572,-2.85786c-1.42893,0 -2.89299,0.3149 -4.28679,0c-1.68741,-0.38123 -3.15436,-1.42631 -4.76949,-2.04605c-4.31557,-1.65592 -5.50674,-1.28477 -9.66998,-4.26582c-8.39975,-6.01457 -14.21216,-16.7598 -16.46115,-26.71433c-0.1466,-0.64889 0.33988,-1.34425 0.17298,-1.98822c-0.2672,-1.031 -1.21471,-1.81456 -1.42893,-2.85786c-0.98714,-4.80753 -0.98714,-12.36772 0,-17.17525c0.21422,-1.04329 1.2199,-1.81351 1.42893,-2.85786c0.22383,-1.11833 -0.41726,-2.30311 -0.17298,-3.41715c2.22189,-10.13298 9.38303,-21.59477 20.89811,-21.59477c3.45264,-1.72632 7.58566,-1.81505 11.44549,-1.76332c2.16724,0.02905 4.44005,-0.1956 6.48016,0.53635c4.39714,1.5776 9.78144,6.108 13.59986,8.90405c1.95267,1.42985 4.24769,2.46046 5.90597,4.22327c4.8626,5.1691 5.0189,6.95779 6.99645,12.62887c0.78497,2.25108 2.4668,4.37419 2.34899,6.75529c-0.2008,4.05829 -1.39016,8.13934 -3.26435,11.74454c-4.97093,9.56211 -16.1494,10.60552 -25.32035,11.60149c-3.64546,0.3959 -5.792,0.901 -8.04292,1.42837c2.87069,1.89251 6.40703,2.52719 9.88382,2.52719c1.95478,0.84633 4.10894,1.4594 5.71572,2.85786c0.08415,0.07324 -0.12485,-0.32136 -0.01405,-0.33439c0.9461,-0.11125 1.90524,0 2.85786,0h1.42893c0,0 12.5,0 12.5,12.5zM405.38376,241.46602c4.24045,-0.64461 8.42751,-1.54029 12.91581,-2.04905c1.14307,-0.12957 2.29702,-0.18662 3.44605,-0.27416c-2.64049,-2.0109 -5.665,-3.50658 -8.20577,-5.64277c-0.19292,-0.1622 -0.41468,-0.363 -0.55473,-0.58718c-0.74156,-0.11212 -1.48361,-0.44954 -2.21406,-0.30931c-1.04596,0.20079 -1.90524,0.95262 -2.85786,1.42893c-0.43838,0 -0.98723,0.17991 -1.49403,0.29135c-0.24929,0.35081 -0.45444,0.703 -0.47072,0.97675c-0.10206,1.71674 0.1641,3.47001 -0.17298,5.15642c-0.07143,0.35734 -0.21647,0.68835 -0.39171,1.00902z" fill="#ffffff"></path></g></g></svg>