<svg version="1.1" xmlns="http://www.w3.org/2000/svg" xmlns:xlink="http://www.w3.org/1999/xlink" width="637" height="524.96364" viewBox="0,0,637,524.96364"><g transform="translate(78.5,82.48181)"><g data-paper-data="{&quot;isPaintingLayer&quot;:true}" fill-rule="nonzero" stroke-linecap="butt" stroke-linejoin="miter" stroke-miterlimit="10" stroke-dasharray="" stroke-dashoffset="0" style="mix-blend-mode: normal"><path d="M-76,439.98183v-519.96364h632v519.96364z" fill="#ffffff" stroke="#000000" stroke-width="5"></path><path d="M84.5,98.50001c-2.5,0 -2.5,-2.5 -2.5,-2.5l0.03228,-3.40045c1.93395,-5.6441 6.15868,-9.38653 11.08097,-12.67967c9.54442,-6.38546 20.62464,-11.0943 31.89646,-13.37132c0,0 2.45145,-0.49029 2.94174,1.96116c0.49029,2.45145 -1.96116,2.94174 -1.96116,2.94174c-10.64932,2.10645 -21.08309,6.63778 -30.10354,12.62868c-3.38808,2.25018 -7.66578,5.3525 -8.91903,9.32033l0.03228,2.59955c0,0 0,2.5 -2.5,2.5z" fill="#ffffff" stroke="none" stroke-width="0.5"></path><path d="M98.30431,151.87922c0,12.5 -12.5,12.5 -12.5,12.5h-0.93736c-2.56695,-0.08606 -5.11503,-0.56072 -7.62644,-1.09877c-2.75172,-0.58953 -5.76897,0.19409 -8.40542,-0.7901c-3.01138,-1.12415 -5.1536,-3.84815 -7.82812,-5.63116c-0.42772,-0.74502 -1.48376,-0.86914 -2.25383,-1.24992c-2.29081,-1.13273 -4.39059,-2.62263 -6.6598,-3.79804c-7.58048,-3.92655 -15.6726,-10.86013 -15.34607,-20.55394c0.2801,-8.31529 6.15448,-14.30475 12.07402,-19.04037c1.673,-1.3384 2.86524,-3.21158 4.53197,-4.55777c2.32068,-1.87437 4.84965,-3.47522 7.25797,-5.23557c2.1722,-1.58776 5.11199,-3.27785 6.98064,-5.31384c0,0 8.83883,-8.83883 17.67767,0c8.83883,8.83883 0,17.67767 0,17.67767c-4.77359,4.62632 -10.54902,7.83565 -15.75691,11.94723c-1.46026,1.15286 -2.58044,2.6884 -3.91148,3.98732c1.37601,0.82916 2.71617,1.71255 4.13577,2.42942c2.48635,1.25555 5.0289,2.53397 7.11977,4.37424c0.36509,0.24339 0.76342,0.44991 1.15615,0.66264c2.72187,-0.09315 4.1519,1.72953 6.85411,1.19093h0.93736c0,0 12.5,0 12.5,12.5z" fill="#000000" stroke="none" stroke-width="0.5"></path><path d="M165.79422,110.63538c0,5.00434 -2.00347,8.0052 -4.40625,9.80468c0.80267,5.51511 -2.05797,11.61644 -3.73409,16.6448c-1.61952,4.49708 -1.97481,6.65317 -5.83179,10.51015c-2.44431,2.44431 -5.87621,3.6624 -8.9711,5.20219c-1.15036,0.57233 -2.02511,1.68001 -3.24705,2.07721c-3.01103,0.97874 -6.12301,2.13554 -9.28607,1.99672c-6.59117,-0.28926 -11.18665,-3.60336 -14.84023,-8.73123c-2.74422,-3.85157 -1.45902,-4.36351 -2.79008,-7.41225c-1.51406,-3.4679 -3.21484,-6.82581 -4.6868,-10.31096c-2.4583,-5.82048 -3.30023,-12.11343 -5.68162,-17.951c0,0 -4.64238,-11.60596 6.96358,-16.24834c11.60596,-4.64238 16.24834,6.96358 16.24834,6.96358c2.26681,5.748 3.10724,12.03537 5.56669,17.66868c1.01338,2.32111 2.22467,4.65069 3.32839,7.01913c0.68174,-1.69801 1.56399,-3.60119 1.84267,-5.17523c0.62805,-3.54734 -0.90332,-6.01701 0.37494,-10.05626c0.67595,-2.13595 3.73385,-6.56769 5.31246,-8.93561l11.33799,-5.56625c0,0 12.5,0 12.5,12.5z" fill="#000000" stroke="none" stroke-width="0.5"></path><path d="M198.69539,184.79335c-1.62897,2.97961 -4.74775,5.83194 -10.71886,5.83194c-12.5,0 -12.5,-12.5 -12.5,-12.5l3.66117,-9.77619c1.69681,-1.69681 4.81326,-4.90766 6.42954,-5.7881c1.31377,-0.71566 7.10758,-1.49554 9.16081,-3.01247c0.94509,-0.69823 1.58815,-1.79067 2.61196,-2.36733c0.65658,-0.36982 1.34109,-0.6849 2.04065,-0.96791c-3.0997,-1.10593 -6.98521,-2.29415 -9.53953,-4.01189c-6.49151,-4.36545 -12.20786,-14.28578 -11.54331,-22.36116c0.56364,-6.84922 4.87267,-13.09365 10.60595,-16.71495c0.96533,-0.60973 9.11845,-3.80172 8.98112,-3.82986c0,0 8.83883,-8.83883 17.67767,0c8.83883,8.83883 0,17.67767 0,17.67767c-1.38064,1.22301 -2.58251,2.68406 -4.14192,3.66902c-0.89347,0.56434 -2.43804,1.31595 -4.07526,2.00226c0.13634,0.06499 0.27371,0.12771 0.41244,0.18747c1.14437,0.49296 2.42198,0.66871 3.52043,1.25691c5.08254,2.72163 8.72145,6.82726 12.72054,10.82634c1.52813,1.97667 3.97753,3.50635 4.58438,5.93001c1.00225,4.00282 1.00225,8.37635 0,12.37917c-0.60685,2.42366 -2.99143,4.0052 -4.58438,5.93001c-1.92572,2.3269 -5.53846,5.98506 -7.89135,7.41846c-1.68762,1.02811 -4.09768,0.61975 -5.62416,1.87472c-2.25506,1.85395 -4.75045,3.46595 -7.41225,4.6648c-1.29413,0.58286 -3.12681,1.89007 -4.37564,1.68109z" fill="#000000" stroke="none" stroke-width="0.5"></path><path d="M303.58611,145.3177c0,12.5 -12.5,12.5 -12.5,12.5h-2.81208c-1.7978,-0.10809 -3.56794,0.09958 -5.33219,0.41553c1.08541,4.30062 2.29923,8.63501 2.77359,13.03618c0.39693,3.68266 0.06083,7.79538 0.06083,11.54268l-12.5,-0.46868l-12.5,0.46868c0,-0.31003 0.00338,-0.62255 0.00915,-0.93702l-0.00915,-0.00034c0,0 0,-0.16619 0.01916,-0.46024c0.06331,-2.547 0.25019,-5.20271 0.04167,-7.68164c-0.41001,-4.87431 -2.30783,-9.55306 -3.31925,-14.32825c-0.49048,0.04922 -0.97782,0.1131 -1.46149,0.19416c-2.98663,0.50054 -5.99836,0.97728 -9.02617,1.03102c0,0 -12.5,0 -12.5,-12.5c0,-12.5 12.5,-12.5 12.5,-12.5c2.00852,0.08465 3.97742,-0.58952 5.97159,-0.8437c0.46347,-0.05907 0.92975,-0.10407 1.3984,-0.13711c-0.59673,-3.26557 -1.09388,-6.55351 -1.12279,-9.95318c0,0 0,-12.5 12.5,-12.5c12.5,0 12.5,12.5 12.5,12.5c-0.04996,3.05949 0.48122,6.02024 1.10847,8.96613c2.84367,-0.4371 5.67748,-0.76674 8.88816,-0.84421h2.81208c0,0 12.5,0 12.5,12.5z" fill="#000000" stroke="none" stroke-width="0.5"></path><path d="M358.96195,164.25541c-3.52856,-2.88456 -7.13093,-5.56793 -10.79577,-8.31422c-0.62351,-0.01719 -4.08465,-0.20001 -7.19237,-2.14397c-0.69416,0.48307 -1.3742,0.9765 -2.03319,1.48426c-1.95622,1.50729 -5.66788,5.25811 -8.69878,7.13764c0.10024,0.41779 0.16668,0.78736 0.194,0.84068c0.7688,1.50065 2.03938,2.9839 3.23405,4.15194c0.62918,0.61515 2.10661,2.07638 2.55597,2.69476c0.75135,0.05611 2.5832,0.46215 3.34835,0.70409c3.18668,1.0076 6.19426,2.67339 8.86801,4.6787c0.64404,0.2009 3.05351,1.10221 4.32836,1.78204c0.29493,-0.15991 0.57489,-0.32879 0.71603,-0.48599c0.98679,-1.09908 2.0788,-2.12422 2.8925,-3.35696c1.47776,-2.23878 1.95291,-5.115 3.15432,-7.54859c0.05013,-0.10153 -0.32417,0.1726 -0.33439,0.05983c-0.0493,-0.54398 -0.16814,-1.11815 -0.2371,-1.6842zM353.15527,131.05774c0.84546,0.04965 1.67854,0.16085 2.48153,0.42159c2.33595,0.7585 4.27296,2.42275 6.40943,3.63413c5.59094,4.19321 12.01067,8.24665 16.61694,13.55109c1.63818,1.88647 3.63798,3.61771 4.58438,5.93001c1.39187,3.4007 1.556,13.16949 0.61712,17.02905c-0.44956,1.84806 -1.66775,3.42656 -2.31677,5.21436c-0.43961,1.21095 -0.45795,2.55369 -0.93736,3.74944c-4.07266,10.15808 -13.3046,20.47328 -24.71904,22.06216c-7.76721,1.08119 -12.36707,-2.67282 -19.05193,-5.01579c-1.24981,-0.93736 -2.44723,-1.94899 -3.74944,-2.81208c-1.21108,-0.80269 -2.87796,-0.4821 -4.25503,-0.94546c-1.99799,-0.67228 -4.07775,-1.22695 -5.88887,-2.30573c-1.37379,-0.81829 -5.5404,-5.04545 -6.95399,-6.4811c-8.2282,-8.35656 -16.09326,-23.69822 -8.35582,-35.09503c2.33151,-3.43418 5.97949,-5.76088 9.05976,-8.54323c5.94874,-5.37337 12.38427,-9.61515 19.01098,-14.03296c0,0 10.40063,-6.93375 17.33438,3.46688c0.03844,0.05767 0.07635,0.11522 0.11374,0.17268z" fill="#000000" stroke="none" stroke-width="0.5"></path><path d="M471.0592,173.75281c-12.5,0 -12.5,-12.5 -12.5,-12.5v-1.87472c0.08012,-2.38977 0.10982,-4.88393 0.90818,-7.13087c-0.19924,-0.36512 -0.53466,-1.00134 -0.82792,-1.64278c-3.78358,-1.25219 -7.49113,-2.81234 -11.2318,-4.2458c-0.17753,0.72893 -0.34326,1.46032 -0.48013,2.19773c-0.08602,0.46347 -0.15242,0.98461 -0.20157,1.54147c2.75647,3.651 4.81998,7.83849 5.73896,12.90213c0.19282,1.06242 0.16141,5.94586 0.16141,7.62644v2.81208c0,6.90356 -5.59644,12.5 -12.5,12.5c-3.45178,0 -6.57678,-1.39911 -8.83883,-3.66117l-1.87472,-1.87472l0.20001,-0.20001c-0.26883,-0.41699 -0.51353,-0.851 -0.73213,-1.30006c-0.42733,-0.24293 -0.84834,-0.49808 -1.26218,-0.76713c-2.01088,-1.30731 -3.2176,-9.35432 -4.03749,-11.99239c-0.59009,-1.89868 -1.00841,-3.81308 -1.28442,-5.73728c-1.58946,-1.15203 -3.28819,-2.17731 -4.668,-3.21332c-0.2965,-0.22263 -1.32441,-0.89913 -2.49664,-1.71308c0,0.04977 0,0.09955 0,0.14932c0,5.33924 -0.79825,11.30563 -0.06083,16.57812c0.22188,1.58641 0.33522,5.47774 1.55325,6.88987c0,0 5.59017,11.18034 -5.59017,16.77051c-11.18034,5.59017 -16.77051,-5.59017 -16.77051,-5.59017c-0.95333,-2.1559 -2.2098,-4.20187 -2.85999,-6.4677c-0.41012,-1.42921 -0.07825,-2.97826 -0.27355,-4.45227c-1.29034,-9.73853 -0.99819,-19.49708 -0.99819,-29.35251c0,-6.43608 -0.3881,-11.68417 4.59853,-17.27507c1.92045,-2.15317 5.0488,-2.8144 7.69807,-3.95707c7.07804,-3.05286 12.99901,-0.96637 20.16203,0.83761c0.79014,0.65394 1.59633,1.29656 2.4137,1.93151c0.93535,-4.89974 2.29119,-9.18094 8.28649,-12.24247c9.2779,-4.73781 10.82702,-1.3644 17.01428,1.66671c2.27539,1.11471 4.86272,1.43746 7.24382,2.30371c3.01234,1.0959 5.88276,2.5682 8.91999,3.59309c1.62787,0.54931 3.46323,0.55703 4.96049,1.3996c2.78368,1.56648 5.126,3.81249 7.68899,5.71873c2.16182,4.86938 4.71247,10.02041 5.28459,15.43373c0.22219,2.10229 0.16299,4.24027 -0.06775,6.34165c-0.13476,1.22731 -1.0173,2.41101 -0.77595,3.62188v1.87472c0,0 0,12.5 -12.5,12.5z" fill="#000000" stroke="none" stroke-width="0.5"></path></g></g></svg>