<svg version="1.1" xmlns="http://www.w3.org/2000/svg" xmlns:xlink="http://www.w3.org/1999/xlink" width="30.51754" height="17.42012" viewBox="0,0,30.51754,17.42012"><g transform="translate(-1.46499,-142.7871)"><g data-paper-data="{&quot;isPaintingLayer&quot;:true}" stroke-miterlimit="10" stroke-dasharray="" stroke-dashoffset="0" style="mix-blend-mode: normal"><path d="M29.98253,144.82728v0c-0.0219,7.40385 -5.96371,13.39101 -13.27859,13.37992c-7.31487,-0.01109 -13.23895,-6.01621 -13.23895,-13.4201z" fill="#ea0000" fill-rule="evenodd" stroke="none" stroke-width="1" stroke-linecap="square" stroke-linejoin="miter"/><path d="M29.98253,144.82728v0c-0.0219,7.40385 -5.96371,13.39101 -13.27859,13.37992c-7.31487,-0.01109 -13.23895,-6.01621 -13.23895,-13.4201z" fill="none" fill-rule="evenodd" stroke="#980000" stroke-width="4" stroke-linecap="butt" stroke-linejoin="round"/><path d="M29.98253,144.82728v0c-0.0219,7.40385 -5.96371,13.39101 -13.27859,13.37992c-7.31487,-0.01109 -13.23895,-6.01621 -13.23895,-13.4201z" fill-opacity="0" fill="#000000" fill-rule="evenodd" stroke="none" stroke-width="1" stroke-linecap="square" stroke-linejoin="miter"/><path d="M29.98253,143.85169v0v0c0.25923,0 0.50782,0.10318 0.69086,0.28677c0.18304,0.18358 0.28549,0.43247 0.28471,0.69171v0c-0.02344,7.93096 -6.39145,14.36455 -14.25564,14.35263v0v0c-7.86417,-0.01191 -14.21306,-6.46471 -14.21306,-14.39569c0,-0.259 0.10299,-0.50736 0.28627,-0.69037c0.18328,-0.183 0.43181,-0.28561 0.6908,-0.28522v0l26.51755,0.04017l-0.00147,0.97559v-0.97559M29.98253,145.80287c-0.00049,0 -0.00099,0 -0.00148,-0.00001v0l-26.51753,-0.04017l0.00147,-0.97559h0.97559c0,6.87679 5.49926,12.43426 12.26483,12.44451l-0.00147,0.97559l0.00147,-0.97559c6.76556,0.01026 12.2812,-5.53048 12.30153,-12.40722l0.97559,0.00288v0.97559v0z" fill-opacity="0" fill="#000000" fill-rule="nonzero" stroke="none" stroke-width="1" stroke-linecap="square" stroke-linejoin="miter"/></g></g></svg>