<svg version="1.1" xmlns="http://www.w3.org/2000/svg" xmlns:xlink="http://www.w3.org/1999/xlink" width="133.70554" height="89.90419" viewBox="0,0,133.70554,89.90419"><g transform="translate(-181.13446,-134.54861)"><g data-paper-data="{&quot;isPaintingLayer&quot;:true}" fill-rule="nonzero" stroke="none" stroke-width="1" stroke-linecap="butt" stroke-linejoin="miter" stroke-miterlimit="10" stroke-dasharray="" stroke-dashoffset="0" style="mix-blend-mode: normal"><path d="M263.17223,223.5549c-2.872,-2.747 4.718,-12.692 -6.696,-19.955c-0.022,-1.374 2.991,-4.167 2.991,-4.167c0,0 9.775,3.608 11.521,12.795c1.092,5.761 -3.791,15.175 -7.816,11.327zM259.55023,201.3589l-1.401,1.649c2.504,1.484 5.029,3.753 6.463,7.091c1.5,3.496 -0.72,11.365 0.688,11.482c3.709,0.311 7.999,-13.797 -5.75,-20.222z" fill="#5a0000"></path><path d="M265.30123,221.5809c-1.409,-0.117 0.812,-7.986 -0.688,-11.482c-1.434,-3.338 -3.959,-5.607 -6.463,-7.091l1.401,-1.649c13.748,6.425 9.458,20.533 5.75,20.222z" fill="#ff0000"></path><path d="M277.06423,210.5079c-3.935,-0.533 -3.64,-13.041 -17.143,-12.208c-0.828,-1.097 -0.029,-5.129 -0.029,-5.129c0,0 10.029,-2.827 16.84,3.579c4.27,4.017 5.853,14.505 0.332,13.758zM261.08923,194.6809l-0.164,2.158c2.898,-0.271 6.275,0.08 9.396,1.938c3.271,1.947 6.1,9.616 7.308,8.884c3.183,-1.928 -1.639,-15.864 -16.54,-12.98z" fill="#5a0000"></path><path d="M277.63023,207.6599c-1.208,0.733 -4.037,-6.936 -7.308,-8.884c-3.122,-1.858 -6.499,-2.209 -9.396,-1.938l0.164,-2.158c14.9,-2.883 19.722,11.053 16.54,12.98z" fill="#ff0000"></path><path d="M233.16823,223.5489c-4.027,3.85 -8.911,-5.564 -7.817,-11.326c1.744,-9.186 11.52,-12.793 11.52,-12.793c0,0 3.015,2.792 2.993,4.167c-11.415,7.262 -3.824,17.209 -6.696,19.952zM238.19223,203.0039l-1.402,-1.649c-13.75,6.426 -9.459,20.534 -5.749,20.222c1.408,-0.117 -0.812,-7.984 0.688,-11.48c1.432,-3.34 3.957,-5.609 6.463,-7.093z" fill="#5a0000"></path><path d="M236.79023,201.3559l1.402,1.649c-2.505,1.484 -5.03,3.753 -6.462,7.092c-1.5,3.496 0.72,11.363 -0.688,11.48c-3.712,0.313 -8.003,-13.796 5.748,-20.221z" fill="#ff0000"></path><path d="M236.41923,198.2969c-13.503,-0.833 -13.209,11.673 -17.145,12.208c-5.521,0.748 -3.938,-9.738 0.333,-13.756c6.811,-6.407 16.84,-3.58 16.84,-3.58c0,0 0.798,4.03 -0.028,5.128zM235.41323,196.8359l-0.165,-2.158c-14.899,-2.883 -19.721,11.052 -16.537,12.98c1.208,0.732 4.036,-6.938 7.306,-8.884c3.121,-1.859 6.498,-2.209 9.396,-1.938z" fill="#5a0000"></path><path d="M235.24923,194.6769l0.165,2.158c-2.898,-0.271 -6.275,0.079 -9.396,1.938c-3.27,1.946 -6.098,9.616 -7.306,8.884c-3.185,-1.927 1.637,-15.862 16.537,-12.98z" fill="#ff0000"></path><path d="M243.80623,164.5119l-1.59,2.58c-4.059,-2.501 -6.699,-8.653 -7.514,-13.271c-2.071,-0.026 -4.226,-1.127 -5.97,-3.849c-4.046,-6.314 4.822,-14.939 10.56,-9.856c5.108,4.526 2.597,10.908 -1.64,13.01c0.659,3.967 2.961,9.418 6.154,11.386zM234.99023,151.5769l1.802,-0.08c1.015,-0.273 1.968,-0.939 2.676,-2.111c0.587,-0.97 0.824,-1.903 0.704,-3.108c-0.758,-7.7 -11.015,-6.688 -9.446,0.996c0.481,2.351 2.306,3.97 4.264,4.303z" fill="#5a0000"></path><path d="M240.17223,146.2769c0.12,1.205 -0.117,2.138 -0.704,3.108c-2.466,4.081 -7.861,2.199 -8.742,-2.112c-1.569,-7.683 8.689,-8.695 9.446,-0.996z" fill="#ffffff"></path><path d="M232.68823,143.5769c0,-1.51216 1.22584,-2.738 2.738,-2.738c1.51216,0 2.738,1.22584 2.738,2.738c0,1.51216 -1.22584,2.738 -2.738,2.738c-1.51216,0 -2.738,-1.22584 -2.738,-2.738z" fill="#36952c"></path><path d="M258.15723,153.8249c-2.504,3.065 -4.926,7.873 -4.476,11.361l-3.006,0.388c-0.539,-4.176 1.831,-9.288 4.511,-12.864c-0.119,-0.086 -0.24,-0.169 -0.357,-0.266c-8.722,-7.198 3.28,-20.246 10.212,-10.219c3.502,5.069 -1.655,11.994 -6.884,11.6zM263.93723,146.5069c0,-0.087 0.001,-0.173 -0.003,-0.263c-0.008,-0.152 -0.024,-0.309 -0.042,-0.467c-0.008,-0.078 -0.013,-0.154 -0.025,-0.235c-0.036,-0.242 -0.081,-0.489 -0.143,-0.745c-1.031,-4.278 -6.488,-5.971 -8.809,-1.806c-0.555,0.99 -0.758,1.931 -0.598,3.131c0.035,0.261 0.083,0.51 0.139,0.75c0.017,0.073 0.038,0.142 0.057,0.213c0.044,0.164 0.089,0.325 0.141,0.479c0.026,0.075 0.055,0.148 0.083,0.221c0.054,0.144 0.111,0.283 0.173,0.418c0.032,0.065 0.063,0.13 0.095,0.193c0.07,0.137 0.143,0.269 0.22,0.396c0.03,0.049 0.06,0.099 0.091,0.147c0.095,0.145 0.194,0.282 0.298,0.413c0.018,0.023 0.035,0.048 0.054,0.07c1.305,1.591 3.281,2.102 4.977,1.659c0.025,-0.006 0.051,-0.015 0.076,-0.022c0.133,-0.038 0.266,-0.081 0.396,-0.13c0.037,-0.014 0.073,-0.029 0.11,-0.044c0.117,-0.049 0.233,-0.101 0.345,-0.16c0.041,-0.02 0.08,-0.041 0.12,-0.063c0.107,-0.059 0.211,-0.124 0.313,-0.193c0.039,-0.027 0.078,-0.052 0.116,-0.079c0.103,-0.074 0.2,-0.154 0.296,-0.237c0.033,-0.028 0.067,-0.054 0.098,-0.083c0.11,-0.1 0.213,-0.208 0.312,-0.321c0.014,-0.016 0.029,-0.029 0.043,-0.045c0.113,-0.133 0.218,-0.274 0.316,-0.423c0.014,-0.021 0.025,-0.045 0.039,-0.066c0.078,-0.126 0.154,-0.256 0.221,-0.393c0.026,-0.054 0.049,-0.112 0.073,-0.167c0.049,-0.11 0.096,-0.222 0.137,-0.339c0.024,-0.068 0.044,-0.14 0.065,-0.21c0.033,-0.113 0.065,-0.226 0.091,-0.343c0.017,-0.078 0.032,-0.157 0.046,-0.237c0.021,-0.119 0.037,-0.24 0.05,-0.365c0.008,-0.084 0.017,-0.169 0.022,-0.255c0.008,-0.13 0.009,-0.263 0.007,-0.399z" fill="#5a0000"></path><path d="M263.93622,146.2449c0.004,0.09 0.003,0.176 0.003,0.263c0.001,0.135 0,0.268 -0.008,0.398c-0.004,0.086 -0.013,0.171 -0.022,0.255c-0.013,0.124 -0.029,0.246 -0.05,0.365c-0.014,0.08 -0.029,0.159 -0.046,0.237c-0.027,0.117 -0.058,0.231 -0.091,0.343c-0.021,0.07 -0.041,0.142 -0.065,0.21c-0.041,0.117 -0.088,0.229 -0.137,0.339c-0.024,0.056 -0.047,0.113 -0.073,0.167c-0.068,0.137 -0.143,0.267 -0.221,0.393c-0.014,0.021 -0.025,0.045 -0.039,0.066c-0.097,0.149 -0.203,0.29 -0.316,0.423c-0.014,0.016 -0.028,0.029 -0.043,0.045c-0.099,0.113 -0.203,0.22 -0.312,0.321c-0.032,0.029 -0.066,0.055 -0.098,0.083c-0.096,0.083 -0.193,0.163 -0.296,0.237c-0.038,0.028 -0.077,0.053 -0.116,0.079c-0.101,0.068 -0.206,0.133 -0.313,0.193c-0.04,0.021 -0.08,0.042 -0.12,0.063c-0.113,0.058 -0.228,0.111 -0.345,0.16c-0.037,0.014 -0.073,0.03 -0.11,0.044c-0.129,0.049 -0.262,0.092 -0.396,0.13c-0.025,0.006 -0.051,0.015 -0.076,0.022c-1.697,0.444 -3.672,-0.068 -4.977,-1.659c-0.019,-0.023 -0.036,-0.047 -0.054,-0.07c-0.104,-0.131 -0.203,-0.268 -0.298,-0.413c-0.031,-0.047 -0.061,-0.097 -0.091,-0.147c-0.077,-0.126 -0.151,-0.258 -0.22,-0.396c-0.033,-0.063 -0.065,-0.128 -0.095,-0.193c-0.062,-0.135 -0.119,-0.274 -0.173,-0.418c-0.028,-0.073 -0.057,-0.145 -0.083,-0.221c-0.052,-0.154 -0.097,-0.315 -0.141,-0.479c-0.019,-0.071 -0.04,-0.139 -0.057,-0.213c-0.056,-0.24 -0.104,-0.489 -0.139,-0.75c-0.16,-1.2 0.043,-2.141 0.598,-3.131c2.322,-4.165 7.779,-2.472 8.809,1.806c0.062,0.256 0.108,0.504 0.143,0.745c0.011,0.08 0.016,0.156 0.025,0.235c0.018,0.159 0.034,0.316 0.043,0.468z" fill="#ffffff"></path><path d="M256.35323,143.0869c0,-1.51161 1.22539,-2.737 2.737,-2.737c1.5116,0 2.737,1.2254 2.737,2.737c0,1.51161 -1.2254,2.737 -2.737,2.737c-1.5116,0 -2.737,-1.22539 -2.737,-2.737z" fill="#36952c"></path><path d="M295.68622,173.4209c-2.187,0.522 -4.878,0.299 -7.109,0.132c-6.343,12.3 -16.776,9.924 -21.422,7.711c0.451,-0.899 0.942,-1.779 1.43,-2.659c8.516,1.372 13.614,-3.625 13.492,-6.118c-0.024,-0.462 -0.265,-1.065 -0.601,-1.368c-4.364,-4.663 -5.586,-11.535 -2.563,-16.981c1.664,-2.997 10.507,-7.865 12.291,-5.362c0.005,0.007 0.011,0.009 0.016,0.016c-1.085,2.237 0.686,5.533 0.667,6.96c-0.048,3.675 -4.186,3.005 -3.367,7.684c0.107,0.613 -0.158,1.341 0.482,1.757c0.964,-0.369 0.221,-1.982 0.679,-3.033c1.266,-2.902 4.003,-2.116 4.705,-5.096c0.675,-2.873 -2.579,-6.745 0.366,-8.762c0.968,-0.664 1.985,-0.74 2.542,-1.934c1.234,-2.65 -1.116,-5.295 1.921,-7.449c2.282,-1.619 4.599,-0.926 6.875,0.47c11.109,6.814 4.808,30.403 -10.404,34.032z" fill="#ff0000"></path><path d="M314.34823,157.6849c-1.816,8.844 -9.14,20.312 -24.814,18.781c-4.199,10.737 -17.704,10.06 -23.051,6.164c0.034,-0.053 0.078,-0.093 0.103,-0.155c0.055,-0.134 0.124,-0.26 0.184,-0.39l-0.286,0.545l-0.774,-0.769l2.125,-4.338h1.329c7.073,0.083 9.18,-2.81 10.648,-5.171c-0.047,-0.041 -0.093,-0.085 -0.134,-0.137c-0.77,-0.986 -2.983,-4.087 -3.992,-6.799c-1.635,-4.405 0.125,-11.106 3.351,-14.336c5,-5.011 12.644,-6.352 14.499,-4.167c3.89,-2.019 0.709,-5.771 2.126,-8.785c1.145,-2.44 4.002,-3.914 6.104,-3.506c10.974,2.129 14.487,13.783 12.582,23.063zM306.09022,139.3899c-2.276,-1.396 -4.593,-2.089 -6.875,-0.47c-3.037,2.154 -0.687,4.799 -1.921,7.449c-0.557,1.194 -1.574,1.27 -2.542,1.934c-2.945,2.017 0.309,5.889 -0.366,8.762c-0.702,2.98 -3.439,2.194 -4.705,5.096c-0.458,1.051 0.285,2.664 -0.679,3.033c-0.639,-0.416 -0.375,-1.144 -0.482,-1.757c-0.82,-4.679 3.319,-4.009 3.367,-7.684c0.019,-1.427 -1.752,-4.722 -0.667,-6.96c-0.005,-0.007 -0.011,-0.009 -0.016,-0.016c-1.784,-2.503 -10.627,2.365 -12.291,5.362c-3.024,5.446 -1.801,12.318 2.563,16.981c0.336,0.303 0.578,0.906 0.601,1.368c0.122,2.492 -4.972,7.486 -13.483,6.119l-1.402,2.674c4.663,2.209 15.059,4.543 21.386,-7.727c2.231,0.167 4.921,0.39 7.109,-0.132c15.211,-3.63 21.512,-27.219 10.403,-34.032z" fill="#5a0000"></path><path d="M228.54123,181.3899c-4.77,2.169 -14.924,4.223 -21.146,-7.84c-2.231,0.167 -4.921,0.389 -7.109,-0.133c-15.209,-3.629 -21.512,-27.219 -10.403,-34.031c2.276,-1.396 4.591,-2.09 6.875,-0.47c3.037,2.153 0.685,4.798 1.92,7.448c0.557,1.195 1.575,1.272 2.543,1.934c2.945,2.019 -0.31,5.89 0.366,8.763c0.701,2.981 3.439,2.195 4.704,5.097c0.459,1.051 -0.284,2.664 0.678,3.032c0.64,-0.415 0.377,-1.143 0.484,-1.756c0.819,-4.679 -3.319,-4.009 -3.368,-7.684c-0.019,-1.467 1.853,-4.906 0.571,-7.145c2.229,-1.85 10.463,2.574 12.105,5.414c3.118,5.394 2.253,12.167 -2.034,16.906c-0.017,0.021 -0.027,0.04 -0.043,0.061c-0.431,0.213 -0.76,0.956 -0.786,1.5c-0.122,2.461 4.847,7.352 13.164,6.16c0.397,0.961 0.897,1.874 1.479,2.744z" fill="#ff0000"></path><path d="M230.58423,181.7979l-1.137,0.85c-5.369,3.872 -18.816,4.527 -23.008,-6.186c-15.673,1.529 -22.998,-9.938 -24.813,-18.783c-1.905,-9.279 1.608,-20.933 12.583,-23.063c2.101,-0.407 4.958,1.066 6.106,3.506c1.394,2.967 -1.674,6.65 1.935,8.691c2.163,-1.882 9.442,-0.585 14.336,4.15c3.281,3.174 5.16,9.842 3.6,14.275c-0.959,2.729 -3.118,5.868 -3.872,6.868c-0.053,0.068 -0.115,0.132 -0.183,0.193c1.459,2.353 3.532,5.257 10.526,5.219l1.052,-0.282zM228.54223,181.3909l-1.688,-2.717l-0.001,-0.006c-8.188,1.078 -13.075,-3.743 -12.954,-6.182c0.026,-0.545 0.355,-1.288 0.786,-1.5c0.016,-0.021 0.026,-0.04 0.043,-0.061c4.287,-4.739 5.152,-11.512 2.034,-16.906c-1.642,-2.841 -9.876,-7.265 -12.105,-5.414c1.282,2.239 -0.59,5.678 -0.571,7.145c0.049,3.675 4.187,3.005 3.368,7.684c-0.107,0.613 0.156,1.341 -0.484,1.756c-0.962,-0.368 -0.219,-1.981 -0.678,-3.032c-1.265,-2.902 -4.003,-2.116 -4.704,-5.097c-0.676,-2.873 2.579,-6.744 -0.366,-8.763c-0.968,-0.662 -1.986,-0.739 -2.543,-1.934c-1.235,-2.65 1.117,-5.295 -1.92,-7.448c-2.284,-1.62 -4.599,-0.926 -6.875,0.47c-11.11,6.812 -4.807,30.402 10.402,34.03c2.188,0.522 4.878,0.3 7.109,0.133c6.222,12.063 16.377,10.01 21.147,7.842z" fill="#5a0000"></path><path d="M248.17623,165.5759c7.812,-0.037 17.913,2.925 19.028,7.236c0.964,3.714 -0.771,7.033 -2.814,9.973c-3.48,5.01 -4.48,11.894 -7.184,16.896c-1.828,3.385 -5.546,4.95 -9.03,4.811c-3.483,0.14 -7.203,-1.426 -9.03,-4.811c-2.702,-5.004 -4.17,-11.888 -7.65,-16.896c-2.042,-2.939 -3.778,-6.259 -2.816,-9.973c1.117,-4.31 11.683,-7.272 19.496,-7.236z" fill="#ff0000"></path><path d="M267.88423,182.0819c-4.316,5.493 -6.685,19.427 -8.683,21.824c-2.512,3.012 -6.725,3.32 -10.978,3.324c-4.351,-0.004 -8.563,-0.312 -11.074,-3.324c-1.999,-2.397 -4.367,-16.331 -8.683,-21.824c-3.906,-4.971 -4.432,-11.422 0,-14.491c4.52,-3.13 12.085,-4.263 19.658,-4.263h0.102c7.573,0 15.138,1.132 19.657,4.263c4.433,3.07 3.906,9.521 0.001,14.491zM267.20423,172.8129c-1.115,-4.311 -11.216,-7.273 -19.028,-7.236c-7.813,-0.037 -18.379,2.925 -19.496,7.236c-0.962,3.714 0.774,7.034 2.816,9.973c3.48,5.008 4.948,11.892 7.65,16.896c1.827,3.385 5.547,4.951 9.03,4.811c3.484,0.139 7.202,-1.426 9.03,-4.811c2.704,-5.002 3.704,-11.886 7.184,-16.896c2.043,-2.941 3.778,-6.259 2.814,-9.973z" fill="#5a0000"></path></g></g></svg>