<svg version="1.1" xmlns="http://www.w3.org/2000/svg" xmlns:xlink="http://www.w3.org/1999/xlink" width="79.86759" height="126.4157" viewBox="0,0,79.86759,126.4157"><g transform="translate(-200.0662,-116.79215)"><g data-paper-data="{&quot;isPaintingLayer&quot;:true}" stroke-miterlimit="10" stroke-dasharray="" stroke-dashoffset="0" style="mix-blend-mode: normal"><path d="M202.56621,240.70785v-121.4157h74.86759v121.4157z" fill="#ffffff" fill-rule="nonzero" stroke="none" stroke-width="0" stroke-linecap="butt" stroke-linejoin="miter"></path><path d="M216.34363,136.23222c2,1.5 0.5,3.5 0.5,3.5l-0.53675,-0.11765c-0.09036,1.9359 -0.50522,2.24023 0.96048,3.72707c0.7724,0.78355 2.73492,1.50362 3.4073,0.12764c0.58118,-1.18935 0.21832,-2.58276 -0.00028,-3.77362c-0.5993,-3.26481 -2.2516,-7.82724 -5.17256,-9.77022c-2.52545,-1.6799 -5.18893,-1.43144 -7.78812,-2.49673c-1.10641,-0.45346 -1.97519,-1.34822 -2.96279,-2.02233c0,0 -2.03433,-1.4531 -0.58124,-3.48743c1.45309,-2.03433 3.48743,-0.58124 3.48743,-0.58124c3.11021,2.3774 7.29962,2.09298 10.6754,4.46617c4.00904,2.81837 6.4665,8.35971 7.26852,13.03842c0.41713,2.43338 0.80902,5.00751 -0.69146,7.28512c-2.57769,3.9127 -7.92459,3.98298 -11.10729,0.81882c-2.95039,-2.9332 -2.39678,-3.81657 -2.49537,-7.33166l1.53675,-2.88235c0,0 1.5,-2 3.5,-0.5z" fill="#ff0000" fill-rule="nonzero" stroke="none" stroke-width="0.5" stroke-linecap="butt" stroke-linejoin="miter"></path><path d="M259.98786,123.525c1.92055,1.60046 0.32009,3.52101 0.32009,3.52101l-2.73082,2.79854c-2.11486,-0.11204 -4.18305,-0.69531 -6.29369,-0.86965c-1.91975,-0.15857 -2.84421,0.91926 -4.78223,1.03538c-1.20783,0.07237 -2.41101,-0.21235 -3.61267,-0.35405c-1.09044,-0.12858 -2.21754,-0.1185 -3.26216,-0.45664c-1.28848,-0.41707 -2.43498,-2.20995 -3.68985,-1.70062c-2.72752,1.10706 -4.35566,4.82289 -8.24217,3.8225c-2.15865,-0.55564 -3.40658,-2.87568 -5.12038,-4.30096c0,0 -1.92056,-1.60046 -0.3201,-3.52102c1.60046,-1.92055 3.52102,-0.32009 3.52102,-0.32009c1.17188,0.97839 1.81014,2.61538 3.17367,3.30192c0.29852,0.1503 0.53643,-0.40035 0.82139,-0.57499c1.63093,-0.99953 2.90028,-2.75713 4.75986,-3.20539c2.23743,-0.53934 4.50205,1.00459 6.67771,1.75523c3.74176,1.29099 6.78722,-0.67176 10.46041,-0.46648c0.86338,0.04825 3.01128,0.83344 4.07388,1.20386l0.72503,-1.34848c0,0 1.60046,-1.92055 3.52102,-0.32009z" fill="#ff0000" fill-rule="nonzero" stroke="none" stroke-width="0.5" stroke-linecap="butt" stroke-linejoin="miter"></path><path d="M269.12684,137.23961l1.53676,2.88234c-0.09859,3.51508 0.45501,4.39846 -2.49538,7.33166c-3.1827,3.16416 -8.52961,3.09389 -11.1073,-0.81882c-1.50048,-2.2776 -1.10858,-4.85173 -0.69145,-7.28511c0.80202,-4.67871 3.25947,-10.22005 7.26851,-13.03842c3.37578,-2.37319 7.56518,-2.08877 10.67539,-4.46617c0,0 2.03433,-1.4531 3.48743,0.58124c1.4531,2.03433 -0.58124,3.48743 -0.58124,3.48743c-0.98759,0.67411 -1.85638,1.56886 -2.96279,2.02232c-2.59919,1.06529 -5.26266,0.81683 -7.78811,2.49673c-2.92097,1.94298 -4.57326,6.50541 -5.17256,9.77023c-0.2186,1.19086 -0.58146,2.58427 -0.00029,3.77362c0.67237,1.37598 2.63489,0.65591 3.4073,-0.12764c1.46569,-1.48684 1.05085,-1.79117 0.96048,-3.72708l-0.53676,0.11766c0,0 -1.5,-2 0.5,-3.5c2,-1.5 3.5,0.5 3.5,0.5z" data-paper-data="{&quot;index&quot;:null}" fill="#ff0000" fill-rule="nonzero" stroke="none" stroke-width="0.5" stroke-linecap="butt" stroke-linejoin="miter"></path><path d="M211.2775,224.862l-1.53675,-2.88235c0.09859,-3.51508 -0.45501,-4.39846 2.49537,-7.33166c3.1827,-3.16416 8.52961,-3.09389 11.10729,0.81882c1.50048,2.2776 1.10859,4.85173 0.69146,7.28512c-0.80202,4.67871 -3.25947,10.22005 -7.26852,13.03842c-3.37578,2.37319 -7.56519,2.08877 -10.6754,4.46617c0,0 -2.03433,1.45309 -3.48743,-0.58124c-1.45309,-2.03433 0.58124,-3.48743 0.58124,-3.48743c0.98759,-0.67411 1.85638,-1.56886 2.96279,-2.02232c2.59919,-1.06528 5.26266,-0.81683 7.78812,-2.49673c2.92096,-1.94298 4.57326,-6.50541 5.17256,-9.77023c0.2186,-1.19086 0.58146,-2.58427 0.00028,-3.77362c-0.67237,-1.37598 -2.63489,-0.6559 -3.4073,0.12764c-1.4657,1.48684 -1.05084,1.79117 -0.96048,3.72707l0.53675,-0.11765c0,0 1.5,2 -0.5,3.5c-2,1.5 -3.5,-0.5 -3.5,-0.5z" data-paper-data="{&quot;index&quot;:null}" fill="#ff0000" fill-rule="nonzero" stroke="none" stroke-width="0.5" stroke-linecap="butt" stroke-linejoin="miter"></path><path d="M254.90072,237.74912l-0.72503,-1.34849c-1.0626,0.37043 -3.2105,1.15562 -4.07388,1.20387c-3.67319,0.20529 -6.71865,-1.75746 -10.46041,-0.46648c-2.17566,0.75065 -4.44028,2.29458 -6.67771,1.75523c-1.85958,-0.44826 -3.12893,-2.20587 -4.75986,-3.2054c-0.28496,-0.17464 -0.52287,-0.72529 -0.82139,-0.57499c-1.36353,0.68653 -2.00179,2.32353 -3.17367,3.30192c0,0 -1.92056,1.60047 -3.52102,-0.32009c-1.60046,-1.92056 0.3201,-3.52102 0.3201,-3.52102c1.7138,-1.42528 2.96173,-3.74532 5.12038,-4.30096c3.88651,-1.00039 5.51465,2.71544 8.24217,3.8225c1.25487,0.50933 2.40138,-1.28355 3.68985,-1.70062c1.04462,-0.33813 2.17173,-0.32805 3.26216,-0.45664c1.20166,-0.1417 2.40484,-0.42642 3.61267,-0.35405c1.93802,0.11613 2.86248,1.19395 4.78223,1.03538c2.11064,-0.17434 4.17883,-0.75761 6.29369,-0.86965l2.73082,2.79854c0,0 1.60046,1.92056 -0.32009,3.52102c-1.92055,1.60046 -3.52102,-0.32009 -3.52102,-0.32009z" data-paper-data="{&quot;index&quot;:null}" fill="#ff0000" fill-rule="nonzero" stroke="none" stroke-width="0.5" stroke-linecap="butt" stroke-linejoin="miter"></path><path d="M264.06072,224.85461c-2,-1.5 -0.5,-3.5 -0.5,-3.5l0.53676,0.11766c0.09037,-1.9359 0.50521,-2.24024 -0.96048,-3.72708c-0.7724,-0.78355 -2.73492,-1.50362 -3.4073,-0.12764c-0.58117,1.18935 -0.21831,2.58276 0.00029,3.77362c0.5993,3.26481 2.2516,7.82724 5.17256,9.77023c2.52546,1.6799 5.18892,1.43144 7.78811,2.49673c1.10641,0.45346 1.9752,1.34821 2.96279,2.02232c0,0 2.03433,1.4531 0.58124,3.48743c-1.4531,2.03433 -3.48743,0.58124 -3.48743,0.58124c-3.11021,-2.3774 -7.29961,-2.09298 -10.67539,-4.46616c-4.00905,-2.81837 -6.4665,-8.35971 -7.26852,-13.03842c-0.41713,-2.43338 -0.80902,-5.00751 0.69146,-7.28511c2.57769,-3.9127 7.92459,-3.98298 11.10729,-0.81882c2.95038,2.9332 2.39678,3.81658 2.49538,7.33166l-1.53676,2.88234c0,0 -1.5,2 -3.5,0.5z" data-paper-data="{&quot;index&quot;:null}" fill="#ff0000" fill-rule="nonzero" stroke="none" stroke-width="0.5" stroke-linecap="butt" stroke-linejoin="miter"></path><path d="M208.57619,154.75491c0.411,-2.46598 2.87699,-2.05499 2.87699,-2.05499l3.43028,1.04381c2.73,2.74486 4.85161,5.89229 7.59857,8.63533c0.00143,0.00143 0.00288,0.00287 0.00431,0.0043c0.61394,0.61394 0.80144,1.22787 0.78466,1.76776c0.01678,0.53989 -0.17072,1.15383 -0.78466,1.76777c-0.09358,0.09358 -0.18716,0.17725 -0.28047,0.2518l-0.93812,0.84221c-1.35046,0.76498 -4.8406,2.4369 -5.61276,3.86661c-0.87026,1.61137 -0.29128,3.65156 -0.38745,5.48039c-0.15032,2.85874 0.38474,5.1103 0.67501,7.8753c0.31549,3.00523 -0.1832,6.34699 0.623,9.32843c0.75415,2.78898 5.99689,7.5351 5.56439,10.1453c-0.26731,1.61331 -2.38918,2.26717 -3.7802,3.12699c-0.73323,0.45323 -6.75939,2.59713 -7.48996,2.86286c0,0 -2.34948,0.85436 -3.20384,-1.49513c-0.85436,-2.34948 1.49513,-3.20384 1.49513,-3.20384c1.25475,-0.45616 2.51607,-0.89468 3.76427,-1.36849c1.09361,-0.41512 2.11714,-1.05031 3.26036,-1.29802c0.36432,-0.07894 1.35725,0.5846 1.058,0.36232c-0.49624,-0.3686 -1.24424,-0.36239 -1.66624,-0.8141c-4.67363,-5.00266 -3.93772,-10.88035 -4.58745,-17.03541c-0.31597,-2.99325 -0.87037,-5.61771 -0.70734,-8.71279c0.04261,-0.80886 0.53575,-6.79797 0.99489,-7.65185c0.95397,-1.77411 3.52399,-3.47196 5.67513,-4.74465c-1.86328,-2.16184 -3.55812,-4.4336 -5.59477,-6.45757l-0.71674,0.35263c0,0 -2.46599,-0.411 -2.05499,-2.87698z" fill="#ff0000" fill-rule="nonzero" stroke="none" stroke-width="0.5" stroke-linecap="butt" stroke-linejoin="miter"></path><path d="M271.07257,156.41135l-0.71674,-0.35263c-2.03665,2.02397 -3.73149,4.29573 -5.59477,6.45757c2.15114,1.27269 4.72116,2.97054 5.67513,4.74465c0.45914,0.85388 0.95228,6.84299 0.99489,7.65185c0.16304,3.09509 -0.39137,5.71955 -0.70734,8.7128c-0.64972,6.15506 0.08619,12.03275 -4.58745,17.03541c-0.422,0.45171 -1.17,0.4455 -1.66624,0.8141c-0.29925,0.22228 0.69368,-0.44126 1.058,-0.36232c1.14322,0.24771 2.16675,0.8829 3.26036,1.29802c1.2482,0.47381 2.50952,0.91233 3.76427,1.36849c0,0 2.34948,0.85435 1.49512,3.20384c-0.85436,2.34948 -3.20384,1.49513 -3.20384,1.49513c-0.73057,-0.26573 -6.75673,-2.40963 -7.48996,-2.86286c-1.39101,-0.85983 -3.51288,-1.51368 -3.7802,-3.12699c-0.4325,-2.61021 4.81024,-7.35632 5.56439,-10.1453c0.8062,-2.98144 0.3075,-6.32319 0.623,-9.32843c0.29027,-2.76501 0.82532,-5.01656 0.67501,-7.8753c-0.09616,-1.82883 0.48282,-3.86902 -0.38745,-5.48039c-0.77215,-1.42971 -4.2623,-3.10162 -5.61276,-3.86661l-0.93811,-0.84221c-0.09332,-0.07455 -0.1869,-0.15822 -0.28048,-0.2518c-0.61394,-0.61394 -0.80144,-1.22788 -0.78465,-1.76777c-0.01679,-0.53989 0.17071,-1.15382 0.78465,-1.76776c0.00144,-0.00143 0.00287,-0.00287 0.00431,-0.0043c2.74696,-2.74304 4.86858,-5.89048 7.59857,-8.63533l3.43028,-1.04381c0,0 2.46599,-0.411 2.87698,2.05499c0.411,2.46598 -2.05499,2.87698 -2.05499,2.87698z" data-paper-data="{&quot;index&quot;:null}" fill="#ff0000" fill-rule="nonzero" stroke="none" stroke-width="0.5" stroke-linecap="butt" stroke-linejoin="miter"></path><path d="M252.16686,152.48212c-1.88105,0 -2.34676,-1.41534 -2.46206,-2.11616c-2.68085,-4.53694 -6.2523,-6.18594 -11.43769,-4.87233c-1.40539,0.35602 -3.07117,0.27218 -4.17813,1.2084c-1.5322,1.29585 -1.90023,3.53673 -2.93261,5.2575c0,0 -1.28624,2.14373 -3.42997,0.8575c-2.14373,-1.28624 -0.85749,-3.42997 -0.85749,-3.42997c0.01695,-0.02825 3.75248,-6.30497 3.9791,-6.4924c0.93469,-0.77308 4.75935,-1.89389 6.18943,-2.24746c7.69096,-1.90147 13.33942,0.99801 17.30004,7.74899l0.3294,1.58593c0,0 0,2.5 -2.5,2.5z" fill="#ff0000" fill-rule="nonzero" stroke="none" stroke-width="0.5" stroke-linecap="butt" stroke-linejoin="miter"></path><path d="M254.13749,209.4893l-0.3294,1.58593c-3.96061,6.75098 -9.60908,9.65046 -17.30004,7.749c-1.43008,-0.35357 -5.25474,-1.47438 -6.18943,-2.24746c-0.22662,-0.18743 -3.96215,-6.46415 -3.9791,-6.4924c0,0 -1.28624,-2.14373 0.85749,-3.42997c2.14373,-1.28624 3.42997,0.8575 3.42997,0.8575c1.03238,1.72077 1.40041,3.96165 2.93261,5.2575c1.10697,0.93622 2.77274,0.85238 4.17813,1.2084c5.1854,1.3136 8.75685,-0.3354 11.43769,-4.87234c0.1153,-0.70082 0.58101,-2.11615 2.46206,-2.11615c2.5,0 2.5,2.5 2.5,2.5z" data-paper-data="{&quot;index&quot;:null}" fill="#ff0000" fill-rule="nonzero" stroke="none" stroke-width="0.5" stroke-linecap="butt" stroke-linejoin="miter"></path><path d="M253.55723,133.9903c0.83739,2.35558 -1.5182,3.19297 -1.5182,3.19297l-2.22042,0.7472c-2.22012,1.77593 -3.21636,3.30927 -6.75321,2.1353c-0.52598,-0.17459 -2.90045,-3.28221 -3.93934,-3.82305c-0.79944,-0.41619 -5.6589,4.561 -5.74958,4.55634c-3.30423,-0.16994 -4.2108,-4.14631 -5.02664,-6.35492c0,0 -0.83738,-2.35558 1.5182,-3.19297c2.35558,-0.83739 3.19297,1.5182 3.19297,1.5182c0.15228,0.45251 0.36783,0.89131 0.5306,1.34154c1.67382,-2.15407 3.93288,-3.46063 6.86939,-2.6867c1.93923,0.5111 2.96346,2.70377 4.48595,4.00908c0.76302,0.65418 1.63693,-1.17314 2.3872,-1.84189l3.0301,-1.1193c0,0 2.35558,-0.83738 3.19297,1.5182z" data-paper-data="{&quot;index&quot;:null}" fill="#ff0000" fill-rule="nonzero" stroke="none" stroke-width="0.5" stroke-linecap="butt" stroke-linejoin="miter"></path><path d="M248.79814,228.72095l-3.0301,-1.1193c-0.75027,-0.66876 -1.62418,-2.49607 -2.3872,-1.84189c-1.52249,1.30532 -2.54672,3.49798 -4.48595,4.00908c-2.93651,0.77393 -5.19557,-0.53263 -6.86939,-2.68669c-0.16277,0.45023 -0.37832,0.88903 -0.5306,1.34154c0,0 -0.83739,2.35559 -3.19297,1.51821c-2.35558,-0.83739 -1.5182,-3.19297 -1.5182,-3.19297c0.81584,-2.20861 1.72242,-6.18499 5.02664,-6.35493c0.09069,-0.00466 4.95014,4.97253 5.74958,4.55634c1.03888,-0.54084 3.41336,-3.64846 3.93934,-3.82305c3.53685,-1.17398 4.53308,0.35937 6.75321,2.1353l2.22042,0.74719c0,0 2.35559,0.83739 1.5182,3.19297c-0.83739,2.35558 -3.19297,1.5182 -3.19297,1.5182z" data-paper-data="{&quot;index&quot;:null}" fill="#ff0000" fill-rule="nonzero" stroke="none" stroke-width="0.5" stroke-linecap="butt" stroke-linejoin="miter"></path><path d="M221.70217,185.74229c1.58895,-1.05816 3.62517,-1.21622 5.36988,-1.99109c1.82639,-0.81115 3.46204,-2.00208 5.24928,-2.89619c0.7582,-0.3793 1.82369,-0.30303 2.35309,-0.9652c0.25151,-0.31459 -0.0892,-0.8328 0.0603,-1.20679c0.72053,-1.8025 -0.01016,-3.95052 0.6034,-5.79218c0.29681,-0.8909 1.38739,-1.26679 2.05139,-1.93079c0.64389,-0.64389 0.62991,-1.84817 1.3877,-2.35309c0.91562,-0.61009 1.89206,-1.12358 2.83569,-1.68939c1.02065,-0.612 1.88721,-1.81019 3.07728,-1.81019c1.13856,0 2.13093,0.86444 3.25799,1.02589c2.0347,0.29148 4.0743,0.83086 5.91297,1.74969c0.76241,0.381 0.37192,1.70417 0.8446,2.41339c0.94658,1.42025 2.15094,3.08289 1.87049,4.76648c-0.19171,1.15083 -1.61834,1.75255 -2.05139,2.83589c-0.20755,0.51922 1.0257,0.76823 1.0257,1.32739c0,0.28586 -0.4152,0.40805 -0.54309,0.6637c-0.68107,1.36141 -2.24209,2.06099 -3.31849,3.13739c-0.61085,0.61085 -0.26642,2.08005 -1.086,2.35309c-0.62503,0.20823 -1.28093,-0.31405 -1.93079,-0.4223c-0.8056,-0.13419 -1.65504,-0.11935 -2.41339,-0.42249c-0.79777,-0.3189 -0.74744,-1.5991 -1.38769,-2.17199c-0.99204,-0.88767 -2.32406,-1.31519 -3.55989,-1.81c-0.39387,-0.1577 -0.42812,-0.73321 -0.6635,-1.08619c-0.80162,-1.20211 -1.91351,-2.17678 -2.71528,-3.37879" fill-opacity="0" fill="#000000" fill-rule="evenodd" stroke="none" stroke-width="2" stroke-linecap="square" stroke-linejoin="miter"></path><path d="M258.83252,199.2587l-36.5843,-0.443c0,0 -0.25543,-13.25637 -0.13054,-13.32528c1.51836,-0.83772 3.35832,-1.0304 4.95435,-1.73923c1.82639,-0.81115 3.46204,-2.00208 5.24928,-2.89619c0.7582,-0.3793 1.82369,-0.30303 2.35309,-0.9652c0.25151,-0.31459 -0.0892,-0.8328 0.0603,-1.20679c0.72053,-1.8025 -0.01016,-3.95052 0.6034,-5.79218c0.29681,-0.8909 1.38739,-1.26679 2.05139,-1.93079c0.64389,-0.64389 0.62991,-1.84817 1.3877,-2.35309c0.91562,-0.61009 1.89206,-1.12358 2.83569,-1.68939c1.02065,-0.612 1.88721,-1.81019 3.07728,-1.81019c1.13856,0 2.13093,0.86444 3.25799,1.02589c2.0347,0.29148 4.0743,0.83086 5.91297,1.74969c0.76241,0.381 0.37192,1.70417 0.8446,2.41339c0.94658,1.42025 2.15094,3.08289 1.87049,4.76648c-0.19171,1.15083 -1.61834,1.75255 -2.05139,2.83589c-0.20755,0.51922 1.0257,0.76823 1.0257,1.32739c0,0.28586 -0.4152,0.40805 -0.54309,0.6637c-0.68107,1.36141 -2.24209,2.06099 -3.31849,3.13739c-0.61085,0.61085 -0.26642,2.08005 -1.086,2.35309c-0.62503,0.20823 -1.28093,-0.31405 -1.93079,-0.4223c-0.8056,-0.13419 -1.65504,-0.11935 -2.41339,-0.42249c-0.79777,-0.3189 -0.74744,-1.5991 -1.38769,-2.17199c-0.99204,-0.88767 -2.32406,-1.31519 -3.55989,-1.81c-0.39387,-0.1577 -0.42812,-0.73321 -0.6635,-1.08619c-0.58909,-0.8834 -1.34574,-1.64397 -2.02374,-2.46221c-0.24461,-0.2952 -3.18226,-3.30118 -3.39482,-3.61986" fill="none" fill-rule="evenodd" stroke="#ff0000" stroke-width="2" stroke-linecap="butt" stroke-linejoin="round"></path><path d="M238.83748,167.52096c-0.54763,-1.64376 -0.8446,-3.39609 -0.8446,-5.12868c0,-0.64854 -0.31485,-1.59682 0.2412,-1.9306c1.9938,-1.1968 3.37472,3.23518 5.30958,4.52509" fill-opacity="0" fill="#000000" fill-rule="evenodd" stroke="none" stroke-width="2" stroke-linecap="square" stroke-linejoin="miter"></path><path d="M238.83748,167.52096c-0.54763,-1.64376 -0.8446,-3.39609 -0.8446,-5.12868c0,-0.64854 -0.31485,-1.59682 0.2412,-1.9306c1.9938,-1.1968 3.37472,3.23518 5.30958,4.52509" fill="none" fill-rule="evenodd" stroke="#ff0000" stroke-width="2" stroke-linecap="butt" stroke-linejoin="round"></path><path d="M253.92144,167.64151c1.11156,-1.11156 3.65314,-2.63525 4.52528,-1.32739c0.37956,0.56919 -0.53897,1.25851 -0.84479,1.87049c-0.47377,0.94805 -1.00088,1.90476 -1.7497,2.65479" fill-opacity="0" fill="#000000" fill-rule="evenodd" stroke="none" stroke-width="2" stroke-linecap="square" stroke-linejoin="miter"></path><path d="M253.92144,167.64151c1.11156,-1.11156 3.65314,-2.63525 4.52528,-1.32739c0.37956,0.56919 -0.53897,1.25851 -0.84479,1.87049c-0.47377,0.94805 -1.00088,1.90476 -1.7497,2.65479" fill="none" fill-rule="evenodd" stroke="#ff0000" stroke-width="2" stroke-linecap="butt" stroke-linejoin="round"></path><path d="M238.89794,167.15896c0.14847,0.44541 0.16406,0.92458 0.2412,1.3877" fill-opacity="0" fill="#000000" fill-rule="evenodd" stroke="none" stroke-width="2" stroke-linecap="square" stroke-linejoin="miter"></path><path d="M238.89794,167.15896c0.14847,0.44541 0.16406,0.92458 0.2412,1.3877" fill="none" fill-rule="evenodd" stroke="#ff0000" stroke-width="2" stroke-linecap="butt" stroke-linejoin="round"></path><path d="M253.49914,182.12211c0.70024,1.16718 0.89718,2.57024 1.3274,3.86158c0.4132,1.24025 1.77629,2.08928 1.99109,3.37879c0.26511,1.59152 0.18395,3.22319 0.362,4.82678c0.20402,1.83751 0.7843,3.64187 0.7843,5.49067" fill-opacity="0" fill="#000000" fill-rule="evenodd" stroke="none" stroke-width="2" stroke-linecap="square" stroke-linejoin="miter"></path><path d="M253.49914,182.12211c0.70024,1.16718 0.89718,2.57024 1.3274,3.86158c0.4132,1.24025 1.77629,2.08928 1.99109,3.37879c0.26511,1.59152 0.18395,3.22319 0.362,4.82678c0.20402,1.83751 0.7843,3.64187 0.7843,5.49067" fill="none" fill-rule="evenodd" stroke="#ff0000" stroke-width="2" stroke-linecap="butt" stroke-linejoin="round"></path><path d="M245.50839,173.97684c-1.17644,-0.47983 -2.68703,-0.47283 -3.4868,-1.56879c-0.65428,-0.89659 -0.77087,-2.89918 0.1056,-3.49939c1.50076,-1.02773 4.131,0.324 4.91324,2.11169c0.46091,1.05336 1.24734,2.79292 0.42256,3.49958c-0.17021,0.14584 -0.39864,-0.17673 -0.58114,-0.3017c-0.47205,-0.32326 -1.08722,-0.2414 -1.63763,-0.2414" fill-opacity="0" fill="#000000" fill-rule="evenodd" stroke="none" stroke-width="2" stroke-linecap="square" stroke-linejoin="miter"></path><path d="M245.50839,173.97684c-1.17644,-0.47983 -2.68703,-0.47283 -3.4868,-1.56879c-0.65428,-0.89659 -0.77087,-2.89918 0.1056,-3.49939c1.50076,-1.02773 4.131,0.324 4.91324,2.11169c0.46091,1.05336 1.24734,2.79292 0.42256,3.49958c-0.17021,0.14584 -0.39864,-0.17673 -0.58114,-0.3017c-0.47205,-0.32326 -1.08722,-0.2414 -1.63763,-0.2414" fill="none" fill-rule="evenodd" stroke="#ff0000" stroke-width="2" stroke-linecap="butt" stroke-linejoin="round"></path><path d="M250.48236,179.88988c0,-0.3218 0.11961,-0.66665 0,-0.9654c-0.14284,-0.35676 -0.8448,-0.4002 -0.8448,-0.78449c0,-0.346 0.34065,-0.61948 0.6034,-0.8446c0.84677,-0.72552 2.44781,-0.27436 3.31848,0.4223c0.14818,0.11856 -0.13899,0.38513 -0.3017,0.4828c-0.81337,0.48823 -0.58793,2.6433 -1.5083,2.41339c-0.33399,-0.08343 -0.68812,0.18807 -1.0257,0.1206c-0.33758,-0.06747 -0.1208,-0.68143 -0.1208,-1.0257" fill-opacity="0" fill="#000000" fill-rule="evenodd" stroke="none" stroke-width="2" stroke-linecap="square" stroke-linejoin="miter"></path><path d="M250.48236,179.88988c0,-0.3218 0.11961,-0.66665 0,-0.9654c-0.14284,-0.35676 -0.8448,-0.4002 -0.8448,-0.78449c0,-0.346 0.34065,-0.61948 0.6034,-0.8446c0.84677,-0.72552 2.44781,-0.27436 3.31848,0.4223c0.14818,0.11856 -0.13899,0.38513 -0.3017,0.4828c-0.81337,0.48823 -0.58793,2.6433 -1.5083,2.41339c-0.33399,-0.08343 -0.68812,0.18807 -1.0257,0.1206c-0.33758,-0.06747 -0.23748,-0.50641 -0.23748,-0.85067" fill="none" fill-rule="evenodd" stroke="#ff0000" stroke-width="1" stroke-linecap="butt" stroke-linejoin="round"></path><path d="M256.21423,191.89647c0,1.49172 -0.46637,2.98238 -0.3017,4.46498c0.09993,0.89972 0.86972,2.30973 0.0603,2.71509c-1.27564,0.63885 -2.42964,-1.87404 -2.77539,-3.25818c-0.25091,-1.00445 0.22477,-2.2689 -0.4223,-3.07709c-0.47867,-0.59785 -1.57584,-0.14894 -2.23249,-0.5431c-1.48934,-0.89399 -2.30773,-2.72256 -3.86139,-3.49939c-1.72776,-0.86388 -3.95505,-0.45383 -5.61128,-1.448c-1.18433,-0.7109 -0.70989,-2.67168 -1.14649,-3.98218c-0.27155,-0.8151 -1.39342,-1.02443 -2.17199,-1.38769c-1.02859,-0.47992 -1.86508,-1.37771 -2.95649,-1.68939" fill-opacity="0" fill="#000000" fill-rule="evenodd" stroke="none" stroke-width="2" stroke-linecap="square" stroke-linejoin="miter"></path><path d="M256.21423,191.89647c0,1.49172 -0.46637,2.98238 -0.3017,4.46498c0.09993,0.89972 0.86972,2.30973 0.0603,2.71509c-1.27564,0.63885 -2.42964,-1.87404 -2.77539,-3.25818c-0.25091,-1.00445 0.22477,-2.2689 -0.4223,-3.07709c-0.47867,-0.59785 -1.57584,-0.14894 -2.23249,-0.5431c-1.48934,-0.89399 -2.30773,-2.72256 -3.86139,-3.49939c-1.72776,-0.86388 -3.95505,-0.45383 -5.61128,-1.448c-1.18433,-0.7109 -0.70989,-2.67168 -1.14649,-3.98218c-0.27155,-0.8151 -1.39342,-1.02443 -2.17199,-1.38769c-1.02859,-0.47992 -1.86508,-1.37771 -2.95649,-1.68939" fill="none" fill-rule="evenodd" stroke="#ff0000" stroke-width="2" stroke-linecap="butt" stroke-linejoin="round"></path><path d="M238.11346,176.45049c-1.03118,-1.10247 -1.59922,-2.6114 -2.47365,-3.85959" fill-opacity="0" fill="#000000" fill-rule="evenodd" stroke="none" stroke-width="2" stroke-linecap="square" stroke-linejoin="miter"></path><path d="M254.48386,171.86914c0.44827,0 0.99083,-0.20707 1.34085,0.1206c0.43286,0.40522 0.12209,1.28971 0.20633,1.93079c0.03046,0.23183 0.38391,0.38565 0.3094,0.6034c-0.22691,0.66306 -1.19458,0.362 -1.80503,0.362c-0.691,0 -1.57391,0.33005 -2.06273,-0.2414c-0.53724,-0.62806 -0.85021,-2.1839 -0.20615,-2.65479c0.64401,-0.47085 1.50947,-0.2412 2.26888,-0.2412" fill-opacity="0" fill="#000000" fill-rule="evenodd" stroke="none" stroke-width="2" stroke-linecap="square" stroke-linejoin="miter"></path><path d="M254.48386,171.86914c0.44827,0 0.99083,-0.20707 1.34085,0.1206c0.43286,0.40522 0.12209,1.28971 0.20633,1.93079c0.03046,0.23183 0.38391,0.38565 0.3094,0.6034c-0.22691,0.66306 -1.19458,0.362 -1.80503,0.362c-0.691,0 -1.57391,0.33005 -2.06273,-0.2414c-0.53724,-0.62806 -0.85021,-2.1839 -0.20615,-2.65479c0.64401,-0.47085 1.50947,-0.2412 2.26888,-0.2412" fill="none" fill-rule="evenodd" stroke="#ff0000" stroke-width="2" stroke-linecap="butt" stroke-linejoin="round"></path><path d="M250.29368,180.40996c0.01712,0.0305 0.06484,0.03148 0.08717,0.0584c0.07461,0.08999 0.14569,0.18285 0.21616,0.27613c0.14338,-0.02963 0.39225,0.05067 0.50639,0.03177c0.08268,-0.01369 0.1556,-0.06738 0.23852,-0.07951c0.29721,-0.04345 0.64297,-0.012 0.94395,-0.012c0,0 0.04713,0 0.12017,0.01061c-0.29905,-0.50706 0.0675,-0.96822 0.15766,-1.06948c0.04767,-0.19539 0.10678,-0.3915 0.20371,-0.56757c0.09211,-0.1673 0.3346,-0.25546 0.30643,-0.36185c0,0 0.2939,-0.8817 1.1756,-0.5878c0.8817,0.2939 0.5878,1.1756 0.5878,1.1756c-0.10535,0.26751 -0.24403,0.53353 -0.44334,0.74073c-0.00223,0.12189 -0.00645,0.24592 -0.05676,0.35464c-0.08188,0.17692 -0.24032,0.30702 -0.36048,0.46053l-0.07951,0.07951c0,0 -0.33028,0.33028 -0.75669,0.28841c0.04659,0.11042 0.0748,0.24413 0.0748,0.40605c0,0.92939 -0.92939,0.92939 -0.92939,0.92939c-0.16941,0 -0.47555,-0.04711 -0.64621,-0.012c-0.01362,0.0028 -0.02737,0.0056 -0.04126,0.00839c0.03116,0.29578 0.00237,0.6021 -0.09034,0.90486c-0.36616,1.19571 -1.42856,2.04474 -2.75674,1.42207c-0.27853,-0.13058 -0.43883,-0.43498 -0.68915,-0.61377c-0.05838,-0.0417 -0.39222,0.01787 -0.49431,0.01493c-0.40945,-0.01181 -0.77234,-0.04172 -1.1409,-0.23235c-0.45182,-0.2337 -0.9165,-0.81861 -1.03687,-1.29257c-0.04434,-0.17459 -0.04957,-0.36444 -0.03949,-0.53965c0.0022,-0.0382 0.02314,-0.09279 -0.00838,-0.11449c-0.3214,-0.22129 -0.69761,-0.31668 -1.04338,-0.48194c-0.32871,-0.1571 -0.59107,-0.33031 -0.89859,-0.5288c-0.07361,-0.04751 -0.2498,-0.0801 -0.29885,-0.12195c-0.05172,-0.04414 -0.56898,-0.74414 -0.65313,-0.79199c-0.15337,-0.08721 -0.46642,-0.14565 -0.619,-0.24162c-0.09855,-0.06199 -0.15691,-0.17218 -0.23975,-0.25399c-0.58829,-0.58102 -1.28032,-1.23267 -1.67102,-1.98803c-0.0701,-0.13553 -0.12579,-0.27867 -0.1735,-0.4236c-0.01529,-0.04646 0.02387,-0.11515 -0.01403,-0.14607c-0.22997,-0.18758 -0.4302,-0.38227 -0.65099,-0.5879c-0.04896,-0.0456 -0.20374,-0.08459 -0.2365,-0.10847c-0.22584,-0.1646 -0.61744,-0.53212 -0.75807,-0.75807c-0.11666,-0.18744 -0.14928,-0.41744 -0.25475,-0.6114c-0.11118,-0.20446 -0.54405,-0.19119 -0.73105,-0.33731c-0.32062,-0.15199 -0.5908,-0.39302 -0.77862,-0.69117c-0.20914,-0.25312 -0.34686,-0.54491 -0.28112,-0.86974c-0.00251,-0.03956 -0.00379,-0.07945 -0.00379,-0.11965c0,-0.54857 0.23764,-1.04164 0.61558,-1.38188c0.08664,-0.11453 0.19065,-0.21121 0.32101,-0.28067c0.32089,-0.17097 0.6529,-0.22219 0.98545,-0.19518c0.01676,0.00056 0.03346,0.00134 0.0501,0.00234c0.00365,-0.07885 0.00885,-0.15782 0.01557,-0.23687c0.01993,-0.23412 -0.00551,-0.4725 0.05205,-0.70288c0.161,-0.6444 0.65602,-1.26882 0.66353,-1.93629c0.01191,-1.05934 -0.11426,-2.08033 -0.15902,-3.13509c-0.00739,-0.17424 -0.03421,-0.62337 -0.10012,-0.87789c-0.03522,-0.13602 -0.42425,-0.41237 -0.47433,-0.47307c-0.45524,-0.5518 -0.49519,-1.51328 -0.18342,-2.1203c0.07986,-0.15549 0.26799,-0.22516 0.39159,-0.34876c0.1236,-0.1236 0.19328,-0.31173 0.34876,-0.39159c0.08225,-0.04224 0.89486,-0.26584 1.18197,-0.22081c0.3938,0.06177 1.32679,0.59018 1.62137,0.8768c0.22375,0.2177 0.25241,0.55623 0.44336,0.76937c0.24217,0.27033 0.71815,0.6381 0.97756,0.91053c0.53721,0.56417 0.89559,1.26399 1.04711,2.0122c0.15261,-0.10008 0.34813,-0.17621 0.61051,-0.22897c0.19093,-0.03839 0.38588,-0.03729 0.58062,-0.00981c0.12564,0.01435 0.24748,0.04123 0.36423,0.07935c0.35047,0.10062 0.69151,0.26131 0.99773,0.40334c0.61474,0.28512 1.22457,0.36146 1.8456,0.55164c0.08175,0.02503 0.2988,0.14424 0.40829,0.17167c0.51002,0.12781 0.84617,0.21911 1.32254,0.37206c0.50496,0.16213 1.12634,0.02768 1.62239,0.21056c0.1637,0.06035 0.47371,0.23771 0.62722,0.31149c0.30617,0.14715 0.65629,0.1876 0.97835,0.28891c0.126,0.03964 0.32527,0.15428 0.46363,0.17336c0.24183,0.03335 0.30356,-0.2401 0.50254,-0.31104c0.13885,-0.0495 0.2811,-0.09777 0.42536,-0.13668c0.25147,-0.72873 0.94338,-1.25218 1.75755,-1.25218c1.02658,0 1.85878,0.8322 1.85878,1.85878c0,0.7786 -0.47871,1.44538 -1.15785,1.72209c-0.00274,0.01616 -0.00612,0.03228 -0.0102,0.04834c-0.05729,0.22559 -0.13129,0.44757 -0.22081,0.66242c-0.10597,0.25434 -0.37529,0.40518 -0.58449,0.58449c-0.52861,0.45309 -1.2229,0.37362 -1.85749,0.47393c-0.44149,0.06979 -0.79502,0.13628 -1.26018,0.08765c-0.29997,-0.03136 -0.57839,-0.15962 -0.84941,-0.28626c-0.02298,0.13537 -0.07971,0.26125 -0.14209,0.38553c-0.06689,0.17702 -0.16002,0.34116 -0.27466,0.48766c-0.13755,0.17578 -0.30606,0.32618 -0.49732,0.44298c-0.03291,0.05923 -0.05265,0.1276 -0.05265,0.21008c0,0.05992 -0.05325,0.13794 -0.01007,0.17948c0.13494,0.12982 0.3419,0.19944 0.42514,0.36717c0.24514,0.49392 0.34862,0.97538 0.25883,1.46136c0.22188,0.06565 0.4527,0.22574 0.56536,0.58921c0.23476,-0.01954 0.4721,-0.01722 0.70828,0.00285c0.19875,0.01689 0.4034,0.01255 0.59419,0.07075c0.01879,0.00573 0.04241,0.01586 0.06605,0.02861c0.05286,-0.01761 0.10612,-0.03404 0.15898,-0.05166l0.21794,-0.07265c0.09822,-0.03531 0.2041,-0.05455 0.31448,-0.05455c0.51329,0 0.92939,0.4161 0.92939,0.92939c0,0.32772 -0.16962,0.61581 -0.42585,0.7813l-0.19145,0.12763c-0.14215,0.21734 -0.32902,0.39855 -0.59249,0.50627c-0.19602,0.08015 -0.58491,0.07075 -0.83271,0.07075l-0.43694,-0.47432c-0.01357,-0.00164 -0.02699,-0.00273 -0.04011,-0.00273c-0.09545,0 -0.19778,-0.01251 -0.29799,-0.01463c-0.21563,0.09414 -0.41758,0.09414 -0.41758,0.09414h-0.23852c-0.24134,0 -0.57456,-0.06619 -0.80523,-0.012c-0.24476,0.0575 -0.47039,0.18284 -0.71557,0.23852c-0.12599,0.02862 -0.25823,0.00952 -0.3874,0.012c-0.11664,0.00224 -0.24147,0.00645 -0.36885,0.00584c-0.05463,0.22546 -0.19149,0.41881 -0.37703,0.54649c0.03882,0.07237 0.07351,0.13645 0.08837,0.17211c0.03051,0.07322 0.05232,0.18079 0.06568,0.2972c1.12867,0.14781 0.83446,0.99148 0.76859,1.64816l-0.03319,0.02653l0.02256,0.00752l-0.06531,0.19592c0.01005,0.03899 0.02471,0.08303 0.05371,0.13468zM244.20101,173.78999c0.69716,-0.08062 1.47005,0.35307 2.07844,0.67554c0.15405,0.08165 0.43783,0.39088 0.60477,0.38189c0.23725,-0.01278 0.46309,-0.13534 0.69516,-0.17869c-0.11871,-0.26872 -0.18516,-0.56285 -0.18516,-0.8708c0,-0.32275 0.00127,-0.65708 0.04062,-0.98161c0.0038,-0.03134 0.09596,-0.32995 0.09388,-0.34045c-0.08168,-0.41267 -0.40421,-0.55222 -0.61786,-0.87429c-0.01975,-0.02977 -0.31921,-0.68412 -0.32472,-0.77932c-0.00762,-0.13175 0.06918,-0.2564 0.07853,-0.38804c0.00936,-0.13164 -0.04904,-0.2659 -0.02287,-0.39524c0.02105,-0.10402 0.15265,-0.26412 0.21924,-0.3685c0.01437,-0.02253 0.02904,-0.04533 0.044,-0.06831c-0.26638,-0.08354 -0.53267,-0.16702 -0.7989,-0.25014c-0.60255,-0.18813 -1.13275,-0.37769 -1.65593,-0.62334c-0.48096,-0.09491 -0.89527,-0.37534 -1.16528,-0.76365c-0.09057,0.09764 -0.18966,0.18545 -0.29604,0.26019c-0.15718,0.11043 -0.37142,0.11615 -0.53195,0.22165c-0.03563,0.02342 0.00295,0.08538 0,0.12792c-0.01795,0.25859 -0.03165,0.33664 -0.09539,0.5878c-0.17787,0.70084 -0.29065,1.0428 -0.59905,1.78454c-0.06047,0.14543 -0.06384,0.41282 -0.06384,0.56947c0,0.60132 0.52035,1.37358 0.94944,1.76645c0.0659,0.06034 0.13531,0.12197 0.20503,0.18559c0.12025,0.09375 0.22868,0.20196 0.32266,0.32202c0.08225,0.09423 0.15632,0.19385 0.215,0.30048c0.18371,-0.15559 0.43267,-0.25749 0.8102,-0.30114z" fill="#ff0000" fill-rule="nonzero" stroke="none" stroke-width="2" stroke-linecap="butt" stroke-linejoin="miter"></path><path d="M251.71055,176.5304c-0.02401,0.02882 -0.03962,0.04443 -0.03962,0.04443l-0.73669,0.35172c-0.07951,0 -0.16417,0.02815 -0.23852,0c-0.02673,-0.01012 -0.05306,-0.02001 -0.07899,-0.02968c-0.12279,0.06675 -0.27896,0.10919 -0.47757,0.10919c-0.92939,0 -0.92939,-0.92939 -0.92939,-0.92939c0,-0.76858 0,-1.53716 0,-2.30574c0,-0.40743 0.04764,-0.85554 0.00452,-1.26006c-0.03871,-0.36317 -0.08403,-0.67728 -0.08403,-1.04568v-0.23852c0,-0.51329 0.4161,-0.92939 0.92939,-0.92939c0.32772,0 0.61581,0.16962 0.7813,0.42585l0.15102,0.22653l-0.0375,0.025c0.00107,0.0038 0.00211,0.00762 0.00314,0.01144c0.03245,0.02289 0.06445,0.04645 0.09595,0.07076c0.09892,0.07636 0.08546,0.23487 0.12632,0.35295c0.16003,0.46247 0.36418,1.01303 0.43323,1.49667c0.04184,0.29303 -0.05573,0.66892 0,0.9541c0.03926,0.20093 0.13251,0.38959 0.16405,0.59187c0.01225,0.07856 -0.00677,0.15931 0,0.23852c0.00214,0.02499 0.00622,0.06414 0.0113,0.10489c0.04968,0.04335 0.0915,0.09114 0.12669,0.14087c0.18671,0.13212 0.34602,0.3576 0.34602,0.74239c0,0.52228 -0.2935,0.75106 -0.55063,0.85127z" fill="#ffffff" fill-rule="nonzero" stroke="none" stroke-width="2" stroke-linecap="butt" stroke-linejoin="miter"></path><path d="M228.28288,182.22984c0.47943,-0.39362 1.15893,-0.45263 1.75039,-0.48678c1.26428,-0.07299 2.35042,-1.1909 3.56085,-0.52236c0.78425,-0.43388 2.02354,-0.64076 2.76541,-0.19939c0.15377,0.09148 0.27723,0.22842 0.40315,0.34494c0.09538,0.08826 0.23213,0.1185 0.33929,0.19201c0.26929,0.18475 0.45778,0.397 0.70501,0.59908c0.72688,0.59415 1.66588,0.97471 2.1119,1.86675c0.25736,0.51472 0.20075,1.0073 0.23235,1.55416c0.01131,0.19571 0.21932,0.32507 0.32388,0.49089c0.04211,0.06677 0.1793,0.37538 0.19098,0.37846c0.46809,0.12316 0.93661,0.21875 1.33858,0.50506c0.24598,0.1752 0.38341,0.36349 0.60874,0.56766c0.13605,0.12328 0.66572,0.30089 0.83068,0.34488c0.26914,0.07177 0.62392,0.06996 0.89099,0.07951c0.67179,0.02401 1.84429,0.28138 2.39073,0.69769c0.38152,0.29066 0.66733,0.70347 0.80687,1.15914c0.03723,0.12158 0.02649,0.3217 0.07956,0.43086c0.05333,0.10969 0.28803,0.13599 0.35551,0.17089c0.0828,0.04283 0.1683,0.15483 0.25279,0.20393c0.41918,0.24365 0.89689,0.44716 1.28806,0.73846c0.21657,0.16128 0.45046,0.41385 0.59465,0.64215c0.05347,0.08466 0.09541,0.38169 0.17404,0.40935c0.29374,0.10331 0.68462,0.03731 0.99085,0.13105c0.48762,0.14927 1.0562,0.5799 1.29257,1.03687c0.21963,0.42462 0.32344,1.10571 0.32344,1.58986c0,0.14197 -0.00419,0.53153 0.07497,0.60712c0.13318,0.12717 0.3366,0.19595 0.4181,0.36109c0.16421,0.33274 0.29043,0.70355 0.29043,1.07461c0,1.52263 -1.19186,1.90074 -2.41534,1.85878c-0.17471,-0.00599 -0.35693,0.02191 -0.52351,-0.0311c-0.12955,-0.04122 -0.25305,-0.09761 -0.36917,-0.16668c-0.1225,0.02541 -0.24942,0.03876 -0.37946,0.03876c-0.25144,0.0481 -0.67608,-0.02483 -1.00885,-0.08771c-0.5766,0.70066 -1.64267,0.99185 -2.495,0.42363c-0.3643,-0.24286 -0.56026,-0.50449 -0.70671,-0.77442c-0.6926,-0.05789 -1.3857,-0.10165 -2.0754,-0.11806c-0.7435,-0.01768 -1.48745,-0.00767 -2.23112,0c-0.17936,0.00185 -0.3631,0.07798 -0.54686,0.07951c-0.3294,0.00273 -1.2527,0.04789 -1.82072,-0.01435c-0.41732,-0.04573 -0.7203,-0.10437 -1.117,-0.17064c-0.12895,-0.02154 -0.2678,-0.09896 -0.39311,-0.08831c-0.00956,0.01549 -0.01966,0.03073 -0.03034,0.04568c-0.25825,0.36167 -0.54953,0.55055 -0.86346,0.64586c-0.08988,0.03686 -0.18329,0.06689 -0.27958,0.08943c-0.22397,0.05922 -0.45719,0.08611 -0.68508,0.07345c-0.25023,-0.0139 -0.40255,-0.04682 -0.51051,-0.09691c-0.06107,-0.00163 -0.12236,-0.00264 -0.18382,-0.00264c-0.23342,0 -0.47766,0.07312 -0.71557,0.07498c-0.88515,0.00694 -1.86918,0.02111 -2.75519,-0.10855c-0.90882,-0.133 -1.88573,-0.6154 -2.79217,-0.65238c-0.03675,-0.0015 -0.0865,0.10976 -0.09691,0.11875c-0.17248,0.14896 -0.46403,0.41404 -0.69032,0.48604c-0.53206,0.16929 -1.58451,0.06986 -1.97313,0.07663c-0.93428,0.01628 -1.7357,1.13704 -2.6773,0.76994c-0.14858,-0.05793 -0.51584,-0.07804 -0.67799,-0.20721c-0.22012,-0.17534 -0.43675,-0.3561 -0.63896,-0.55183c-0.39605,-0.38334 -0.3144,-1.13669 -0.19811,-1.63312c0.03207,-0.13688 0.17163,-0.55946 0.27762,-0.67511c0.10865,-0.11856 0.24645,-0.2068 0.36511,-0.31533c0.0579,-0.05295 0.10476,-0.11742 0.16414,-0.1687c0.01752,-0.01513 0.07669,-0.00889 0.06358,-0.02797c-0.32446,-0.47204 -0.6997,-1.018 -0.86109,-1.563c-0.13775,-0.46516 -0.19278,-0.95502 -0.19278,-1.43748c0,-0.19511 0.09002,-0.39304 0.09109,-0.5807c0.00676,-1.18632 0.0255,-1.39066 -0.06317,-2.46366c-0.01135,-0.13732 -0.26737,-0.647 -0.27943,-0.69569c-0.0316,-0.12758 0.04995,-0.29863 0.00788,-0.44461c-0.29271,-1.01563 -0.39511,-2.54145 0.32044,-3.36997c0.49161,-0.56924 1.24875,-0.64879 1.96228,-0.68922c0.39354,-0.0223 0.82131,-0.19826 1.19157,-0.29789c0.29086,-0.07826 0.51722,-0.30864 0.75437,-0.47997c0.86877,-0.62764 1.673,-1.34897 2.63635,-1.8129c0.00917,-0.00773 0.0185,-0.0155 0.02799,-0.02329z" fill="#ff0000" fill-rule="nonzero" stroke="none" stroke-width="2" stroke-linecap="butt" stroke-linejoin="miter"></path><path d="M202.56621,240.70785v-121.4157h74.86759v121.4157z" fill="none" fill-rule="nonzero" stroke="none" stroke-width="0" stroke-linecap="butt" stroke-linejoin="miter"></path><path d="M202.5662,240.70785v-121.4157h74.86759v121.4157z" fill="none" fill-rule="nonzero" stroke="#000000" stroke-width="5" stroke-linecap="butt" stroke-linejoin="miter"></path></g></g></svg>