<svg version="1.1" xmlns="http://www.w3.org/2000/svg" xmlns:xlink="http://www.w3.org/1999/xlink" width="79.86759" height="126.4157" viewBox="0,0,79.86759,126.4157"><g transform="translate(-200.0662,-116.79215)"><g data-paper-data="{&quot;isPaintingLayer&quot;:true}" fill-rule="nonzero" stroke-linecap="butt" stroke-linejoin="miter" stroke-miterlimit="10" stroke-dasharray="" stroke-dashoffset="0" style="mix-blend-mode: normal"><path d="M202.5662,240.70785v-121.4157h74.86759v121.4157z" fill="#ffffff" stroke="#000000" stroke-width="5"></path><text transform="translate(234.28001,185.76875) scale(0.5,0.5)" font-size="40" xml:space="preserve" fill="#ff0000" fill-rule="nonzero" stroke="none" stroke-width="1" stroke-linecap="butt" stroke-linejoin="miter" stroke-miterlimit="10" stroke-dasharray="" stroke-dashoffset="0" font-family="Sans Serif" font-weight="normal" text-anchor="start" style="mix-blend-mode: normal"><tspan x="0" dy="0">6</tspan></text><path d="M219.27625,144.35544c-1.80161,1.22902 -3.2583,-0.51902 -3.2583,-0.51902c-2.22735,-2.70505 -5.27386,-7.40336 -5.44496,-11.07345c-0.06842,-1.46764 1.86901,-5.42167 2.72058,-6.61895c1.14215,-1.60584 4.13703,3.60575 6.08848,4.74155c0.2306,0.13421 1.08385,1.27414 1.26442,1.4598c2.97189,-0.75912 6.38544,-7.31193 7.71769,-5.65532c1.4786,1.83858 1.2507,7.97117 0.10413,9.79164c-0.91094,1.44635 -2.95922,1.9488 -3.81152,3.43046c-0.58744,1.02123 -0.58064,2.44379 -1.47326,3.2127c-0.97414,0.83912 -2.44142,0.8073 -3.66213,1.21095z" fill="#ff0000" stroke="none" stroke-width="0.5"></path></g></g></svg>