<svg version="1.1" xmlns="http://www.w3.org/2000/svg" xmlns:xlink="http://www.w3.org/1999/xlink" width="79.86759" height="126.4157" viewBox="0,0,79.86759,126.4157"><g transform="translate(-200.0662,-116.79215)"><g data-paper-data="{&quot;isPaintingLayer&quot;:true}" fill-rule="nonzero" stroke-linecap="butt" stroke-linejoin="miter" stroke-miterlimit="10" stroke-dasharray="" stroke-dashoffset="0" style="mix-blend-mode: normal"><path d="M202.5662,240.70785v-121.4157h74.86759v121.4157z" fill="#ffffff" stroke="#000000" stroke-width="5"></path><text transform="translate(234.28001,186) scale(0.5,0.5)" font-size="40" xml:space="preserve" fill="#000000" fill-rule="nonzero" stroke="none" stroke-width="1" stroke-linecap="butt" stroke-linejoin="miter" stroke-miterlimit="10" stroke-dasharray="" stroke-dashoffset="0" font-family="Sans Serif" font-weight="normal" text-anchor="start" style="mix-blend-mode: normal"><tspan x="0" dy="0">2</tspan></text><path d="M218.07612,140.12748c0.019,0.94622 0.00278,1.83427 0.00278,2.26009c0,0 0,2.02288 -2.02288,2.02288c-2.02288,0 -2.02288,-2.02288 -2.02288,-2.02288c0,-0.47744 -0.05629,-0.9598 -0.05408,-1.43705c-1.30144,1.58981 -2.35468,1.44534 -4.34182,-2.20804c-0.46727,-0.85907 0.09883,-1.95418 0.1973,-2.92714c0.29183,-2.88332 1.97468,-6.18218 4.03311,-8.27774c0.93205,-0.94886 1.83182,-2.56754 3.1559,-2.44166c2.1969,0.20887 2.79865,3.60234 3.49745,5.1062c1.2592,2.70986 5.56352,6.36595 3.0127,9.62008c-0.89153,1.13735 -2.59063,1.28148 -3.88594,1.92222c-0.6318,-0.59622 -1.14306,-1.12063 -1.57164,-1.61696z" fill="#000000" stroke="none" stroke-width="0.5"></path></g></g></svg>