<svg version="1.1" xmlns="http://www.w3.org/2000/svg" xmlns:xlink="http://www.w3.org/1999/xlink" width="252.99999" height="192.13205" viewBox="0,0,252.99999,192.13205"><g transform="translate(-108,-75.93397)"><g data-paper-data="{&quot;isPaintingLayer&quot;:true}" fill-rule="nonzero" stroke="none" stroke-width="0.5" stroke-linecap="butt" stroke-linejoin="miter" stroke-miterlimit="10" stroke-dasharray="" stroke-dashoffset="0" style="mix-blend-mode: normal"><path d="M296.00513,128.31896c4.60768,-1.3343 10.55738,-1.93891 15.15802,-3.72206c6.91772,-2.68123 12.89113,-4.53619 20.33683,-4.77644h2c0,0 1.42687,0 3.31645,0.48208c4.67781,-2.96213 10.04028,-3.1875 17.52239,2.17908c4.24072,3.04168 3.66666,12.89273 3.66117,17.83883c-0.00206,1.85548 0.10039,3.71441 -0.01284,5.56643c-0.22468,3.67493 -0.73017,7.32811 -1,11c-0.44295,6.02775 0.33013,12.12357 0.13508,18.17408c0.1638,0.44222 0.34912,0.9933 0.5581,1.66932c3.28742,10.6342 2.7799,22.10524 3.30551,32.99561c0,0 0.00502,0.10542 0.00445,0.29734c0.0097,0.19168 0.0097,0.29722 0.0097,0.29722l-0.01958,0.15116c-0.02516,0.63878 -0.10861,1.63764 -0.36226,2.79709l-0.25962,2.00459c-0.7418,1.87293 -1.17771,3.89819 -2.22541,5.61879c-2.83469,4.65534 -9.17278,9.49624 -14.01083,11.39201c-1.43857,0.5637 -3.09789,0.10972 -4.62002,0.37494c-2.96158,0.51604 -5.78816,1.72306 -8.77056,2.10057c-4.40391,0.55745 -10.88119,0.57008 -15.234,-0.10057c-2.46254,-0.37941 -4.74668,-1.68976 -7.22944,-1.89943c-1.91699,-0.16189 -3.86732,0.18002 -5.77056,-0.10057c-2.79358,-0.41186 -5.72555,-1.33442 -8.62745,-2.27487c0.0142,0.23547 0.0364,0.47037 0.06889,0.70456c0.61377,4.42323 1.52577,4.92737 1.06083,9.23172c-0.3229,2.98938 0.09918,6.33897 -1.47907,8.89822c-3.28295,5.32356 -9.19363,8.28921 -15.01865,9.44037c-2.37691,0.46973 -4.89395,-0.44083 -7.26851,0.04059c-3.79223,0.76882 -7.3741,2.49335 -11.20647,3.02717c-4.09876,0.57092 -8.42987,-0.52482 -12.49628,0.05106c-10.80733,1.53053 -21.13141,3.04259 -32.03101,3.04259c-9.66667,0 -19.33333,0 -29,0c-11.09108,0 -22.95587,0.67657 -34.30339,-0.34155c-0.85295,0.72658 -1.87855,1.40795 -3.10644,2.02189c-11.18034,5.59017 -16.77051,-5.59017 -16.77051,-5.59017c-0.16873,-0.35682 -0.33325,-0.71542 -0.49367,-1.07572c-2.8624,-0.52568 -4.30858,-0.33742 -8.38291,-2.08303c-1.75929,-0.75375 -3.25122,-2.02053 -4.87683,-3.0308l3.34358,-22.58097c0,0 1.60988,-0.80494 3.91331,-1.19304c-0.51125,-8.90194 -0.32581,-17.87049 -0.57463,-26.23653c-0.169,-5.68242 -0.26225,-11.80955 -1.0871,-17.38781c-0.15419,-1.04275 -0.85218,-1.95632 -1,-3c-0.82295,-5.81041 -0.21455,-12.1107 -1.74265,-17.79393c-1.54632,-5.75099 -4.358,-10.26514 -6.90693,-15.66807c-0.99855,-7.77741 -2.703,-14.83593 -4.26822,-22.27881c-0.85734,-1.59287 -2.06278,-3.62298 -0.76823,-3.76432c-0.0068,-0.03455 -0.01358,-0.06911 -0.02037,-0.10368l-0.72127,-2.16381c-0.47493,-1.321 -0.73373,-2.74511 -0.73373,-4.22965c0,-1.30249 0.19921,-2.55846 0.56883,-3.73908c-1.16585,-3.92203 -0.08788,-7.69493 -0.08788,-7.69493c0.5849,-1.99389 1.37808,-3.93818 1.75469,-5.98167c1.33676,-7.25334 1.0876,-23.14509 12.39245,-24.74993c11.32365,-1.6075 15.58991,5.83565 17.7389,13.37991c1.70915,0.33263 0.31303,1.9647 1.44189,2.64518c5.18738,3.12693 9.80188,3.80557 13.32426,9.56889c4.36646,7.14442 2.86686,16.58956 2.86686,24.57164v4c0,0 0,1.29942 -0.41895,3.06034c4.80477,1.28384 9.72713,2.0708 14.60438,3.07674c-0.33027,-3.65385 -0.26215,-7.33292 -0.18542,-11.13707c0.03364,-1.66795 -0.43607,-3.44464 0.16141,-5.00228c1.512,-3.94184 2.77487,-8.44934 6.02971,-11.13825c3.75629,-3.10317 16.05227,-2.35947 20.30888,-2.35947c3.84355,0 9.84321,-0.19143 12.57164,1.86686c9.33287,7.04063 10.17443,20.91478 8.4553,32.00643c4.17777,-0.3458 8.3762,-0.71706 12.49283,-1.51639c0.24329,-2.03908 -1.14895,-3.9873 -1.68538,-5.985c-0.37615,-1.4008 -0.05223,-2.90649 -0.24073,-4.34462c-0.63239,-4.82458 -3.71433,-8.16747 -1.93225,-13.52957c1.33152,-4.00641 2.77487,-8.44934 6.02971,-11.13825c2.47016,-2.04066 6.10446,-1.78232 9.34731,-2.20791c0.17684,-0.12812 0.40328,-0.28126 0.68748,-0.46294c3.11274,-1.98976 9.4208,-3.35871 11.64095,-6.76026c1.02224,-1.5662 0.85227,-4.19467 2.53849,-5.00375c5.77856,-2.77267 12.35321,-6.79425 18.53691,-5.10863c5.17259,1.41 6.48224,8.54141 9.72336,12.81211c0.23896,4.31266 0.96459,9.01637 1.26799,13.67059c1.13058,1.29935 1.99713,2.83452 2.51608,4.52193l0.90885,2.72655l-0.18132,0.06044c0.10915,0.13154 0.21725,0.26405 0.32428,0.39756c1.60984,2.00837 1.46664,7.934 1.4985,10.49485c0.00035,0.02794 0.00067,0.05588 0.00096,0.0838c0.98064,-0.42134 1.98142,-0.78912 3.0042,-1.0853zM335.05604,190.50294c-0.02621,-0.86816 0.57906,-1.78306 0.2636,-2.59231c-0.44457,-1.14049 -2.00201,-1.63859 -2.36815,-2.80663c-0.78183,-2.49416 -0.83744,-5.1722 -0.95151,-7.78354c-0.20886,-4.78164 -0.36617,-10.93747 -0.21629,-16.5956c-7.5519,4.25445 -15.85157,8.3856 -24.28143,9.93419c-5.79891,1.06528 -11.71588,1.19065 -17.64884,1.01112c-0.10098,4.22941 -0.17263,8.47295 0.10397,12.61928c0.43428,6.50986 2.31985,13.05782 2.94894,19.50372c0.00914,0.09364 0.01793,0.18748 0.02638,0.28151c0.38244,0.06487 0.59898,0.119 0.59898,0.119c0.60042,0.15011 8.12409,2.02819 8.46315,2.12528c1.53959,0.44086 2.911,1.53608 4.50743,1.66291c1.40578,0.11168 2.82802,-0.25782 4.22944,-0.10057c2.98745,0.3352 5.82747,1.4878 8.77056,2.10057c1.91128,0.39794 4.99231,-0.18699 6.99772,-0.16141c3.31534,0.0423 5.75456,-1.32628 8.99772,-1.83859c0.13279,-0.02098 0.25595,-0.03863 0.37,-0.05321c-0.29483,-5.80764 -0.6362,-11.61348 -0.81167,-17.42572zM152.11358,239.24092c11.41785,1.06696 22.53681,0.57954 34.3864,0.57954c9.66667,0 19.33333,0 29,0c10.23731,0 19.77576,-1.66603 29.96899,-2.95741c3.75207,-0.47535 7.81321,0.61403 11.50372,0.05106c3.27648,-0.49981 7.87652,-2.91898 12.06733,-3.56962c-0.1564,-1.82332 0.35292,-3.68947 0.05362,-5.49675c-0.57642,-3.48057 -1.04304,-6.99967 -1.09366,-10.52729c0,-3.36269 0.43711,-7.16125 0.09366,-10.47271c-0.69893,-6.73878 -2.59607,-13.66771 -3.05106,-20.49628c-0.50491,-7.57783 -0.04259,-15.42264 -0.04259,-23.03101c0,-3.36836 -0.24632,-6.94219 -0.13235,-10.38428c-2.31306,0.88273 -5.6426,1.98666 -6.81311,2.58236c-1.84086,0.93685 -3.44533,2.31602 -5.33133,3.15833c-10.68472,4.77192 -21.90267,6.15927 -33.3371,7.11214c-3.96319,0.33027 -7.90927,1.00585 -11.88611,1.03145c-0.89106,0 -9.45808,0.01938 -10.23172,-0.06083c-1.69061,-0.17528 -3.30877,-0.83078 -5,-1c-1.70225,-0.17032 -3.43959,0.2344 -5.13224,-0.0138c-5.96752,-0.87506 -11.71061,-2.89404 -17.58118,-4.27727c-8.76937,-2.06624 -17.22587,-3.73307 -25.48678,-6.45666c1.42245,3.91771 2.40887,8.00012 2.87109,12.07685c0.49221,4.34117 0.27761,8.92271 0.89943,13.22944c0.15063,1.04327 0.85465,1.95598 1,3c0.93484,6.71468 1.18949,13.85851 1.39844,20.63513c0.30861,10.00836 -0.39364,22.38827 1.50106,32.82177c0.14731,0.81117 0.26591,1.63588 0.3755,2.46583z" fill="#afb1b0"></path><path d="M335.90348,207.96359c-0.11405,0.01458 -0.23754,0.03256 -0.37033,0.05354c-3.24316,0.51231 -5.69337,1.88924 -9.00871,1.84694c-2.00541,-0.02558 -5.09777,0.56399 -7.00905,0.16604c-2.94308,-0.61278 -5.80086,-1.76383 -8.78831,-2.09903c-1.40142,-0.15724 -2.83251,0.21062 -4.2383,0.09894c-1.59644,-0.12683 -2.97736,-1.22579 -4.51695,-1.66666c-0.33906,-0.09709 -7.87556,-1.9847 -8.47599,-2.1348c0,0 -0.21717,-0.0548 -0.59961,-0.11967c-0.00845,-0.09403 -0.01752,-0.18817 -0.02666,-0.28181c-0.62909,-6.4459 -2.52784,-13.03024 -2.96213,-19.5401c-0.27661,-4.14633 -0.19791,-8.41308 -0.09693,-12.64249c5.93297,0.17952 11.8759,0.0328 17.67481,-1.03248c8.42986,-1.54859 16.77692,-5.67235 24.32882,-9.9268c-0.14988,5.65813 0.02303,11.83416 0.23189,16.6158c0.11406,2.61134 0.1736,5.30804 0.95544,7.8022c0.36614,1.16804 1.92328,1.67242 2.36786,2.81291c0.31545,0.80925 -0.29077,1.72979 -0.26456,2.59795c0.17547,5.81224 0.50387,11.64188 0.7987,17.44952z" data-paper-data="{&quot;noHover&quot;:false,&quot;origItem&quot;:[&quot;Path&quot;,{&quot;applyMatrix&quot;:true,&quot;segments&quot;:[[[336.05606,191.18248],[0.17547,5.81224],[-0.02621,-0.86816]],[[336.31966,188.59017],[0.31545,0.80925],[-0.44457,-1.14049]],[[333.95151,185.78354],[0.36614,1.16804],[-0.78183,-2.49416]],[[333,178],[0.11406,2.61134],[-0.20886,-4.78164]],[[332.78371,161.4044],[-0.14988,5.65813],[-7.5519,4.25445]],[[308.50228,171.33859],[8.42986,-1.54859],[-5.79891,1.06528]],[[290.85343,172.34972],[5.93297,0.17952],[-0.10098,4.22941]],[[290.95741,184.96899],[-0.27661,-4.14633],[0.43428,6.50986]],[[293.90634,204.47271],[-0.62909,-6.4459],[0.00914,0.09364]],[[293.93272,204.75422],[-0.00845,-0.09403],[0.38244,0.06487]],[[294.5317,204.87322],[0,0],[0.60042,0.15011]],[[302.99485,206.9985],[-0.33906,-0.09709],[1.53959,0.44086]],[[307.50228,208.66141],[-1.59644,-0.12683],[1.40578,0.11168]],[[311.73172,208.56083],[-1.40142,-0.15724],[2.98745,0.3352]],[[320.50228,210.66141],[-2.94308,-0.61278],[1.91128,0.39794]],[[327.5,210.5],[-2.00541,-0.02558],[3.31534,0.0423]],[[336.49772,208.66141],[-3.24316,0.51231],[0.13279,-0.02098]],[[336.86772,208.6082],[-0.11405,0.01458],[-0.29483,-5.80764]]],&quot;closed&quot;:true}]}" fill="#767676"></path><path d="M151.69779,236.8047c-1.8947,-10.43351 -1.20173,-22.83641 -1.51034,-32.84478c-0.20896,-6.77662 -0.4628,-13.93813 -1.39764,-20.65281c-0.14535,-1.04402 -0.84883,-1.95888 -0.99946,-3.00215c-0.62182,-4.30674 -0.40387,-8.89712 -0.89608,-13.23828c-0.46222,-4.07673 -1.44547,-8.16468 -2.86791,-12.0824c8.26091,2.72359 16.72273,4.38372 25.4921,6.44996c5.87058,1.38323 11.62323,3.39431 17.59075,4.26937c1.69265,0.2482 3.4356,-0.1596 5.13785,0.01073c1.69123,0.16922 3.31555,0.82232 5.00616,0.9976c0.77364,0.08021 9.35718,0.05854 10.24823,0.05854c3.97684,-0.0256 7.94067,-0.69736 11.90386,-1.02763c11.43442,-0.95287 22.67185,-2.32575 33.35656,-7.09767c1.88599,-0.84231 3.49091,-2.22092 5.33177,-3.15777c1.17051,-0.5957 4.50099,-1.69842 6.81405,-2.58115c-0.11397,3.44209 0.13578,7.02116 0.13578,10.38952c0,7.60837 -0.45654,15.46935 0.04837,23.04717c0.45499,6.82857 2.35216,13.77436 3.05109,20.51314c0.34345,3.31146 -0.09562,7.11778 -0.09562,10.48047c0.05062,3.52762 0.51457,7.05307 1.09099,10.53365c0.29931,1.80727 -0.21165,3.67642 -0.05525,5.49973c-4.19081,0.65064 -8.79492,3.07569 -12.0714,3.5755c-3.69051,0.56297 -7.75597,-0.52169 -11.50804,-0.04634c-10.19323,1.29138 -19.7563,2.97034 -29.99362,2.97034c-9.66667,0 -19.36439,-0.00363 -29.03106,-0.00363c-11.84958,0 -22.98683,0.47294 -34.40468,-0.59402c-0.1096,-0.82995 -0.22916,-1.65593 -0.37647,-2.4671z" data-paper-data="{&quot;noHover&quot;:false,&quot;origItem&quot;:[&quot;Path&quot;,{&quot;applyMatrix&quot;:true,&quot;segments&quot;:[[[153.1136,239.92046],[-0.1096,-0.82995],[11.41785,1.06696]],[[187.5,240.5],[-11.84958,0],[9.66667,0]],[[216.5,240.5],[-9.66667,0],[10.23731,0]],[[246.46899,237.54259],[-10.19323,1.29138],[3.75207,-0.47535]],[[257.97271,237.59366],[-3.69051,0.56297],[3.27648,-0.49981]],[[270.04004,234.02404],[-4.19081,0.65064],[-0.1564,-1.82332]],[[270.09366,228.52729],[0.29931,1.80727],[-0.57642,-3.48057]],[[269,218],[0.05062,3.52762],[0,-3.36269]],[[269.09366,207.52729],[0.34345,3.31146],[-0.69893,-6.73878]],[[266.04259,187.03101],[0.45499,6.82857],[-0.50491,-7.57783]],[[266,164],[0,7.60837],[0,-3.36836]],[[265.86765,153.61572],[-0.11397,3.44209],[-2.31306,0.88273]],[[259.05454,156.19809],[1.17051,-0.5957],[-1.84086,0.93685]],[[253.72321,159.35641],[1.88599,-0.84231],[-10.68472,4.77192]],[[220.38611,166.46855],[11.43442,-0.95287],[-3.96319,0.33027]],[[208.5,167.5],[3.97684,-0.0256],[-0.89106,0]],[[198.26828,167.43917],[0.77364,0.08021],[-1.69061,-0.17528]],[[193.26828,166.43917],[1.69123,0.16922],[-1.70225,-0.17032]],[[188.13604,166.42536],[1.69265,0.2482],[-5.96752,-0.87506]],[[170.55486,162.14809],[5.87058,1.38323],[-8.76937,-2.06624]],[[145.06807,155.69143],[8.26091,2.72359],[1.42245,3.91771]],[[147.93917,167.76828],[-0.46222,-4.07673],[0.49221,4.34117]],[[148.83859,180.99772],[-0.62182,-4.30674],[0.15063,1.04327]],[[149.83859,183.99772],[-0.14535,-1.04402],[0.93484,6.71468]],[[151.23704,204.63286],[-0.20896,-6.77662],[0.30861,10.00836]],[[152.7381,237.45463],[-1.8947,-10.43351],[0.14731,0.81117]]],&quot;closed&quot;:true}]}" fill="#e0e0e0"></path><path d="M208.12228,262.28411c-2.46398,0.6452 -5.08153,0.35757 -7.6223,0.53635c0,0 -3.86818,0 -7.30091,-2.15181c-6.28101,-1.56546 -8.55763,-8.39534 -8.55763,-8.39534c-1.69436,-5.29012 -1.78957,-10.57683 -2.48005,-15.95057c-1.48792,-11.57982 -7.47998,-20.5205 -1.29454,-31.57392c0.95863,-1.71308 2.72948,-2.82884 3.96636,-4.35322c2.29702,-2.83095 4.40027,-6.04677 7.50804,-7.95264c1.51546,-0.92937 3.46776,-0.85377 5.10182,-1.55393c1.56464,-0.67041 2.75717,-2.24286 4.43462,-2.53222c8.02788,-1.38484 12.49371,-0.49818 18.46114,5.12482c2.27358,2.14235 3.88044,4.83915 5.00953,7.79892c1.49807,1.41353 2.83599,2.91011 3.78477,4.46827c1.09643,1.80063 3.07301,4.18531 2,6c0.97179,1.2627 2.44692,2.26516 2.91536,3.7881c1.0592,3.4436 0.95151,7.98939 0.95151,11.78354c0,9.27217 1.15495,19.25839 -4.68862,27.27409c-2.03884,2.7967 -3.53713,6.98472 -6.91315,7.74685c-4.52905,1.02243 -9.74645,1.10877 -14.18703,-0.4488c-0.35247,0.15881 -0.71395,0.29334 -1.08889,0.39152z" fill="#000000"></path></g></g></svg>