<svg version="1.1" xmlns="http://www.w3.org/2000/svg" xmlns:xlink="http://www.w3.org/1999/xlink" width="79.86759" height="126.4157" viewBox="0,0,79.86759,126.4157"><g transform="translate(-200.0662,-116.79215)"><g data-paper-data="{&quot;isPaintingLayer&quot;:true}" fill-rule="nonzero" stroke-linecap="butt" stroke-linejoin="miter" stroke-miterlimit="10" stroke-dasharray="" stroke-dashoffset="0" style="mix-blend-mode: normal"><path d="M202.5662,240.70785v-121.4157h74.86759v121.4157z" fill="#ffffff" stroke="#000000" stroke-width="5"></path><text transform="translate(234.28001,186) scale(0.5,0.5)" font-size="40" xml:space="preserve" fill="#000000" fill-rule="nonzero" stroke="none" stroke-width="1" stroke-linecap="butt" stroke-linejoin="miter" stroke-miterlimit="10" stroke-dasharray="" stroke-dashoffset="0" font-family="Sans Serif" font-weight="normal" text-anchor="start" style="mix-blend-mode: normal"><tspan x="0" dy="0">3</tspan></text><path d="M218.42961,142.27954c-0.11649,0.03507 -0.24423,0.06216 -0.38428,0.07966c-1.79112,0.22389 -2.01501,-1.56724 -2.01501,-1.56724c-0.08183,-0.66398 -0.33654,-1.32917 -0.24548,-1.99195c0.03999,-0.29108 -0.02949,0.08172 -0.43264,0.01266c-3.20451,-0.54893 -8.34821,-2.97001 -6.87646,-6.15027c0.68053,-1.47053 2.79099,-2.46354 4.44523,-2.4149c0.00608,-2.76623 3.13578,-5.95408 6.079,-4.7362c1.03343,0.42762 1.48086,1.71663 1.94408,2.7346c0.31051,0.68238 0.34829,1.47823 0.31372,2.22714c-0.01251,0.27093 -0.71397,0.62673 -0.44789,0.67928c0.32283,0.06376 0.44329,-0.60039 0.77202,-0.61526c0.92691,-0.04191 1.83063,0.30412 2.74594,0.45618c1.80779,2.26435 3.34689,2.79986 1.27818,5.96427c-0.47954,0.73354 -2.73625,1.80853 -4.07408,2.04832c0.21242,0.87002 0.22593,1.84383 -0.13302,2.6468c-1.63656,3.66101 0.24403,1.79332 -2.56607,1.07565z" fill="#000000" stroke="none" stroke-width="0.5"></path></g></g></svg>