<svg version="1.1" xmlns="http://www.w3.org/2000/svg" xmlns:xlink="http://www.w3.org/1999/xlink" width="637" height="524.96364" viewBox="0,0,637,524.96364"><g transform="translate(78.5,82.48182)"><g data-paper-data="{&quot;isPaintingLayer&quot;:true}" fill-rule="nonzero" stroke-linecap="butt" stroke-linejoin="miter" stroke-miterlimit="10" stroke-dasharray="" stroke-dashoffset="0" style="mix-blend-mode: normal"><path d="M-76,439.98182v-519.96364h632v519.96364z" fill="#ffffff" stroke="#000000" stroke-width="5"></path><path d="M84.5,98.5c-2.5,0 -2.5,-2.5 -2.5,-2.5l0.03228,-3.40045c1.93395,-5.6441 6.15868,-9.38653 11.08097,-12.67967c9.54442,-6.38546 20.62464,-11.0943 31.89646,-13.37132c0,0 2.45145,-0.49029 2.94174,1.96116c0.49029,2.45145 -1.96116,2.94174 -1.96116,2.94174c-10.64932,2.10645 -21.08309,6.63778 -30.10354,12.62868c-3.38808,2.25018 -7.66578,5.3525 -8.91903,9.32033l0.03228,2.59955c0,0 0,2.5 -2.5,2.5z" fill="#ffffff" stroke="none" stroke-width="0.5"></path><path d="M89.09937,129.06625c6.93375,-10.40063 17.33438,-3.46688 17.33438,-3.46688l1.46986,1.10531c0.12427,-0.09598 1.18312,-0.19355 1.59638,-0.20467c1.05018,-0.02826 2.10072,-0.04134 3.15138,-0.04402c-1.32654,-1.74926 -2.35076,-3.32926 -4.42547,-4.64461c-10.05683,-5.02842 -22.71878,-11.74898 -26.68956,-23.18908c-0.7262,-2.09221 -0.46496,-4.40879 -0.53635,-6.6223c-0.129,-3.99928 0.0407,-6.21664 1.64146,-9.95284c1.16196,-2.71202 1.93341,-5.7997 4.01971,-7.88599c2.5041,-2.5041 6.47618,-2.87903 9.61563,-4.51757c4.64048,-2.42197 8.93707,-5.49381 13.88638,-7.36716c2.39624,-0.907 4.95612,-1.31641 7.38399,-2.13497c0,0 11.85854,-3.95284 15.81139,7.9057c3.95284,11.85854 -7.9057,15.81139 -7.9057,15.81139c-4.60394,1.52173 -8.64835,2.72877 -12.93773,5.09904c-0.22947,0.1268 -2.74628,1.76184 -5.25432,3.11359c0.13459,0.18618 0.27586,0.35395 0.42923,0.48566c3.67037,3.15208 8.76913,5.47433 13.08406,7.6318c5.22327,3.53169 8.49544,7.08336 12.39269,11.88652c1.23687,1.52438 2.93085,2.68549 3.96636,4.35322c1.13884,1.83414 3.83826,10.13145 3.85765,12.09194c0.02676,2.70401 -0.77339,5.3669 -1.48929,7.97455c-1.50557,5.48399 -3.52254,9.27111 -8.84276,12.38266c-6.13372,3.58733 -14.3567,2.73227 -21.15874,2.6225c-2.00122,-0.0323 -4.03307,0.1966 -6.00228,-0.16141c-2.23795,-0.40687 -4.32641,-1.40644 -6.48961,-2.10966l-4.44186,-2.82831c0,0 -10.40063,-6.93375 -3.46688,-17.33438zM115.80809,129.50783c-0.04925,0.10607 -0.04462,0.25373 -0.09329,0.35733c0.09108,-0.09477 0.20704,-0.23186 0.15206,-0.29351c-0.01927,-0.02161 -0.03887,-0.04288 -0.05877,-0.06382z" fill="#000000" stroke="none" stroke-width="0.5"></path><path d="M224,148c0,12.5 -12.5,12.5 -12.5,12.5h-3c-2.18001,0 -7.6475,0.02688 -9.00228,-0.16141c-4.06602,-0.5651 -8.10698,-2.31793 -12.22944,-2.89943c-1.78616,-0.25195 -3.70214,0.15931 -5.39058,-0.47552c-2.64363,-0.99395 -4.86837,-2.86459 -7.30256,-4.29687c-0.73828,-1.17989 -2.50931,-1.23155 -3.64678,-2.03364c-1.88988,-1.33265 -3.54821,-2.98938 -5.09513,-4.70828c-1.60794,-1.78671 -2.51072,-4.11325 -4,-6c-3.56932,-4.52194 -6.98585,-10.3925 -8.49883,-16.05295c-0.78363,-2.93176 -0.18829,-13.42889 0.61711,-15.65546c0.17042,-0.47115 7.69333,-9.95121 8.2344,-10.55297c10.85807,-12.07601 27.8027,-18.07617 43.67794,-17.93794c4.25287,1.57434 10.13101,3.36735 13.94503,6.13393c10.89137,7.90027 18.93102,23.22551 10.62496,35.72794c-1.19158,1.79358 -3.36226,2.69188 -5.00897,4.07936c-1.14124,0.96157 -2.04962,2.23994 -3.35322,2.96636c-4.07955,2.2733 -7.68014,2.74998 -12.12019,3.62412c-4.74158,0.9335 -9.58608,1.39515 -14.43655,1.39743c0.14543,0.02998 0.29094,0.05939 0.43655,0.08805c4.96196,0.9769 7.71412,1.75726 12.54855,1.75726h3c0,0 12.5,0 12.5,12.5zM188.8174,108.34655c4.18355,0.58063 8.47352,0.67422 12.45089,0.21429c1.69348,-0.19583 3.34116,-0.68479 5.00154,-1.08852c-0.0704,-0.09456 -0.14134,-0.18871 -0.213,-0.2823c-0.98574,-1.28745 -2.48471,-1.83161 -3.95587,-2.46989c-0.39753,0.20995 -0.95319,0.24872 -1.39261,0.36111c-1.072,0.27419 -6.52491,1.2331 -8.36248,1.81242c-1.12534,0.35478 -2.32537,0.85096 -3.52847,1.45288z" fill="#000000" stroke="none" stroke-width="0.5"></path><path d="M357,168c0,12.5 -12.5,12.5 -12.5,12.5h-1c-1.71218,0 -6.93218,0.03225 -8.00228,-0.16141c-15.57542,-2.81869 -25.59786,-15.52146 -32.17806,-28.74842c-0.83068,-1.66977 -1.87934,-3.25333 -2.45685,-5.02665c-0.25162,-0.77262 -0.53181,-1.54444 -0.83211,-2.31587c-4.34834,3.11422 -9.1763,5.66651 -14.06465,8.45001c-4.91751,2.80012 -9.09445,4.70867 -14.93876,4.70867c-2.29708,0.33967 -4.65229,1.63467 -6.89125,1.01902c-4.36905,-1.20136 -8.54575,-3.39871 -12.07921,-6.23534c-1.64868,-1.32354 -1.78855,-3.83387 -2.78576,-5.69813c-0.77159,-1.44247 -2.11474,-2.62767 -2.51609,-4.21354c-1.57256,-6.21366 -1.85773,-11.27683 -1.75497,-17.27836c0.04205,-2.4554 -0.43036,-4.99729 0.22555,-7.36384c1.39309,-5.02636 3.37543,-9.91989 5.83894,-14.5173c4.19565,-7.82994 12.56833,-10.28676 20.40382,-12.24564c14.82449,-3.70612 29.75358,-5.37322 45.0317,-5.37322c0,0 12.5,0 12.5,12.5c0,11.7267 -11.00124,12.45216 -12.3624,12.49704l0.98155,4.41701c3.69833,6.88402 4.16069,15.07106 6.51803,22.52243c1.40566,4.4432 4.2129,8.11782 7.02958,11.63867c0.76632,0.9579 0.96823,2.45087 2.02588,3.07229c1.09927,0.64586 2.20177,1.28706 3.32246,1.89499c0.99552,0.54003 1.8555,1.57386 2.98717,1.61898c1.3326,0.05312 2.66406,-0.16141 3.99772,-0.16141h1c0,0 12.5,0 12.5,12.5zM290.57184,112.27323c-3.04046,0.48717 -6.05787,1.09657 -9.04014,1.85356c-2.66425,0.67627 -5.28332,1.58147 -8,2c-0.15118,0.02329 -0.32954,0.02358 -0.49072,-0.01429c-0.38013,0.25072 -0.89114,0.37631 -1.10546,0.76865c-2.24309,4.10623 -2.81934,10.65328 -1.95303,15.57869c7.48948,-0.99962 13.27439,-7.3897 19.06047,-12.05322c-0.08479,-0.63816 -0.04499,-1.29992 0.05069,-1.9339c0.30167,-1.99885 0.88536,-4.14082 1.47818,-6.19949z" fill="#000000" stroke="none" stroke-width="0.5"></path><path d="M107,230c0,12.5 -12.5,12.5 -12.5,12.5h-3c-5.59644,0 -11.33302,0.29477 -17.03198,0.33863c0.37097,4.06712 0.82071,8.1183 1.48938,12.13037l0.04259,4.03101c0,0 0,12.5 -12.5,12.5c-12.5,0 -12.5,-12.5 -12.5,-12.5l0.04259,-1.96899c-0.88886,-5.33316 -1.35788,-10.73918 -1.7865,-16.1568c-2.56189,-0.23327 -5.1403,-0.3863 -7.7561,-0.37421c0,0 -12.5,0 -12.5,-12.5c0,-12.5 12.5,-12.5 12.5,-12.5c1.49698,0.00534 2.98423,0.04836 4.46452,0.12041c-1.1783,-5.1902 -2.54932,-12.00235 -1.28793,-14.67711c5.96933,-12.65798 19.76069,-11.66218 30.76671,-14.76671c1.18699,-0.33482 2.13903,-1.24052 3.27316,-1.72508c4.57078,-1.95287 8.85621,-2.79252 13.78354,-2.95151c0,0 12.5,0 12.5,12.5c0,12.5 -12.5,12.5 -12.5,12.5c-2.89322,-0.46805 -6.47716,2.6124 -8.94329,3.32341c-3.79788,1.09498 -7.73232,1.64441 -11.60525,2.43384c-0.42464,0.08656 -0.85279,0.15705 -1.28144,0.22499c0.4323,1.44746 0.89714,2.88763 1.14485,4.37435c0.05945,0.35679 0.11717,0.71383 0.17326,1.07113c6.48442,0.1176 13.1459,-0.42773 19.51187,-0.42773h3c0,0 12.5,0 12.5,12.5z" fill="#000000" stroke="none" stroke-width="0.5"></path><path d="M119.5,209.5c11.11078,0 12.34561,9.87596 12.48284,12.07113c0.45901,2.27111 0.68873,4.59692 0.9235,6.90157c0.29581,2.90381 2.17157,5.82852 2.75927,8.65538c1.10554,5.31772 1.63758,10.5666 2.96117,15.84022c0,0 3.0317,12.12678 -9.09509,15.15848c-12.12678,3.0317 -15.15848,-9.09509 -15.15848,-9.09509c-1.79545,-7.2063 -2.94637,-14.40296 -4.87472,-21.53685c-0.53325,-1.97276 -1.11981,-3.94397 -1.40484,-5.96755c-0.21372,-1.51727 0.22805,-3.20147 -0.4522,-4.57444l-0.64146,-4.95285c0,0 0,-12.5 12.5,-12.5z" fill="#000000" stroke="none" stroke-width="0.5"></path><path d="M110,183c0,-6.90356 5.59644,-12.5 12.5,-12.5c6.90356,0 12.5,5.59644 12.5,12.5c0,6.90356 -5.59644,12.5 -12.5,12.5c-6.90356,0 -12.5,-5.59644 -12.5,-12.5z" fill="#000000" stroke="none" stroke-width="0.5"></path><path d="M162.66117,238.16117c3.55711,-3.55711 7.11423,-4.25117 10.09523,-3.81048c-5.35061,-3.39715 -10.52568,-7.28267 -12.22005,-13.72838c-2.77416,-10.55344 4.28291,-19.61923 11.12482,-26.46114c0,0 8.83883,-8.83883 17.67767,0c8.83883,8.83883 0,17.67767 0,17.67767c-0.7595,0.7595 -1.80658,1.2537 -2.58292,1.98137c2.80502,1.85629 5.77568,3.46111 8.52597,5.39756c0.82072,0.57786 1.39136,1.45019 2.14297,2.11546c1.72859,1.53002 4.10537,2.48655 5.29283,4.46617c5.30355,8.84156 4.47671,19.2927 -2.94516,26.57158c-6.10283,5.98526 -14.94771,5.52677 -22.27025,7.96762c-1.66743,0.0538 -3.33485,0.1076 -5.00228,0.16141l-9.83883,-4.66117c0,0 -8.83883,-8.83883 0,-17.67767z" fill="#000000" stroke="none" stroke-width="0.5"></path><path d="M283.45285,232.85854c-11.85854,3.95285 -15.81139,-7.90569 -15.81139,-7.90569l-1,-3c-0.6877,-2.71246 -2.18442,-3.56967 -4.42043,-4.44988c-0.94051,1.60478 -1.98872,3.1595 -2.90965,4.77112c-5.08289,8.89506 -13.22383,20.63156 -26.40155,14.90625c-3.83598,-1.66661 -5.0963,-6.65336 -7.26837,-10.22749c-1.02353,-1.68421 -2.16388,-8.30857 -2.39872,-9.5014c-0.6124,-3.11057 -0.6283,-6.31143 -1.08133,-9.44917c-0.15063,-1.04327 -0.83297,-1.95923 -1,-3c-0.52999,-3.30236 -0.75392,-6.64662 -1.11882,-9.97127c-0.11289,-1.02855 0.05824,-2.15099 -0.40113,-3.07816c0,0 -3.95285,-11.85854 7.90569,-15.81139c11.85854,-3.95285 15.81139,7.90569 15.81139,7.90569c1.21107,4.05088 1.88949,8.2644 2.37936,12.50236c2.25134,-1.65762 4.82665,-2.92919 7.1398,-4.51316c2.61801,-0.15851 5.23813,-0.66575 7.85402,-0.47552c13.67704,0.99464 25.07721,9.81396 29.62682,22.48632l1,3c0,0 3.95285,11.85854 -7.90569,15.81139z" fill="#000000" stroke="none" stroke-width="0.5"></path><path d="M294.66117,239.16117c8.83883,-8.83883 17.67767,0 17.67767,0l1,1c1.48852,1.48852 5.12326,5.04518 5.7943,6.2672c1.2897,2.34864 1.80364,5.04624 2.70546,7.56936c0.14197,4.40003 0.80224,10.6503 -0.17298,14.87419c-0.4848,2.09977 -1.7384,3.94391 -2.61712,5.91163c-0.86521,1.93747 -1.27771,4.15617 -2.61466,5.80388c-8.84114,10.89611 -24.51612,11.28304 -36.93611,8.75117c-1.90581,-0.38851 -3.99938,-0.0104 -5.78126,-0.7901c-2.07306,-0.90711 -3.59798,-2.74527 -5.40648,-4.10532c-4.16941,-3.13554 -8.35234,-5.52116 -11.66255,-9.75052c-1.51185,-1.93165 -2.5774,-4.1743 -3.86609,-6.26146c0,0 -0.24577,-0.40962 -0.56115,-1.11676c-0.22625,2.36132 -1.29982,4.94286 -3.88135,7.52439c-5.48274,5.48274 -10.96548,4.16358 -14.3386,2.37136c0.00104,2.92992 0.00504,5.8599 -0.00023,8.7898c-0.02595,14.41802 0.08092,32.24417 -22.09017,27.18034c-4.07738,-0.93126 -5.00894,-6.70794 -7.26837,-10.22749c-1.05231,-1.6392 -1.4443,-3.62362 -2.3218,-5.36268c-2.17634,-4.31313 -4.62016,-8.48631 -6.87592,-12.75844c-0.75748,-1.43457 -1.55599,-2.93117 -2.78257,-3.99289c0,0 -8.83883,-8.83883 0,-17.67767c8.83883,-8.83883 17.67767,0 17.67767,0c0.00445,0.00469 0.0089,0.00938 0.01335,0.01407c1.20149,-3.76828 3.43699,-7.14617 7.57618,-9.80837c2.25357,-1.44943 5.04624,-1.80364 7.56936,-2.70546c6.40055,-0.05759 10.94864,0.49475 16.95513,2.48005l5.88599,4.01971c0,0 1.4083,1.4083 2.53847,3.66275c0.126,-3.17298 1.55268,-6.75929 6.19149,-9.54258c10.71866,-6.4312 17.14986,4.28746 17.14986,4.28746c0.7113,1.24618 1.3328,2.5481 2.13391,3.73854c1.39457,2.07234 5.07036,3.7598 7.2845,5.36638c0.996,0.11676 1.87787,0.78057 2.86521,0.98768c1.66879,0.35006 7.14636,0.65527 9.21418,-0.2099c0.08535,-0.03571 0.15522,-0.0993 0.21712,-0.17623c0.00506,-0.01867 0.01102,-0.03827 0.01793,-0.05881c0.26612,-0.79136 1.12412,-1.29457 1.38288,-2.08837c0.29308,-0.89907 -0.08997,-2.44281 -0.19653,-3.81896c-0.35334,-0.33331 -0.84829,-0.8419 -1.4767,-1.4703l-1,-1c0,0 -8.83883,-8.83883 0,-17.67767z" fill="#000000" stroke="none" stroke-width="0.5"></path><path d="M403.09017,252.18034c-11.18034,5.59017 -16.77051,-5.59017 -16.77051,-5.59017l1.34151,1.24866c-6.38815,-6.49724 -10.61533,-14.61533 -17,-21c0,0 -4.58308,-4.58308 -3.84868,-10.44905c-1.76112,-0.16815 -3.5417,0.11021 -5.31249,0.11021c-1.38054,0 -2.88014,-0.92473 -4.12809,-0.33439c-0.93414,0.4419 -1.85157,0.92279 -2.78527,1.36591c2.36936,3.44651 5.00126,6.80088 6.46185,10.68493c2.06497,5.49124 3.66992,13.75337 2.92006,19.66966c-1.1227,8.85798 -1.80851,18.20354 -13.13188,21.16032c-11.43598,2.98619 -14.35859,-2.36716 -19.54091,-8.82678c-1.80048,-2.24425 -3.9286,-4.22029 -5.64833,-6.527c-5.95889,-7.99284 -10.97307,-17.86849 -14.75339,-27.05027c0,0 -4.64238,-11.60596 6.96358,-16.24834c4.17044,-1.66817 7.44172,-1.23833 9.92155,-0.00285c2.23763,-7.84603 11.13902,-13.15771 17.93729,-15.93969c1.99448,-0.81618 3.8212,-2.09351 5.91163,-2.61712c1.63765,-0.41019 7.69653,-0.33439 9.87191,-0.33439c7.13757,0 15.53108,-0.0465 21.58742,4.56617c3.2872,2.50362 6.41497,8.8374 8.37623,12.31153l0.38056,4.69875c4.59366,5.64641 8.23186,11.98966 13.49463,17.08472l3.34151,5.24866c0,0 5.59017,11.18034 -5.59017,16.77051z" fill="#000000" stroke="none" stroke-width="0.5"></path></g></g></svg>