<svg version="1.1" xmlns="http://www.w3.org/2000/svg" xmlns:xlink="http://www.w3.org/1999/xlink" width="567.26723" height="466.01358" viewBox="0,0,567.26723,466.01358"><g transform="translate(43.63359,42.77952)"><g data-paper-data="{&quot;isPaintingLayer&quot;:true}" fill-rule="nonzero" stroke="none" stroke-width="0.5" stroke-linecap="butt" stroke-linejoin="miter" stroke-miterlimit="10" stroke-dasharray="" stroke-dashoffset="0" style="mix-blend-mode: normal"><path d="M482.53994,400.25065c-0.08755,1.37158 -0.80565,2.63944 -1,4c-0.16383,1.14691 0.2144,2.35132 -0.06775,3.47499c-1.88799,7.51893 -5.05751,14.92519 -15.33859,15.49772c-4.4571,0.24821 -8.10915,-3.87872 -11.66678,-6.57514c-2.12214,-1.60843 -6.33761,-11.27052 -6.96636,-12.35322c-2.44512,-4.21047 -5.81572,-9.42886 -9.29173,-12.90486c-5.86385,-3.90923 -10.54065,-9.34459 -16.64678,-13.03364c-3.14866,-1.90228 -6.30959,-3.34492 -9.5337,-4.57372c-4.74912,-0.0631 -9.4793,0.00402 -14.11794,0.41643c-17.27769,1.53614 -34.36438,4.01574 -51.77672,4.02415c-4.29538,0.00207 -8.60983,0.37314 -12.88611,-0.03145c-11.58705,-1.09627 -23.09463,-2.80512 -34.56865,-4.78276c-11.57353,0.72118 -23.18405,1.07169 -34.78174,1.79087c-12.68172,0.7864 -25.31395,2.28681 -38,3c-16.23245,0.91256 -32.50542,1.02185 -48.76349,1.02334c-3.25894,0.0003 -14.77857,0.03722 -17.00228,-0.16141c-1.04991,-0.09378 -1.96173,-0.81806 -3,-1c-3.31069,-0.58013 -6.72315,-0.50858 -10.01087,-1.20719c-0.69818,-0.14836 -1.28163,-0.69839 -1.98913,-0.79281c-1.03161,-0.13768 -2.08873,0.24891 -3.12029,0.1109c-3.69387,-0.49419 -7.30179,-1.5394 -11,-2c-1.78782,-0.22267 -3.62413,0.23138 -5.40472,-0.04315c-4.801,-0.7402 -9.45167,-2.25819 -14.21506,-3.21087c-8.04347,-2.27916 -16.95349,0.39545 -25.25765,0.30453c-1.2928,-0.01416 -2.5912,-0.08489 -3.88409,-0.21805c-17.09197,0.90514 -33.94545,1.21805 -51.11591,1.21805c-2.09084,0 -15.85164,0.12986 -16.6223,-0.53635c-0.61082,-0.52803 -1.18154,-1.09091 -1.71912,-1.68258c-0.44185,-0.08373 -0.87547,-0.19071 -1.29954,-0.31963l-0.29279,0.43919l-2.83869,-1.89246c-0.56139,-0.36256 -1.09187,-0.76888 -1.58661,-1.21414c-0.81166,0.13364 -1.69015,0.20597 -2.64095,0.20597c-12.12943,0 -12.48901,-11.76985 -12.49967,-12.46769c-1.88108,-5.6024 -3.75044,-11.08959 -4.00033,-17.03231c0,-16 0,-32 0,-48c0,-8.47985 -0.53501,-17.15336 0.01552,-25.62267c0.46715,-7.1866 0.86767,-14.09215 0.96299,-21.2095c-3.37167,-1.6406 -8.73751,-5.67064 -6.60529,-14.19953c3.0317,-12.12678 15.15848,-9.09509 15.15848,-9.09509c11.74436,2.94646 23.47637,4.97669 35.12881,8.03293c5.72937,1.50272 11.34193,3.42311 17.04784,5.0126c7.10857,1.98023 14.78666,1.74353 22.02337,2.64208c6.17053,0.76616 12.97296,1.87727 19.24099,1.03282c15.28797,-2.05964 31.19651,-5.87329 46.38496,-8.9087c42.53403,-6.30629 84.79776,-14.23639 127.09976,-21.9276c14.36948,-2.61261 28.82718,-6.11295 43.26923,-8.13093c10.30965,-1.44056 20.79805,-1.40981 31.08387,-3.01173c5.79468,-0.90247 11.49306,-2.46108 17.32891,-3.04043c22.00175,-2.18422 44.02052,-0.88996 66.0087,0.31612c16.64165,0.91282 33.28318,1.82794 49.9247,2.74312c9.00604,0.49527 17.99144,1.31796 26.99361,1.87934c2.4743,0.1543 5.0477,-0.51682 7.43585,0.14857c4.48424,1.2494 8.5577,3.66651 12.83656,5.49976c1.3399,2.62866 2.6798,5.25733 4.01971,7.88599l0.64146,5.95285c0,0 0,12.5 -12.5,12.5c-6.63314,0 -9.74639,-3.51988 -11.2076,-6.82399c-0.78624,-0.02755 -1.58947,-0.14669 -2.35883,-0.18885c-3.97553,-0.21786 -7.94634,-0.51168 -11.91656,-0.81506c0.27243,27.48325 3.73688,54.98559 5.94431,82.34535c0.58994,7.31193 1.03534,14.64686 1.03868,21.98255c0.00215,4.74012 -0.54096,10.31948 -0.03145,15.11389c1.34139,12.62225 1.73964,25.30382 -0.01114,37.91712c-0.35772,2.57717 0.40602,5.50738 -0.90891,7.75254c-2.08814,3.56536 -5.8433,5.8433 -8.76495,8.76495c-0.1072,0.01161 -0.21441,0.02323 -0.32161,0.03484c0.04219,1.98339 0.07065,3.96621 -0.05559,5.94396zM454.29811,372.29719c1.54242,1.55472 3.04782,3.19119 4.5026,4.88977c0.20218,-2.69322 0.31223,-5.39343 0.44751,-8.09164c-0.84766,0.75372 -1.69533,1.50745 -2.54299,2.26117c-0.80926,0.28925 -1.60838,0.61429 -2.40712,0.9407z" fill="#f5d957"/><path d="M17.60631,263.1297c-13.12224,-2.0562 -24.18962,-10.44559 -33.31154,-19.56751c0,0 -2.06194,-2.06194 -3.19812,-5.18993c-6.75962,-4.61114 -13.15331,-10.25633 -18.80188,-15.81007l-2,-2c0,0 -8.83883,-8.83883 0,-17.67767c8.83883,-8.83883 17.67767,0 17.67767,0l2,2c1.60562,1.65847 3.58619,2.90793 5.35119,4.39566c0.10566,0.08906 0.20906,0.18061 0.31058,0.27423c-1.7482,-9.15379 -1.87827,-16.5537 -2.79166,-28.85221c-1.6714,-22.50481 -3.66286,-45.10798 -4.2054,-67.68149c-0.15431,-6.42028 0.26775,-12.8483 0.03905,-19.26636c-0.17089,-4.79579 -1.5809,-9.47545 -2.01844,-14.25429c-0.93146,-10.17344 -2.16343,-20.6058 -2.98254,-30.7576c-0.5286,-6.55131 -0.77439,-13.12317 -1.03729,-19.69051c-0.12437,-3.10673 0.58582,-6.24681 0.15709,-9.32633c-0.17667,-1.269 -1.08285,-2.40418 -1.09185,-3.68539c-0.02699,-3.84283 0.65686,-7.65774 0.98529,-11.4866c0.31812,-4.10333 0.74804,-8.19952 0.95436,-12.30999c0.51712,-10.30266 -2.03255,-20.90828 13.25907,-23.95946c6.01174,-1.19954 15.73956,6.4183 18.83551,12.14307c1.29892,-0.70936 3.00256,0.7249 4.50663,0.97554c1.9196,0.31988 3.83568,0.69861 5.77569,0.852c16.76885,1.32587 33.51411,3.54523 50.30263,5.02521c8.34628,0.73576 16.72422,1.11922 25.05567,2.0073c14.86914,1.58495 28.39747,3.8762 43.11955,5.01069c10.9551,1.57235 21.70916,3.79824 32.66705,4.96795c2.84079,0.30324 5.69543,0.24494 8.54485,0.04449c4.96568,-3.58273 11.37699,-1.44563 11.37699,-1.44563l0.73361,0.36347c0.08982,-0.0035 0.17965,-0.00658 0.26949,-0.00926c-0.31542,-1.14004 0.21157,0.26782 4.0309,-0.62708c1.35938,-0.31851 2.62533,-1.03501 4.01087,-1.20719c0.57887,-0.07194 9.79648,-0.29003 11.52957,-0.06775c0.54214,0.06953 1.06908,0.22402 1.59332,0.39201c1.21026,-0.15742 2.42171,-0.30299 3.63559,-0.42363c7.8439,-0.77958 14.85309,-0.62338 22.62113,-1.04652c7.25437,-0.39515 14.36999,-2.17954 21.59166,-2.97293c2.14199,-0.23532 4.31328,0.09457 6.46458,-0.02975c10.2284,-0.59109 20.42079,-2.18735 30.64178,-2.97859c23.08535,-1.64693 46.10559,-3.69227 69.20628,-5.01359c11.67571,-0.66783 20.67367,-1.68373 32.37355,-1.00348c6.65261,0.38679 13.26983,1.25965 19.88325,2.07785c3.79242,0.46919 7.51918,1.49697 11.32077,1.83421c0.70924,-0.2737 1.38767,-0.68359 2.13853,-0.76784c1.19121,-0.13366 2.39215,-0.10792 3.59359,-0.07906c0.12552,-0.01704 0.2514,-0.03053 0.37768,-0.03976c1.14416,-0.08359 2.2918,-0.07077 3.44016,-0.03987c4.1125,-0.3899 7.42441,-1.17776 11.58857,-0.84131c3.26877,0.04884 6.98628,-1.4435 9.90623,-0.19663c0.69859,-0.00014 1.39727,0.0109 2.09605,0.03523c2.32605,0.08099 4.76779,-0.16016 6.95285,0.64146c2.60751,0.95661 4.67037,3.00761 7.02201,4.48544c2.29259,1.44072 4.47084,3.06306 6.59678,4.73997c2.86588,2.26057 7.64257,2.22381 9.56889,5.32426c5.19447,8.36062 1.94588,13.1807 -0.73753,20.42958c-4.77807,8.76176 -3.56006,19.8585 -4.99666,29.40659c-0.45612,3.03154 -1.62411,5.92177 -2.15258,8.94154c-0.87052,4.97433 -1.63623,9.97724 -2.35536,14.98298c2.35302,3.42775 4.68973,6.86494 6.60159,10.54819c0.57876,1.115 -0.19463,2.51917 -0.06083,3.76828c0.18102,1.69001 0.85314,3.30668 1,5c0.71076,8.19528 0.1448,16.73215 -1.03282,24.75901c-0.66662,4.54377 -1.1507,9.11227 -1.71893,13.66954c0.4647,1.87158 0.92883,3.73976 1.39383,5.59482c0.72974,2.91119 1.24464,5.80064 1.6068,8.68383c0.78472,2.52837 1.46526,5.05623 1.71829,6.99723c0.10052,0.77109 0.09912,6.80831 0.09366,8.52729c-0.00551,1.73096 0.6214,3.63068 0.44591,5.31736c2.42865,0.49869 4.84946,1.03606 7.26244,1.6014c1.94845,0.4565 3.81613,1.90084 5.79165,1.58125l12.5,13.5c0,0 0,12.5 -12.5,12.5c-3.02443,0 -5.31708,-0.73177 -7.05502,-1.84121c-0.52918,-0.10164 -1.05756,-0.21001 -1.58534,-0.32385c1.17594,1.36146 2.15621,3.18963 2.76714,5.63336c3.0317,12.12678 -9.09509,15.15848 -9.09509,15.15848c-3.06103,0.76265 -7.89857,2.05205 -10.79998,2.31239c-2.06844,0.18559 -4.16248,-0.302 -6.22944,-0.10057c-1.04912,0.10224 -1.95923,0.83297 -3,1c-3.30236,0.52999 -6.63585,0.87097 -9.97127,1.11882c-3.25745,0.24205 -6.56385,-0.46719 -9.79929,-0.01824c-7.71471,1.07049 -15.38092,0.82402 -23.14381,1.88523c-1.548,0.21162 -3.00363,0.95202 -4.56062,1.08195c-8.6066,0.7182 -17.34695,-0.40694 -25.96086,0.08082c-5.56081,0.31488 -11.11063,0.99964 -16.68032,0.98139c-6.00724,0.85818 -11.02733,0.5878 -17,1c-3.72367,0.25699 -7.33549,1.40811 -11.03628,1.89381c-11.67205,1.53189 -23.51046,1.33766 -35.22716,2.12211c-3.34248,0.22379 -6.65373,0.84284 -10,1c-0.43466,0.02041 -21.80728,0.01552 -22.62267,0.01552c-2.33319,0 -4.67975,-0.42753 -6.99772,-0.16141c-0.87716,0.1007 -1.61369,0.7901 -2.48895,0.90613c-15.40245,2.04175 -30.90738,2.03861 -45.90971,5.98112c-6.42791,1.13434 -13.13762,1.25314 -19.26679,3.49772c-1.77671,0.65065 -4.50596,2.85415 -5.84494,3.50538c-3.80224,1.84928 -8.38357,2.87868 -12.4602,3.89784c-2.69327,0.67332 -5.2872,1.77903 -8.02942,2.21181c-2.22951,0.35187 -4.53295,-0.19541 -6.77056,0.10057c-2.94896,0.39008 -5.7549,1.58141 -8.70443,1.96718c-3.17932,0.41583 -6.35654,0.40417 -9.52501,0.93225c-1.03975,0.17329 -1.95632,0.85218 -3,1c-3.24472,0.45956 -6.49367,0.80006 -9.74778,1.10594c-1.5694,0.41477 -3.14539,0.7556 -4.7272,0.96181c-4.15952,0.54225 -8.3408,0.76644 -12.53246,0.79538c-0.40892,0.05571 -0.81794,0.1132 -1.22706,0.17264c-25.36891,3.62413 -51.416,8.89289 -77.03626,10.10421c-0.49411,0.02336 -14.04887,0.02142 -18.73151,0.02142h-1c0,0 -4.84668,0 -8.50415,-3.01795c-0.98746,-0.0138 -1.77631,-0.03703 -2.02314,-0.07571z" fill="#7058f5"/><path d="M96.46109,18.64608c-3.68793,-1.03174 -8.82749,-3.90745 -8.82749,-11.92272c0,-12.5 12.5,-12.5 12.5,-12.5l7.93375,2.09937c10.88219,7.25479 21.68914,14.00527 33.08136,20.44306c5.39616,3.04939 9.92064,4.00948 12.03132,11.6209c1.00779,3.63422 -0.78382,7.50189 -1.17573,11.25284c-4.77926,11.70337 -9.54752,23.412 -14.53341,35.02919c-8.29391,19.32493 -16.23299,38.94231 -29.89412,55.24466c-5.84557,6.97574 -14.37273,12.18945 -22.16428,16.61856c-4.70721,2.67581 -9.48029,5.24014 -14.32099,7.66613c-0.61023,0.30583 -1.41179,0.13396 -1.98434,0.50556c-1.6891,1.09627 -2.95332,2.7838 -4.68005,3.8198c-3.33967,2.00372 -4.84939,1.92544 -7.70333,4.2806c-3.39344,2.80037 -3.44585,8.09698 -5.22406,12.12134c-0.778,1.76074 -1.76172,3.42321 -2.64257,5.13481c-0.39699,1.80835 -1.81465,4.94773 -1.38497,6.66089c0.91784,3.65945 1.75455,7.36209 2.12996,11.11617c0.03511,0.35108 -0.42056,0.68156 -0.30294,1.0142c0.33065,0.93511 1.19643,1.61147 1.55795,2.53508c0.50095,1.27982 0.52974,2.70859 1,4c1.02015,2.80146 2.93386,5.21572 4,8c2.10195,5.48936 3.77052,11.66538 6.90957,16.76519c1.71727,2.78994 4.08833,5.17108 5.59581,8.07975c1.59169,3.07116 2.88122,6.30221 4.6241,9.29016c0,0 6.20174,10.85304 -4.6513,17.05478c-10.85304,6.20174 -17.05478,-4.6513 -17.05478,-4.6513c-1.95906,-3.48106 -3.70121,-7.0834 -5.3759,-10.70984c-1.03119,-2.23299 -3.15348,-3.8024 -4.40419,-5.92025c-3.90368,-6.61015 -6.49767,-14.11472 -9.09043,-21.23481c-2.1413,-5.88031 -5.83569,-11.3492 -7.44205,-17.46492c-0.42298,-1.61037 -0.13727,-3.32906 -0.30294,-4.9858c-0.30112,-3.01116 -1.52521,-5.87737 -1.87004,-8.88383c-0.78007,-6.80111 0.91084,-12.86178 2.61503,-19.33911c4.46497,-9.12987 7.01052,-19.19268 14.13337,-26.74384c1.02602,-1.08772 2.49667,-1.65333 3.66533,-2.58611c1.07196,-0.85559 1.8649,-2.06766 3.04372,-2.76874c1.73826,-1.03379 3.8534,-1.32399 5.58762,-2.36456c1.93386,-1.16035 3.39278,-3.00878 5.31995,-4.1802c1.22046,-0.74186 2.73758,-0.85695 4.01566,-1.49444c8.50421,-4.24179 11.76464,-6.31343 19.17781,-11.02672c2.97293,-1.89019 6.0684,-3.94118 8.33693,-6.68858c11.86366,-14.36799 18.56238,-31.79526 25.80184,-48.7126c3.9489,-9.22786 7.72841,-18.52626 11.58568,-27.79251c-2.65525,-1.44525 -5.30836,-2.89446 -7.95946,-4.34731c-7.55722,-4.14148 -14.5403,-9.20411 -21.65739,-14.03486z" fill="#58f598"/><path d="M271.17392,25.90813c-0.31951,-0.12914 -0.64974,-0.23916 -0.99317,-0.32623zM271.84592,26.21414c-1.86904,-0.09282 -12.21232,-1.12016 -12.21232,-12.49078c0,-12.5 12.5,-12.5 12.5,-12.5l5.95285,0.64146c9.8943,3.55223 17.02137,10.80543 24.62254,17.76389c4.83188,4.42332 9.46611,9.06146 14.34947,13.42787c1.27275,1.13801 2.99988,1.7537 4.12174,3.04071c4.43348,5.08613 7.28372,11.35223 10.24247,17.25886c2.86212,5.71372 7.86689,12.20486 8.20554,19.00004c0.37425,7.50947 -4.85992,13.37205 -9.65577,18.20601c-5.69719,5.74246 -11.08007,11.41596 -17.52177,16.29579c-16.20083,11.25387 -32.9292,21.41366 -49.83511,31.55342c-4.73096,2.83752 -9.54978,5.52682 -14.36749,8.2144c-0.24932,0.13909 -6.88663,3.58597 -8.15506,5.65137c-2.6652,4.33981 -5.36509,8.69199 -7.45553,13.33604c-1.31607,2.92374 -1.62613,6.21122 -2.70279,9.23134c-1.00352,2.81494 -2.57949,5.40824 -3.52663,8.24264c-0.27978,0.83725 0.23371,2.72983 0.5296,3.52346c1.43796,3.85679 3.01835,7.66957 4.1962,11.61358c0.77853,2.60689 0.70158,5.44493 1.65876,7.99165c0.87057,2.3163 2.63352,4.1982 3.7523,6.40534c1.23636,2.4391 2.42743,4.92375 3.9893,7.16837c0,0 6.93375,10.40063 -3.46688,17.33438c-10.40063,6.93375 -17.33438,-3.46688 -17.33438,-3.46688c-2.24745,-3.46399 -4.18083,-7.13002 -6.0107,-10.83163c-1.28541,-2.60024 -3.23088,-4.87812 -4.2477,-7.59466c-1.20106,-3.20876 -1.35281,-6.72784 -2.34124,-10.00835c-2.59262,-8.60466 -7.72366,-17.41668 -5.2742,-26.86295c1.05251,-4.05896 3.10595,-7.79338 4.47337,-11.75736c1.2242,-3.54883 1.6996,-7.37153 3.29721,-10.76866c4.15819,-8.84188 8.71461,-18.65189 16.72199,-24.89237c4.76634,-3.71461 10.42001,-6.12338 15.66742,-9.12021c19.08507,-10.89958 37.74921,-22.69306 55.7974,-35.23218c5.33679,-3.93991 9.77668,-9.04676 14.47823,-13.70421c0.29044,-0.28772 0.5878,-0.56837 0.88583,-0.84834c-1.58242,-2.56827 -2.98925,-5.24644 -4.33607,-7.94561c-1.74132,-3.48981 -3.23127,-7.67693 -5.75753,-10.74114c-0.44721,-0.54244 -1.35129,-0.49395 -1.87826,-0.95929c-2.33618,-2.06298 -4.36953,-4.4483 -6.65053,-6.57213c-5.80973,-5.40941 -11.76441,-11.31818 -18.07989,-16.21301c-1.54739,-1.19931 -2.95495,-2.5418 -4.6324,-3.39085z" fill="#58f598"/><path d="M445.6336,-30.27664c0,-12.5 12.5,-12.5 12.5,-12.5h4c2.17424,0 7.46396,-0.05685 8.87191,0.33439c7.9672,2.21394 18.74047,9.70829 20.34974,18.54242c1.30573,7.16782 -5.76659,29.56258 -6.50534,32.3976c-0.26417,1.01378 -12.67236,48.60763 -12.84242,49.13209c-2.48533,7.66456 -10.98674,27.06403 -14.70025,35.69704c-3.72314,6.44193 -7.49456,12.8562 -11.16942,19.32579c-1.92662,3.39182 -3.89761,6.92352 -6.81421,9.51384c-5.63743,5.00679 -12.44941,8.53589 -18.31944,13.26785c-3.95683,3.18969 -7.53298,6.82584 -11.22585,10.31774c-1.26781,1.19882 -7.51766,6.87111 -9.02062,9.56797c-0.51134,0.91754 0.26775,1.52442 0.50266,2.37158c0.76098,2.7443 1.43046,5.51392 2.06869,8.28935c2.07101,9.00602 3.25399,18.22412 5.06179,27.2909c0.90504,4.53909 1.77553,8.73446 3.92308,12.86128c0,0 5.59017,11.18034 -5.59017,16.77051c-11.18034,5.59017 -16.77051,-5.59017 -16.77051,-5.59017c-6.2535,-12.81074 -7.67365,-27.43901 -10.11485,-41.33666c-0.72349,-4.11879 -1.8892,-8.14754 -2.83159,-12.22182c-0.50131,-2.16732 -1.42667,-4.30926 -1.36326,-6.53289c0.1069,-3.74892 0.73533,-7.51956 1.86593,-11.09553c2.11917,-6.70271 10.35282,-14.04196 14.97938,-18.43203c4.1857,-3.97175 8.28842,-8.05278 12.77415,-11.68226c4.61762,-3.7362 9.66725,-6.90444 14.48735,-10.3755c1.06336,-0.76575 2.67859,-1.03962 3.24271,-2.22236c3.50524,-7.34914 7.88189,-14.25127 11.96688,-21.29466c3.0512,-7.1491 11.42395,-26.50238 13.29975,-32.30296c5.04794,-15.60983 8.25421,-31.7563 12.39977,-47.62964c1.73544,-6.645 3.24103,-13.3546 5.20813,-19.93463c-0.18867,-0.14358 -0.3875,-0.26993 -0.60593,-0.36362c-0.96372,-0.41338 -2.07945,0.33439 -3.12809,0.33439h-4c0,0 -12.5,0 -12.5,-12.5z" fill="#58f598"/></g></g></svg>