<svg version="1.1" xmlns="http://www.w3.org/2000/svg" xmlns:xlink="http://www.w3.org/1999/xlink" width="720" height="540" viewBox="0,0,720,540"><defs><clipPath id="clip-1"><path d="M-120,450v-540h720v540z" fill="none" fill-rule="nonzero" stroke-width="1" stroke-linecap="butt"/></clipPath></defs><g transform="translate(120,90)"><g clip-path="url(#clip-1)" data-paper-data="{&quot;isPaintingLayer&quot;:true}" stroke="none" stroke-linejoin="miter" stroke-miterlimit="10" stroke-dasharray="" stroke-dashoffset="0" style="mix-blend-mode: normal"><path d="M-2.5,374v-379h488v379z" fill="#000000" fill-rule="nonzero" stroke-width="0" stroke-linecap="butt"/><path d="M1462.9423,-722.3517h552.94495v48h-552.94495z" fill-opacity="0" fill="#000000" fill-rule="evenodd" stroke-width="1" stroke-linecap="square"/><path d="M1478.1298,-692.20233l0.3125,1.85938c-0.59375,0.13542 -1.125,0.20313 -1.59375,0.20313c-0.77083,0 -1.36979,-0.11979 -1.79687,-0.35937c-0.41667,-0.25 -0.71354,-0.57292 -0.89062,-0.96875c-0.16667,-0.39583 -0.25,-1.22396 -0.25,-2.48437v-7.17187h-1.54687v-1.64062h1.54688v-3.07812l2.09375,-1.26562v4.34375h2.125v1.64063h-2.125v7.28125c0,0.60417 0.03646,0.99479 0.10938,1.17188c0.08333,0.16667 0.20833,0.30208 0.375,0.40625c0.16667,0.09375 0.40625,0.14063 0.71875,0.14063c0.22917,0 0.53646,-0.02604 0.92188,-0.07812zM1480.20402,-705.0617v-2.4375h2.10938v2.4375zM1480.20402,-690.3117v-12.45312h2.10938v12.45313zM1485.52043,-690.3117v-12.45312h1.89063v1.75c0.39583,-0.60417 0.91667,-1.09375 1.5625,-1.46875c0.64583,-0.375 1.38542,-0.5625 2.21875,-0.5625c0.91667,0 1.66667,0.19271 2.25,0.57813c0.59375,0.38542 1.01563,0.92188 1.26563,1.60938c0.97917,-1.45833 2.26042,-2.1875 3.84375,-2.1875c1.22917,0 2.17708,0.34375 2.84375,1.03125c0.66667,0.6875 1,1.73958 1,3.15625v8.54688h-2.10937v-7.84375c0,-0.84375 -0.06771,-1.44792 -0.20312,-1.8125c-0.13542,-0.375 -0.38542,-0.67708 -0.75,-0.90625c-0.35417,-0.22917 -0.77083,-0.34375 -1.25,-0.34375c-0.875,0 -1.60417,0.29167 -2.1875,0.875c-0.57292,0.58333 -0.85937,1.51563 -0.85937,2.79688v7.23438h-2.10937v-8.09375c0,-0.9375 -0.17187,-1.64062 -0.51562,-2.10937c-0.34375,-0.46875 -0.90625,-0.70312 -1.6875,-0.70312c-0.59375,0 -1.14583,0.15625 -1.65625,0.46875c-0.5,0.3125 -0.86458,0.77083 -1.09375,1.375c-0.22917,0.60417 -0.34375,1.47396 -0.34375,2.60938v6.45313zM1514.04386,-694.32733l2.17188,0.28125c-0.34375,1.27083 -0.97917,2.26042 -1.90625,2.96875c-0.92708,0.69792 -2.11458,1.04688 -3.5625,1.04688c-1.82292,0 -3.27083,-0.55729 -4.34375,-1.67187c-1.0625,-1.125 -1.59375,-2.70312 -1.59375,-4.73437c0,-2.09375 0.53646,-3.71875 1.60938,-4.875c1.08333,-1.15625 2.48438,-1.73437 4.20313,-1.73437c1.66667,0 3.02604,0.56771 4.07813,1.70313c1.0625,1.13542 1.59375,2.72917 1.59375,4.78125c0,0.125 -0.00521,0.3125 -0.01562,0.5625h-9.28125c0.07292,1.36458 0.45833,2.41146 1.15625,3.14063c0.69792,0.72917 1.56771,1.09375 2.60938,1.09375c0.77083,0 1.42708,-0.20312 1.96875,-0.60937c0.55208,-0.40625 0.98958,-1.05729 1.3125,-1.95312zM1507.10636,-697.73358h6.95313c-0.09375,-1.04167 -0.35937,-1.82812 -0.79687,-2.35937c-0.66667,-0.8125 -1.53646,-1.21875 -2.60937,-1.21875c-0.96875,0 -1.78646,0.32813 -2.45312,0.98438c-0.65625,0.64583 -1.02083,1.51042 -1.09375,2.59375zM1518.84464,-690.3117v-12.45312h1.89063v1.89063c0.48958,-0.88542 0.9375,-1.46875 1.34375,-1.75c0.41667,-0.28125 0.86979,-0.42187 1.35938,-0.42187c0.70833,0 1.43229,0.22917 2.17188,0.6875l-0.73437,1.95313c-0.51042,-0.30208 -1.02604,-0.45312 -1.54687,-0.45312c-0.45833,0 -0.875,0.14063 -1.25,0.42188c-0.36458,0.27083 -0.625,0.65104 -0.78125,1.14063c-0.22917,0.75 -0.34375,1.57292 -0.34375,2.46875v6.51563z" fill="#595959" fill-rule="nonzero" stroke-width="1" stroke-linecap="square"/><path d="M176.44002,228.85466c0,0.92902 -0.15356,1.76975 -0.46067,2.52219c-0.30712,0.74476 -0.74859,1.38202 -1.32444,1.91179c-0.56816,0.52977 -1.26685,0.94054 -2.09606,1.2323c-0.82921,0.28408 -1.81966,0.42612 -2.97134,0.42612h-2.1191v6.7028c0,0.07678 -0.02303,0.14588 -0.0691,0.2073c-0.03839,0.05375 -0.10365,0.09981 -0.19579,0.1382c-0.09213,0.03071 -0.21882,0.05758 -0.38006,0.08062c-0.15356,0.03071 -0.34934,0.04607 -0.58736,0.04607c-0.24569,0 -0.44916,-0.01536 -0.61039,-0.04607c-0.15356,-0.02303 -0.28024,-0.04991 -0.38006,-0.08062c-0.09213,-0.03839 -0.1574,-0.08446 -0.19579,-0.1382c-0.03839,-0.06142 -0.05758,-0.13052 -0.05758,-0.2073v-17.18312c0,-0.38389 0.09981,-0.65646 0.29944,-0.8177c0.2073,-0.16891 0.4338,-0.25337 0.67949,-0.25337h3.98482c0.40693,0 0.79466,0.01919 1.1632,0.05758c0.36854,0.03071 0.80234,0.10365 1.3014,0.21882c0.50674,0.10749 1.02116,0.31479 1.54326,0.62191c0.52977,0.29944 0.97509,0.67182 1.33595,1.11713c0.36854,0.43764 0.64878,0.94822 0.84073,1.53174c0.19963,0.57584 0.29944,1.21311 0.29944,1.91179zM173.83722,229.06197c0,-0.76011 -0.14204,-1.39354 -0.42612,-1.90028c-0.28408,-0.51442 -0.63726,-0.89447 -1.05955,-1.14017c-0.41461,-0.25337 -0.84457,-0.41077 -1.28989,-0.47219c-0.44532,-0.0691 -0.87912,-0.10365 -1.3014,-0.10365h-2.29185v7.47442h2.23427c0.74476,0 1.36283,-0.09597 1.85421,-0.28792c0.49906,-0.19195 0.91751,-0.45683 1.25533,-0.79466c0.33783,-0.34551 0.5912,-0.75627 0.76011,-1.2323c0.17659,-0.47603 0.26489,-0.99045 0.26489,-1.54326zM182.33088,241.6729c0,0.07678 -0.01919,0.14204 -0.05758,0.19579c-0.03839,0.04607 -0.10365,0.09213 -0.19579,0.1382c-0.08446,0.03839 -0.20346,0.06526 -0.35702,0.08062c-0.15356,0.02303 -0.34934,0.03455 -0.58736,0.03455c-0.23034,0 -0.42228,-0.01152 -0.57584,-0.03455c-0.15356,-0.01536 -0.2764,-0.04223 -0.36854,-0.08062c-0.09213,-0.04607 -0.1574,-0.09213 -0.19579,-0.1382c-0.03071,-0.05375 -0.04607,-0.11901 -0.04607,-0.19579v-19.23311c0,-0.07678 0.01536,-0.14204 0.04607,-0.19579c0.03839,-0.06142 0.10365,-0.11133 0.19579,-0.14972c0.09213,-0.03839 0.21498,-0.06526 0.36854,-0.08062c0.15356,-0.02303 0.34551,-0.03455 0.57584,-0.03455c0.23801,0 0.4338,0.01152 0.58736,0.03455c0.15356,0.01536 0.27257,0.04223 0.35702,0.08062c0.09213,0.03839 0.1574,0.0883 0.19579,0.14972c0.03839,0.05375 0.05758,0.11901 0.05758,0.19579zM196.47931,241.68442c0,0.11517 -0.03839,0.20346 -0.11517,0.26489c-0.07678,0.05375 -0.18427,0.09597 -0.32247,0.12669c-0.13052,0.03071 -0.32631,0.04607 -0.58736,0.04607c-0.24569,0 -0.44532,-0.01536 -0.59888,-0.04607c-0.14588,-0.03071 -0.25337,-0.07294 -0.32247,-0.12669c-0.0691,-0.06142 -0.10365,-0.14972 -0.10365,-0.26489v-1.3014c-0.56049,0.60655 -1.19007,1.07874 -1.88876,1.41657c-0.69869,0.33783 -1.43577,0.50674 -2.21123,0.50674c-0.68333,0 -1.3014,-0.09213 -1.85421,-0.2764c-0.54513,-0.17659 -1.01348,-0.42996 -1.40505,-0.76011c-0.39157,-0.33783 -0.69485,-0.75243 -0.90983,-1.24382c-0.21498,-0.49138 -0.32247,-1.04803 -0.32247,-1.66994c0,-0.7294 0.14972,-1.36283 0.44916,-1.90028c0.29944,-0.53745 0.72556,-0.98277 1.27837,-1.33595c0.56049,-0.35318 1.24382,-0.61807 2.05,-0.79466c0.80618,-0.18427 1.71217,-0.2764 2.71797,-0.2764h1.78511v-1.00196c0,-0.49906 -0.05375,-0.94054 -0.16124,-1.32444c-0.10749,-0.38389 -0.28024,-0.70253 -0.51826,-0.9559c-0.23034,-0.25337 -0.53361,-0.44532 -0.90983,-0.57584c-0.36854,-0.13052 -0.82921,-0.19579 -1.38202,-0.19579c-0.58352,0 -1.10945,0.0691 -1.57781,0.2073c-0.46067,0.1382 -0.8676,0.29176 -1.22078,0.46067c-0.34551,0.16891 -0.63726,0.32247 -0.87528,0.46067c-0.23801,0.1382 -0.41461,0.2073 -0.52977,0.2073c-0.07678,0 -0.14588,-0.01919 -0.2073,-0.05758c-0.05375,-0.03839 -0.10365,-0.09597 -0.14972,-0.17275c-0.03839,-0.07678 -0.0691,-0.17275 -0.09213,-0.28792c-0.01536,-0.12285 -0.02303,-0.25721 -0.02303,-0.40309c0,-0.23801 0.01536,-0.42612 0.04607,-0.56432c0.03839,-0.1382 0.12285,-0.26873 0.25337,-0.39157c0.13052,-0.13052 0.35318,-0.28024 0.66798,-0.44916c0.31479,-0.16891 0.67949,-0.32247 1.0941,-0.46067c0.41461,-0.1382 0.86376,-0.25337 1.34747,-0.34551c0.49138,-0.09213 0.98661,-0.1382 1.48567,-0.1382c0.92902,0 1.71985,0.10749 2.37247,0.32247c0.65262,0.2073 1.17856,0.51826 1.57781,0.93286c0.40693,0.40693 0.70253,0.91367 0.8868,1.52022c0.18427,0.59888 0.2764,1.3014 0.2764,2.10758zM194.11836,235.76476h-2.02696c-0.65262,0 -1.22078,0.05758 -1.70449,0.17275c-0.47603,0.10749 -0.87528,0.26873 -1.19775,0.48371c-0.31479,0.21498 -0.54897,0.47603 -0.70253,0.78314c-0.14588,0.29944 -0.21882,0.64494 -0.21882,1.03652c0,0.67565 0.21498,1.21311 0.64494,1.61236c0.42996,0.39157 1.02884,0.58736 1.79663,0.58736c0.62191,0 1.19775,-0.1574 1.72753,-0.47219c0.53745,-0.31479 1.09794,-0.7985 1.68146,-1.45112zM206.19664,242.02992l-1.72753,4.76797c-0.06142,0.15356 -0.21114,0.26873 -0.44916,0.34551c-0.23034,0.08446 -0.58352,0.12669 -1.05955,0.12669c-0.25337,0 -0.45683,-0.01152 -0.61039,-0.03455c-0.15356,-0.02303 -0.27257,-0.06526 -0.35702,-0.12669c-0.07678,-0.05375 -0.12285,-0.13052 -0.1382,-0.23034c-0.00768,-0.09213 0.01919,-0.2073 0.08062,-0.34551l1.78511,-4.50308c-0.08446,-0.03839 -0.16507,-0.09981 -0.24185,-0.18427c-0.07678,-0.09213 -0.13052,-0.18427 -0.16124,-0.2764l-4.61825,-12.3806c-0.07678,-0.19963 -0.11517,-0.35702 -0.11517,-0.47219c0,-0.11517 0.03839,-0.2073 0.11517,-0.2764c0.07678,-0.0691 0.19963,-0.11517 0.36854,-0.1382c0.17659,-0.02303 0.40693,-0.03455 0.69101,-0.03455c0.29176,0 0.51826,0.00768 0.67949,0.02303c0.16124,0.01536 0.28792,0.04223 0.38006,0.08062c0.09981,0.03839 0.16891,0.09213 0.2073,0.16124c0.04607,0.0691 0.09597,0.16891 0.14972,0.29944l3.6969,10.38818h0.04607l3.57022,-10.44577c0.05375,-0.18427 0.11901,-0.30328 0.19579,-0.35702c0.08446,-0.05375 0.2073,-0.09213 0.36854,-0.11517c0.16891,-0.02303 0.40693,-0.03455 0.71404,-0.03455c0.26873,0 0.48755,0.01152 0.65646,0.03455c0.17659,0.02303 0.30328,0.0691 0.38006,0.1382c0.08446,0.0691 0.12669,0.16124 0.12669,0.2764c0,0.11517 -0.02687,0.25721 -0.08062,0.42612zM230.06528,241.68442c0,0.11517 -0.03839,0.20346 -0.11517,0.26489c-0.07678,0.05375 -0.18427,0.09597 -0.32247,0.12669c-0.13052,0.03071 -0.32631,0.04607 -0.58736,0.04607c-0.24569,0 -0.44532,-0.01536 -0.59888,-0.04607c-0.14588,-0.03071 -0.25337,-0.07294 -0.32247,-0.12669c-0.0691,-0.06142 -0.10365,-0.14972 -0.10365,-0.26489v-1.3014c-0.56049,0.60655 -1.19007,1.07874 -1.88876,1.41657c-0.69869,0.33783 -1.43577,0.50674 -2.21123,0.50674c-0.68333,0 -1.3014,-0.09213 -1.85421,-0.2764c-0.54513,-0.17659 -1.01348,-0.42996 -1.40505,-0.76011c-0.39157,-0.33783 -0.69485,-0.75243 -0.90983,-1.24382c-0.21498,-0.49138 -0.32247,-1.04803 -0.32247,-1.66994c0,-0.7294 0.14972,-1.36283 0.44916,-1.90028c0.29944,-0.53745 0.72556,-0.98277 1.27837,-1.33595c0.56049,-0.35318 1.24382,-0.61807 2.05,-0.79466c0.80618,-0.18427 1.71217,-0.2764 2.71797,-0.2764h1.78511v-1.00196c0,-0.49906 -0.05375,-0.94054 -0.16124,-1.32444c-0.10749,-0.38389 -0.28024,-0.70253 -0.51826,-0.9559c-0.23034,-0.25337 -0.53361,-0.44532 -0.90983,-0.57584c-0.36854,-0.13052 -0.82921,-0.19579 -1.38202,-0.19579c-0.58352,0 -1.10945,0.0691 -1.57781,0.2073c-0.46067,0.1382 -0.8676,0.29176 -1.22078,0.46067c-0.34551,0.16891 -0.63726,0.32247 -0.87528,0.46067c-0.23801,0.1382 -0.41461,0.2073 -0.52977,0.2073c-0.07678,0 -0.14588,-0.01919 -0.2073,-0.05758c-0.05375,-0.03839 -0.10365,-0.09597 -0.14972,-0.17275c-0.03839,-0.07678 -0.0691,-0.17275 -0.09213,-0.28792c-0.01536,-0.12285 -0.02303,-0.25721 -0.02303,-0.40309c0,-0.23801 0.01536,-0.42612 0.04607,-0.56432c0.03839,-0.1382 0.12285,-0.26873 0.25337,-0.39157c0.13052,-0.13052 0.35318,-0.28024 0.66798,-0.44916c0.31479,-0.16891 0.67949,-0.32247 1.0941,-0.46067c0.41461,-0.1382 0.86376,-0.25337 1.34747,-0.34551c0.49138,-0.09213 0.98661,-0.1382 1.48567,-0.1382c0.92902,0 1.71985,0.10749 2.37247,0.32247c0.65262,0.2073 1.17856,0.51826 1.57781,0.93286c0.40693,0.40693 0.70253,0.91367 0.8868,1.52022c0.18427,0.59888 0.2764,1.3014 0.2764,2.10758zM227.70433,235.76476h-2.02696c-0.65262,0 -1.22078,0.05758 -1.70449,0.17275c-0.47603,0.10749 -0.87528,0.26873 -1.19775,0.48371c-0.31479,0.21498 -0.54897,0.47603 -0.70253,0.78314c-0.14588,0.29944 -0.21882,0.64494 -0.21882,1.03652c0,0.67565 0.21498,1.21311 0.64494,1.61236c0.42996,0.39157 1.02884,0.58736 1.79663,0.58736c0.62191,0 1.19775,-0.1574 1.72753,-0.47219c0.53745,-0.31479 1.09794,-0.7985 1.68146,-1.45112zM245.24734,229.30382c0,0.33783 -0.04607,0.57968 -0.1382,0.72556c-0.08446,0.14588 -0.19963,0.21882 -0.34551,0.21882h-1.85421c0.33015,0.34551 0.56049,0.7294 0.69101,1.15168c0.1382,0.41461 0.2073,0.84841 0.2073,1.3014c0,0.74476 -0.11901,1.40505 -0.35702,1.9809c-0.23801,0.57584 -0.57968,1.06339 -1.025,1.46264c-0.44532,0.39925 -0.97509,0.70637 -1.58932,0.92135c-0.61423,0.2073 -1.29756,0.31095 -2.05,0.31095c-0.52977,0 -1.03268,-0.0691 -1.50871,-0.2073c-0.46835,-0.1382 -0.83305,-0.31479 -1.0941,-0.52977c-0.17659,0.17659 -0.31863,0.37622 -0.42612,0.59888c-0.10749,0.21498 -0.16124,0.46835 -0.16124,0.76011c0,0.33783 0.15356,0.61807 0.46067,0.84073c0.31479,0.21498 0.7294,0.33399 1.24382,0.35702l3.38595,0.1382c0.64494,0.02303 1.23614,0.11517 1.77359,0.2764c0.53745,0.15356 1.00196,0.37622 1.39354,0.66798c0.39157,0.29176 0.69869,0.65262 0.92135,1.08258c0.22266,0.42228 0.33399,0.91751 0.33399,1.48567c0,0.59888 -0.12669,1.16704 -0.38006,1.70449c-0.24569,0.53745 -0.62575,1.00964 -1.14017,1.41657c-0.51442,0.40693 -1.17088,0.72556 -1.96938,0.9559c-0.79082,0.23801 -1.73136,0.35702 -2.82162,0.35702c-1.04419,0 -1.93483,-0.0883 -2.67191,-0.26489c-0.7294,-0.17659 -1.33211,-0.41844 -1.80814,-0.72556c-0.46835,-0.30712 -0.81002,-0.67565 -1.025,-1.10562c-0.2073,-0.42228 -0.31095,-0.88296 -0.31095,-1.38202c0,-0.31479 0.03839,-0.62191 0.11517,-0.92135c0.07678,-0.29944 0.19579,-0.58352 0.35702,-0.85225c0.16124,-0.26873 0.35702,-0.52594 0.58736,-0.77163c0.23801,-0.24569 0.51058,-0.48755 0.8177,-0.72556c-0.46835,-0.23801 -0.8177,-0.53745 -1.04803,-0.89831c-0.22266,-0.36854 -0.33399,-0.76395 -0.33399,-1.18623c0,-0.5912 0.11901,-1.11713 0.35702,-1.57781c0.23801,-0.46067 0.53745,-0.87144 0.89831,-1.2323c-0.29944,-0.35318 -0.53745,-0.75243 -0.71404,-1.19775c-0.16891,-0.453 -0.25337,-0.99429 -0.25337,-1.62387c0,-0.73708 0.12285,-1.39738 0.36854,-1.9809c0.25337,-0.5912 0.59888,-1.08642 1.03652,-1.48567c0.44532,-0.40693 0.97509,-0.71788 1.58932,-0.93286c0.62191,-0.21498 1.29756,-0.32247 2.02696,-0.32247c0.39157,0 0.75627,0.02303 1.0941,0.0691c0.34551,0.03839 0.66798,0.09597 0.96741,0.17275h3.91572c0.16124,0 0.28024,0.08062 0.35702,0.24185c0.08446,0.15356 0.12669,0.39541 0.12669,0.72556zM241.53892,232.7128c0,-0.88296 -0.24185,-1.57013 -0.72556,-2.06151c-0.48371,-0.49906 -1.17472,-0.74859 -2.07303,-0.74859c-0.46067,0 -0.85992,0.07678 -1.19775,0.23034c-0.33783,0.15356 -0.62191,0.3647 -0.85225,0.63343c-0.22266,0.26873 -0.39157,0.57968 -0.50674,0.93286c-0.10749,0.35318 -0.16124,0.72172 -0.16124,1.10562c0,0.85225 0.24185,1.52406 0.72556,2.01545c0.48371,0.48371 1.1632,0.72556 2.03848,0.72556c0.46835,0 0.87528,-0.07294 1.22078,-0.21882c0.34551,-0.14588 0.62959,-0.34934 0.85225,-0.61039c0.23034,-0.26873 0.39925,-0.57584 0.50674,-0.92135c0.11517,-0.34551 0.17275,-0.70637 0.17275,-1.08258zM242.73667,242.98582c0,-0.56049 -0.23034,-0.99045 -0.69101,-1.28989c-0.453,-0.30712 -1.06723,-0.46835 -1.84269,-0.48371l-3.36292,-0.11517c-0.30712,0.23801 -0.56049,0.46451 -0.76011,0.67949c-0.19195,0.21498 -0.34551,0.42228 -0.46067,0.62191c-0.11517,0.19963 -0.19579,0.39541 -0.24185,0.58736c-0.03839,0.19195 -0.05758,0.38773 -0.05758,0.58736c0,0.62191 0.31479,1.0941 0.94438,1.41657c0.63726,0.32247 1.52022,0.48371 2.64887,0.48371c0.72172,0 1.32444,-0.0691 1.80814,-0.2073c0.48371,-0.1382 0.87528,-0.32247 1.17472,-0.55281c0.29944,-0.23034 0.51442,-0.49522 0.64494,-0.79466c0.13052,-0.29944 0.19579,-0.61039 0.19579,-0.93286zM257.51853,241.68442c0,0.11517 -0.03839,0.20346 -0.11517,0.26489c-0.07678,0.05375 -0.18427,0.09597 -0.32247,0.12669c-0.13052,0.03071 -0.32631,0.04607 -0.58736,0.04607c-0.24569,0 -0.44532,-0.01536 -0.59888,-0.04607c-0.14588,-0.03071 -0.25337,-0.07294 -0.32247,-0.12669c-0.0691,-0.06142 -0.10365,-0.14972 -0.10365,-0.26489v-1.3014c-0.56049,0.60655 -1.19007,1.07874 -1.88876,1.41657c-0.69869,0.33783 -1.43577,0.50674 -2.21123,0.50674c-0.68333,0 -1.3014,-0.09213 -1.85421,-0.2764c-0.54513,-0.17659 -1.01348,-0.42996 -1.40505,-0.76011c-0.39157,-0.33783 -0.69485,-0.75243 -0.90983,-1.24382c-0.21498,-0.49138 -0.32247,-1.04803 -0.32247,-1.66994c0,-0.7294 0.14972,-1.36283 0.44916,-1.90028c0.29944,-0.53745 0.72556,-0.98277 1.27837,-1.33595c0.56049,-0.35318 1.24382,-0.61807 2.05,-0.79466c0.80618,-0.18427 1.71217,-0.2764 2.71797,-0.2764h1.78511v-1.00196c0,-0.49906 -0.05375,-0.94054 -0.16124,-1.32444c-0.10749,-0.38389 -0.28024,-0.70253 -0.51826,-0.9559c-0.23034,-0.25337 -0.53361,-0.44532 -0.90983,-0.57584c-0.36854,-0.13052 -0.82921,-0.19579 -1.38202,-0.19579c-0.58352,0 -1.10945,0.0691 -1.57781,0.2073c-0.46067,0.1382 -0.8676,0.29176 -1.22078,0.46067c-0.34551,0.16891 -0.63726,0.32247 -0.87528,0.46067c-0.23801,0.1382 -0.41461,0.2073 -0.52977,0.2073c-0.07678,0 -0.14588,-0.01919 -0.2073,-0.05758c-0.05375,-0.03839 -0.10365,-0.09597 -0.14972,-0.17275c-0.03839,-0.07678 -0.0691,-0.17275 -0.09213,-0.28792c-0.01536,-0.12285 -0.02303,-0.25721 -0.02303,-0.40309c0,-0.23801 0.01536,-0.42612 0.04607,-0.56432c0.03839,-0.1382 0.12285,-0.26873 0.25337,-0.39157c0.13052,-0.13052 0.35318,-0.28024 0.66798,-0.44916c0.31479,-0.16891 0.67949,-0.32247 1.0941,-0.46067c0.41461,-0.1382 0.86376,-0.25337 1.34747,-0.34551c0.49138,-0.09213 0.98661,-0.1382 1.48567,-0.1382c0.92902,0 1.71985,0.10749 2.37247,0.32247c0.65262,0.2073 1.17856,0.51826 1.57781,0.93286c0.40693,0.40693 0.70253,0.91367 0.8868,1.52022c0.18427,0.59888 0.2764,1.3014 0.2764,2.10758zM255.15758,235.76476h-2.02696c-0.65262,0 -1.22078,0.05758 -1.70449,0.17275c-0.47603,0.10749 -0.87528,0.26873 -1.19775,0.48371c-0.31479,0.21498 -0.54897,0.47603 -0.70253,0.78314c-0.14588,0.29944 -0.21882,0.64494 -0.21882,1.03652c0,0.67565 0.21498,1.21311 0.64494,1.61236c0.42996,0.39157 1.02884,0.58736 1.79663,0.58736c0.62191,0 1.19775,-0.1574 1.72753,-0.47219c0.53745,-0.31479 1.09794,-0.7985 1.68146,-1.45112zM264.25876,241.6729c0,0.07678 -0.01919,0.14204 -0.05758,0.19579c-0.03839,0.04607 -0.10365,0.09213 -0.19579,0.1382c-0.08446,0.03839 -0.20346,0.06526 -0.35702,0.08062c-0.15356,0.02303 -0.34934,0.03455 -0.58736,0.03455c-0.23034,0 -0.42228,-0.01152 -0.57584,-0.03455c-0.15356,-0.01536 -0.2764,-0.04223 -0.36854,-0.08062c-0.09213,-0.04607 -0.1574,-0.09213 -0.19579,-0.1382c-0.03071,-0.05375 -0.04607,-0.11901 -0.04607,-0.19579v-12.95644c0,-0.0691 0.01536,-0.13052 0.04607,-0.18427c0.03839,-0.06142 0.10365,-0.11133 0.19579,-0.14972c0.09213,-0.03839 0.21498,-0.06526 0.36854,-0.08062c0.15356,-0.02303 0.34551,-0.03455 0.57584,-0.03455c0.23801,0 0.4338,0.01152 0.58736,0.03455c0.15356,0.01536 0.27257,0.04223 0.35702,0.08062c0.09213,0.03839 0.1574,0.0883 0.19579,0.14972c0.03839,0.05375 0.05758,0.11517 0.05758,0.18427zM264.52364,224.34007c0,0.55281 -0.10749,0.93286 -0.32247,1.14017c-0.2073,0.19963 -0.5912,0.29944 -1.15168,0.29944c-0.56049,0 -0.94438,-0.09981 -1.15168,-0.29944c-0.2073,-0.19963 -0.31095,-0.572 -0.31095,-1.11713c0,-0.55281 0.10365,-0.92902 0.31095,-1.12865c0.21498,-0.2073 0.60655,-0.31095 1.17472,-0.31095c0.56049,0 0.94054,0.09981 1.14017,0.29944c0.2073,0.19195 0.31095,0.56432 0.31095,1.11713zM279.80072,241.6729c0,0.07678 -0.01919,0.14204 -0.05758,0.19579c-0.03839,0.04607 -0.09981,0.09213 -0.18427,0.1382c-0.08446,0.03839 -0.20346,0.06526 -0.35702,0.08062c-0.15356,0.02303 -0.34551,0.03455 -0.57584,0.03455c-0.24569,0 -0.44532,-0.01152 -0.59888,-0.03455c-0.15356,-0.01536 -0.27257,-0.04223 -0.35702,-0.08062c-0.08446,-0.04607 -0.14588,-0.09213 -0.18427,-0.1382c-0.03839,-0.05375 -0.05758,-0.11901 -0.05758,-0.19579v-7.58959c0,-0.73708 -0.05758,-1.33211 -0.17275,-1.78511c-0.11517,-0.453 -0.28408,-0.84073 -0.50674,-1.1632c-0.22266,-0.33015 -0.51058,-0.57968 -0.86376,-0.74859c-0.34551,-0.17659 -0.74859,-0.26489 -1.20927,-0.26489c-0.5912,0 -1.18623,0.21114 -1.78511,0.63343c-0.5912,0.42228 -1.21311,1.04035 -1.86573,1.85421v9.06375c0,0.07678 -0.01919,0.14204 -0.05758,0.19579c-0.03839,0.04607 -0.10365,0.09213 -0.19579,0.1382c-0.08446,0.03839 -0.20346,0.06526 -0.35702,0.08062c-0.15356,0.02303 -0.34934,0.03455 -0.58736,0.03455c-0.23034,0 -0.42228,-0.01152 -0.57584,-0.03455c-0.15356,-0.01536 -0.2764,-0.04223 -0.36854,-0.08062c-0.09213,-0.04607 -0.1574,-0.09213 -0.19579,-0.1382c-0.03071,-0.05375 -0.04607,-0.11901 -0.04607,-0.19579v-12.95644c0,-0.07678 0.01536,-0.14204 0.04607,-0.19579c0.03071,-0.05375 0.0883,-0.09981 0.17275,-0.1382c0.08446,-0.04607 0.19195,-0.07678 0.32247,-0.09213c0.1382,-0.01536 0.31863,-0.02303 0.54129,-0.02303c0.21498,0 0.39157,0.00768 0.52977,0.02303c0.1382,0.01536 0.24569,0.04607 0.32247,0.09213c0.07678,0.03839 0.13052,0.08446 0.16124,0.1382c0.03839,0.05375 0.05758,0.11901 0.05758,0.19579v1.70449c0.7294,-0.81386 1.45496,-1.40889 2.17668,-1.78511c0.72172,-0.38389 1.45496,-0.57584 2.19972,-0.57584c0.85992,0 1.58548,0.14972 2.17668,0.44916c0.5912,0.29176 1.06723,0.68333 1.42809,1.17472c0.36854,0.48371 0.62959,1.05571 0.78314,1.71601c0.16124,0.65262 0.24185,1.4396 0.24185,2.36095zM287.20605,240.46363c0,0.67565 -0.11517,1.12865 -0.34551,1.35899c-0.22266,0.22266 -0.63343,0.33399 -1.2323,0.33399c-0.57584,0 -0.97509,-0.10749 -1.19775,-0.32247c-0.21498,-0.22266 -0.32247,-0.66798 -0.32247,-1.33595c0,-0.67565 0.11133,-1.12481 0.33399,-1.34747c0.23034,-0.23034 0.6411,-0.34551 1.2323,-0.34551c0.57584,0 0.97509,0.11133 1.19775,0.33399c0.22266,0.21498 0.33399,0.65646 0.33399,1.32444zM294.6488,240.46363c0,0.67565 -0.11517,1.12865 -0.34551,1.35899c-0.22266,0.22266 -0.63343,0.33399 -1.2323,0.33399c-0.57584,0 -0.97509,-0.10749 -1.19775,-0.32247c-0.21498,-0.22266 -0.32247,-0.66798 -0.32247,-1.33595c0,-0.67565 0.11133,-1.12481 0.33399,-1.34747c0.23034,-0.23034 0.6411,-0.34551 1.2323,-0.34551c0.57584,0 0.97509,0.11133 1.19775,0.33399c0.22266,0.21498 0.33399,0.65646 0.33399,1.32444zM302.09156,240.46363c0,0.67565 -0.11517,1.12865 -0.34551,1.35899c-0.22266,0.22266 -0.63343,0.33399 -1.2323,0.33399c-0.57584,0 -0.97509,-0.10749 -1.19775,-0.32247c-0.21498,-0.22266 -0.32247,-0.66798 -0.32247,-1.33595c0,-0.67565 0.11133,-1.12481 0.33399,-1.34747c0.23034,-0.23034 0.6411,-0.34551 1.2323,-0.34551c0.57584,0 0.97509,0.11133 1.19775,0.33399c0.22266,0.21498 0.33399,0.65646 0.33399,1.32444zM316.57109,227.76056c0,0.84457 -0.12285,1.59316 -0.36854,2.24578c-0.23801,0.65262 -0.572,1.20927 -1.00196,1.66994c-0.42996,0.46067 -0.94822,0.82153 -1.55477,1.08258c-0.60655,0.26105 -1.27837,0.41461 -2.01545,0.46067l-0.10365,3.46657c0,0.14588 -0.08446,0.25721 -0.25337,0.33399c-0.16124,0.0691 -0.42996,0.10365 -0.80618,0.10365c-0.19963,0 -0.37238,-0.00768 -0.51826,-0.02303c-0.14588,-0.01536 -0.26105,-0.03839 -0.34551,-0.0691c-0.08446,-0.03839 -0.14588,-0.08446 -0.18427,-0.1382c-0.03839,-0.06142 -0.05758,-0.13052 -0.05758,-0.2073l-0.09213,-3.98482c-0.00768,-0.22266 0.00768,-0.40309 0.04607,-0.54129c0.04607,-0.1382 0.11133,-0.25337 0.19579,-0.34551c0.09213,-0.09213 0.20346,-0.15356 0.33399,-0.18427c0.1382,-0.03839 0.29176,-0.05758 0.46067,-0.05758h0.32247c0.62191,0 1.15168,-0.09597 1.58932,-0.28792c0.44532,-0.19963 0.80234,-0.46067 1.07107,-0.78314c0.2764,-0.33015 0.47603,-0.71404 0.59888,-1.15168c0.13052,-0.44532 0.19579,-0.90599 0.19579,-1.38202c0,-0.55281 -0.07678,-1.05571 -0.23034,-1.50871c-0.15356,-0.453 -0.38389,-0.84457 -0.69101,-1.17472c-0.30712,-0.33783 -0.69485,-0.59504 -1.1632,-0.77163c-0.46835,-0.18427 -1.01732,-0.2764 -1.64691,-0.2764c-0.56049,0 -1.04803,0.06142 -1.46264,0.18427c-0.41461,0.11517 -0.77547,0.24569 -1.08258,0.39157c-0.30712,0.14588 -0.56049,0.2764 -0.76011,0.39157c-0.19963,0.11517 -0.34551,0.17275 -0.43764,0.17275c-0.0691,0 -0.13052,-0.01536 -0.18427,-0.04607c-0.05375,-0.03071 -0.09981,-0.08446 -0.1382,-0.16124c-0.03839,-0.08446 -0.0691,-0.19579 -0.09213,-0.33399c-0.01536,-0.1382 -0.02303,-0.31479 -0.02303,-0.52977c0,-0.23034 0.01536,-0.40309 0.04607,-0.51826c0.03071,-0.12285 0.09213,-0.23034 0.18427,-0.32247c0.09981,-0.09213 0.28408,-0.21114 0.55281,-0.35702c0.2764,-0.15356 0.60655,-0.29176 0.99045,-0.41461c0.39157,-0.12285 0.82153,-0.2265 1.28989,-0.31095c0.46835,-0.09213 0.95206,-0.1382 1.45112,-0.1382c1.02116,0 1.90028,0.14972 2.63735,0.44916c0.74476,0.29176 1.35515,0.68717 1.83118,1.18623c0.48371,0.49906 0.84073,1.08642 1.07107,1.76208c0.23034,0.66798 0.34551,1.37434 0.34551,2.1191zM312.02194,240.53273c0,0.31479 -0.02303,0.57584 -0.0691,0.78314c-0.03839,0.2073 -0.11517,0.37622 -0.23034,0.50674c-0.11517,0.13052 -0.27257,0.22266 -0.47219,0.2764c-0.19963,0.05375 -0.44148,0.08062 -0.72556,0.08062c-0.30712,0 -0.55665,-0.02687 -0.74859,-0.08062c-0.19195,-0.05375 -0.34934,-0.14588 -0.47219,-0.2764c-0.11517,-0.13052 -0.19579,-0.29944 -0.24185,-0.50674c-0.04607,-0.2073 -0.0691,-0.46835 -0.0691,-0.78314c0,-0.31479 0.02303,-0.57968 0.0691,-0.79466c0.04607,-0.22266 0.12669,-0.39157 0.24185,-0.50674c0.12285,-0.12285 0.28024,-0.21114 0.47219,-0.26489c0.19195,-0.05375 0.44148,-0.08062 0.74859,-0.08062c0.28408,0 0.52594,0.02687 0.72556,0.08062c0.19963,0.05375 0.35702,0.14204 0.47219,0.26489c0.11517,0.11517 0.19195,0.28408 0.23034,0.50674c0.04607,0.21498 0.0691,0.47987 0.0691,0.79466z" fill="#595959" fill-rule="nonzero" stroke-width="1" stroke-linecap="square"/><path d="M103.85375,135.21078c0,0.33783 -0.02303,0.60655 -0.0691,0.80618c-0.04607,0.19195 -0.11517,0.33399 -0.2073,0.42612c-0.09213,0.09213 -0.23034,0.18043 -0.41461,0.26489c-0.18427,0.07678 -0.39541,0.14204 -0.63343,0.19579c-0.23801,0.05375 -0.49138,0.09597 -0.76011,0.12669c-0.26105,0.03839 -0.5221,0.05758 -0.78314,0.05758c-0.80618,0 -1.49719,-0.10749 -2.07303,-0.32247c-0.57584,-0.21498 -1.04803,-0.53745 -1.41657,-0.96741c-0.36854,-0.43764 -0.63726,-0.98661 -0.80618,-1.64691c-0.16891,-0.6603 -0.25337,-1.4396 -0.25337,-2.33792v-9.08678h-2.17668c-0.16891,0 -0.30712,-0.09213 -0.41461,-0.2764c-0.09981,-0.18427 -0.14972,-0.48371 -0.14972,-0.89831c0,-0.22266 0.01152,-0.40693 0.03455,-0.55281c0.03071,-0.15356 0.0691,-0.2764 0.11517,-0.36854c0.04607,-0.09981 0.10749,-0.16891 0.18427,-0.2073c0.07678,-0.04607 0.16124,-0.0691 0.25337,-0.0691h2.15365v-3.6969c0,-0.07678 0.01919,-0.14972 0.05758,-0.21882c0.04607,-0.0691 0.12285,-0.13052 0.23034,-0.18427c0.10749,-0.05375 0.25337,-0.09213 0.43764,-0.11517c0.18427,-0.02303 0.41461,-0.03455 0.69101,-0.03455c0.29176,0 0.52977,0.01152 0.71404,0.03455c0.18427,0.02303 0.32631,0.06142 0.42612,0.11517c0.10749,0.05375 0.18427,0.11517 0.23034,0.18427c0.04607,0.0691 0.0691,0.14204 0.0691,0.21882v3.6969h3.98482c0.09213,0 0.17275,0.02303 0.24185,0.0691c0.0691,0.03839 0.13052,0.10749 0.18427,0.2073c0.05375,0.09213 0.09213,0.21498 0.11517,0.36854c0.02303,0.14588 0.03455,0.33015 0.03455,0.55281c0,0.41461 -0.05375,0.71404 -0.16124,0.89831c-0.09981,0.18427 -0.23801,0.2764 -0.41461,0.2764h-3.98482v8.67218c0,1.06723 0.1574,1.87724 0.47219,2.43005c0.31479,0.54513 0.88296,0.8177 1.70449,0.8177c0.26105,0 0.49522,-0.02687 0.70253,-0.08062c0.2073,-0.05375 0.39157,-0.10749 0.55281,-0.16124c0.16124,-0.06142 0.29944,-0.11517 0.41461,-0.16124c0.11517,-0.05375 0.21882,-0.08062 0.31095,-0.08062c0.06142,0 0.11517,0.01536 0.16124,0.04607c0.05375,0.02303 0.09597,0.07678 0.12669,0.16124c0.03071,0.07678 0.05758,0.18427 0.08062,0.32247c0.02303,0.1382 0.03455,0.31095 0.03455,0.51826zM121.00232,136.35094c0,0.09213 -0.02303,0.17275 -0.0691,0.24185c-0.04607,0.06142 -0.12285,0.11517 -0.23034,0.16124c-0.09981,0.04607 -0.24185,0.08062 -0.42612,0.10365c-0.18427,0.02303 -0.41461,0.03455 -0.69101,0.03455c-0.28408,0 -0.51826,-0.01152 -0.70253,-0.03455c-0.18427,-0.02303 -0.33015,-0.05758 -0.43764,-0.10365c-0.09981,-0.04607 -0.17275,-0.09981 -0.21882,-0.16124c-0.04607,-0.0691 -0.0691,-0.14972 -0.0691,-0.24185v-9.0983c0,-0.89064 -0.0691,-1.60468 -0.2073,-2.14213c-0.1382,-0.54513 -0.34167,-1.01348 -0.61039,-1.40505c-0.26105,-0.39157 -0.60271,-0.69101 -1.025,-0.89831c-0.42228,-0.2073 -0.90983,-0.31095 -1.46264,-0.31095c-0.71404,0 -1.42809,0.25337 -2.14213,0.76011c-0.71404,0.50674 -1.46264,1.2515 -2.24578,2.23427v10.86037c0,0.09213 -0.02303,0.17275 -0.0691,0.24185c-0.04607,0.06142 -0.12285,0.11517 -0.23034,0.16124c-0.09981,0.04607 -0.24185,0.08062 -0.42612,0.10365c-0.18427,0.02303 -0.41844,0.03455 -0.70253,0.03455c-0.2764,0 -0.50674,-0.01152 -0.69101,-0.03455c-0.18427,-0.02303 -0.33399,-0.05758 -0.44916,-0.10365c-0.10749,-0.04607 -0.18043,-0.09981 -0.21882,-0.16124c-0.03839,-0.0691 -0.05758,-0.14972 -0.05758,-0.24185v-23.07973c0,-0.09213 0.01919,-0.17275 0.05758,-0.24185c0.03839,-0.0691 0.11133,-0.12669 0.21882,-0.17275c0.11517,-0.04607 0.26489,-0.08062 0.44916,-0.10365c0.18427,-0.02303 0.41461,-0.03455 0.69101,-0.03455c0.28408,0 0.51826,0.01152 0.70253,0.03455c0.18427,0.02303 0.32631,0.05758 0.42612,0.10365c0.10749,0.04607 0.18427,0.10365 0.23034,0.17275c0.04607,0.0691 0.0691,0.14972 0.0691,0.24185v9.31712c0.82153,-0.8676 1.64691,-1.50871 2.47612,-1.92331c0.82921,-0.42228 1.66226,-0.63343 2.49915,-0.63343c1.03652,0 1.90796,0.17659 2.61432,0.52977c0.71404,0.34551 1.28989,0.81386 1.72753,1.40505c0.43764,0.58352 0.74859,1.27069 0.93286,2.06151c0.19195,0.79082 0.28792,1.74288 0.28792,2.85617zM139.47532,127.90911c0,0.44532 -0.11517,0.76395 -0.34551,0.9559c-0.22266,0.19195 -0.47603,0.28792 -0.76011,0.28792h-10.1924c0,0.85992 0.08446,1.63539 0.25337,2.3264c0.17659,0.69101 0.46451,1.28605 0.86376,1.78511c0.40693,0.49138 0.93286,0.87144 1.57781,1.14017c0.64494,0.26105 1.43193,0.39157 2.36095,0.39157c0.73708,0 1.39354,-0.05758 1.96938,-0.17275c0.57584,-0.12285 1.0749,-0.25721 1.49719,-0.40309c0.42228,-0.15356 0.76779,-0.29176 1.03652,-0.41461c0.26873,-0.12285 0.47219,-0.18427 0.61039,-0.18427c0.08446,0 0.1574,0.02303 0.21882,0.0691c0.06142,0.03839 0.10749,0.09981 0.1382,0.18427c0.03839,0.07678 0.06526,0.18811 0.08062,0.33399c0.02303,0.1382 0.03455,0.31095 0.03455,0.51826c0,0.15356 -0.00768,0.28408 -0.02303,0.39157c-0.00768,0.10749 -0.02303,0.2073 -0.04607,0.29944c-0.01536,0.08446 -0.04223,0.16124 -0.08062,0.23034c-0.03839,0.0691 -0.09213,0.13436 -0.16124,0.19579c-0.06142,0.06142 -0.24953,0.16507 -0.56432,0.31095c-0.30712,0.14588 -0.7102,0.28792 -1.20927,0.42612c-0.49138,0.1382 -1.06339,0.26105 -1.71601,0.36854c-0.64494,0.11517 -1.33595,0.17275 -2.07303,0.17275c-1.28221,0 -2.40318,-0.18043 -3.36292,-0.54129c-0.95974,-0.36086 -1.76975,-0.89064 -2.43005,-1.58932c-0.65262,-0.70637 -1.14784,-1.58932 -1.48567,-2.64887c-0.33015,-1.05955 -0.49522,-2.29185 -0.49522,-3.6969c0,-1.33595 0.17275,-2.5337 0.51826,-3.59325c0.34551,-1.06723 0.84073,-1.97322 1.48567,-2.71797c0.65262,-0.74476 1.4396,-1.31292 2.36095,-1.70449c0.92135,-0.39925 1.95402,-0.59888 3.09803,-0.59888c1.22078,0 2.2573,0.19579 3.10955,0.58736c0.85992,0.39157 1.56629,0.91751 2.1191,1.57781c0.55281,0.6603 0.95974,1.4396 1.22078,2.33792c0.26105,0.89064 0.39157,1.84269 0.39157,2.85617zM136.60763,127.05686c0.03071,-1.49719 -0.30328,-2.67191 -1.00196,-3.52415c-0.69101,-0.85225 -1.72369,-1.27837 -3.09803,-1.27837c-0.69869,0 -1.31292,0.13436 -1.84269,0.40309c-0.52977,0.26105 -0.97509,0.61039 -1.33595,1.04803c-0.35318,0.43764 -0.62959,0.94822 -0.82921,1.53174c-0.19195,0.58352 -0.29944,1.19007 -0.32247,1.81966zM164.5705,136.33943c0,0.09213 -0.02303,0.17275 -0.0691,0.24185c-0.04607,0.0691 -0.12285,0.12669 -0.23034,0.17275c-0.10749,0.04607 -0.26105,0.08062 -0.46067,0.10365c-0.19195,0.02303 -0.43764,0.03455 -0.73708,0.03455c-0.31479,0 -0.572,-0.00768 -0.77163,-0.02303c-0.19963,-0.01536 -0.36854,-0.04223 -0.50674,-0.08062c-0.1382,-0.04607 -0.25337,-0.10749 -0.34551,-0.18427c-0.08446,-0.07678 -0.16124,-0.16507 -0.23034,-0.26489l-6.5646,-8.60307v8.61459c0,0.09213 -0.02303,0.17275 -0.0691,0.24185c-0.04607,0.06142 -0.12285,0.11517 -0.23034,0.16124c-0.09981,0.04607 -0.24185,0.08062 -0.42612,0.10365c-0.18427,0.02303 -0.41844,0.03455 -0.70253,0.03455c-0.2764,0 -0.50674,-0.01152 -0.69101,-0.03455c-0.18427,-0.02303 -0.33399,-0.05758 -0.44916,-0.10365c-0.10749,-0.04607 -0.18043,-0.09981 -0.21882,-0.16124c-0.03839,-0.0691 -0.05758,-0.14972 -0.05758,-0.24185v-23.07973c0,-0.09213 0.01919,-0.17275 0.05758,-0.24185c0.03839,-0.0691 0.11133,-0.12669 0.21882,-0.17275c0.11517,-0.04607 0.26489,-0.08062 0.44916,-0.10365c0.18427,-0.02303 0.41461,-0.03455 0.69101,-0.03455c0.28408,0 0.51826,0.01152 0.70253,0.03455c0.18427,0.02303 0.32631,0.05758 0.42612,0.10365c0.10749,0.04607 0.18427,0.10365 0.23034,0.17275c0.04607,0.0691 0.0691,0.14972 0.0691,0.24185v14.06205l5.87359,-6.46094c0.09213,-0.11517 0.18811,-0.2073 0.28792,-0.2764c0.10749,-0.07678 0.23418,-0.14204 0.38006,-0.19579c0.14588,-0.05375 0.31479,-0.0883 0.50674,-0.10365c0.19963,-0.01536 0.43764,-0.02303 0.71404,-0.02303c0.28408,0 0.5221,0.00768 0.71404,0.02303c0.19963,0.01536 0.36086,0.04607 0.48371,0.09213c0.12285,0.03839 0.2073,0.0883 0.25337,0.14972c0.05375,0.06142 0.08062,0.14588 0.08062,0.25337c0,0.1382 -0.03839,0.2764 -0.11517,0.41461c-0.0691,0.1382 -0.19195,0.29944 -0.36854,0.48371l-5.63173,5.63173l6.32274,8.19999c0.15356,0.19963 0.26105,0.36086 0.32247,0.48371c0.06142,0.11517 0.09213,0.2265 0.09213,0.33399zM179.00109,136.37398c0,0.1382 -0.04607,0.24185 -0.1382,0.31095c-0.09213,0.0691 -0.21882,0.11901 -0.38006,0.14972c-0.16124,0.03839 -0.39925,0.05758 -0.71404,0.05758c-0.29944,0 -0.53745,-0.01919 -0.71404,-0.05758c-0.17659,-0.03071 -0.30712,-0.08062 -0.39157,-0.14972c-0.07678,-0.0691 -0.11517,-0.17275 -0.11517,-0.31095v-1.55477c-0.68333,0.72172 -1.44344,1.28605 -2.28033,1.69297c-0.82921,0.40693 -1.71217,0.61039 -2.64887,0.61039c-0.81386,0 -1.55477,-0.10749 -2.22275,-0.32247c-0.6603,-0.21498 -1.22462,-0.5221 -1.69297,-0.92135c-0.46067,-0.40693 -0.82153,-0.90215 -1.08258,-1.48567c-0.26105,-0.5912 -0.39157,-1.26301 -0.39157,-2.01545c0,-0.87528 0.17659,-1.63539 0.52977,-2.28033c0.36086,-0.64494 0.87528,-1.17856 1.54326,-1.60084c0.66798,-0.42996 1.48567,-0.74859 2.45309,-0.9559c0.96741,-0.21498 2.05767,-0.32247 3.27078,-0.32247h2.14213v-1.20927c0,-0.59888 -0.06526,-1.12865 -0.19579,-1.58932c-0.12285,-0.46067 -0.32631,-0.84457 -0.61039,-1.15168c-0.28408,-0.30712 -0.65262,-0.53745 -1.10562,-0.69101c-0.44532,-0.15356 -0.99429,-0.23034 -1.64691,-0.23034c-0.70637,0 -1.33979,0.08446 -1.90028,0.25337c-0.55281,0.16124 -1.04035,0.34551 -1.46264,0.55281c-0.42228,0.19963 -0.77547,0.38389 -1.05955,0.55281c-0.2764,0.16124 -0.48371,0.24185 -0.62191,0.24185c-0.09213,0 -0.17275,-0.02303 -0.24185,-0.0691c-0.0691,-0.04607 -0.13052,-0.11517 -0.18427,-0.2073c-0.05375,-0.09213 -0.09213,-0.2073 -0.11517,-0.34551c-0.02303,-0.14588 -0.03455,-0.30712 -0.03455,-0.48371c0,-0.28408 0.01919,-0.51058 0.05758,-0.67949c0.04607,-0.16891 0.14588,-0.32631 0.29944,-0.47219c0.15356,-0.15356 0.41844,-0.33015 0.79466,-0.52977c0.38389,-0.19963 0.82153,-0.38389 1.31292,-0.55281c0.49906,-0.16891 1.04035,-0.30712 1.62387,-0.41461c0.5912,-0.10749 1.18623,-0.16124 1.78511,-0.16124c1.12097,0 2.07303,0.12669 2.85617,0.38006c0.78314,0.25337 1.41657,0.62575 1.90028,1.11713c0.48371,0.48371 0.83305,1.09026 1.04803,1.81966c0.22266,0.72172 0.33399,1.56629 0.33399,2.5337zM176.16795,129.26809h-2.44157c-0.78314,0 -1.46264,0.0691 -2.03848,0.2073c-0.57584,0.13052 -1.05571,0.32631 -1.4396,0.58736c-0.37622,0.25337 -0.65262,0.56432 -0.82921,0.93286c-0.17659,0.36086 -0.26489,0.77547 -0.26489,1.24382c0,0.80618 0.25337,1.45112 0.76011,1.93483c0.51442,0.47603 1.2323,0.71404 2.15365,0.71404c0.75243,0 1.44728,-0.18811 2.08455,-0.56432c0.63726,-0.38389 1.30908,-0.96741 2.01545,-1.75056zM207.29219,136.35094c0,0.09213 -0.02303,0.17275 -0.0691,0.24185c-0.04607,0.06142 -0.12285,0.11517 -0.23034,0.16124c-0.09981,0.04607 -0.24185,0.08062 -0.42612,0.10365c-0.18427,0.02303 -0.41461,0.03455 -0.69101,0.03455c-0.28408,0 -0.51826,-0.01152 -0.70253,-0.03455c-0.18427,-0.02303 -0.33399,-0.05758 -0.44916,-0.10365c-0.10749,-0.04607 -0.18427,-0.09981 -0.23034,-0.16124c-0.04607,-0.0691 -0.0691,-0.14972 -0.0691,-0.24185v-9.4438c0,-0.6603 -0.05758,-1.25917 -0.17275,-1.79663c-0.11517,-0.54513 -0.29944,-1.01348 -0.55281,-1.40505c-0.25337,-0.39157 -0.57584,-0.69101 -0.96741,-0.89831c-0.39157,-0.2073 -0.85225,-0.31095 -1.38202,-0.31095c-0.65262,0 -1.31292,0.25337 -1.9809,0.76011c-0.6603,0.50674 -1.38586,1.2515 -2.17668,2.23427v10.86037c0,0.09213 -0.02303,0.17275 -0.0691,0.24185c-0.04607,0.06142 -0.12669,0.11517 -0.24185,0.16124c-0.10749,0.04607 -0.25337,0.08062 -0.43764,0.10365c-0.18427,0.02303 -0.41461,0.03455 -0.69101,0.03455c-0.26105,0 -0.48755,-0.01152 -0.67949,-0.03455c-0.19195,-0.02303 -0.34167,-0.05758 -0.44916,-0.10365c-0.10749,-0.04607 -0.18427,-0.09981 -0.23034,-0.16124c-0.03839,-0.0691 -0.05758,-0.14972 -0.05758,-0.24185v-9.4438c0,-0.6603 -0.06526,-1.25917 -0.19579,-1.79663c-0.12285,-0.54513 -0.31095,-1.01348 -0.56432,-1.40505c-0.25337,-0.39157 -0.572,-0.69101 -0.9559,-0.89831c-0.38389,-0.2073 -0.84073,-0.31095 -1.3705,-0.31095c-0.6603,0 -1.32444,0.25337 -1.99241,0.76011c-0.66798,0.50674 -1.39354,1.2515 -2.17668,2.23427v10.86037c0,0.09213 -0.02303,0.17275 -0.0691,0.24185c-0.04607,0.06142 -0.12285,0.11517 -0.23034,0.16124c-0.09981,0.04607 -0.24185,0.08062 -0.42612,0.10365c-0.18427,0.02303 -0.41844,0.03455 -0.70253,0.03455c-0.2764,0 -0.50674,-0.01152 -0.69101,-0.03455c-0.18427,-0.02303 -0.33399,-0.05758 -0.44916,-0.10365c-0.10749,-0.04607 -0.18043,-0.09981 -0.21882,-0.16124c-0.03839,-0.0691 -0.05758,-0.14972 -0.05758,-0.24185v-15.54773c0,-0.09213 0.01536,-0.16891 0.04607,-0.23034c0.03839,-0.06142 0.10749,-0.11901 0.2073,-0.17275c0.10749,-0.05375 0.24185,-0.0883 0.40309,-0.10365c0.16124,-0.01536 0.37238,-0.02303 0.63343,-0.02303c0.25337,0 0.46451,0.00768 0.63343,0.02303c0.16891,0.01536 0.29944,0.04991 0.39157,0.10365c0.09213,0.05375 0.1574,0.11133 0.19579,0.17275c0.03839,0.06142 0.05758,0.1382 0.05758,0.23034v2.06151c0.87528,-0.98277 1.72369,-1.70065 2.54522,-2.15365c0.82921,-0.453 1.66226,-0.67949 2.49915,-0.67949c0.64494,0 1.22462,0.07678 1.73904,0.23034c0.51442,0.14588 0.96741,0.35318 1.35899,0.62191c0.39157,0.26873 0.72556,0.5912 1.00196,0.96741c0.2764,0.37622 0.50674,0.79466 0.69101,1.25533c0.51442,-0.56816 1.0058,-1.04803 1.47415,-1.4396c0.46835,-0.39157 0.91751,-0.70637 1.34747,-0.94438c0.42996,-0.24569 0.84841,-0.42228 1.25533,-0.52977c0.41461,-0.10749 0.82921,-0.16124 1.24382,-0.16124c0.99813,0 1.83502,0.17659 2.51067,0.52977c0.68333,0.34551 1.23614,0.81386 1.65842,1.40505c0.42228,0.58352 0.72172,1.27069 0.89831,2.06151c0.17659,0.79082 0.26489,1.62387 0.26489,2.49915zM215.34246,136.35094c0,0.09213 -0.02303,0.17275 -0.0691,0.24185c-0.04607,0.06142 -0.12285,0.11517 -0.23034,0.16124c-0.09981,0.04607 -0.24185,0.08062 -0.42612,0.10365c-0.18427,0.02303 -0.41844,0.03455 -0.70253,0.03455c-0.2764,0 -0.50674,-0.01152 -0.69101,-0.03455c-0.18427,-0.02303 -0.33399,-0.05758 -0.44916,-0.10365c-0.10749,-0.04607 -0.18043,-0.09981 -0.21882,-0.16124c-0.03839,-0.0691 -0.05758,-0.14972 -0.05758,-0.24185v-15.54773c0,-0.07678 0.01919,-0.14972 0.05758,-0.21882c0.03839,-0.0691 0.11133,-0.12669 0.21882,-0.17275c0.11517,-0.04607 0.26489,-0.08062 0.44916,-0.10365c0.18427,-0.02303 0.41461,-0.03455 0.69101,-0.03455c0.28408,0 0.51826,0.01152 0.70253,0.03455c0.18427,0.02303 0.32631,0.05758 0.42612,0.10365c0.10749,0.04607 0.18427,0.10365 0.23034,0.17275c0.04607,0.0691 0.0691,0.14204 0.0691,0.21882zM215.67645,115.55154c0,0.66798 -0.12669,1.12481 -0.38006,1.3705c-0.25337,0.23801 -0.72172,0.35702 -1.40505,0.35702c-0.66798,0 -1.12481,-0.11517 -1.3705,-0.34551c-0.24569,-0.23801 -0.36854,-0.68717 -0.36854,-1.34747c0,-0.66798 0.12669,-1.12097 0.38006,-1.35899c0.25337,-0.24569 0.71788,-0.36854 1.39354,-0.36854c0.66798,0 1.12481,0.11901 1.3705,0.35702c0.25337,0.23801 0.38006,0.68333 0.38006,1.33595zM233.37782,136.33943c0,0.09213 -0.02303,0.17275 -0.0691,0.24185c-0.04607,0.0691 -0.12285,0.12669 -0.23034,0.17275c-0.10749,0.04607 -0.26105,0.08062 -0.46067,0.10365c-0.19195,0.02303 -0.43764,0.03455 -0.73708,0.03455c-0.31479,0 -0.572,-0.00768 -0.77163,-0.02303c-0.19963,-0.01536 -0.36854,-0.04223 -0.50674,-0.08062c-0.1382,-0.04607 -0.25337,-0.10749 -0.34551,-0.18427c-0.08446,-0.07678 -0.16124,-0.16507 -0.23034,-0.26489l-6.5646,-8.60307v8.61459c0,0.09213 -0.02303,0.17275 -0.0691,0.24185c-0.04607,0.06142 -0.12285,0.11517 -0.23034,0.16124c-0.09981,0.04607 -0.24185,0.08062 -0.42612,0.10365c-0.18427,0.02303 -0.41844,0.03455 -0.70253,0.03455c-0.2764,0 -0.50674,-0.01152 -0.69101,-0.03455c-0.18427,-0.02303 -0.33399,-0.05758 -0.44916,-0.10365c-0.10749,-0.04607 -0.18043,-0.09981 -0.21882,-0.16124c-0.03839,-0.0691 -0.05758,-0.14972 -0.05758,-0.24185v-23.07973c0,-0.09213 0.01919,-0.17275 0.05758,-0.24185c0.03839,-0.0691 0.11133,-0.12669 0.21882,-0.17275c0.11517,-0.04607 0.26489,-0.08062 0.44916,-0.10365c0.18427,-0.02303 0.41461,-0.03455 0.69101,-0.03455c0.28408,0 0.51826,0.01152 0.70253,0.03455c0.18427,0.02303 0.32631,0.05758 0.42612,0.10365c0.10749,0.04607 0.18427,0.10365 0.23034,0.17275c0.04607,0.0691 0.0691,0.14972 0.0691,0.24185v14.06205l5.87359,-6.46094c0.09213,-0.11517 0.18811,-0.2073 0.28792,-0.2764c0.10749,-0.07678 0.23418,-0.14204 0.38006,-0.19579c0.14588,-0.05375 0.31479,-0.0883 0.50674,-0.10365c0.19963,-0.01536 0.43764,-0.02303 0.71404,-0.02303c0.28408,0 0.5221,0.00768 0.71404,0.02303c0.19963,0.01536 0.36086,0.04607 0.48371,0.09213c0.12285,0.03839 0.2073,0.0883 0.25337,0.14972c0.05375,0.06142 0.08062,0.14588 0.08062,0.25337c0,0.1382 -0.03839,0.2764 -0.11517,0.41461c-0.0691,0.1382 -0.19195,0.29944 -0.36854,0.48371l-5.63173,5.63173l6.32274,8.19999c0.15356,0.19963 0.26105,0.36086 0.32247,0.48371c0.06142,0.11517 0.09213,0.2265 0.09213,0.33399zM247.80841,136.37398c0,0.1382 -0.04607,0.24185 -0.1382,0.31095c-0.09213,0.0691 -0.21882,0.11901 -0.38006,0.14972c-0.16124,0.03839 -0.39925,0.05758 -0.71404,0.05758c-0.29944,0 -0.53745,-0.01919 -0.71404,-0.05758c-0.17659,-0.03071 -0.30712,-0.08062 -0.39157,-0.14972c-0.07678,-0.0691 -0.11517,-0.17275 -0.11517,-0.31095v-1.55477c-0.68333,0.72172 -1.44344,1.28605 -2.28033,1.69297c-0.82921,0.40693 -1.71217,0.61039 -2.64887,0.61039c-0.81386,0 -1.55477,-0.10749 -2.22275,-0.32247c-0.6603,-0.21498 -1.22462,-0.5221 -1.69297,-0.92135c-0.46067,-0.40693 -0.82153,-0.90215 -1.08258,-1.48567c-0.26105,-0.5912 -0.39157,-1.26301 -0.39157,-2.01545c0,-0.87528 0.17659,-1.63539 0.52977,-2.28033c0.36086,-0.64494 0.87528,-1.17856 1.54326,-1.60084c0.66798,-0.42996 1.48567,-0.74859 2.45309,-0.9559c0.96741,-0.21498 2.05767,-0.32247 3.27078,-0.32247h2.14213v-1.20927c0,-0.59888 -0.06526,-1.12865 -0.19579,-1.58932c-0.12285,-0.46067 -0.32631,-0.84457 -0.61039,-1.15168c-0.28408,-0.30712 -0.65262,-0.53745 -1.10562,-0.69101c-0.44532,-0.15356 -0.99429,-0.23034 -1.64691,-0.23034c-0.70637,0 -1.33979,0.08446 -1.90028,0.25337c-0.55281,0.16124 -1.04035,0.34551 -1.46264,0.55281c-0.42228,0.19963 -0.77547,0.38389 -1.05955,0.55281c-0.2764,0.16124 -0.48371,0.24185 -0.62191,0.24185c-0.09213,0 -0.17275,-0.02303 -0.24185,-0.0691c-0.0691,-0.04607 -0.13052,-0.11517 -0.18427,-0.2073c-0.05375,-0.09213 -0.09213,-0.2073 -0.11517,-0.34551c-0.02303,-0.14588 -0.03455,-0.30712 -0.03455,-0.48371c0,-0.28408 0.01919,-0.51058 0.05758,-0.67949c0.04607,-0.16891 0.14588,-0.32631 0.29944,-0.47219c0.15356,-0.15356 0.41844,-0.33015 0.79466,-0.52977c0.38389,-0.19963 0.82153,-0.38389 1.31292,-0.55281c0.49906,-0.16891 1.04035,-0.30712 1.62387,-0.41461c0.5912,-0.10749 1.18623,-0.16124 1.78511,-0.16124c1.12097,0 2.07303,0.12669 2.85617,0.38006c0.78314,0.25337 1.41657,0.62575 1.90028,1.11713c0.48371,0.48371 0.83305,1.09026 1.04803,1.81966c0.22266,0.72172 0.33399,1.56629 0.33399,2.5337zM244.97527,129.26809h-2.44157c-0.78314,0 -1.46264,0.0691 -2.03848,0.2073c-0.57584,0.13052 -1.05571,0.32631 -1.4396,0.58736c-0.37622,0.25337 -0.65262,0.56432 -0.82921,0.93286c-0.17659,0.36086 -0.26489,0.77547 -0.26489,1.24382c0,0.80618 0.25337,1.45112 0.76011,1.93483c0.51442,0.47603 1.2323,0.71404 2.15365,0.71404c0.75243,0 1.44728,-0.18811 2.08455,-0.56432c0.63726,-0.38389 1.30908,-0.96741 2.01545,-1.75056zM262.95881,135.57932c0,0.21498 -0.01919,0.40309 -0.05758,0.56432c-0.03071,0.15356 -0.0691,0.28024 -0.11517,0.38006c-0.04607,0.09213 -0.11133,0.16124 -0.19579,0.2073c-0.07678,0.03839 -0.16124,0.05758 -0.25337,0.05758h-9.57049c-0.24569,0 -0.44532,-0.08062 -0.59888,-0.24185c-0.15356,-0.16124 -0.23034,-0.4338 -0.23034,-0.8177v-0.58736c0,-0.16124 0.01152,-0.30328 0.03455,-0.42612c0.02303,-0.13052 0.05758,-0.25721 0.10365,-0.38006c0.04607,-0.13052 0.10749,-0.26489 0.18427,-0.40309c0.08446,-0.14588 0.18427,-0.31095 0.29944,-0.49522l6.85252,-10.6761h-6.64521c-0.18427,0 -0.33399,-0.09597 -0.44916,-0.28792c-0.10749,-0.19195 -0.16124,-0.49906 -0.16124,-0.92135c0,-0.2073 0.01152,-0.38773 0.03455,-0.54129c0.02303,-0.16124 0.06142,-0.28792 0.11517,-0.38006c0.05375,-0.09981 0.11517,-0.16891 0.18427,-0.2073c0.07678,-0.04607 0.16891,-0.0691 0.2764,-0.0691h8.91403c0.12285,0 0.23418,0.01919 0.33399,0.05758c0.09981,0.03071 0.18427,0.0883 0.25337,0.17275c0.0691,0.07678 0.12285,0.18043 0.16124,0.31095c0.03839,0.12285 0.05758,0.28408 0.05758,0.48371v0.55281c0,0.16124 -0.01152,0.31095 -0.03455,0.44916c-0.02303,0.1382 -0.05758,0.27257 -0.10365,0.40309c-0.04607,0.13052 -0.11133,0.27257 -0.19579,0.42612c-0.07678,0.14588 -0.17275,0.31095 -0.28792,0.49522l-6.81797,10.6761h7.29016c0.09213,0 0.17275,0.02303 0.24185,0.0691c0.07678,0.03839 0.14204,0.10365 0.19579,0.19579c0.05375,0.09213 0.09597,0.21498 0.12669,0.36854c0.03839,0.15356 0.05758,0.34167 0.05758,0.56432zM279.49122,127.90911c0,0.44532 -0.11517,0.76395 -0.34551,0.9559c-0.22266,0.19195 -0.47603,0.28792 -0.76011,0.28792h-10.1924c0,0.85992 0.08446,1.63539 0.25337,2.3264c0.17659,0.69101 0.46451,1.28605 0.86376,1.78511c0.40693,0.49138 0.93286,0.87144 1.57781,1.14017c0.64494,0.26105 1.43193,0.39157 2.36095,0.39157c0.73708,0 1.39354,-0.05758 1.96938,-0.17275c0.57584,-0.12285 1.0749,-0.25721 1.49719,-0.40309c0.42228,-0.15356 0.76779,-0.29176 1.03652,-0.41461c0.26873,-0.12285 0.47219,-0.18427 0.61039,-0.18427c0.08446,0 0.1574,0.02303 0.21882,0.0691c0.06142,0.03839 0.10749,0.09981 0.1382,0.18427c0.03839,0.07678 0.06526,0.18811 0.08062,0.33399c0.02303,0.1382 0.03455,0.31095 0.03455,0.51826c0,0.15356 -0.00768,0.28408 -0.02303,0.39157c-0.00768,0.10749 -0.02303,0.2073 -0.04607,0.29944c-0.01536,0.08446 -0.04223,0.16124 -0.08062,0.23034c-0.03839,0.0691 -0.09213,0.13436 -0.16124,0.19579c-0.06142,0.06142 -0.24953,0.16507 -0.56432,0.31095c-0.30712,0.14588 -0.7102,0.28792 -1.20927,0.42612c-0.49138,0.1382 -1.06339,0.26105 -1.71601,0.36854c-0.64494,0.11517 -1.33595,0.17275 -2.07303,0.17275c-1.28221,0 -2.40318,-0.18043 -3.36292,-0.54129c-0.95974,-0.36086 -1.76975,-0.89064 -2.43005,-1.58932c-0.65262,-0.70637 -1.14784,-1.58932 -1.48567,-2.64887c-0.33015,-1.05955 -0.49522,-2.29185 -0.49522,-3.6969c0,-1.33595 0.17275,-2.5337 0.51826,-3.59325c0.34551,-1.06723 0.84073,-1.97322 1.48567,-2.71797c0.65262,-0.74476 1.4396,-1.31292 2.36095,-1.70449c0.92135,-0.39925 1.95402,-0.59888 3.09803,-0.59888c1.22078,0 2.2573,0.19579 3.10955,0.58736c0.85992,0.39157 1.56629,0.91751 2.1191,1.57781c0.55281,0.6603 0.95974,1.4396 1.22078,2.33792c0.26105,0.89064 0.39157,1.84269 0.39157,2.85617zM276.62353,127.05686c0.03071,-1.49719 -0.30328,-2.67191 -1.00196,-3.52415c-0.69101,-0.85225 -1.72369,-1.27837 -3.09803,-1.27837c-0.69869,0 -1.31292,0.13436 -1.84269,0.40309c-0.52977,0.26105 -0.97509,0.61039 -1.33595,1.04803c-0.35318,0.43764 -0.62959,0.94822 -0.82921,1.53174c-0.19195,0.58352 -0.29944,1.19007 -0.32247,1.81966zM305.09314,127.90911c0,0.44532 -0.11517,0.76395 -0.34551,0.9559c-0.22266,0.19195 -0.47603,0.28792 -0.76011,0.28792h-10.1924c0,0.85992 0.08446,1.63539 0.25337,2.3264c0.17659,0.69101 0.46451,1.28605 0.86376,1.78511c0.40693,0.49138 0.93286,0.87144 1.57781,1.14017c0.64494,0.26105 1.43193,0.39157 2.36095,0.39157c0.73708,0 1.39354,-0.05758 1.96938,-0.17275c0.57584,-0.12285 1.0749,-0.25721 1.49719,-0.40309c0.42228,-0.15356 0.76779,-0.29176 1.03652,-0.41461c0.26873,-0.12285 0.47219,-0.18427 0.61039,-0.18427c0.08446,0 0.1574,0.02303 0.21882,0.0691c0.06142,0.03839 0.10749,0.09981 0.1382,0.18427c0.03839,0.07678 0.06526,0.18811 0.08062,0.33399c0.02303,0.1382 0.03455,0.31095 0.03455,0.51826c0,0.15356 -0.00768,0.28408 -0.02303,0.39157c-0.00768,0.10749 -0.02303,0.2073 -0.04607,0.29944c-0.01536,0.08446 -0.04223,0.16124 -0.08062,0.23034c-0.03839,0.0691 -0.09213,0.13436 -0.16124,0.19579c-0.06142,0.06142 -0.24953,0.16507 -0.56432,0.31095c-0.30712,0.14588 -0.7102,0.28792 -1.20927,0.42612c-0.49138,0.1382 -1.06339,0.26105 -1.71601,0.36854c-0.64494,0.11517 -1.33595,0.17275 -2.07303,0.17275c-1.28221,0 -2.40318,-0.18043 -3.36292,-0.54129c-0.95974,-0.36086 -1.76975,-0.89064 -2.43005,-1.58932c-0.65262,-0.70637 -1.14784,-1.58932 -1.48567,-2.64887c-0.33015,-1.05955 -0.49522,-2.29185 -0.49522,-3.6969c0,-1.33595 0.17275,-2.5337 0.51826,-3.59325c0.34551,-1.06723 0.84073,-1.97322 1.48567,-2.71797c0.65262,-0.74476 1.4396,-1.31292 2.36095,-1.70449c0.92135,-0.39925 1.95402,-0.59888 3.09803,-0.59888c1.22078,0 2.2573,0.19579 3.10955,0.58736c0.85992,0.39157 1.56629,0.91751 2.1191,1.57781c0.55281,0.6603 0.95974,1.4396 1.22078,2.33792c0.26105,0.89064 0.39157,1.84269 0.39157,2.85617zM302.22545,127.05686c0.03071,-1.49719 -0.30328,-2.67191 -1.00196,-3.52415c-0.69101,-0.85225 -1.72369,-1.27837 -3.09803,-1.27837c-0.69869,0 -1.31292,0.13436 -1.84269,0.40309c-0.52977,0.26105 -0.97509,0.61039 -1.33595,1.04803c-0.35318,0.43764 -0.62959,0.94822 -0.82921,1.53174c-0.19195,0.58352 -0.29944,1.19007 -0.32247,1.81966zM322.81179,136.35094c0,0.09213 -0.02303,0.17275 -0.0691,0.24185c-0.04607,0.06142 -0.12285,0.11517 -0.23034,0.16124c-0.09981,0.04607 -0.24185,0.08062 -0.42612,0.10365c-0.18427,0.02303 -0.41461,0.03455 -0.69101,0.03455c-0.28408,0 -0.51826,-0.01152 -0.70253,-0.03455c-0.18427,-0.02303 -0.33015,-0.05758 -0.43764,-0.10365c-0.09981,-0.04607 -0.17275,-0.09981 -0.21882,-0.16124c-0.04607,-0.0691 -0.0691,-0.14972 -0.0691,-0.24185v-9.0983c0,-0.89064 -0.0691,-1.60468 -0.2073,-2.14213c-0.1382,-0.54513 -0.34167,-1.01348 -0.61039,-1.40505c-0.26105,-0.39157 -0.60271,-0.69101 -1.025,-0.89831c-0.42228,-0.2073 -0.90983,-0.31095 -1.46264,-0.31095c-0.71404,0 -1.42809,0.25337 -2.14213,0.76011c-0.71404,0.50674 -1.46264,1.2515 -2.24578,2.23427v10.86037c0,0.09213 -0.02303,0.17275 -0.0691,0.24185c-0.04607,0.06142 -0.12285,0.11517 -0.23034,0.16124c-0.09981,0.04607 -0.24185,0.08062 -0.42612,0.10365c-0.18427,0.02303 -0.41844,0.03455 -0.70253,0.03455c-0.2764,0 -0.50674,-0.01152 -0.69101,-0.03455c-0.18427,-0.02303 -0.33399,-0.05758 -0.44916,-0.10365c-0.10749,-0.04607 -0.18043,-0.09981 -0.21882,-0.16124c-0.03839,-0.0691 -0.05758,-0.14972 -0.05758,-0.24185v-15.54773c0,-0.09213 0.01536,-0.16891 0.04607,-0.23034c0.03839,-0.06142 0.10749,-0.11901 0.2073,-0.17275c0.10749,-0.05375 0.24185,-0.0883 0.40309,-0.10365c0.16124,-0.01536 0.37238,-0.02303 0.63343,-0.02303c0.25337,0 0.46451,0.00768 0.63343,0.02303c0.16891,0.01536 0.29944,0.04991 0.39157,0.10365c0.09213,0.05375 0.1574,0.11133 0.19579,0.17275c0.03839,0.06142 0.05758,0.1382 0.05758,0.23034v2.06151c0.87528,-0.98277 1.74672,-1.70065 2.61432,-2.15365c0.87528,-0.453 1.7544,-0.67949 2.63735,-0.67949c1.03652,0 1.90796,0.17659 2.61432,0.52977c0.71404,0.34551 1.28989,0.81386 1.72753,1.40505c0.43764,0.58352 0.74859,1.27069 0.93286,2.06151c0.19195,0.79082 0.28792,1.73904 0.28792,2.84466zM341.33086,136.35094c0,0.09213 -0.01919,0.17275 -0.05758,0.24185c-0.03839,0.0691 -0.10749,0.12669 -0.2073,0.17275c-0.09981,0.03839 -0.23034,0.0691 -0.39157,0.09213c-0.16124,0.02303 -0.35702,0.03455 -0.58736,0.03455c-0.23801,0 -0.43764,-0.01152 -0.59888,-0.03455c-0.16124,-0.02303 -0.2956,-0.05375 -0.40309,-0.09213c-0.09981,-0.04607 -0.17275,-0.10365 -0.21882,-0.17275c-0.04607,-0.0691 -0.0691,-0.14972 -0.0691,-0.24185v-2.05c-0.82153,0.88296 -1.67378,1.57397 -2.55674,2.07303c-0.87528,0.49906 -1.83885,0.74859 -2.89073,0.74859c-1.13633,0 -2.10758,-0.22266 -2.91376,-0.66798c-0.80618,-0.44532 -1.46264,-1.04419 -1.96938,-1.79663c-0.49906,-0.76011 -0.86376,-1.64691 -1.0941,-2.66039c-0.23034,-1.02116 -0.34551,-2.09606 -0.34551,-3.22471c0,-1.33595 0.14204,-2.54138 0.42612,-3.61629c0.29176,-1.08258 0.71788,-2.00393 1.27837,-2.76404c0.56816,-0.76011 1.27069,-1.34363 2.10758,-1.75056c0.83689,-0.40693 1.80046,-0.61039 2.89073,-0.61039c0.91367,0 1.74672,0.19963 2.49915,0.59888c0.75243,0.39157 1.49719,0.97509 2.23427,1.75056v-9.04071c0,-0.07678 0.01919,-0.15356 0.05758,-0.23034c0.04607,-0.07678 0.12669,-0.13436 0.24185,-0.17275c0.11517,-0.03839 0.26105,-0.07294 0.43764,-0.10365c0.17659,-0.03071 0.40309,-0.04607 0.67949,-0.04607c0.29176,0 0.52977,0.01536 0.71404,0.04607c0.18427,0.03071 0.32631,0.06526 0.42612,0.10365c0.10749,0.03839 0.18427,0.09597 0.23034,0.17275c0.05375,0.07678 0.08062,0.15356 0.08062,0.23034zM338.46317,125.42147c-0.76779,-0.95974 -1.51254,-1.68914 -2.23427,-2.1882c-0.72172,-0.49906 -1.47415,-0.74859 -2.2573,-0.74859c-0.72172,0 -1.33595,0.17275 -1.84269,0.51826c-0.50674,0.34551 -0.92135,0.80234 -1.24382,1.3705c-0.31479,0.56049 -0.54513,1.19775 -0.69101,1.91179c-0.1382,0.71404 -0.2073,1.4396 -0.2073,2.17668c0,0.78314 0.05758,1.55093 0.17275,2.30337c0.12285,0.74476 0.33399,1.40889 0.63343,1.99241c0.29944,0.57584 0.69485,1.04035 1.18623,1.39354c0.49906,0.35318 1.12481,0.52977 1.87724,0.52977c0.37622,0 0.74092,-0.04991 1.0941,-0.14972c0.35318,-0.10749 0.71404,-0.28024 1.08258,-0.51826c0.36854,-0.24569 0.75243,-0.56049 1.15168,-0.94438c0.40693,-0.39157 0.83305,-0.8676 1.27837,-1.42809zM349.45023,136.35094c0,0.09213 -0.02303,0.17275 -0.0691,0.24185c-0.04607,0.06142 -0.12285,0.11517 -0.23034,0.16124c-0.09981,0.04607 -0.24185,0.08062 -0.42612,0.10365c-0.18427,0.02303 -0.41844,0.03455 -0.70253,0.03455c-0.2764,0 -0.50674,-0.01152 -0.69101,-0.03455c-0.18427,-0.02303 -0.33399,-0.05758 -0.44916,-0.10365c-0.10749,-0.04607 -0.18043,-0.09981 -0.21882,-0.16124c-0.03839,-0.0691 -0.05758,-0.14972 -0.05758,-0.24185v-15.54773c0,-0.07678 0.01919,-0.14972 0.05758,-0.21882c0.03839,-0.0691 0.11133,-0.12669 0.21882,-0.17275c0.11517,-0.04607 0.26489,-0.08062 0.44916,-0.10365c0.18427,-0.02303 0.41461,-0.03455 0.69101,-0.03455c0.28408,0 0.51826,0.01152 0.70253,0.03455c0.18427,0.02303 0.32631,0.05758 0.42612,0.10365c0.10749,0.04607 0.18427,0.10365 0.23034,0.17275c0.04607,0.0691 0.0691,0.14204 0.0691,0.21882zM349.78422,115.55154c0,0.66798 -0.12669,1.12481 -0.38006,1.3705c-0.25337,0.23801 -0.72172,0.35702 -1.40505,0.35702c-0.66798,0 -1.12481,-0.11517 -1.3705,-0.34551c-0.24569,-0.23801 -0.36854,-0.68717 -0.36854,-1.34747c0,-0.66798 0.12669,-1.12097 0.38006,-1.35899c0.25337,-0.24569 0.71788,-0.36854 1.39354,-0.36854c0.66798,0 1.12481,0.11901 1.3705,0.35702c0.25337,0.23801 0.38006,0.68333 0.38006,1.33595zM368.1075,136.35094c0,0.09213 -0.02303,0.17275 -0.0691,0.24185c-0.04607,0.06142 -0.12285,0.11517 -0.23034,0.16124c-0.09981,0.04607 -0.24185,0.08062 -0.42612,0.10365c-0.18427,0.02303 -0.41461,0.03455 -0.69101,0.03455c-0.28408,0 -0.51826,-0.01152 -0.70253,-0.03455c-0.18427,-0.02303 -0.33015,-0.05758 -0.43764,-0.10365c-0.09981,-0.04607 -0.17275,-0.09981 -0.21882,-0.16124c-0.04607,-0.0691 -0.0691,-0.14972 -0.0691,-0.24185v-9.0983c0,-0.89064 -0.0691,-1.60468 -0.2073,-2.14213c-0.1382,-0.54513 -0.34167,-1.01348 -0.61039,-1.40505c-0.26105,-0.39157 -0.60271,-0.69101 -1.025,-0.89831c-0.42228,-0.2073 -0.90983,-0.31095 -1.46264,-0.31095c-0.71404,0 -1.42809,0.25337 -2.14213,0.76011c-0.71404,0.50674 -1.46264,1.2515 -2.24578,2.23427v10.86037c0,0.09213 -0.02303,0.17275 -0.0691,0.24185c-0.04607,0.06142 -0.12285,0.11517 -0.23034,0.16124c-0.09981,0.04607 -0.24185,0.08062 -0.42612,0.10365c-0.18427,0.02303 -0.41844,0.03455 -0.70253,0.03455c-0.2764,0 -0.50674,-0.01152 -0.69101,-0.03455c-0.18427,-0.02303 -0.33399,-0.05758 -0.44916,-0.10365c-0.10749,-0.04607 -0.18043,-0.09981 -0.21882,-0.16124c-0.03839,-0.0691 -0.05758,-0.14972 -0.05758,-0.24185v-15.54773c0,-0.09213 0.01536,-0.16891 0.04607,-0.23034c0.03839,-0.06142 0.10749,-0.11901 0.2073,-0.17275c0.10749,-0.05375 0.24185,-0.0883 0.40309,-0.10365c0.16124,-0.01536 0.37238,-0.02303 0.63343,-0.02303c0.25337,0 0.46451,0.00768 0.63343,0.02303c0.16891,0.01536 0.29944,0.04991 0.39157,0.10365c0.09213,0.05375 0.1574,0.11133 0.19579,0.17275c0.03839,0.06142 0.05758,0.1382 0.05758,0.23034v2.06151c0.87528,-0.98277 1.74672,-1.70065 2.61432,-2.15365c0.87528,-0.453 1.7544,-0.67949 2.63735,-0.67949c1.03652,0 1.90796,0.17659 2.61432,0.52977c0.71404,0.34551 1.28989,0.81386 1.72753,1.40505c0.43764,0.58352 0.74859,1.27069 0.93286,2.06151c0.19195,0.79082 0.28792,1.73904 0.28792,2.84466zM386.30409,121.51726c0,0.39925 -0.05758,0.69101 -0.17275,0.87528c-0.10749,0.17659 -0.24569,0.26489 -0.41461,0.26489h-2.23427c0.40693,0.41461 0.69101,0.87144 0.85225,1.3705c0.16124,0.49906 0.24185,1.02116 0.24185,1.56629c0,0.89831 -0.14588,1.69297 -0.43764,2.38398c-0.28408,0.69101 -0.69485,1.27453 -1.2323,1.75056c-0.53745,0.47603 -1.17472,0.84073 -1.91179,1.0941c-0.73708,0.25337 -1.55477,0.38006 -2.45309,0.38006c-0.62959,0 -1.2323,-0.08062 -1.80814,-0.24185c-0.56816,-0.16891 -1.0058,-0.38006 -1.31292,-0.63343c-0.2073,0.2073 -0.38006,0.44532 -0.51826,0.71404c-0.13052,0.26105 -0.19579,0.56432 -0.19579,0.90983c0,0.39925 0.18811,0.73324 0.56432,1.00196c0.37622,0.26105 0.87528,0.40309 1.49719,0.42612l4.05393,0.17275c0.77547,0.02303 1.48567,0.13052 2.13061,0.32247c0.64494,0.19195 1.20159,0.46451 1.66994,0.8177c0.47603,0.34551 0.84457,0.77547 1.10562,1.28989c0.26873,0.51442 0.40309,1.11329 0.40309,1.79663c0,0.71404 -0.14972,1.39354 -0.44916,2.03848c-0.29944,0.64494 -0.76011,1.20927 -1.38202,1.69297c-0.61423,0.49138 -1.40121,0.87912 -2.36095,1.1632c-0.95206,0.28408 -2.07687,0.42612 -3.37443,0.42612c-1.25917,0 -2.33024,-0.10749 -3.2132,-0.32247c-0.87528,-0.21498 -1.597,-0.50674 -2.16516,-0.87528c-0.56049,-0.36854 -0.96741,-0.81002 -1.22078,-1.32444c-0.25337,-0.50674 -0.38006,-1.05955 -0.38006,-1.65842c0,-0.38389 0.04607,-0.75627 0.1382,-1.11713c0.09213,-0.35318 0.23034,-0.69101 0.41461,-1.01348c0.19195,-0.32247 0.42996,-0.62959 0.71404,-0.92135c0.28408,-0.29944 0.61039,-0.5912 0.97893,-0.87528c-0.56816,-0.29176 -0.98661,-0.65646 -1.25533,-1.0941c-0.26873,-0.43764 -0.40309,-0.90983 -0.40309,-1.41657c0,-0.69869 0.14204,-1.32444 0.42612,-1.87724c0.29176,-0.55281 0.64878,-1.04803 1.07107,-1.48567c-0.35318,-0.42996 -0.63343,-0.90983 -0.84073,-1.4396c-0.2073,-0.53745 -0.31095,-1.18623 -0.31095,-1.94634c0,-0.89064 0.14972,-1.6853 0.44916,-2.38398c0.29944,-0.70637 0.71404,-1.3014 1.24382,-1.78511c0.52977,-0.48371 1.1632,-0.85225 1.90028,-1.10562c0.74476,-0.26105 1.55477,-0.39157 2.43005,-0.39157c0.47603,0 0.91751,0.02687 1.32444,0.08062c0.40693,0.04607 0.79082,0.11517 1.15168,0.2073h4.69887c0.19195,0 0.33783,0.09597 0.43764,0.28792c0.09981,0.19195 0.14972,0.48371 0.14972,0.87528zM381.84708,125.60574c0,-1.05955 -0.29176,-1.88492 -0.87528,-2.47612c-0.58352,-0.5912 -1.40889,-0.8868 -2.47612,-0.8868c-0.55281,0 -1.03652,0.09213 -1.45112,0.2764c-0.40693,0.18427 -0.74476,0.43764 -1.01348,0.76011c-0.26873,0.32247 -0.47219,0.69485 -0.61039,1.11713c-0.13052,0.41461 -0.19579,0.85225 -0.19579,1.31292c0,1.02884 0.29176,1.83885 0.87528,2.43005c0.58352,0.58352 1.39738,0.87528 2.44157,0.87528c0.56816,0 1.05955,-0.0883 1.47415,-0.26489c0.41461,-0.18427 0.75627,-0.4338 1.025,-0.74859c0.26873,-0.31479 0.46835,-0.67949 0.59888,-1.0941c0.1382,-0.41461 0.2073,-0.84841 0.2073,-1.3014zM383.27517,137.92875c0,-0.66798 -0.27257,-1.18239 -0.8177,-1.54326c-0.54513,-0.36854 -1.28605,-0.56432 -2.22275,-0.58736l-4.01937,-0.1382c-0.36854,0.29176 -0.67182,0.56816 -0.90983,0.82921c-0.23801,0.26105 -0.42612,0.50674 -0.56432,0.73708c-0.1382,0.23801 -0.23418,0.47219 -0.28792,0.70253c-0.04607,0.23034 -0.0691,0.46835 -0.0691,0.71404c0,0.74476 0.38006,1.30908 1.14017,1.69297c0.76011,0.39157 1.81966,0.58736 3.17865,0.58736c0.85992,0 1.58165,-0.08446 2.16516,-0.25337c0.58352,-0.16891 1.05187,-0.39157 1.40505,-0.66798c0.36086,-0.2764 0.61807,-0.59504 0.77163,-0.9559c0.15356,-0.35318 0.23034,-0.72556 0.23034,-1.11713z" fill="#595959" fill-rule="nonzero" stroke-width="1" stroke-linecap="square"/></g></g></svg>