<svg version="1.1" xmlns="http://www.w3.org/2000/svg" xmlns:xlink="http://www.w3.org/1999/xlink" width="720.51351" height="520.15298" viewBox="0,0,720.51351,520.15298"><defs><linearGradient x1="240.00002" y1="-4.82879" x2="240.00002" y2="375.17121" gradientUnits="userSpaceOnUse" id="color-1"><stop offset="0" stop-color="#001952"/><stop offset="1" stop-color="#000551"/></linearGradient><linearGradient x1="240.00002" y1="-4.82879" x2="240.00002" y2="375.17121" gradientUnits="userSpaceOnUse" id="color-2"><stop offset="0" stop-color="#000000" stop-opacity="0"/><stop offset="1" stop-color="#000000" stop-opacity="0"/></linearGradient><linearGradient x1="240.54281" y1="-9.10923" x2="240.54281" y2="401.89077" gradientUnits="userSpaceOnUse" id="color-3"><stop offset="0" stop-color="#0b7800"/><stop offset="1" stop-color="#0d9800"/></linearGradient><linearGradient x1="240.54282" y1="-47.85922" x2="240.54282" y2="363.14078" gradientUnits="userSpaceOnUse" id="color-4"><stop offset="0" stop-color="#0b7800"/><stop offset="1" stop-color="#0d9800"/></linearGradient><linearGradient x1="240.54282" y1="-47.85922" x2="240.54282" y2="363.14078" gradientUnits="userSpaceOnUse" id="color-5"><stop offset="0" stop-color="#0b7800"/><stop offset="1" stop-color="#0d9800"/></linearGradient><linearGradient x1="238.1622" y1="65.45504" x2="238.1622" y2="444.32649" gradientUnits="userSpaceOnUse" id="color-6"><stop offset="0" stop-color="#986000"/><stop offset="1" stop-color="#4b2f00"/></linearGradient><linearGradient x1="239.22684" y1="25.95505" x2="239.22684" y2="453.82649" gradientUnits="userSpaceOnUse" id="color-7"><stop offset="0" stop-color="#986000"/><stop offset="1" stop-color="#4b2f00"/></linearGradient><linearGradient x1="172.12387" y1="276.1735" x2="172.12387" y2="372.69237" gradientUnits="userSpaceOnUse" id="color-8"><stop offset="0" stop-color="#0b7800"/><stop offset="1" stop-color="#0d9800"/></linearGradient><linearGradient x1="172.12387" y1="276.1735" x2="172.12387" y2="372.69237" gradientUnits="userSpaceOnUse" id="color-9"><stop offset="0" stop-color="#986000"/><stop offset="1" stop-color="#4b2f00"/></linearGradient><linearGradient x1="343.12387" y1="79.69236" x2="343.12387" y2="-33.82649" gradientUnits="userSpaceOnUse" id="color-10"><stop offset="0" stop-color="#0b7800"/><stop offset="1" stop-color="#0d9800"/></linearGradient><linearGradient x1="343.12387" y1="79.69236" x2="343.12387" y2="-33.82649" gradientUnits="userSpaceOnUse" id="color-11"><stop offset="0" stop-color="#986000"/><stop offset="1" stop-color="#4b2f00"/></linearGradient><linearGradient x1="37.86463" y1="247.6276" x2="37.86463" y2="279.65276" gradientUnits="userSpaceOnUse" id="color-12"><stop offset="0" stop-color="#ff9b00"/><stop offset="1" stop-color="#994000"/></linearGradient><linearGradient x1="37.86463" y1="247.6276" x2="37.86463" y2="279.65276" gradientUnits="userSpaceOnUse" id="color-13"><stop offset="0" stop-color="#4b2f00"/><stop offset="1" stop-color="#986000"/></linearGradient><linearGradient x1="445.86465" y1="108.65274" x2="445.86465" y2="76.62758" gradientUnits="userSpaceOnUse" id="color-14"><stop offset="0" stop-color="#ff9b00"/><stop offset="1" stop-color="#994000"/></linearGradient><linearGradient x1="445.86465" y1="108.65274" x2="445.86465" y2="76.62758" gradientUnits="userSpaceOnUse" id="color-15"><stop offset="0" stop-color="#4b2f00"/><stop offset="1" stop-color="#986000"/></linearGradient></defs><g transform="translate(120.25675,41.32649)"><g data-paper-data="{&quot;isPaintingLayer&quot;:true}" fill-rule="nonzero" stroke-linecap="butt" stroke-linejoin="miter" stroke-miterlimit="10" stroke-dasharray="" stroke-dashoffset="0" style="mix-blend-mode: normal"><path d="M-120.25674,375.17121v-380h720.51351v380z" fill="url(#color-1)" stroke="url(#color-2)" stroke-width="0"/><path d="M48.81905,401.89077c1.11527,-9.1118 -0.76831,-18.96629 -4.22452,-27.01439c-1.9643,-4.57405 -4.3425,-8.97645 -6.06526,-13.64683c-1.42881,-3.87349 1.49773,-8.12468 2.47353,-12.13631c1.00335,-4.12487 1.92787,-8.65966 1.6728,-12.9808c-0.55189,-9.34968 -0.74297,-18.71843 -0.92636,-28.08259c-0.1395,-7.12318 -3.31294,-14.50961 -2.88013,-21.59817c1.43363,-23.48019 1.8431,-46.88067 1.88013,-70.43137c0.00368,-2.33993 1.15576,-4.90886 1.15576,-7.368c0,-0.82412 -0.01428,-1.63906 -0.04229,-2.44611c2.60461,-0.41769 4.98676,-1.45033 6.9325,-3.24455c3.63864,-2.0046 6.72436,-4.88917 8.97037,-8.36692c3.44948,-4.19984 5.89372,-9.1376 9.04413,-13.5662c6.0891,-8.55955 14.18934,-15.63506 19.96899,-24.45974c8.31629,-12.69777 17.29435,-24.53289 26.95195,-36.24916c2.32483,-2.8204 3.91369,-6.25188 5.56495,-9.46081c4.25736,-8.27345 17.78765,-21.59916 25.18353,-29.07909c8.42674,-8.52249 26.03804,-16.14849 30.82693,-28.85904c3.24867,-0.33002 6.31344,-1.28204 9.07335,-2.73509c0.09224,-0.02965 7.05029,-3.65563 8.17864,-3.85463c8.19937,-1.44611 16.48584,-2.34546 24.72672,-3.53239c10.18645,-1.46715 13.95626,-1.99582 27.50433,-2.74874c4.24336,-0.23582 9.36554,0.32107 13.88117,-0.17123c10.67925,-1.16427 27.08551,-3.90123 37.85566,-4.82877c9.30038,-0.80096 18.42813,-0.79273 27.69215,-2.48121c2.65229,-0.48341 5.27763,-1.12247 7.89594,-1.79789c-0.23982,1.39043 -0.36479,2.82017 -0.36479,4.2791c0,2.43156 0.34714,4.78203 0.99456,7.00458c0.08395,4.42121 2.78971,7.90459 6.31834,10.66366c3.27411,3.27758 7.45349,5.65067 12.13105,6.71216c2.47641,1.1147 5.03421,0.77076 7.5219,1.43246c6.67196,1.77467 13.7705,3.8909 19.92419,7.16947c19.63775,10.46264 37.2879,24.44303 54.59987,38.3851c0.54919,0.44228 0.4657,1.33277 0.75094,1.97765c1.55148,3.50768 3.21688,6.96432 4.76139,10.47507c6.37225,14.48444 -3.59834,29.82138 -4.80761,45.2336c-0.19253,2.45381 -1.11428,7.06157 -0.52508,9.44012c1.69211,6.83097 5.52426,13.03152 10.87733,17.59989c4.54679,3.88028 14.30303,2.36399 17.77973,8.36693c1.39993,2.41714 2.31295,5.10257 3.14901,7.82308c-2.54584,11.73278 -0.80445,26.25876 -0.97562,33.17638c-0.10341,4.17928 -0.95047,8.71779 -1,13.03986c-0.10968,9.57009 0.67196,15.27112 1,25.73466c0.18823,6.00409 -0.6884,13.75041 0.39062,20.17159c2.39666,14.26228 7.68567,28.65609 8.60938,43.16281c0.48049,7.54607 0.21056,15.12563 0,22.68405c-0.27093,9.72547 -3.20612,25.82413 -2.31372,36.60782z" fill="url(#color-3)" stroke="#000000" stroke-width="0"/><path d="" fill="url(#color-4)" stroke="#000000" stroke-width="0"/><path d="" fill="url(#color-5)" stroke="#000000" stroke-width="0"/><path d="M416.82056,370.52347l-3.18916,66.25228c0,0 -142.71435,7.55074 -175.46921,7.55074c-37.94262,0 -173.52907,-32.62056 -173.52907,-32.62056c0,0 0.8027,-93.80583 0.8027,-156.81515c0,-104.62245 77.33223,-189.43571 172.72637,-189.43571c95.39414,0 176.5354,84.81326 176.5354,189.43572z" fill="none" stroke="url(#color-6)" stroke-width="50"/><path d="M456.35096,370.47842c0,0 -148.27731,83.34807 -217.12412,83.34807c-46.89931,0 -214.49219,-36.83943 -214.49219,-36.83943c0,0 0.99219,-105.93788 0.99219,-177.09628c0,-118.15343 95.5872,-213.93572 213.5,-213.93572c117.91279,0 216.5,95.78229 216.5,213.93572z" fill="none" stroke="url(#color-7)" stroke-width="50"/><path d="M-9.95721,372.69237v-96.51887h364.16213v96.51887z" fill="url(#color-8)" stroke="url(#color-9)" stroke-width="15"/><path d="M493.20494,-33.82649v113.51887h-300.16213v-113.51887z" data-paper-data="{&quot;index&quot;:null}" fill="url(#color-10)" stroke="url(#color-11)" stroke-width="15"/><path d="M9.09582,279.65276v-32.02517h57.53762v32.02517z" fill="url(#color-12)" stroke="url(#color-13)" stroke-width="7.5"/><path d="M474.63345,76.62758v32.02517h-57.53762v-32.02517z" data-paper-data="{&quot;index&quot;:null}" fill="url(#color-14)" stroke="url(#color-15)" stroke-width="7.5"/><text transform="translate(180.5,221) scale(0.5,0.5)" font-size="40" xml:space="preserve" fill="#9966ff" fill-rule="nonzero" stroke="none" stroke-width="1" stroke-linecap="butt" stroke-linejoin="miter" stroke-miterlimit="10" stroke-dasharray="" stroke-dashoffset="0" font-family="Sans Serif" font-weight="normal" text-anchor="start" style="mix-blend-mode: normal"><tspan x="0" dy="0">you win</tspan></text></g></g></svg>