<svg version="1.1" xmlns="http://www.w3.org/2000/svg" xmlns:xlink="http://www.w3.org/1999/xlink" width="877" height="679" viewBox="0,0,877,679"><g transform="translate(198.5,159.5)"><g data-paper-data="{&quot;isPaintingLayer&quot;:true}" fill="#9966ff" fill-rule="nonzero" stroke-linecap="butt" stroke-linejoin="miter" stroke-miterlimit="10" stroke-dasharray="" stroke-dashoffset="0" style="mix-blend-mode: normal"><path d="M248.87147,207.67444c1.25042,5.22844 1.34338,10.68142 2.50532,15.84865c0.89695,3.98881 1.6448,8.0097 2.47786,12.01234c1.21864,5.8553 1.71149,11.62342 2.39536,17.52789c1.28716,11.11307 5.2423,28.38831 -9.75307,31.8519c-9.82525,2.26941 -20.55158,-3.14132 -30.00211,-4.8755c-26.58012,-4.87748 -53.77702,-13.83021 -65.3033,-41.03036c-4.9523,-11.68663 -10.64321,-23.14747 -14.19549,-35.33287c-4.29328,-14.72729 -9.31734,-31.15958 -8.17968,-46.71274c0.23011,-3.14595 0.36657,-16.45665 3.69733,-20.55604c2.70525,-3.32954 7.79861,-6.53572 10.91499,-8.78926c7.4974,-5.42156 14.76819,-11.22891 22.04075,-17.03646l-0.00532,-0.02839l0.06975,-1.16823l-0.28384,-1.13537v-4l0.48735,-1.94939l0.15411,-2.00346l0.5,-1.5l0.36524,-0.57395l0.0558,-0.2232l0.09487,-0.10984l0.16229,-0.73033l0.26748,-0.53496l0.67048,-1.6762l2.06589,-6.19768l0.02309,-0.31555l0.18471,-0.30786l0.11014,-0.33043l1.54199,-2.42313l0.53484,-0.8914l0.30014,-0.72033l0.27189,-0.23305l0.37084,-0.61807l0.24629,-0.24629l0.19275,-0.30289l0.27191,-0.16177l0.28905,-0.28905l1.72303,-1.03382l1.52564,-1.30769l2,-1l0.87828,-0.19517l0.75904,-0.48303l1.5,-0.5l1.06621,-0.08202l0.98593,-0.41409l6.5,-1l0.06888,0.00638l0.06406,-0.0261l2.15288,-0.30755l6.72585,-2.52219l0.23589,-0.02696l0.20031,-0.12747l1.28047,-0.42682l3.78333,-1.41875l1.46423,-0.16734l1.37438,-0.53202l12,-1.5l0.08746,0.0106l0.08258,-0.03067l4.30593,-0.47844l3.16283,-0.45183l5.85665,-0.97611l1.04143,0.08331l1.01356,-0.25339h1.0675c20.83838,-8.50425 42.8962,-14.83706 64.61614,-15.496c9.7999,-0.29731 87.05322,-13.194 107.89418,10.93763c4.25634,4.9284 2.96845,15.77969 -2.85126,19.10524c-5.25996,3.00569 -9.19317,2.20264 -14.45312,0c-0.68291,-0.28597 -0.79201,-1.345 -1.45176,-1.68098c-3.96651,-2.01998 -7.80899,-5.12555 -12.2568,-5.30024c-24.85677,-0.97627 -50.05758,-2.14737 -74.60391,1.88871c-12.96714,2.13215 -23.87845,4.22615 -33.32587,6.43192l0.77211,0.88241l0.37894,0.73894l0.61448,0.55861l1.80754,2.71132l1.29183,1.72244l0.44091,1.04716l0.73943,0.86267l0.87853,1.75706l1.95343,3.51618l2.4877,3.31693l0.05796,0.13766l0.11371,0.09686l2.5,3.5l0.07584,0.19253l0.15312,0.1392l6,9l0.16643,0.466l0.33927,0.36021l6.97356,12.45279l1.75955,3.07922l0.76119,1.14178l0.71948,2.01455l1.00667,1.88751l0.5,2v0.82523l0.84962,2.46558l-0.16758,1.22891l0.26906,1.21075l-0.93757,3.69168l-0.03435,0.25193l-0.08116,0.20289l-0.34446,1.35632l-0.30768,0.27402l-0.26671,0.66677l-0.2673,0.3701l-0.08984,0.26953l-0.06848,0.30816l-0.10272,0.20544l-0.21908,0.65724l-0.48303,0.75904l-0.19517,0.87828l-2,4l-0.31897,0.37213l-0.14271,0.46889l-0.98468,1.64114l-0.62802,1.57004l-0.31055,0.43l-0.11506,0.51779l-0.26748,0.53496l-0.8069,2.01726l-0.31055,0.43l-0.11506,0.51779l-2,4l-0.51405,0.59972l-0.26566,0.74386l-0.56832,0.85248l-0.15197,0.30394l-0.22795,0.26595l-0.05176,0.07764l-0.06698,0.06089l-0.16735,0.19525l-0.26566,0.74386l-1.835,2.75251l-2.59997,4.33329l-0.56296,1.12591l-0.13535,0.48821l-2.1752,2.39272l-2.10444,2.45518l-0.46765,0.19486l-0.05644,0.03763l-1.12478,1.12478l-1.06759,0.64056l-0.83749,0.92124l-1.5,1l-0.74386,0.26566l-0.59972,0.51405l-4.30394,2.15197l-0.85248,0.56832l-0.10591,0.03782l-0.57784,0.49905l-2.73162,0.68291l-2.65166,0.94702l-0.70671,-0.08834l-2.10502,0.35084l-0.71791,-0.05743l-1.28209,0.55743l-0.65893,0.10982l-0.46486,0.27892l-0.46889,0.14271l-0.37213,0.31897l-2.10071,1.05036l-0.23946,0.2068l-0.3483,0.08708l-0.31153,0.15576l-2.80377,0.62306l-0.75961,0.1899l-0.57395,0.36524l-1.15152,0.38384l-1.18525,0.4741c0.56646,2.78097 1.05482,5.32395 1.50539,7.20796zM158.16125,147.81656c-1.19469,0.86497 -2.95609,1.3004 -3.53987,2.6549c-0.97009,2.25084 -1.0821,4.88465 -0.75661,7.31393c1.75124,13.07061 3.37058,26.25512 6.95467,38.94614c3.06307,10.84615 7.63978,21.28298 12.87358,31.2644c12.26662,23.39379 34.98562,25.7406 58.2527,30.0124c1.09233,0.20055 -0.45681,-2.17374 -0.69571,-3.25833c-0.18759,-0.85163 0.07023,-1.93147 0,-2.76226c-0.31236,-3.69486 -0.99846,-7.20122 -1.75726,-10.78629c-1.77587,-8.39034 -2.5327,-16.2897 -4.05031,-24.52726c-1.18234,-6.41771 -3.04194,-12.82342 -4.73493,-19.19385l-0.00438,-0.00378l-0.13231,-0.48956l-2.75456,-1.83638l-0.43872,-0.48259l-0.58855,-0.28102l-11.5,-9.5l-0.0164,-0.02224l-0.02489,-0.01201l-3,-2.5l-0.78093,-1.06865l-1.04574,-0.81135l-5.5,-7l-0.2792,-0.62355l-0.4918,-0.47423l-5,-8l-0.01631,-0.05028l-0.03775,-0.037l-13.07541,-21.30807l-0.2863,-0.90812l-0.5725,-0.76085l-1.94252,-4.59339c-4.62342,3.46522 -9.61377,7.15765 -15.05798,11.0993zM256.18809,171.14048l0.50692,-0.2204l1.93158,-0.32193l0.03323,-0.02849l4.18568,-2.09284l1.06565,-1.06565l0.53816,-0.3229l0.08201,-0.26946l3,-5l0.21552,-0.21552l0.10251,-0.28704l1.56832,-2.35248l0.15197,-0.30394l0.22795,-0.26595l0.05176,-0.07764l0.06698,-0.06089l0.16735,-0.19525l0.26566,-0.74386l0.56832,-0.85248l1.41945,-2.8389l0.8069,-2.01726l0.31055,-0.43l0.11506,-0.51779l0.26748,-0.53496l0.8069,-2.01726l0.5926,-0.82052l0.2947,-0.96829l1.25301,-2.08835l1.38803,-2.77606l0.16225,-0.48674l-1.43767,-2.51591l-0.01509,-0.05364l-0.0382,-0.04056l-6.76317,-12.07709l-5.61933,-8.42899l-2.29837,-3.21772l-2.9128,-3.88374l-0.3358,-0.79753l-0.59116,-0.63193l-2.5,-4.5l-0.07216,-0.26895l-0.18122,-0.21142l-0.49593,-0.99187l-0.82373,-1.0983l-0.13783,-0.32734l-0.2628,-0.23891l-1.54579,-2.31868l-2.31236,-2.64269l-2.24353,-1.86961l-0.34098,-0.4666l-0.49555,-0.29733l-1.37184,-1.37184l-1.01176,-0.75882l-0.5638,-0.37586l-0.19489,-0.09745l-0.47033,0.0224l-0.6659,-0.13318l-0.79594,0.07959c-17.5829,7.02022 -30.13677,16.0296 -48.07077,29.66425l4.05491,9.58846l12.55632,20.46216l4.61679,7.38686l4.27077,5.43553l1.96695,1.63912l10.98526,9.07478l4.27114,2.84743l0.4755,-0.10567l1.70032,-0.42508l0.9437,-0.37748l0.37243,-0.05079l0.31711,-0.2018l0.18146,-0.06049l0.02139,-0.01847l0.13612,-0.03403l0.31828,-0.10609l0.20544,-0.10272l0.30816,-0.06848l0.32917,-0.10972l0.25172,-0.01936l1.81096,-0.40244l1.37062,-0.68531l2.08835,-1.25301l2.23435,-0.68002l2.14186,-0.93124l3,-0.5l0.28385,0.02271z" stroke="none" stroke-width="0.5"/><path d="M-197.5,518.5v-677h875v677z" stroke="#000000" stroke-width="2"/></g></g></svg>