<svg version="1.1" xmlns="http://www.w3.org/2000/svg" xmlns:xlink="http://www.w3.org/1999/xlink" width="79.86759" height="126.4157" viewBox="0,0,79.86759,126.4157"><g transform="translate(-200.0662,-116.79215)"><g data-paper-data="{&quot;isPaintingLayer&quot;:true}" fill-rule="nonzero" stroke-linecap="butt" stroke-linejoin="miter" stroke-miterlimit="10" stroke-dasharray="" stroke-dashoffset="0" style="mix-blend-mode: normal"><path d="M202.5662,240.70785v-121.4157h74.86759v121.4157z" fill="#ffffff" stroke="#000000" stroke-width="5"></path><text transform="translate(234.28001,186) scale(0.5,0.5)" font-size="40" xml:space="preserve" fill="#ff0000" fill-rule="nonzero" stroke="none" stroke-width="1" stroke-linecap="butt" stroke-linejoin="miter" stroke-miterlimit="10" stroke-dasharray="" stroke-dashoffset="0" font-family="Sans Serif" font-weight="normal" text-anchor="start" style="mix-blend-mode: normal"><tspan x="0" dy="0">7</tspan></text><path d="M208.50221,135.91342c0.02532,-0.18243 0.0646,-0.30025 0.0646,-0.30025c1.08635,-3.24924 2.43802,-6.58455 4.9778,-8.96965c0.67669,-0.63548 1.15345,-1.83739 2.08166,-1.84995c3.97986,-0.05389 3.75189,3.28932 4.52262,5.789c0.59758,1.93812 2.14184,3.12983 2.81483,4.93198c0.3199,0.85663 0.43924,1.82035 0.31035,2.72564c-0.09582,0.67302 -0.73087,1.16022 -0.95496,1.80203c-0.41865,1.19902 -0.78894,2.42211 -1.02035,3.67086c-0.10695,0.57714 0.21962,1.21657 0,1.7609c-0.45903,1.13771 -1.31056,2.07431 -1.96584,3.11146c-1.00939,-0.65162 -2.16575,-1.11837 -3.02817,-1.95485c-1.71118,-1.65971 -2.14484,-4.69175 -3.96595,-6.36713c-0.78196,-0.71939 -1.86431,-1.0202 -2.78685,-1.54737l-0.79687,-0.71263c0,0 -1.00287,-1.00287 -0.25287,-2.09004z" fill="#ff0000" stroke="none" stroke-width="0.5"></path></g></g></svg>