<svg version="1.1" xmlns="http://www.w3.org/2000/svg" xmlns:xlink="http://www.w3.org/1999/xlink" width="1191.0918" height="584.11022" viewBox="0,0,1191.0918,584.11022"><g transform="translate(-433.5381,331.53806)"><g data-paper-data="{&quot;isPaintingLayer&quot;:true}" stroke="none" stroke-width="1" stroke-linecap="square" stroke-linejoin="miter" stroke-miterlimit="10" stroke-dasharray="" stroke-dashoffset="0" style="mix-blend-mode: normal"><path d="M502.2677,87.7769h219.65356v48.47244h-219.65356z" fill-opacity="0" fill="#000000" fill-rule="evenodd"/><path d="M433.5381,5.38583h321.54327v48.47244h-321.54327z" fill-opacity="0" fill="#000000" fill-rule="evenodd"/><path d="M459.08496,26.56645c0,0.05208 -0.01042,0.11979 -0.03125,0.20313c-0.01042,0.07292 -0.03646,0.16667 -0.07812,0.28125l-3.09375,10.01563c-0.03125,0.09375 -0.07292,0.16667 -0.125,0.21875c-0.04167,0.05208 -0.10937,0.09375 -0.20312,0.125c-0.09375,0.03125 -0.21875,0.05208 -0.375,0.0625c-0.15625,0.02083 -0.34896,0.03125 -0.57812,0.03125c-0.23958,0 -0.44271,-0.01042 -0.60937,-0.03125c-0.16667,-0.01042 -0.30208,-0.03125 -0.40625,-0.0625c-0.09375,-0.04167 -0.16667,-0.08854 -0.21875,-0.14062c-0.04167,-0.05208 -0.07292,-0.11979 -0.09375,-0.20312l-2.21875,-7.64062l-0.01562,-0.10937l-0.03125,0.10938l-2.04687,7.64063c-0.02083,0.09375 -0.05729,0.16667 -0.10937,0.21875c-0.05208,0.05208 -0.13021,0.09375 -0.23437,0.125c-0.09375,0.03125 -0.22396,0.05208 -0.39062,0.0625c-0.15625,0.02083 -0.35417,0.03125 -0.59375,0.03125c-0.23958,0 -0.4375,-0.01042 -0.59375,-0.03125c-0.14583,-0.01042 -0.27083,-0.03125 -0.375,-0.0625c-0.09375,-0.04167 -0.16667,-0.08854 -0.21875,-0.14062c-0.04167,-0.05208 -0.07292,-0.11979 -0.09375,-0.20312l-3.07812,-10.01562c-0.04167,-0.11458 -0.07292,-0.20833 -0.09375,-0.28125c-0.01042,-0.08333 -0.01562,-0.15104 -0.01562,-0.20312c0,-0.07292 0.01563,-0.13021 0.04688,-0.17187c0.03125,-0.04167 0.08333,-0.07812 0.15625,-0.10937c0.07292,-0.03125 0.17188,-0.04687 0.29688,-0.04687c0.125,-0.01042 0.27604,-0.01562 0.45313,-0.01562c0.21875,0 0.39583,0.00521 0.53125,0.01563c0.13542,0.01042 0.23438,0.03125 0.29688,0.0625c0.07292,0.02083 0.125,0.05729 0.15625,0.10938c0.03125,0.05208 0.0625,0.11458 0.09375,0.1875l2.53125,8.6875l0.03125,0.10938l0.01563,-0.10937l2.34375,-8.6875c0.01042,-0.07292 0.03125,-0.13542 0.0625,-0.1875c0.04167,-0.05208 0.09375,-0.08854 0.15625,-0.10937c0.07292,-0.03125 0.17188,-0.05208 0.29688,-0.0625c0.125,-0.01042 0.28125,-0.01562 0.46875,-0.01562c0.1875,0 0.34375,0.00521 0.46875,0.01563c0.125,0.01042 0.21875,0.03125 0.28125,0.0625c0.07292,0.02083 0.125,0.05729 0.15625,0.10938c0.03125,0.04167 0.05729,0.09375 0.07813,0.15625l2.51563,8.71875l0.01563,0.10938l0.01563,-0.10937l2.51563,-8.6875c0.01042,-0.07292 0.03125,-0.13542 0.0625,-0.1875c0.04167,-0.05208 0.09896,-0.08854 0.17188,-0.10937c0.07292,-0.03125 0.17188,-0.05208 0.29688,-0.0625c0.13542,-0.01042 0.30208,-0.01562 0.5,-0.01562c0.1875,0 0.33854,0.00521 0.45313,0.01563c0.11458,0 0.20313,0.01563 0.26563,0.04688c0.07292,0.03125 0.11979,0.06771 0.14063,0.10938c0.03125,0.04167 0.04688,0.09896 0.04688,0.17188zM470.56934,37.12895c0,0.0625 -0.01562,0.11458 -0.04687,0.15625c-0.03125,0.04167 -0.08333,0.08333 -0.15625,0.125c-0.0625,0.03125 -0.15625,0.05208 -0.28125,0.0625c-0.125,0.02083 -0.28125,0.03125 -0.46875,0.03125c-0.19792,0 -0.35937,-0.01042 -0.48437,-0.03125c-0.125,-0.01042 -0.22396,-0.03125 -0.29687,-0.0625c-0.07292,-0.04167 -0.125,-0.08333 -0.15625,-0.125c-0.03125,-0.04167 -0.04687,-0.09375 -0.04687,-0.15625v-6.17187c0,-0.60417 -0.04687,-1.08854 -0.14062,-1.45312c-0.09375,-0.36458 -0.22917,-0.67708 -0.40625,-0.9375c-0.17708,-0.27083 -0.41146,-0.47396 -0.70312,-0.60937c-0.28125,-0.14583 -0.60937,-0.21875 -0.98437,-0.21875c-0.47917,0 -0.96354,0.17188 -1.45312,0.51563c-0.47917,0.34375 -0.98437,0.84375 -1.51562,1.5v7.375c0,0.0625 -0.01562,0.11458 -0.04687,0.15625c-0.03125,0.04167 -0.08333,0.08333 -0.15625,0.125c-0.07292,0.03125 -0.17187,0.05208 -0.29687,0.0625c-0.125,0.02083 -0.28646,0.03125 -0.48437,0.03125c-0.1875,0 -0.34375,-0.01042 -0.46875,-0.03125c-0.125,-0.01042 -0.22396,-0.03125 -0.29687,-0.0625c-0.07292,-0.04167 -0.125,-0.08333 -0.15625,-0.125c-0.02083,-0.04167 -0.03125,-0.09375 -0.03125,-0.15625v-15.65625c0,-0.0625 0.01042,-0.11458 0.03125,-0.15625c0.03125,-0.05208 0.08333,-0.09375 0.15625,-0.125c0.07292,-0.03125 0.17188,-0.05208 0.29688,-0.0625c0.125,-0.02083 0.28125,-0.03125 0.46875,-0.03125c0.19792,0 0.35938,0.01042 0.48438,0.03125c0.125,0.01042 0.22396,0.03125 0.29688,0.0625c0.07292,0.03125 0.125,0.07292 0.15625,0.125c0.03125,0.04167 0.04688,0.09375 0.04688,0.15625v6.3125c0.55208,-0.58333 1.10938,-1.01562 1.67188,-1.29687c0.5625,-0.29167 1.13021,-0.4375 1.70313,-0.4375c0.69792,0 1.28646,0.11979 1.76563,0.35938c0.47917,0.23958 0.86458,0.5625 1.15625,0.96875c0.30208,0.39583 0.51563,0.85938 0.64063,1.39063c0.13542,0.53125 0.20313,1.17708 0.20313,1.9375zM482.03809,37.14458c0,0.09375 -0.03125,0.16667 -0.09375,0.21875c-0.0625,0.04167 -0.15104,0.07292 -0.26562,0.09375c-0.10417,0.03125 -0.26042,0.04688 -0.46875,0.04688c-0.19792,0 -0.35937,-0.01562 -0.48437,-0.04687c-0.125,-0.02083 -0.21354,-0.05208 -0.26562,-0.09375c-0.05208,-0.05208 -0.07812,-0.125 -0.07812,-0.21875v-1.0625c-0.45833,0.5 -0.97396,0.88542 -1.54687,1.15625c-0.5625,0.27083 -1.16146,0.40625 -1.79687,0.40625c-0.55208,0 -1.05208,-0.07292 -1.5,-0.21875c-0.44792,-0.14583 -0.83333,-0.35417 -1.15625,-0.625c-0.3125,-0.27083 -0.55729,-0.60417 -0.73437,-1c-0.17708,-0.40625 -0.26562,-0.85937 -0.26562,-1.35937c0,-0.59375 0.11979,-1.10937 0.35938,-1.54687c0.25,-0.4375 0.59896,-0.80208 1.04688,-1.09375c0.45833,-0.29167 1.01563,-0.51042 1.67188,-0.65625c0.65625,-0.14583 1.39063,-0.21875 2.20313,-0.21875h1.45313v-0.8125c0,-0.40625 -0.04167,-0.76562 -0.125,-1.07812c-0.08333,-0.3125 -0.22396,-0.57292 -0.42187,-0.78125c-0.1875,-0.20833 -0.43229,-0.36458 -0.73437,-0.46875c-0.30208,-0.10417 -0.67708,-0.15625 -1.125,-0.15625c-0.47917,0 -0.91146,0.05729 -1.29687,0.17188c-0.375,0.11458 -0.70312,0.23958 -0.98437,0.375c-0.28125,0.13542 -0.52083,0.26042 -0.71875,0.375c-0.1875,0.11458 -0.32812,0.17188 -0.42187,0.17188c-0.0625,0 -0.11979,-0.01562 -0.17187,-0.04687c-0.04167,-0.03125 -0.08333,-0.07812 -0.125,-0.14062c-0.03125,-0.0625 -0.05729,-0.14062 -0.07812,-0.23437c-0.01042,-0.10417 -0.01562,-0.21354 -0.01562,-0.32812c0,-0.19792 0.01042,-0.35417 0.03125,-0.46875c0.03125,-0.11458 0.09896,-0.21875 0.20313,-0.3125c0.11458,-0.10417 0.29688,-0.22396 0.54688,-0.35937c0.26042,-0.14583 0.55729,-0.27083 0.89063,-0.375c0.34375,-0.11458 0.71354,-0.20833 1.10938,-0.28125c0.39583,-0.08333 0.79688,-0.125 1.20313,-0.125c0.76042,0 1.40625,0.08854 1.9375,0.26563c0.53125,0.16667 0.95833,0.41667 1.28125,0.75c0.33333,0.33333 0.57292,0.75 0.71875,1.25c0.14583,0.48958 0.21875,1.0625 0.21875,1.71875zM480.11621,32.33208h-1.64062c-0.53125,0 -0.99479,0.04688 -1.39062,0.14063c-0.38542,0.08333 -0.70833,0.21354 -0.96875,0.39063c-0.26042,0.17708 -0.45312,0.39063 -0.57812,0.64063c-0.11458,0.23958 -0.17187,0.52083 -0.17187,0.84375c0,0.54167 0.17188,0.97396 0.51563,1.29688c0.35417,0.32292 0.84375,0.48438 1.46875,0.48438c0.5,0 0.96875,-0.125 1.40625,-0.375c0.4375,-0.26042 0.89063,-0.65625 1.35938,-1.1875zM490.8584,36.36333c0,0.21875 -0.01562,0.39583 -0.04687,0.53125c-0.03125,0.13542 -0.07812,0.23438 -0.14062,0.29688c-0.0625,0.0625 -0.15625,0.125 -0.28125,0.1875c-0.125,0.05208 -0.27083,0.09375 -0.4375,0.125c-0.15625,0.03125 -0.32292,0.05729 -0.5,0.07813c-0.17708,0.03125 -0.35937,0.04688 -0.54687,0.04688c-0.54167,0 -1.01042,-0.07292 -1.40625,-0.21875c-0.38542,-0.14583 -0.70312,-0.36458 -0.95312,-0.65625c-0.25,-0.29167 -0.43229,-0.66146 -0.54687,-1.10937c-0.11458,-0.45833 -0.17187,-0.98958 -0.17187,-1.59375v-6.17187h-1.46875c-0.125,0 -0.22396,-0.0625 -0.29687,-0.1875c-0.0625,-0.125 -0.09375,-0.32812 -0.09375,-0.60937c0,-0.14583 0.01042,-0.26562 0.03125,-0.35937c0.02083,-0.10417 0.04688,-0.1875 0.07813,-0.25c0.03125,-0.07292 0.06771,-0.11979 0.10938,-0.14062c0.05208,-0.03125 0.10938,-0.04687 0.17188,-0.04687h1.46875v-2.51562c0,-0.05208 0.01042,-0.09896 0.03125,-0.14062c0.03125,-0.05208 0.08333,-0.09375 0.15625,-0.125c0.08333,-0.04167 0.1875,-0.06771 0.3125,-0.07812c0.125,-0.02083 0.28125,-0.03125 0.46875,-0.03125c0.1875,0 0.34375,0.01042 0.46875,0.03125c0.125,0.01042 0.22396,0.03646 0.29688,0.07813c0.07292,0.03125 0.125,0.07292 0.15625,0.125c0.03125,0.04167 0.04688,0.08854 0.04688,0.14063v2.51563h2.70313c0.0625,0 0.11458,0.01563 0.15625,0.04688c0.05208,0.02083 0.09375,0.06771 0.125,0.14063c0.04167,0.0625 0.06771,0.14583 0.07813,0.25c0.02083,0.09375 0.03125,0.21354 0.03125,0.35938c0,0.28125 -0.03646,0.48438 -0.10937,0.60938c-0.07292,0.125 -0.16667,0.1875 -0.28125,0.1875h-2.70312v5.89063c0,0.72917 0.10417,1.28125 0.3125,1.65625c0.21875,0.36458 0.60417,0.54688 1.15625,0.54688c0.1875,0 0.34896,-0.01562 0.48438,-0.04687c0.14583,-0.04167 0.27083,-0.07812 0.375,-0.10937c0.11458,-0.04167 0.20833,-0.07812 0.28125,-0.10937c0.08333,-0.04167 0.15625,-0.0625 0.21875,-0.0625c0.03125,0 0.0625,0.01042 0.09375,0.03125c0.04167,0.02083 0.07292,0.05729 0.09375,0.10938c0.02083,0.05208 0.03646,0.125 0.04688,0.21875c0.02083,0.09375 0.03125,0.21354 0.03125,0.35938zM495.91309,36.14458c0,0.55208 -0.09375,0.92188 -0.28125,1.10938c-0.1875,0.1875 -0.52083,0.28125 -1,0.28125c-0.46875,0 -0.79687,-0.08854 -0.98437,-0.26562c-0.17708,-0.1875 -0.26562,-0.55208 -0.26562,-1.09375c0,-0.55208 0.09375,-0.91667 0.28125,-1.09375c0.1875,-0.1875 0.52083,-0.28125 1,-0.28125c0.46875,0 0.79167,0.08854 0.96875,0.26563c0.1875,0.17708 0.28125,0.53646 0.28125,1.07813zM501.97168,36.14458c0,0.55208 -0.09375,0.92188 -0.28125,1.10938c-0.1875,0.1875 -0.52083,0.28125 -1,0.28125c-0.46875,0 -0.79687,-0.08854 -0.98437,-0.26562c-0.17708,-0.1875 -0.26562,-0.55208 -0.26562,-1.09375c0,-0.55208 0.09375,-0.91667 0.28125,-1.09375c0.1875,-0.1875 0.52083,-0.28125 1,-0.28125c0.46875,0 0.79167,0.08854 0.96875,0.26563c0.1875,0.17708 0.28125,0.53646 0.28125,1.07813zM514.6084,37.12895c0,0.0625 -0.01562,0.11458 -0.04687,0.15625c-0.03125,0.04167 -0.08333,0.08333 -0.15625,0.125c-0.0625,0.03125 -0.15625,0.05208 -0.28125,0.0625c-0.125,0.02083 -0.28125,0.03125 -0.46875,0.03125c-0.19792,0 -0.35937,-0.01042 -0.48437,-0.03125c-0.125,-0.01042 -0.22396,-0.03125 -0.29687,-0.0625c-0.07292,-0.04167 -0.125,-0.08333 -0.15625,-0.125c-0.03125,-0.04167 -0.04687,-0.09375 -0.04687,-0.15625v-6.17187c0,-0.60417 -0.04687,-1.08854 -0.14062,-1.45312c-0.09375,-0.36458 -0.22917,-0.67708 -0.40625,-0.9375c-0.17708,-0.27083 -0.41146,-0.47396 -0.70312,-0.60937c-0.28125,-0.14583 -0.60937,-0.21875 -0.98437,-0.21875c-0.47917,0 -0.96354,0.17188 -1.45312,0.51563c-0.47917,0.34375 -0.98437,0.84375 -1.51562,1.5v7.375c0,0.0625 -0.01562,0.11458 -0.04687,0.15625c-0.03125,0.04167 -0.08333,0.08333 -0.15625,0.125c-0.07292,0.03125 -0.17187,0.05208 -0.29687,0.0625c-0.125,0.02083 -0.28646,0.03125 -0.48437,0.03125c-0.1875,0 -0.34375,-0.01042 -0.46875,-0.03125c-0.125,-0.01042 -0.22396,-0.03125 -0.29687,-0.0625c-0.07292,-0.04167 -0.125,-0.08333 -0.15625,-0.125c-0.02083,-0.04167 -0.03125,-0.09375 -0.03125,-0.15625v-15.65625c0,-0.0625 0.01042,-0.11458 0.03125,-0.15625c0.03125,-0.05208 0.08333,-0.09375 0.15625,-0.125c0.07292,-0.03125 0.17188,-0.05208 0.29688,-0.0625c0.125,-0.02083 0.28125,-0.03125 0.46875,-0.03125c0.19792,0 0.35938,0.01042 0.48438,0.03125c0.125,0.01042 0.22396,0.03125 0.29688,0.0625c0.07292,0.03125 0.125,0.07292 0.15625,0.125c0.03125,0.04167 0.04688,0.09375 0.04688,0.15625v6.3125c0.55208,-0.58333 1.10938,-1.01562 1.67188,-1.29687c0.5625,-0.29167 1.13021,-0.4375 1.70313,-0.4375c0.69792,0 1.28646,0.11979 1.76563,0.35938c0.47917,0.23958 0.86458,0.5625 1.15625,0.96875c0.30208,0.39583 0.51563,0.85938 0.64063,1.39063c0.13542,0.53125 0.20313,1.17708 0.20313,1.9375zM526.07715,37.14458c0,0.09375 -0.03125,0.16667 -0.09375,0.21875c-0.0625,0.04167 -0.15104,0.07292 -0.26562,0.09375c-0.10417,0.03125 -0.26042,0.04688 -0.46875,0.04688c-0.19792,0 -0.35937,-0.01562 -0.48437,-0.04687c-0.125,-0.02083 -0.21354,-0.05208 -0.26562,-0.09375c-0.05208,-0.05208 -0.07812,-0.125 -0.07812,-0.21875v-1.0625c-0.45833,0.5 -0.97396,0.88542 -1.54687,1.15625c-0.5625,0.27083 -1.16146,0.40625 -1.79687,0.40625c-0.55208,0 -1.05208,-0.07292 -1.5,-0.21875c-0.44792,-0.14583 -0.83333,-0.35417 -1.15625,-0.625c-0.3125,-0.27083 -0.55729,-0.60417 -0.73437,-1c-0.17708,-0.40625 -0.26562,-0.85937 -0.26562,-1.35937c0,-0.59375 0.11979,-1.10937 0.35938,-1.54687c0.25,-0.4375 0.59896,-0.80208 1.04688,-1.09375c0.45833,-0.29167 1.01563,-0.51042 1.67188,-0.65625c0.65625,-0.14583 1.39063,-0.21875 2.20313,-0.21875h1.45313v-0.8125c0,-0.40625 -0.04167,-0.76562 -0.125,-1.07812c-0.08333,-0.3125 -0.22396,-0.57292 -0.42187,-0.78125c-0.1875,-0.20833 -0.43229,-0.36458 -0.73437,-0.46875c-0.30208,-0.10417 -0.67708,-0.15625 -1.125,-0.15625c-0.47917,0 -0.91146,0.05729 -1.29687,0.17188c-0.375,0.11458 -0.70312,0.23958 -0.98437,0.375c-0.28125,0.13542 -0.52083,0.26042 -0.71875,0.375c-0.1875,0.11458 -0.32812,0.17188 -0.42187,0.17188c-0.0625,0 -0.11979,-0.01562 -0.17187,-0.04687c-0.04167,-0.03125 -0.08333,-0.07812 -0.125,-0.14062c-0.03125,-0.0625 -0.05729,-0.14062 -0.07812,-0.23437c-0.01042,-0.10417 -0.01562,-0.21354 -0.01562,-0.32812c0,-0.19792 0.01042,-0.35417 0.03125,-0.46875c0.03125,-0.11458 0.09896,-0.21875 0.20313,-0.3125c0.11458,-0.10417 0.29688,-0.22396 0.54688,-0.35937c0.26042,-0.14583 0.55729,-0.27083 0.89063,-0.375c0.34375,-0.11458 0.71354,-0.20833 1.10938,-0.28125c0.39583,-0.08333 0.79688,-0.125 1.20313,-0.125c0.76042,0 1.40625,0.08854 1.9375,0.26563c0.53125,0.16667 0.95833,0.41667 1.28125,0.75c0.33333,0.33333 0.57292,0.75 0.71875,1.25c0.14583,0.48958 0.21875,1.0625 0.21875,1.71875zM524.15527,32.33208h-1.64062c-0.53125,0 -0.99479,0.04688 -1.39062,0.14063c-0.38542,0.08333 -0.70833,0.21354 -0.96875,0.39063c-0.26042,0.17708 -0.45312,0.39063 -0.57812,0.64063c-0.11458,0.23958 -0.17187,0.52083 -0.17187,0.84375c0,0.54167 0.17188,0.97396 0.51563,1.29688c0.35417,0.32292 0.84375,0.48438 1.46875,0.48438c0.5,0 0.96875,-0.125 1.40625,-0.375c0.4375,-0.26042 0.89063,-0.65625 1.35938,-1.1875zM537.87793,26.56645c0,0.03125 0,0.0625 0,0.09375c0,0.03125 -0.00521,0.06771 -0.01562,0.10938c-0.01042,0.04167 -0.02083,0.08854 -0.03125,0.14063c-0.01042,0.04167 -0.02604,0.08854 -0.04687,0.14063l-3.59375,10.01563c-0.03125,0.09375 -0.07292,0.16667 -0.125,0.21875c-0.05208,0.05208 -0.13021,0.09375 -0.23437,0.125c-0.09375,0.03125 -0.21875,0.05208 -0.375,0.0625c-0.15625,0.02083 -0.35417,0.03125 -0.59375,0.03125c-0.22917,0 -0.42187,-0.01042 -0.57812,-0.03125c-0.15625,-0.01042 -0.28646,-0.03125 -0.39062,-0.0625c-0.09375,-0.04167 -0.16667,-0.08854 -0.21875,-0.14062c-0.05208,-0.05208 -0.09375,-0.11979 -0.125,-0.20312l-3.59375,-10.01562c-0.03125,-0.09375 -0.05729,-0.17187 -0.07812,-0.23437c-0.02083,-0.07292 -0.03125,-0.125 -0.03125,-0.15625c0,-0.04167 0,-0.07292 0,-0.09375c0,-0.0625 0.01563,-0.11458 0.04688,-0.15625c0.03125,-0.05208 0.08333,-0.09375 0.15625,-0.125c0.07292,-0.03125 0.16667,-0.04687 0.28125,-0.04687c0.125,-0.01042 0.27604,-0.01562 0.45313,-0.01562c0.22917,0 0.41146,0.00521 0.54688,0.01563c0.13542,0.01042 0.23958,0.03125 0.3125,0.0625c0.08333,0.03125 0.14063,0.07292 0.17188,0.125c0.03125,0.04167 0.0625,0.09896 0.09375,0.17188l2.98438,8.6875l0.04688,0.14063l0.03125,-0.14062l2.9375,-8.6875c0.02083,-0.07292 0.04688,-0.13021 0.07813,-0.17187c0.04167,-0.05208 0.09896,-0.09375 0.17188,-0.125c0.08333,-0.03125 0.1875,-0.05208 0.3125,-0.0625c0.125,-0.01042 0.29688,-0.01562 0.51563,-0.01562c0.17708,0 0.32292,0.00521 0.4375,0.01563c0.11458,0 0.20313,0.01563 0.26563,0.04688c0.07292,0.03125 0.11979,0.07292 0.14063,0.125c0.03125,0.04167 0.04688,0.09375 0.04688,0.15625zM548.84277,31.39458c0,0.3125 -0.07812,0.53125 -0.23437,0.65625c-0.14583,0.125 -0.31771,0.1875 -0.51562,0.1875h-6.92187c0,0.59375 0.05729,1.125 0.17188,1.59375c0.125,0.46875 0.32292,0.86979 0.59375,1.20313c0.27083,0.33333 0.625,0.59375 1.0625,0.78125c0.4375,0.17708 0.97396,0.26563 1.60938,0.26563c0.5,0 0.94271,-0.04167 1.32813,-0.125c0.39583,-0.08333 0.73438,-0.17708 1.01563,-0.28125c0.29167,-0.10417 0.52604,-0.19271 0.70313,-0.26562c0.1875,-0.08333 0.32813,-0.125 0.42188,-0.125c0.05208,0 0.09896,0.01563 0.14063,0.04688c0.05208,0.02083 0.08854,0.05729 0.10938,0.10938c0.02083,0.05208 0.03646,0.13021 0.04688,0.23438c0.01042,0.09375 0.01563,0.21354 0.01563,0.35938c0,0.09375 -0.00521,0.18229 -0.01562,0.26563c0,0.07292 -0.00521,0.14063 -0.01562,0.20313c-0.01042,0.05208 -0.03125,0.10417 -0.0625,0.15625c-0.03125,0.04167 -0.06771,0.08333 -0.10937,0.125c-0.04167,0.04167 -0.16667,0.11458 -0.375,0.21875c-0.20833,0.09375 -0.48437,0.1875 -0.82812,0.28125c-0.33333,0.09375 -0.72396,0.17708 -1.17187,0.25c-0.4375,0.07292 -0.90625,0.10938 -1.40625,0.10938c-0.86458,0 -1.625,-0.11979 -2.28125,-0.35937c-0.64583,-0.23958 -1.19271,-0.59896 -1.64062,-1.07812c-0.44792,-0.47917 -0.78646,-1.07812 -1.01562,-1.79687c-0.21875,-0.71875 -0.32812,-1.55208 -0.32812,-2.5c0,-0.90625 0.11458,-1.71875 0.34375,-2.4375c0.23958,-0.72917 0.57813,-1.34375 1.01563,-1.84375c0.44792,-0.51042 0.98438,-0.90104 1.60938,-1.17187c0.625,-0.27083 1.32292,-0.40625 2.09375,-0.40625c0.82292,0 1.52604,0.13542 2.10938,0.40625c0.58333,0.26042 1.0625,0.61979 1.4375,1.07813c0.375,0.44792 0.65104,0.97396 0.82813,1.57813c0.17708,0.60417 0.26563,1.25 0.26563,1.9375zM546.88965,30.83208c0.03125,-1.02083 -0.19271,-1.81771 -0.67187,-2.39062c-0.46875,-0.58333 -1.16667,-0.875 -2.09375,-0.875c-0.47917,0 -0.90104,0.09375 -1.26562,0.28125c-0.35417,0.17708 -0.65625,0.41667 -0.90625,0.71875c-0.23958,0.29167 -0.42708,0.63542 -0.5625,1.03125c-0.125,0.38542 -0.19792,0.79688 -0.21875,1.23438zM562.00684,37.42583l-1.40625,3.875c-0.04167,0.125 -0.16146,0.21875 -0.35937,0.28125c-0.1875,0.07292 -0.47396,0.10938 -0.85937,0.10938c-0.20833,0 -0.375,-0.01042 -0.5,-0.03125c-0.125,-0.02083 -0.22396,-0.05729 -0.29687,-0.10937c-0.0625,-0.04167 -0.09896,-0.10417 -0.10937,-0.1875c0,-0.07292 0.02083,-0.16146 0.0625,-0.26562l1.45313,-3.67187c-0.0625,-0.03125 -0.125,-0.08333 -0.1875,-0.15625c-0.0625,-0.07292 -0.10937,-0.14583 -0.14062,-0.21875l-3.75,-10.07812c-0.0625,-0.16667 -0.09375,-0.29687 -0.09375,-0.39062c0,-0.09375 0.03125,-0.16667 0.09375,-0.21875c0.0625,-0.05208 0.16146,-0.08854 0.29688,-0.10937c0.14583,-0.02083 0.33333,-0.03125 0.5625,-0.03125c0.23958,0 0.42188,0.00521 0.54688,0.01563c0.13542,0.01042 0.23958,0.03125 0.3125,0.0625c0.08333,0.03125 0.14063,0.07813 0.17188,0.14063c0.04167,0.05208 0.08333,0.13021 0.125,0.23438l3,8.46875h0.04688l2.90625,-8.51562c0.04167,-0.14583 0.09375,-0.23958 0.15625,-0.28125c0.07292,-0.04167 0.17188,-0.07292 0.29688,-0.09375c0.13542,-0.02083 0.32813,-0.03125 0.57813,-0.03125c0.21875,0 0.39583,0.01042 0.53125,0.03125c0.14583,0.02083 0.25,0.05729 0.3125,0.10938c0.07292,0.05208 0.10938,0.125 0.10938,0.21875c0,0.09375 -0.02083,0.21354 -0.0625,0.35938zM577.60449,31.73833c0,0.86458 -0.11458,1.65625 -0.34375,2.375c-0.22917,0.71875 -0.56771,1.34375 -1.01562,1.875c-0.44792,0.52083 -1.01042,0.92708 -1.6875,1.21875c-0.67708,0.29167 -1.45833,0.4375 -2.34375,0.4375c-0.875,0 -1.63542,-0.125 -2.28125,-0.375c-0.63542,-0.26042 -1.17187,-0.63542 -1.60937,-1.125c-0.42708,-0.5 -0.74479,-1.09896 -0.95312,-1.79687c-0.20833,-0.70833 -0.3125,-1.50521 -0.3125,-2.39062c0,-0.86458 0.10938,-1.65625 0.32813,-2.375c0.21875,-0.72917 0.55208,-1.35417 1,-1.875c0.45833,-0.52083 1.02083,-0.92708 1.6875,-1.21875c0.67708,-0.29167 1.46354,-0.4375 2.35938,-0.4375c0.86458,0 1.61979,0.13021 2.26563,0.39063c0.64583,0.26042 1.18229,0.63542 1.60938,1.125c0.42708,0.48958 0.75,1.08854 0.96875,1.79688c0.21875,0.69792 0.32813,1.48958 0.32813,2.375zM575.55762,31.86333c0,-0.5625 -0.05208,-1.09896 -0.15625,-1.60937c-0.10417,-0.51042 -0.28125,-0.95312 -0.53125,-1.32812c-0.23958,-0.38542 -0.56771,-0.6875 -0.98437,-0.90625c-0.40625,-0.22917 -0.91667,-0.34375 -1.53125,-0.34375c-0.57292,0 -1.06771,0.10417 -1.48437,0.3125c-0.40625,0.19792 -0.74479,0.48438 -1.01562,0.85938c-0.26042,0.36458 -0.45833,0.80208 -0.59375,1.3125c-0.125,0.51042 -0.1875,1.0625 -0.1875,1.65625c0,0.58333 0.05208,1.13021 0.15625,1.64063c0.11458,0.5 0.29167,0.94271 0.53125,1.32813c0.25,0.375 0.57813,0.67708 0.98438,0.90625c0.41667,0.21875 0.9375,0.32813 1.5625,0.32813c0.5625,0 1.04688,-0.09896 1.45313,-0.29687c0.41667,-0.20833 0.75521,-0.49479 1.01563,-0.85937c0.27083,-0.375 0.46875,-0.8125 0.59375,-1.3125c0.125,-0.51042 0.1875,-1.07292 0.1875,-1.6875zM589.47949,37.12895c0,0.0625 -0.01562,0.11458 -0.04687,0.15625c-0.02083,0.04167 -0.06771,0.08333 -0.14062,0.125c-0.07292,0.03125 -0.16667,0.05208 -0.28125,0.0625c-0.10417,0.02083 -0.23958,0.03125 -0.40625,0.03125c-0.17708,0 -0.32292,-0.01042 -0.4375,-0.03125c-0.11458,-0.01042 -0.20833,-0.03125 -0.28125,-0.0625c-0.0625,-0.04167 -0.10417,-0.08333 -0.125,-0.125c-0.02083,-0.04167 -0.03125,-0.09375 -0.03125,-0.15625v-1.39062c-0.60417,0.66667 -1.20312,1.15104 -1.79687,1.45313c-0.58333,0.30208 -1.17187,0.45313 -1.76562,0.45313c-0.70833,0 -1.30208,-0.11458 -1.78125,-0.34375c-0.47917,-0.23958 -0.86979,-0.55729 -1.17187,-0.95312c-0.29167,-0.40625 -0.50521,-0.875 -0.64062,-1.40625c-0.125,-0.54167 -0.1875,-1.19271 -0.1875,-1.95312v-6.40625c0,-0.0625 0.01042,-0.11458 0.03125,-0.15625c0.03125,-0.04167 0.08333,-0.07812 0.15625,-0.10937c0.08333,-0.04167 0.1875,-0.06771 0.3125,-0.07812c0.125,-0.01042 0.28125,-0.01562 0.46875,-0.01562c0.1875,0 0.34375,0.00521 0.46875,0.01563c0.125,0.01042 0.22396,0.03646 0.29688,0.07813c0.08333,0.03125 0.14063,0.06771 0.17188,0.10938c0.03125,0.04167 0.04688,0.09375 0.04688,0.15625v6.14063c0,0.61458 0.04167,1.10938 0.125,1.48438c0.09375,0.375 0.22917,0.69271 0.40625,0.95313c0.1875,0.26042 0.42188,0.46354 0.70313,0.60938c0.28125,0.14583 0.60938,0.21875 0.98438,0.21875c0.48958,0 0.97396,-0.17187 1.45313,-0.51562c0.47917,-0.34375 0.98958,-0.84896 1.53125,-1.51562v-7.375c0,-0.0625 0.01042,-0.11458 0.03125,-0.15625c0.03125,-0.04167 0.08333,-0.07812 0.15625,-0.10937c0.08333,-0.04167 0.18229,-0.06771 0.29688,-0.07812c0.125,-0.01042 0.28646,-0.01562 0.48438,-0.01562c0.1875,0 0.34375,0.00521 0.46875,0.01563c0.125,0.01042 0.21875,0.03646 0.28125,0.07813c0.07292,0.03125 0.125,0.06771 0.15625,0.10938c0.04167,0.04167 0.0625,0.09375 0.0625,0.15625zM607.51465,37.12895c0,0.0625 -0.01562,0.11979 -0.04687,0.17188c-0.02083,0.04167 -0.06771,0.07813 -0.14062,0.10938c-0.0625,0.03125 -0.15104,0.05208 -0.26562,0.0625c-0.10417,0.02083 -0.23437,0.03125 -0.39062,0.03125c-0.16667,0 -0.30729,-0.01042 -0.42187,-0.03125c-0.10417,-0.01042 -0.19271,-0.03125 -0.26562,-0.0625c-0.0625,-0.03125 -0.10937,-0.06771 -0.14062,-0.10937c-0.03125,-0.05208 -0.04687,-0.10937 -0.04687,-0.17187v-1.39062c-0.55208,0.60417 -1.13021,1.07292 -1.73437,1.40625c-0.59375,0.33333 -1.24479,0.5 -1.95312,0.5c-0.78125,0 -1.44792,-0.15104 -2,-0.45312c-0.54167,-0.30208 -0.98437,-0.70833 -1.32812,-1.21875c-0.33333,-0.51042 -0.57812,-1.10937 -0.73437,-1.79687c-0.15625,-0.69792 -0.23437,-1.42708 -0.23437,-2.1875c0,-0.90625 0.09896,-1.72396 0.29688,-2.45312c0.19792,-0.72917 0.48438,-1.34896 0.85938,-1.85937c0.38542,-0.52083 0.85938,-0.92187 1.42188,-1.20312c0.57292,-0.28125 1.22917,-0.42187 1.96875,-0.42187c0.61458,0 1.17708,0.13542 1.6875,0.40625c0.52083,0.27083 1.03125,0.66667 1.53125,1.1875v-6.125c0,-0.05208 0.01042,-0.10417 0.03125,-0.15625c0.03125,-0.05208 0.08333,-0.08854 0.15625,-0.10937c0.08333,-0.03125 0.18229,-0.05729 0.29688,-0.07812c0.125,-0.02083 0.28125,-0.03125 0.46875,-0.03125c0.19792,0 0.35938,0.01042 0.48438,0.03125c0.125,0.02083 0.21875,0.04688 0.28125,0.07813c0.07292,0.02083 0.125,0.05729 0.15625,0.10938c0.04167,0.05208 0.0625,0.10417 0.0625,0.15625zM605.57715,29.70708c-0.53125,-0.64583 -1.04167,-1.13542 -1.53125,-1.46875c-0.47917,-0.34375 -0.98437,-0.51562 -1.51562,-0.51562c-0.5,0 -0.92187,0.11979 -1.26562,0.35938c-0.34375,0.22917 -0.625,0.53646 -0.84375,0.92188c-0.20833,0.375 -0.36458,0.80729 -0.46875,1.29688c-0.09375,0.47917 -0.14062,0.96875 -0.14062,1.46875c0,0.53125 0.04167,1.05208 0.125,1.5625c0.08333,0.51042 0.22396,0.96354 0.42188,1.35938c0.20833,0.39583 0.47917,0.71354 0.8125,0.95313c0.34375,0.22917 0.76563,0.34375 1.26563,0.34375c0.26042,0 0.51042,-0.03125 0.75,-0.09375c0.23958,-0.07292 0.48438,-0.19271 0.73438,-0.35937c0.25,-0.16667 0.51042,-0.38021 0.78125,-0.64062c0.27083,-0.26042 0.5625,-0.58333 0.875,-0.96875zM620.90527,31.73833c0,0.86458 -0.11458,1.65625 -0.34375,2.375c-0.22917,0.71875 -0.56771,1.34375 -1.01562,1.875c-0.44792,0.52083 -1.01042,0.92708 -1.6875,1.21875c-0.67708,0.29167 -1.45833,0.4375 -2.34375,0.4375c-0.875,0 -1.63542,-0.125 -2.28125,-0.375c-0.63542,-0.26042 -1.17187,-0.63542 -1.60937,-1.125c-0.42708,-0.5 -0.74479,-1.09896 -0.95312,-1.79687c-0.20833,-0.70833 -0.3125,-1.50521 -0.3125,-2.39062c0,-0.86458 0.10938,-1.65625 0.32813,-2.375c0.21875,-0.72917 0.55208,-1.35417 1,-1.875c0.45833,-0.52083 1.02083,-0.92708 1.6875,-1.21875c0.67708,-0.29167 1.46354,-0.4375 2.35938,-0.4375c0.86458,0 1.61979,0.13021 2.26563,0.39063c0.64583,0.26042 1.18229,0.63542 1.60938,1.125c0.42708,0.48958 0.75,1.08854 0.96875,1.79688c0.21875,0.69792 0.32813,1.48958 0.32813,2.375zM618.8584,31.86333c0,-0.5625 -0.05208,-1.09896 -0.15625,-1.60937c-0.10417,-0.51042 -0.28125,-0.95312 -0.53125,-1.32812c-0.23958,-0.38542 -0.56771,-0.6875 -0.98437,-0.90625c-0.40625,-0.22917 -0.91667,-0.34375 -1.53125,-0.34375c-0.57292,0 -1.06771,0.10417 -1.48437,0.3125c-0.40625,0.19792 -0.74479,0.48438 -1.01562,0.85938c-0.26042,0.36458 -0.45833,0.80208 -0.59375,1.3125c-0.125,0.51042 -0.1875,1.0625 -0.1875,1.65625c0,0.58333 0.05208,1.13021 0.15625,1.64063c0.11458,0.5 0.29167,0.94271 0.53125,1.32813c0.25,0.375 0.57813,0.67708 0.98438,0.90625c0.41667,0.21875 0.9375,0.32813 1.5625,0.32813c0.5625,0 1.04688,-0.09896 1.45313,-0.29687c0.41667,-0.20833 0.75521,-0.49479 1.01563,-0.85937c0.27083,-0.375 0.46875,-0.8125 0.59375,-1.3125c0.125,-0.51042 0.1875,-1.07292 0.1875,-1.6875zM632.82715,37.12895c0,0.0625 -0.01562,0.11458 -0.04687,0.15625c-0.03125,0.04167 -0.08333,0.08333 -0.15625,0.125c-0.0625,0.03125 -0.15625,0.05208 -0.28125,0.0625c-0.125,0.02083 -0.28125,0.03125 -0.46875,0.03125c-0.19792,0 -0.35937,-0.01042 -0.48437,-0.03125c-0.125,-0.01042 -0.22396,-0.03125 -0.29687,-0.0625c-0.07292,-0.04167 -0.125,-0.08333 -0.15625,-0.125c-0.03125,-0.04167 -0.04687,-0.09375 -0.04687,-0.15625v-6.17187c0,-0.60417 -0.04687,-1.08854 -0.14062,-1.45312c-0.09375,-0.36458 -0.22917,-0.67708 -0.40625,-0.9375c-0.17708,-0.27083 -0.41146,-0.47396 -0.70312,-0.60937c-0.28125,-0.14583 -0.60937,-0.21875 -0.98437,-0.21875c-0.47917,0 -0.96354,0.17188 -1.45312,0.51563c-0.47917,0.34375 -0.98437,0.84375 -1.51562,1.5v7.375c0,0.0625 -0.01562,0.11458 -0.04687,0.15625c-0.03125,0.04167 -0.08333,0.08333 -0.15625,0.125c-0.07292,0.03125 -0.17187,0.05208 -0.29687,0.0625c-0.125,0.02083 -0.28646,0.03125 -0.48437,0.03125c-0.1875,0 -0.34375,-0.01042 -0.46875,-0.03125c-0.125,-0.01042 -0.22396,-0.03125 -0.29687,-0.0625c-0.07292,-0.04167 -0.125,-0.08333 -0.15625,-0.125c-0.02083,-0.04167 -0.03125,-0.09375 -0.03125,-0.15625v-10.54687c0,-0.0625 0.01042,-0.11458 0.03125,-0.15625c0.02083,-0.04167 0.06771,-0.07812 0.14063,-0.10937c0.07292,-0.04167 0.16146,-0.06771 0.26563,-0.07812c0.11458,-0.01042 0.26042,-0.01562 0.4375,-0.01562c0.17708,0 0.31771,0.00521 0.42188,0.01563c0.11458,0.01042 0.20313,0.03646 0.26563,0.07813c0.0625,0.03125 0.10938,0.06771 0.14063,0.10938c0.03125,0.04167 0.04688,0.09375 0.04688,0.15625v1.39063c0.59375,-0.65625 1.18229,-1.14062 1.76563,-1.45312c0.59375,-0.3125 1.19271,-0.46875 1.79688,-0.46875c0.69792,0 1.28646,0.11979 1.76563,0.35938c0.47917,0.23958 0.86458,0.5625 1.15625,0.96875c0.30208,0.39583 0.51563,0.85938 0.64063,1.39063c0.13542,0.53125 0.20313,1.17188 0.20313,1.92188zM645.3584,31.39458c0,0.3125 -0.07812,0.53125 -0.23437,0.65625c-0.14583,0.125 -0.31771,0.1875 -0.51562,0.1875h-6.92187c0,0.59375 0.05729,1.125 0.17188,1.59375c0.125,0.46875 0.32292,0.86979 0.59375,1.20313c0.27083,0.33333 0.625,0.59375 1.0625,0.78125c0.4375,0.17708 0.97396,0.26563 1.60938,0.26563c0.5,0 0.94271,-0.04167 1.32813,-0.125c0.39583,-0.08333 0.73438,-0.17708 1.01563,-0.28125c0.29167,-0.10417 0.52604,-0.19271 0.70313,-0.26562c0.1875,-0.08333 0.32813,-0.125 0.42188,-0.125c0.05208,0 0.09896,0.01563 0.14063,0.04688c0.05208,0.02083 0.08854,0.05729 0.10938,0.10938c0.02083,0.05208 0.03646,0.13021 0.04688,0.23438c0.01042,0.09375 0.01563,0.21354 0.01563,0.35938c0,0.09375 -0.00521,0.18229 -0.01562,0.26563c0,0.07292 -0.00521,0.14063 -0.01562,0.20313c-0.01042,0.05208 -0.03125,0.10417 -0.0625,0.15625c-0.03125,0.04167 -0.06771,0.08333 -0.10937,0.125c-0.04167,0.04167 -0.16667,0.11458 -0.375,0.21875c-0.20833,0.09375 -0.48437,0.1875 -0.82812,0.28125c-0.33333,0.09375 -0.72396,0.17708 -1.17187,0.25c-0.4375,0.07292 -0.90625,0.10938 -1.40625,0.10938c-0.86458,0 -1.625,-0.11979 -2.28125,-0.35937c-0.64583,-0.23958 -1.19271,-0.59896 -1.64062,-1.07812c-0.44792,-0.47917 -0.78646,-1.07812 -1.01562,-1.79687c-0.21875,-0.71875 -0.32812,-1.55208 -0.32812,-2.5c0,-0.90625 0.11458,-1.71875 0.34375,-2.4375c0.23958,-0.72917 0.57813,-1.34375 1.01563,-1.84375c0.44792,-0.51042 0.98438,-0.90104 1.60938,-1.17187c0.625,-0.27083 1.32292,-0.40625 2.09375,-0.40625c0.82292,0 1.52604,0.13542 2.10938,0.40625c0.58333,0.26042 1.0625,0.61979 1.4375,1.07813c0.375,0.44792 0.65104,0.97396 0.82813,1.57813c0.17708,0.60417 0.26563,1.25 0.26563,1.9375zM643.40527,30.83208c0.03125,-1.02083 -0.19271,-1.81771 -0.67187,-2.39062c-0.46875,-0.58333 -1.16667,-0.875 -2.09375,-0.875c-0.47917,0 -0.90104,0.09375 -1.26562,0.28125c-0.35417,0.17708 -0.65625,0.41667 -0.90625,0.71875c-0.23958,0.29167 -0.42708,0.63542 -0.5625,1.03125c-0.125,0.38542 -0.19792,0.79688 -0.21875,1.23438zM656.51855,25.81645c0,0.6875 -0.09896,1.29688 -0.29687,1.82813c-0.1875,0.53125 -0.45833,0.98438 -0.8125,1.35938c-0.35417,0.375 -0.77604,0.66667 -1.26562,0.875c-0.48958,0.20833 -1.03646,0.33333 -1.64062,0.375l-0.07812,2.82813c0,0.11458 -0.06771,0.20313 -0.20312,0.26563c-0.13542,0.05208 -0.35937,0.07813 -0.67187,0.07813c-0.15625,0 -0.29687,-0.00521 -0.42187,-0.01562c-0.11458,-0.01042 -0.20833,-0.02604 -0.28125,-0.04687c-0.0625,-0.03125 -0.10937,-0.06771 -0.14062,-0.10937c-0.03125,-0.05208 -0.04687,-0.10937 -0.04687,-0.17187l-0.07812,-3.25c-0.01042,-0.17708 0,-0.32292 0.03125,-0.4375c0.04167,-0.11458 0.09896,-0.20833 0.17188,-0.28125c0.07292,-0.07292 0.16146,-0.125 0.26563,-0.15625c0.11458,-0.03125 0.23958,-0.04687 0.375,-0.04687h0.26563c0.5,0 0.92708,-0.07812 1.28125,-0.23437c0.36458,-0.15625 0.65625,-0.36458 0.875,-0.625c0.22917,-0.27083 0.39583,-0.58333 0.5,-0.9375c0.10417,-0.36458 0.15625,-0.74479 0.15625,-1.14062c0,-0.44792 -0.0625,-0.85417 -0.1875,-1.21875c-0.125,-0.375 -0.3125,-0.69792 -0.5625,-0.96875c-0.25,-0.27083 -0.56771,-0.47917 -0.95312,-0.625c-0.375,-0.14583 -0.82292,-0.21875 -1.34375,-0.21875c-0.44792,0 -0.84375,0.05208 -1.1875,0.15625c-0.33333,0.09375 -0.625,0.19792 -0.875,0.3125c-0.25,0.11458 -0.45833,0.21875 -0.625,0.3125c-0.15625,0.09375 -0.27604,0.14063 -0.35937,0.14063c-0.05208,0 -0.09896,-0.01042 -0.14062,-0.03125c-0.04167,-0.02083 -0.07812,-0.0625 -0.10937,-0.125c-0.03125,-0.07292 -0.05729,-0.16667 -0.07812,-0.28125c-0.01042,-0.11458 -0.01562,-0.25521 -0.01562,-0.42187c0,-0.1875 0.01042,-0.32812 0.03125,-0.42187c0.02083,-0.10417 0.06771,-0.19271 0.14063,-0.26562c0.08333,-0.07292 0.23438,-0.17187 0.45313,-0.29687c0.22917,-0.125 0.5,-0.23437 0.8125,-0.32812c0.32292,-0.10417 0.67188,-0.19271 1.04688,-0.26562c0.38542,-0.07292 0.78125,-0.10937 1.1875,-0.10937c0.83333,0 1.54688,0.11979 2.14063,0.35938c0.60417,0.23958 1.09896,0.5625 1.48438,0.96875c0.39583,0.40625 0.6875,0.88542 0.875,1.4375c0.1875,0.54167 0.28125,1.11979 0.28125,1.73438zM652.81543,36.20708c0,0.26042 -0.01562,0.47396 -0.04687,0.64063c-0.03125,0.16667 -0.09375,0.30208 -0.1875,0.40625c-0.09375,0.10417 -0.22396,0.17708 -0.39062,0.21875c-0.15625,0.05208 -0.35417,0.07813 -0.59375,0.07813c-0.25,0 -0.45312,-0.02604 -0.60937,-0.07812c-0.15625,-0.04167 -0.28125,-0.11458 -0.375,-0.21875c-0.09375,-0.10417 -0.16146,-0.23958 -0.20312,-0.40625c-0.03125,-0.16667 -0.04687,-0.38021 -0.04687,-0.64062c0,-0.26042 0.01563,-0.47917 0.04688,-0.65625c0.04167,-0.17708 0.10938,-0.3125 0.20313,-0.40625c0.09375,-0.09375 0.21875,-0.16146 0.375,-0.20312c0.15625,-0.05208 0.35938,-0.07812 0.60938,-0.07812c0.23958,0 0.4375,0.02604 0.59375,0.07813c0.16667,0.04167 0.29688,0.10938 0.39063,0.20313c0.09375,0.09375 0.15625,0.22917 0.1875,0.40625c0.03125,0.17708 0.04688,0.39583 0.04688,0.65625z" fill="#595959" fill-rule="nonzero"/><path d="M454.7244,193.0761h180.34644v59.49606h-180.34644z" fill-opacity="0" fill="#000000" fill-rule="evenodd"/><path d="M511.42303,229.4579c0,0.13542 -0.00521,0.25521 -0.01562,0.35938c0,0.09375 -0.01042,0.17708 -0.03125,0.25c-0.02083,0.0625 -0.04687,0.11979 -0.07812,0.17188c-0.02083,0.04167 -0.08333,0.11458 -0.1875,0.21875c-0.09375,0.09375 -0.26042,0.21354 -0.5,0.35938c-0.22917,0.14583 -0.48958,0.27604 -0.78125,0.39063c-0.29167,0.11458 -0.60937,0.20313 -0.95312,0.26563c-0.34375,0.07292 -0.70312,0.10938 -1.07812,0.10938c-0.75,0 -1.42187,-0.125 -2.01562,-0.375c-0.58333,-0.25 -1.07292,-0.61458 -1.46875,-1.09375c-0.39583,-0.47917 -0.69792,-1.06771 -0.90625,-1.76562c-0.19792,-0.69792 -0.29687,-1.50521 -0.29687,-2.42187c0,-1.04167 0.125,-1.93229 0.375,-2.67187c0.25,-0.75 0.59375,-1.36458 1.03125,-1.84375c0.44792,-0.47917 0.96875,-0.83333 1.5625,-1.0625c0.60417,-0.22917 1.25521,-0.34375 1.95313,-0.34375c0.33333,0 0.65625,0.03125 0.96875,0.09375c0.32292,0.0625 0.61458,0.14583 0.875,0.25c0.27083,0.10417 0.50521,0.22396 0.70313,0.35938c0.20833,0.125 0.35938,0.23438 0.45313,0.32813c0.09375,0.09375 0.15625,0.17188 0.1875,0.23438c0.04167,0.05208 0.07292,0.11458 0.09375,0.1875c0.03125,0.07292 0.04688,0.15625 0.04688,0.25c0.01042,0.09375 0.01563,0.20833 0.01563,0.34375c0,0.3125 -0.03646,0.53125 -0.10937,0.65625c-0.0625,0.11458 -0.14583,0.17188 -0.25,0.17188c-0.11458,0 -0.25,-0.0625 -0.40625,-0.1875c-0.15625,-0.13542 -0.35417,-0.28125 -0.59375,-0.4375c-0.22917,-0.15625 -0.51042,-0.29687 -0.84375,-0.42187c-0.32292,-0.13542 -0.71354,-0.20312 -1.17187,-0.20312c-0.92708,0 -1.64062,0.35938 -2.14062,1.07813c-0.48958,0.71875 -0.73437,1.75521 -0.73437,3.10938c0,0.67708 0.0625,1.27604 0.1875,1.79688c0.125,0.51042 0.3125,0.9375 0.5625,1.28125c0.25,0.34375 0.55729,0.59896 0.92188,0.76563c0.36458,0.16667 0.78125,0.25 1.25,0.25c0.44792,0 0.83854,-0.06771 1.17188,-0.20312c0.33333,-0.14583 0.625,-0.30208 0.875,-0.46875c0.25,-0.16667 0.45833,-0.31771 0.625,-0.45312c0.16667,-0.14583 0.29688,-0.21875 0.39063,-0.21875c0.05208,0 0.09896,0.01563 0.14063,0.04688c0.04167,0.03125 0.07292,0.08854 0.09375,0.17188c0.03125,0.07292 0.05208,0.16667 0.0625,0.28125c0.01042,0.10417 0.01563,0.23438 0.01563,0.39063zM523.60662,225.67665c0,0.86458 -0.11458,1.65625 -0.34375,2.375c-0.22917,0.71875 -0.56771,1.34375 -1.01562,1.875c-0.44792,0.52083 -1.01042,0.92708 -1.6875,1.21875c-0.67708,0.29167 -1.45833,0.4375 -2.34375,0.4375c-0.875,0 -1.63542,-0.125 -2.28125,-0.375c-0.63542,-0.26042 -1.17187,-0.63542 -1.60937,-1.125c-0.42708,-0.5 -0.74479,-1.09896 -0.95312,-1.79687c-0.20833,-0.70833 -0.3125,-1.50521 -0.3125,-2.39062c0,-0.86458 0.10938,-1.65625 0.32813,-2.375c0.21875,-0.72917 0.55208,-1.35417 1,-1.875c0.45833,-0.52083 1.02083,-0.92708 1.6875,-1.21875c0.67708,-0.29167 1.46354,-0.4375 2.35938,-0.4375c0.86458,0 1.61979,0.13021 2.26563,0.39063c0.64583,0.26042 1.18229,0.63542 1.60938,1.125c0.42708,0.48958 0.75,1.08854 0.96875,1.79688c0.21875,0.69792 0.32813,1.48958 0.32813,2.375zM521.55975,225.80165c0,-0.5625 -0.05208,-1.09896 -0.15625,-1.60937c-0.10417,-0.51042 -0.28125,-0.95312 -0.53125,-1.32812c-0.23958,-0.38542 -0.56771,-0.6875 -0.98437,-0.90625c-0.40625,-0.22917 -0.91667,-0.34375 -1.53125,-0.34375c-0.57292,0 -1.06771,0.10417 -1.48437,0.3125c-0.40625,0.19792 -0.74479,0.48438 -1.01562,0.85938c-0.26042,0.36458 -0.45833,0.80208 -0.59375,1.3125c-0.125,0.51042 -0.1875,1.0625 -0.1875,1.65625c0,0.58333 0.05208,1.13021 0.15625,1.64063c0.11458,0.5 0.29167,0.94271 0.53125,1.32813c0.25,0.375 0.57813,0.67708 0.98438,0.90625c0.41667,0.21875 0.9375,0.32813 1.5625,0.32813c0.5625,0 1.04688,-0.09896 1.45313,-0.29687c0.41667,-0.20833 0.75521,-0.49479 1.01563,-0.85937c0.27083,-0.375 0.46875,-0.8125 0.59375,-1.3125c0.125,-0.51042 0.1875,-1.07292 0.1875,-1.6875zM535.5285,231.06728c0,0.0625 -0.01562,0.11458 -0.04687,0.15625c-0.03125,0.04167 -0.08333,0.08333 -0.15625,0.125c-0.0625,0.03125 -0.15625,0.05208 -0.28125,0.0625c-0.125,0.02083 -0.28125,0.03125 -0.46875,0.03125c-0.19792,0 -0.35937,-0.01042 -0.48437,-0.03125c-0.125,-0.01042 -0.22396,-0.03125 -0.29687,-0.0625c-0.07292,-0.04167 -0.125,-0.08333 -0.15625,-0.125c-0.03125,-0.04167 -0.04687,-0.09375 -0.04687,-0.15625v-6.17187c0,-0.60417 -0.04687,-1.08854 -0.14062,-1.45312c-0.09375,-0.36458 -0.22917,-0.67708 -0.40625,-0.9375c-0.17708,-0.27083 -0.41146,-0.47396 -0.70312,-0.60937c-0.28125,-0.14583 -0.60937,-0.21875 -0.98437,-0.21875c-0.47917,0 -0.96354,0.17188 -1.45312,0.51563c-0.47917,0.34375 -0.98437,0.84375 -1.51562,1.5v7.375c0,0.0625 -0.01562,0.11458 -0.04687,0.15625c-0.03125,0.04167 -0.08333,0.08333 -0.15625,0.125c-0.07292,0.03125 -0.17187,0.05208 -0.29687,0.0625c-0.125,0.02083 -0.28646,0.03125 -0.48437,0.03125c-0.1875,0 -0.34375,-0.01042 -0.46875,-0.03125c-0.125,-0.01042 -0.22396,-0.03125 -0.29687,-0.0625c-0.07292,-0.04167 -0.125,-0.08333 -0.15625,-0.125c-0.02083,-0.04167 -0.03125,-0.09375 -0.03125,-0.15625v-10.54687c0,-0.0625 0.01042,-0.11458 0.03125,-0.15625c0.02083,-0.04167 0.06771,-0.07812 0.14063,-0.10937c0.07292,-0.04167 0.16146,-0.06771 0.26563,-0.07812c0.11458,-0.01042 0.26042,-0.01562 0.4375,-0.01562c0.17708,0 0.31771,0.00521 0.42188,0.01563c0.11458,0.01042 0.20313,0.03646 0.26563,0.07813c0.0625,0.03125 0.10938,0.06771 0.14063,0.10938c0.03125,0.04167 0.04688,0.09375 0.04688,0.15625v1.39063c0.59375,-0.65625 1.18229,-1.14062 1.76563,-1.45312c0.59375,-0.3125 1.19271,-0.46875 1.79688,-0.46875c0.69792,0 1.28646,0.11979 1.76563,0.35938c0.47917,0.23958 0.86458,0.5625 1.15625,0.96875c0.30208,0.39583 0.51563,0.85938 0.64063,1.39063c0.13542,0.53125 0.20313,1.17188 0.20313,1.92188zM544.32147,230.30165c0,0.21875 -0.01562,0.39583 -0.04687,0.53125c-0.03125,0.13542 -0.07812,0.23438 -0.14062,0.29688c-0.0625,0.0625 -0.15625,0.125 -0.28125,0.1875c-0.125,0.05208 -0.27083,0.09375 -0.4375,0.125c-0.15625,0.03125 -0.32292,0.05729 -0.5,0.07813c-0.17708,0.03125 -0.35937,0.04688 -0.54687,0.04688c-0.54167,0 -1.01042,-0.07292 -1.40625,-0.21875c-0.38542,-0.14583 -0.70312,-0.36458 -0.95312,-0.65625c-0.25,-0.29167 -0.43229,-0.66146 -0.54687,-1.10937c-0.11458,-0.45833 -0.17187,-0.98958 -0.17187,-1.59375v-6.17187h-1.46875c-0.125,0 -0.22396,-0.0625 -0.29687,-0.1875c-0.0625,-0.125 -0.09375,-0.32812 -0.09375,-0.60937c0,-0.14583 0.01042,-0.26562 0.03125,-0.35937c0.02083,-0.10417 0.04688,-0.1875 0.07813,-0.25c0.03125,-0.07292 0.06771,-0.11979 0.10938,-0.14062c0.05208,-0.03125 0.10938,-0.04687 0.17188,-0.04687h1.46875v-2.51562c0,-0.05208 0.01042,-0.09896 0.03125,-0.14062c0.03125,-0.05208 0.08333,-0.09375 0.15625,-0.125c0.08333,-0.04167 0.1875,-0.06771 0.3125,-0.07812c0.125,-0.02083 0.28125,-0.03125 0.46875,-0.03125c0.1875,0 0.34375,0.01042 0.46875,0.03125c0.125,0.01042 0.22396,0.03646 0.29688,0.07813c0.07292,0.03125 0.125,0.07292 0.15625,0.125c0.03125,0.04167 0.04688,0.08854 0.04688,0.14063v2.51563h2.70313c0.0625,0 0.11458,0.01563 0.15625,0.04688c0.05208,0.02083 0.09375,0.06771 0.125,0.14063c0.04167,0.0625 0.06771,0.14583 0.07813,0.25c0.02083,0.09375 0.03125,0.21354 0.03125,0.35938c0,0.28125 -0.03646,0.48438 -0.10937,0.60938c-0.07292,0.125 -0.16667,0.1875 -0.28125,0.1875h-2.70312v5.89063c0,0.72917 0.10417,1.28125 0.3125,1.65625c0.21875,0.36458 0.60417,0.54688 1.15625,0.54688c0.1875,0 0.34896,-0.01562 0.48438,-0.04687c0.14583,-0.04167 0.27083,-0.07812 0.375,-0.10937c0.11458,-0.04167 0.20833,-0.07812 0.28125,-0.10937c0.08333,-0.04167 0.15625,-0.0625 0.21875,-0.0625c0.03125,0 0.0625,0.01042 0.09375,0.03125c0.04167,0.02083 0.07292,0.05729 0.09375,0.10938c0.02083,0.05208 0.03646,0.125 0.04688,0.21875c0.02083,0.09375 0.03125,0.21354 0.03125,0.35938zM548.81366,231.06728c0,0.0625 -0.01562,0.11458 -0.04687,0.15625c-0.03125,0.04167 -0.08333,0.08333 -0.15625,0.125c-0.07292,0.03125 -0.17187,0.05208 -0.29687,0.0625c-0.125,0.02083 -0.28646,0.03125 -0.48437,0.03125c-0.1875,0 -0.34375,-0.01042 -0.46875,-0.03125c-0.125,-0.01042 -0.22396,-0.03125 -0.29687,-0.0625c-0.07292,-0.04167 -0.125,-0.08333 -0.15625,-0.125c-0.02083,-0.04167 -0.03125,-0.09375 -0.03125,-0.15625v-10.54687c0,-0.05208 0.01042,-0.09896 0.03125,-0.14062c0.03125,-0.05208 0.08333,-0.09375 0.15625,-0.125c0.07292,-0.03125 0.17188,-0.05208 0.29688,-0.0625c0.125,-0.02083 0.28125,-0.03125 0.46875,-0.03125c0.19792,0 0.35938,0.01042 0.48438,0.03125c0.125,0.01042 0.22396,0.03125 0.29688,0.0625c0.07292,0.03125 0.125,0.07292 0.15625,0.125c0.03125,0.04167 0.04688,0.08854 0.04688,0.14063zM549.03241,216.9579c0,0.45833 -0.08854,0.77083 -0.26562,0.9375c-0.16667,0.15625 -0.47917,0.23438 -0.9375,0.23438c-0.45833,0 -0.77083,-0.07812 -0.9375,-0.23437c-0.16667,-0.16667 -0.25,-0.46875 -0.25,-0.90625c0,-0.45833 0.08333,-0.76562 0.25,-0.92187c0.17708,-0.16667 0.49479,-0.25 0.95313,-0.25c0.45833,0 0.77083,0.07813 0.9375,0.23438c0.16667,0.15625 0.25,0.45833 0.25,0.90625zM561.46209,231.06728c0,0.0625 -0.01562,0.11458 -0.04687,0.15625c-0.03125,0.04167 -0.08333,0.08333 -0.15625,0.125c-0.0625,0.03125 -0.15625,0.05208 -0.28125,0.0625c-0.125,0.02083 -0.28125,0.03125 -0.46875,0.03125c-0.19792,0 -0.35937,-0.01042 -0.48437,-0.03125c-0.125,-0.01042 -0.22396,-0.03125 -0.29687,-0.0625c-0.07292,-0.04167 -0.125,-0.08333 -0.15625,-0.125c-0.03125,-0.04167 -0.04687,-0.09375 -0.04687,-0.15625v-6.17187c0,-0.60417 -0.04687,-1.08854 -0.14062,-1.45312c-0.09375,-0.36458 -0.22917,-0.67708 -0.40625,-0.9375c-0.17708,-0.27083 -0.41146,-0.47396 -0.70312,-0.60937c-0.28125,-0.14583 -0.60937,-0.21875 -0.98437,-0.21875c-0.47917,0 -0.96354,0.17188 -1.45312,0.51563c-0.47917,0.34375 -0.98437,0.84375 -1.51562,1.5v7.375c0,0.0625 -0.01562,0.11458 -0.04687,0.15625c-0.03125,0.04167 -0.08333,0.08333 -0.15625,0.125c-0.07292,0.03125 -0.17187,0.05208 -0.29687,0.0625c-0.125,0.02083 -0.28646,0.03125 -0.48437,0.03125c-0.1875,0 -0.34375,-0.01042 -0.46875,-0.03125c-0.125,-0.01042 -0.22396,-0.03125 -0.29687,-0.0625c-0.07292,-0.04167 -0.125,-0.08333 -0.15625,-0.125c-0.02083,-0.04167 -0.03125,-0.09375 -0.03125,-0.15625v-10.54687c0,-0.0625 0.01042,-0.11458 0.03125,-0.15625c0.02083,-0.04167 0.06771,-0.07812 0.14063,-0.10937c0.07292,-0.04167 0.16146,-0.06771 0.26563,-0.07812c0.11458,-0.01042 0.26042,-0.01562 0.4375,-0.01562c0.17708,0 0.31771,0.00521 0.42188,0.01563c0.11458,0.01042 0.20313,0.03646 0.26563,0.07813c0.0625,0.03125 0.10938,0.06771 0.14063,0.10938c0.03125,0.04167 0.04688,0.09375 0.04688,0.15625v1.39063c0.59375,-0.65625 1.18229,-1.14062 1.76563,-1.45312c0.59375,-0.3125 1.19271,-0.46875 1.79688,-0.46875c0.69792,0 1.28646,0.11979 1.76563,0.35938c0.47917,0.23958 0.86458,0.5625 1.15625,0.96875c0.30208,0.39583 0.51563,0.85938 0.64063,1.39063c0.13542,0.53125 0.20313,1.17188 0.20313,1.92188zM574.02459,231.06728c0,0.0625 -0.01562,0.11458 -0.04687,0.15625c-0.02083,0.04167 -0.06771,0.08333 -0.14062,0.125c-0.07292,0.03125 -0.16667,0.05208 -0.28125,0.0625c-0.10417,0.02083 -0.23958,0.03125 -0.40625,0.03125c-0.17708,0 -0.32292,-0.01042 -0.4375,-0.03125c-0.11458,-0.01042 -0.20833,-0.03125 -0.28125,-0.0625c-0.0625,-0.04167 -0.10417,-0.08333 -0.125,-0.125c-0.02083,-0.04167 -0.03125,-0.09375 -0.03125,-0.15625v-1.39062c-0.60417,0.66667 -1.20312,1.15104 -1.79687,1.45313c-0.58333,0.30208 -1.17187,0.45313 -1.76562,0.45313c-0.70833,0 -1.30208,-0.11458 -1.78125,-0.34375c-0.47917,-0.23958 -0.86979,-0.55729 -1.17187,-0.95312c-0.29167,-0.40625 -0.50521,-0.875 -0.64062,-1.40625c-0.125,-0.54167 -0.1875,-1.19271 -0.1875,-1.95312v-6.40625c0,-0.0625 0.01042,-0.11458 0.03125,-0.15625c0.03125,-0.04167 0.08333,-0.07812 0.15625,-0.10937c0.08333,-0.04167 0.1875,-0.06771 0.3125,-0.07812c0.125,-0.01042 0.28125,-0.01562 0.46875,-0.01562c0.1875,0 0.34375,0.00521 0.46875,0.01563c0.125,0.01042 0.22396,0.03646 0.29688,0.07813c0.08333,0.03125 0.14063,0.06771 0.17188,0.10938c0.03125,0.04167 0.04688,0.09375 0.04688,0.15625v6.14063c0,0.61458 0.04167,1.10938 0.125,1.48438c0.09375,0.375 0.22917,0.69271 0.40625,0.95313c0.1875,0.26042 0.42188,0.46354 0.70313,0.60938c0.28125,0.14583 0.60938,0.21875 0.98438,0.21875c0.48958,0 0.97396,-0.17187 1.45313,-0.51562c0.47917,-0.34375 0.98958,-0.84896 1.53125,-1.51562v-7.375c0,-0.0625 0.01042,-0.11458 0.03125,-0.15625c0.03125,-0.04167 0.08333,-0.07812 0.15625,-0.10937c0.08333,-0.04167 0.18229,-0.06771 0.29688,-0.07812c0.125,-0.01042 0.28646,-0.01562 0.48438,-0.01562c0.1875,0 0.34375,0.00521 0.46875,0.01563c0.125,0.01042 0.21875,0.03646 0.28125,0.07813c0.07292,0.03125 0.125,0.06771 0.15625,0.10938c0.04167,0.04167 0.0625,0.09375 0.0625,0.15625zM586.60272,225.3329c0,0.3125 -0.07812,0.53125 -0.23437,0.65625c-0.14583,0.125 -0.31771,0.1875 -0.51562,0.1875h-6.92187c0,0.59375 0.05729,1.125 0.17188,1.59375c0.125,0.46875 0.32292,0.86979 0.59375,1.20313c0.27083,0.33333 0.625,0.59375 1.0625,0.78125c0.4375,0.17708 0.97396,0.26563 1.60938,0.26563c0.5,0 0.94271,-0.04167 1.32813,-0.125c0.39583,-0.08333 0.73438,-0.17708 1.01563,-0.28125c0.29167,-0.10417 0.52604,-0.19271 0.70313,-0.26562c0.1875,-0.08333 0.32813,-0.125 0.42188,-0.125c0.05208,0 0.09896,0.01563 0.14063,0.04688c0.05208,0.02083 0.08854,0.05729 0.10938,0.10938c0.02083,0.05208 0.03646,0.13021 0.04688,0.23438c0.01042,0.09375 0.01563,0.21354 0.01563,0.35938c0,0.09375 -0.00521,0.18229 -0.01562,0.26563c0,0.07292 -0.00521,0.14063 -0.01562,0.20313c-0.01042,0.05208 -0.03125,0.10417 -0.0625,0.15625c-0.03125,0.04167 -0.06771,0.08333 -0.10937,0.125c-0.04167,0.04167 -0.16667,0.11458 -0.375,0.21875c-0.20833,0.09375 -0.48437,0.1875 -0.82812,0.28125c-0.33333,0.09375 -0.72396,0.17708 -1.17187,0.25c-0.4375,0.07292 -0.90625,0.10938 -1.40625,0.10938c-0.86458,0 -1.625,-0.11979 -2.28125,-0.35937c-0.64583,-0.23958 -1.19271,-0.59896 -1.64062,-1.07812c-0.44792,-0.47917 -0.78646,-1.07812 -1.01562,-1.79687c-0.21875,-0.71875 -0.32812,-1.55208 -0.32812,-2.5c0,-0.90625 0.11458,-1.71875 0.34375,-2.4375c0.23958,-0.72917 0.57813,-1.34375 1.01563,-1.84375c0.44792,-0.51042 0.98438,-0.90104 1.60938,-1.17187c0.625,-0.27083 1.32292,-0.40625 2.09375,-0.40625c0.82292,0 1.52604,0.13542 2.10938,0.40625c0.58333,0.26042 1.0625,0.61979 1.4375,1.07813c0.375,0.44792 0.65104,0.97396 0.82813,1.57813c0.17708,0.60417 0.26563,1.25 0.26563,1.9375zM584.64959,224.7704c0.03125,-1.02083 -0.19271,-1.81771 -0.67187,-2.39062c-0.46875,-0.58333 -1.16667,-0.875 -2.09375,-0.875c-0.47917,0 -0.90104,0.09375 -1.26562,0.28125c-0.35417,0.17708 -0.65625,0.41667 -0.90625,0.71875c-0.23958,0.29167 -0.42708,0.63542 -0.5625,1.03125c-0.125,0.38542 -0.19792,0.79688 -0.21875,1.23438z" fill="#595959" fill-rule="nonzero"/><path d="M454.7244,193.0761h180.34644v59.49606h-180.34644z" fill-opacity="0" fill="#000000" fill-rule="evenodd"/><path d="M1000,-331.53806h624.6299v27.68504h-624.6299z" fill-opacity="0" fill="#000000" fill-rule="evenodd"/><path d="M1015.1875,-301.38869l0.3125,1.85938c-0.59375,0.13542 -1.125,0.20313 -1.59375,0.20313c-0.77083,0 -1.36979,-0.11979 -1.79687,-0.35937c-0.41667,-0.25 -0.71354,-0.57292 -0.89062,-0.96875c-0.16667,-0.39583 -0.25,-1.22396 -0.25,-2.48437v-7.17187h-1.54687v-1.64062h1.54688v-3.07812l2.09375,-1.26562v4.34375h2.125v1.64063h-2.125v7.28125c0,0.60417 0.03646,0.99479 0.10938,1.17188c0.08333,0.16667 0.20833,0.30208 0.375,0.40625c0.16667,0.09375 0.40625,0.14063 0.71875,0.14063c0.22917,0 0.53646,-0.02604 0.92188,-0.07812zM1017.26172,-314.24806v-2.4375h2.10938v2.4375zM1017.26172,-299.49806v-12.45312h2.10938v12.45313zM1022.57813,-299.49806v-12.45312h1.89063v1.75c0.39583,-0.60417 0.91667,-1.09375 1.5625,-1.46875c0.64583,-0.375 1.38542,-0.5625 2.21875,-0.5625c0.91667,0 1.66667,0.19271 2.25,0.57813c0.59375,0.38542 1.01563,0.92188 1.26563,1.60938c0.97917,-1.45833 2.26042,-2.1875 3.84375,-2.1875c1.22917,0 2.17708,0.34375 2.84375,1.03125c0.66667,0.6875 1,1.73958 1,3.15625v8.54688h-2.10937v-7.84375c0,-0.84375 -0.06771,-1.44792 -0.20312,-1.8125c-0.13542,-0.375 -0.38542,-0.67708 -0.75,-0.90625c-0.35417,-0.22917 -0.77083,-0.34375 -1.25,-0.34375c-0.875,0 -1.60417,0.29167 -2.1875,0.875c-0.57292,0.58333 -0.85937,1.51563 -0.85937,2.79688v7.23438h-2.10937v-8.09375c0,-0.9375 -0.17187,-1.64062 -0.51562,-2.10937c-0.34375,-0.46875 -0.90625,-0.70312 -1.6875,-0.70312c-0.59375,0 -1.14583,0.15625 -1.65625,0.46875c-0.5,0.3125 -0.86458,0.77083 -1.09375,1.375c-0.22917,0.60417 -0.34375,1.47396 -0.34375,2.60938v6.45313zM1051.10156,-303.51369l2.17188,0.28125c-0.34375,1.27083 -0.97917,2.26042 -1.90625,2.96875c-0.92708,0.69792 -2.11458,1.04688 -3.5625,1.04688c-1.82292,0 -3.27083,-0.55729 -4.34375,-1.67187c-1.0625,-1.125 -1.59375,-2.70312 -1.59375,-4.73437c0,-2.09375 0.53646,-3.71875 1.60938,-4.875c1.08333,-1.15625 2.48438,-1.73437 4.20313,-1.73437c1.66667,0 3.02604,0.56771 4.07813,1.70313c1.0625,1.13542 1.59375,2.72917 1.59375,4.78125c0,0.125 -0.00521,0.3125 -0.01562,0.5625h-9.28125c0.07292,1.36458 0.45833,2.41146 1.15625,3.14063c0.69792,0.72917 1.56771,1.09375 2.60938,1.09375c0.77083,0 1.42708,-0.20312 1.96875,-0.60937c0.55208,-0.40625 0.98958,-1.05729 1.3125,-1.95312zM1044.16406,-306.91994h6.95313c-0.09375,-1.04167 -0.35937,-1.82812 -0.79687,-2.35937c-0.66667,-0.8125 -1.53646,-1.21875 -2.60937,-1.21875c-0.96875,0 -1.78646,0.32813 -2.45312,0.98438c-0.65625,0.64583 -1.02083,1.51042 -1.09375,2.59375zM1055.90234,-299.49806v-12.45312h1.89063v1.89063c0.48958,-0.88542 0.9375,-1.46875 1.34375,-1.75c0.41667,-0.28125 0.86979,-0.42187 1.35938,-0.42187c0.70833,0 1.43229,0.22917 2.17188,0.6875l-0.73437,1.95313c-0.51042,-0.30208 -1.02604,-0.45312 -1.54687,-0.45312c-0.45833,0 -0.875,0.14063 -1.25,0.42188c-0.36458,0.27083 -0.625,0.65104 -0.78125,1.14063c-0.22917,0.75 -0.34375,1.57292 -0.34375,2.46875v6.51563z" fill="#595959" fill-rule="nonzero"/></g></g></svg>