<svg version="1.1" xmlns="http://www.w3.org/2000/svg" xmlns:xlink="http://www.w3.org/1999/xlink" width="438.28267" height="182.83951" viewBox="0,0,438.28267,182.83951"><g transform="translate(95.47531,-259.71202)"><g data-paper-data="{&quot;isPaintingLayer&quot;:true}" fill-rule="nonzero" stroke-linecap="butt" stroke-linejoin="miter" stroke-miterlimit="10" stroke-dasharray="" stroke-dashoffset="0" style="mix-blend-mode: normal"><path d="M59.27275,356.35427v-89.66667h276.78461v89.66667z" fill="#6d6d6d" stroke="#353535" stroke-width="13.5"/><path d="M101.58976,311.47059c0,24.85755 -20.14719,45.00857 -45,45.00857c-24.85281,0 -45,-20.15102 -45,-45.00857c0,-24.85755 20.14719,-45.00857 45,-45.00857c24.85281,0 45,20.15102 45,45.00857z" fill="#1fff00" stroke="#19d400" stroke-width="13.5"/><text transform="translate(111.14673,297.73821) scale(0.48712,0.48712)" font-size="40" xml:space="preserve" fill="#19d400" fill-rule="nonzero" stroke="none" stroke-width="1" stroke-linecap="butt" stroke-linejoin="miter" stroke-miterlimit="10" stroke-dasharray="" stroke-dashoffset="0" font-family="Sans Serif" font-weight="normal" text-anchor="start" style="mix-blend-mode: normal"><tspan x="0" dy="0">Sea Fish Run</tspan></text><path d="M-17.79177,429.32373c-36.72019,25.44928 10.51899,-12.83636 -15.81453,-50.8324c-26.33349,-37.99604 -71.14421,-12.48563 -34.42401,-37.93491c36.72019,-25.44928 141.06612,-92.22109 167.3996,-54.22507c26.3335,37.99604 -80.44089,117.5431 -117.16108,142.99237z" fill="#c5ff66" stroke="#698937" stroke-width="10"/><path d="M39.54029,316.1571c-1.7933,-2.51859 -1.20534,-6.01408 1.31325,-7.80738c2.51859,-1.7933 6.01407,-1.20534 7.80738,1.31325c1.7933,2.51859 1.20534,6.01407 -1.31325,7.80737c-2.51859,1.7933 -6.01407,1.20535 -7.80737,-1.31324z" fill="#698937" stroke="none" stroke-width="0.5"/><path d="M-13.49582,322.74694c-3.24706,-4.56031 1.31325,-7.80737 1.31325,-7.80737l2.32619,-1.56279c13.4393,-6.50549 27.75567,-11.90633 41.82717,-16.9109c0,0 5.27688,-1.86932 7.1462,3.40755c1.86932,5.27688 -3.40756,7.14621 -3.40756,7.14621c-13.65107,4.81477 -27.67206,10.03759 -40.65945,16.4213l-0.7384,0.61928c0,0 -4.56032,3.24706 -7.80737,-1.31325z" fill="#698937" stroke="none" stroke-width="0.5"/><path d="M-70.91888,357.11406c0,0 3.29948,-4.52254 7.82202,-1.22305c4.52253,3.29948 1.22304,7.822 1.22304,7.822c-7.92611,10.86042 -17.12179,23.36218 -28.27952,32.73059c-1.81659,-3.67349 -3.57127,-7.28995 -5.32196,-10.61039c9.47665,-7.79741 16.6829,-17.92346 24.55642,-28.71914z" fill="#698937" stroke="none" stroke-width="0.5"/><path d="M-38.61386,386.15309c0,0 1.42461,-5.41391 6.83851,-3.98931c5.41391,1.42462 3.98929,6.83853 3.98929,6.83853c-4.12275,15.49408 -11.7893,33.95272 -21.80615,47.74766c-3.02945,-2.08316 -6.31094,-3.9644 -9.59959,-5.83152c9.4713,-12.68445 16.83437,-30.35492 20.57791,-44.76536z" fill="#698937" stroke="none" stroke-width="0.5"/><text transform="translate(116.06475,329.37357) scale(0.62688,0.62688)" font-size="40" xml:space="preserve" fill="#19d400" fill-rule="nonzero" stroke="none" stroke-width="1" stroke-linecap="butt" stroke-linejoin="miter" stroke-miterlimit="10" stroke-dasharray="" stroke-dashoffset="0" font-family="Sans Serif" font-weight="normal" text-anchor="start" style="mix-blend-mode: normal"><tspan x="0" dy="0">Sea Fish Run</tspan></text></g></g></svg>