<svg version="1.1" xmlns="http://www.w3.org/2000/svg" xmlns:xlink="http://www.w3.org/1999/xlink" width="116.59063" height="97.55646" viewBox="0,0,116.59063,97.55646"><g transform="translate(8.61936,-94.83735)"><g data-paper-data="{&quot;isPaintingLayer&quot;:true}" fill-rule="evenodd" stroke-miterlimit="10" stroke-dasharray="" stroke-dashoffset="0" style="mix-blend-mode: normal"><g><path d="M-6.61936,106.95475h52.90103v73.32165h-52.90103z" fill="#595959" stroke="none" stroke-width="1" stroke-linecap="square" stroke-linejoin="miter"/><path d="M-6.61936,106.95475h52.90103v73.32165h-52.90103z" fill="none" stroke="#434343" stroke-width="4" stroke-linecap="butt" stroke-linejoin="round"/><path d="M31.90645,143.61557v0c0,-25.8349 12.73841,-46.77822 28.45204,-46.77822v0c7.54595,0 14.78284,4.9284 20.11863,13.70102c5.33579,8.77262 8.3334,20.67084 8.3334,33.0772v0c0,25.8349 -12.73841,46.77823 -28.45204,46.77823v0c-15.71363,0 -28.45204,-20.94334 -28.45204,-46.77823z" fill="#595959" stroke="none" stroke-width="1" stroke-linecap="square" stroke-linejoin="miter"/><path d="M31.90645,143.61557v0c0,-25.8349 12.73841,-46.77822 28.45204,-46.77822v0c7.54595,0 14.78284,4.9284 20.11863,13.70102c5.33579,8.77262 8.3334,20.67084 8.3334,33.0772v0c0,25.8349 -12.73841,46.77823 -28.45204,46.77823v0c-15.71363,0 -28.45204,-20.94334 -28.45204,-46.77823z" fill="none" stroke="#434343" stroke-width="4" stroke-linecap="butt" stroke-linejoin="round"/><path d="M58.33022,178.38607h20.91043v12.02603h-20.91043z" fill="#595959" stroke="none" stroke-width="1" stroke-linecap="square" stroke-linejoin="miter"/><path d="M57.79818,96.83735h22.53192v12.02603h-22.53192z" fill="#595959" stroke="none" stroke-width="1" stroke-linecap="square" stroke-linejoin="miter"/><path d="M49.06719,143.61557v0c0,-25.8349 12.73841,-46.77822 28.45204,-46.77822v0c7.54595,0 14.78284,4.9284 20.11863,13.70102c5.33579,8.77262 8.3334,20.67084 8.3334,33.0772v0c0,25.8349 -12.73841,46.77823 -28.45204,46.77823v0c-15.71363,0 -28.45204,-20.94334 -28.45204,-46.77823z" fill="#595959" stroke="none" stroke-width="1" stroke-linecap="square" stroke-linejoin="miter"/><path d="M49.06719,143.61557v0c0,-25.8349 12.73841,-46.77822 28.45204,-46.77822v0c7.54595,0 14.78284,4.9284 20.11863,13.70102c5.33579,8.77262 8.3334,20.67084 8.3334,33.0772v0c0,25.8349 -12.73841,46.77823 -28.45204,46.77823v0c-15.71363,0 -28.45204,-20.94334 -28.45204,-46.77823z" fill="none" stroke="#434343" stroke-width="4" stroke-linecap="butt" stroke-linejoin="round"/><path d="M54.49749,143.61557v0c0,-23.47949 10.30718,-42.51338 23.02174,-42.51338v0c6.10575,0 11.96142,4.47907 16.27883,12.45188c4.31741,7.9728 6.74291,18.78625 6.74291,30.0615v0c0,23.47949 -10.30719,42.51338 -23.02175,42.51338v0c-12.71456,0 -23.02174,-19.03389 -23.02174,-42.51338z" fill="#212121" stroke="none" stroke-width="1" stroke-linecap="square" stroke-linejoin="miter"/><path d="M77.96559,96.83734l-20.21792,0.11823" fill-opacity="0" fill="#000000" stroke="none" stroke-width="1" stroke-linecap="square" stroke-linejoin="miter"/><path d="M77.96559,96.83734l-20.21792,0.11823" fill="none" stroke="#434343" stroke-width="4" stroke-linecap="butt" stroke-linejoin="round"/><path d="M57.74767,190.31941l20.21792,-0.11823" fill-opacity="0" fill="#000000" stroke="none" stroke-width="1" stroke-linecap="square" stroke-linejoin="miter"/><path d="M57.74767,190.31941l20.21792,-0.11823" fill="none" stroke="#434343" stroke-width="4" stroke-linecap="butt" stroke-linejoin="round"/></g></g></g></svg>