<svg version="1.1" xmlns="http://www.w3.org/2000/svg" xmlns:xlink="http://www.w3.org/1999/xlink" width="332.7427" height="51.83602" viewBox="0,0,332.7427,51.83602"><g transform="translate(-73.62865,-24.36335)"><g data-paper-data="{&quot;isPaintingLayer&quot;:true}" stroke-width="1" stroke-miterlimit="10" stroke-dasharray="" stroke-dashoffset="0" style="mix-blend-mode: normal"><path d="M121.5645,47.72114l118.43552,-21.89382l118.4355,21.89382z" fill-opacity="0" fill="#000000" fill-rule="evenodd" stroke="none" stroke-linecap="square" stroke-linejoin="miter"/><path d="M121.5645,47.72114l118.43552,-21.89382l118.4355,21.89382z" fill="none" fill-rule="evenodd" stroke="#595959" stroke-linecap="butt" stroke-linejoin="round"/><path d="M73.62865,39.16364h332.7427l-37.03574,37.03573h-258.67121z" fill="#936536" fill-rule="evenodd" stroke="none" stroke-linecap="square" stroke-linejoin="miter"/><path d="M238.70924,26.07529v0c0,-0.66934 0.57789,-1.21194 1.29077,-1.21194v0c0.34234,0 0.67065,0.12769 0.91272,0.35497c0.24206,0.22728 0.37804,0.53555 0.37804,0.85697v0c0,0.66934 -0.57788,1.21195 -1.29077,1.21195v0c-0.71288,0 -1.29077,-0.54261 -1.29077,-1.21195z" fill="#595959" fill-rule="evenodd" stroke="none" stroke-linecap="square" stroke-linejoin="miter"/><path d="M238.70924,26.07529v0c0,-0.66934 0.57789,-1.21194 1.29077,-1.21194v0c0.34234,0 0.67065,0.12769 0.91272,0.35497c0.24206,0.22728 0.37804,0.53555 0.37804,0.85697v0c0,0.66934 -0.57788,1.21195 -1.29077,1.21195v0c-0.71288,0 -1.29077,-0.54261 -1.29077,-1.21195z" fill="none" fill-rule="evenodd" stroke="#595959" stroke-linecap="butt" stroke-linejoin="round"/><path d="M238.70924,26.07529v0c0,-0.66934 0.57789,-1.21194 1.29077,-1.21194v0c0.34234,0 0.67065,0.12769 0.91272,0.35497c0.24206,0.22728 0.37804,0.53555 0.37804,0.85697v0c0,0.66934 -0.57788,1.21195 -1.29077,1.21195v0c-0.71288,0 -1.29077,-0.54261 -1.29077,-1.21195z" fill-opacity="0" fill="#000000" fill-rule="evenodd" stroke="none" stroke-linecap="square" stroke-linejoin="miter"/><path d="M238.70924,25.76245v0v0v0.31284h-0.31284c0,-0.86039 0.73683,-1.52478 1.60361,-1.52478v0.31284v-0.31284c0.41917,0 0.82481,0.15616 1.12684,0.43974l-0.21412,0.22807l0.21412,-0.22807c0.3027,0.28421 0.47676,0.67405 0.47676,1.08504h-0.31284h0.31284c0,0.86039 -0.73682,1.52478 -1.6036,1.52478v-0.31284v0.31284c-0.86678,0 -1.60361,-0.66439 -1.60361,-1.52478c0,-0.17277 0.14005,-0.31284 0.31284,-0.31284v0M238.70924,26.38813v-0.31284h0.31284c0,0.47828 0.41897,0.89911 0.97793,0.89911v0c0.55896,0 0.97793,-0.42082 0.97793,-0.89911v0c0,-0.23187 -0.09791,-0.45855 -0.27935,-0.62891v0v0c-0.1821,-0.17098 -0.43308,-0.2702 -0.69858,-0.2702v0c-0.55896,0 -0.97793,0.42082 -0.97793,0.8991c0,0.17277 -0.14005,0.31284 -0.31284,0.31284v0v0z" fill-opacity="0" fill="#000000" fill-rule="nonzero" stroke="none" stroke-linecap="square" stroke-linejoin="miter"/></g></g></svg>