<svg version="1.1" xmlns="http://www.w3.org/2000/svg" xmlns:xlink="http://www.w3.org/1999/xlink" width="233.33626" height="57.71528" viewBox="0,0,233.33626,57.71528"><g transform="translate(-237.1144,-181.43558)"><g data-paper-data="{&quot;isPaintingLayer&quot;:true}" stroke-miterlimit="10" stroke-dasharray="" stroke-dashoffset="0" style="mix-blend-mode: normal"><path d="M382.15107,192.38831v0c0,-4.94446 4.00826,-8.95273 8.95273,-8.95273h68.39414c2.37444,0 4.65157,0.94323 6.33054,2.6222c1.67897,1.67896 2.62219,3.95613 2.62219,6.33053v35.80983c0,4.94446 -4.00826,8.95272 -8.95273,8.95272h-68.39414c-4.94446,0 -8.95273,-4.00827 -8.95273,-8.95272z" fill="#595959" fill-rule="evenodd" stroke="none" stroke-width="1" stroke-linecap="square" stroke-linejoin="miter"/><path d="M382.15107,192.38831v0c0,-4.94446 4.00826,-8.95273 8.95273,-8.95273h68.39414c2.37444,0 4.65157,0.94323 6.33054,2.6222c1.67897,1.67896 2.62219,3.95613 2.62219,6.33053v35.80983c0,4.94446 -4.00826,8.95272 -8.95273,8.95272h-68.39414c-4.94446,0 -8.95273,-4.00827 -8.95273,-8.95272z" fill="none" fill-rule="evenodd" stroke="#434343" stroke-width="4" stroke-linecap="butt" stroke-linejoin="round"/><path d="M342.48643,204.32491v0c0,-1.64816 1.3361,-2.98424 2.98426,-2.98424h39.42148c0.79148,0 1.55054,0.31442 2.11018,0.87406c0.55964,0.55966 0.87408,1.31871 0.87408,2.11017v11.93661c0,1.64814 -1.3361,2.98424 -2.98426,2.98424h-39.42148v0c-1.64815,0 -2.98426,-1.3361 -2.98426,-2.98424z" fill="#595959" fill-rule="evenodd" stroke="none" stroke-width="1" stroke-linecap="square" stroke-linejoin="miter"/><path d="M342.48643,204.32491v0c0,-1.64816 1.3361,-2.98424 2.98426,-2.98424h39.42148c0.79148,0 1.55054,0.31442 2.11018,0.87406c0.55964,0.55966 0.87408,1.31871 0.87408,2.11017v11.93661c0,1.64814 -1.3361,2.98424 -2.98426,2.98424h-39.42148v0c-1.64815,0 -2.98426,-1.3361 -2.98426,-2.98424z" fill="none" fill-rule="evenodd" stroke="#434343" stroke-width="4" stroke-linecap="butt" stroke-linejoin="round"/><path d="M344.35072,206.17808v0c0,-1.48464 0.56167,-2.6882 1.25451,-2.6882v0c0.3327,0 0.65178,0.28321 0.88705,0.78736c0.23528,0.50412 0.36744,1.18789 0.36744,1.90084v0c0,1.48466 -0.56167,2.68821 -1.25449,2.68821v0c-0.69284,0 -1.25451,-1.20355 -1.25451,-2.68821z" fill="#000000" fill-rule="evenodd" stroke="none" stroke-width="1" stroke-linecap="square" stroke-linejoin="miter"/><path d="M344.35072,214.4545v0c0,-1.48464 0.56167,-2.6882 1.25451,-2.6882v0c0.3327,0 0.65178,0.28321 0.88705,0.78735c0.23528,0.50412 0.36744,1.18789 0.36744,1.90084v0c0,1.48466 -0.56167,2.68822 -1.25449,2.68822v0c-0.69284,0 -1.25451,-1.20356 -1.25451,-2.68822z" fill="#000000" fill-rule="evenodd" stroke="none" stroke-width="1" stroke-linecap="square" stroke-linejoin="miter"/><path d="M423.41504,209.3795v0c0,-9.49282 7.69543,-17.18824 17.18826,-17.18824v0c4.55859,0 8.9305,1.81091 12.15391,5.03432c3.22341,3.22343 5.03432,7.59532 5.03432,12.15393v0c0,9.4928 -7.69543,17.18823 -17.18823,17.18823v0c-9.49283,0 -17.18826,-7.69544 -17.18826,-17.18823z" fill="#ff0000" fill-rule="evenodd" stroke="none" stroke-width="1" stroke-linecap="square" stroke-linejoin="miter"/><path d="M423.41504,209.3795v0c0,-9.49282 7.69543,-17.18824 17.18826,-17.18824v0c4.55859,0 8.9305,1.81091 12.15391,5.03432c3.22341,3.22343 5.03432,7.59532 5.03432,12.15393v0c0,9.4928 -7.69543,17.18823 -17.18823,17.18823v0c-9.49283,0 -17.18826,-7.69544 -17.18826,-17.18823z" fill="none" fill-rule="evenodd" stroke="#980000" stroke-width="4" stroke-linecap="butt" stroke-linejoin="round"/><path d="M237.51099,215.76571l-0.39658,-2.76161h108.33151v2.76161z" fill="#ff0000" fill-rule="nonzero" stroke="none" stroke-width="0" stroke-linecap="butt" stroke-linejoin="miter"/><path d="M237.51099,207.86537l2.3795,-2.54918h105.55543v2.54918z" fill="#ff0000" fill-rule="nonzero" stroke="none" stroke-width="0" stroke-linecap="butt" stroke-linejoin="miter"/></g></g></svg>