<svg version="1.1" xmlns="http://www.w3.org/2000/svg" xmlns:xlink="http://www.w3.org/1999/xlink" width="99.96659" height="50.35355" viewBox="0,0,99.96659,50.35355"><g transform="translate(-190.0167,-154.82323)"><g data-paper-data="{&quot;isPaintingLayer&quot;:true}" fill-rule="nonzero" stroke-linecap="butt" stroke-linejoin="miter" stroke-miterlimit="10" stroke-dasharray="" stroke-dashoffset="0" style="mix-blend-mode: normal"><path d="M207.8237,202.64484c-19.94991,-0.25336 7.15147,-1.94497 7.41363,-22.58804c0.26217,-20.64307 -22.64674,-22.9698 -2.69682,-22.71644c19.94991,0.25336 75.20402,2.99088 74.94185,23.63394c-0.26217,20.64307 -59.70875,21.92389 -79.65866,21.67053z" fill="#c5ff66" stroke="#698937" stroke-width="5"></path><path d="M257.99235,176.32736c0,-1.38071 1.11929,-2.5 2.5,-2.5c1.38071,0 2.5,1.11929 2.5,2.5c0,1.38071 -1.11929,2.5 -2.5,2.5c-1.38071,0 -2.5,-1.11929 -2.5,-2.5z" fill="#698937" stroke="none" stroke-width="0.5"></path><path d="M236.99202,164.98718c0,-2.5 2.5,-2.5 2.5,-2.5l1.25101,0.03402c6.57399,1.11449 13.18091,2.85801 19.59611,4.68225c0,0 2.40381,0.6868 1.71701,3.09061c-0.6868,2.40381 -3.09061,1.71701 -3.09061,1.71701c-6.2131,-1.78439 -12.66645,-3.51616 -19.0445,-4.5579l-0.42902,0.03402c0,0 -2.5,0 -2.5,-2.5z" fill="#698937" stroke="none" stroke-width="0.5"></path><path d="M207.20094,162.61548c0,0 2.37171,-0.79057 3.16228,1.58114c0.79057,2.37171 -1.58114,3.16227 -1.58114,3.16227c-5.69642,1.89777 -12.27982,4.06378 -18.76538,4.58173c0.29067,-1.80687 0.58909,-3.57696 0.81229,-5.23833c5.46709,-0.38189 10.71143,-2.19897 16.37195,-4.08681z" fill="#698937" stroke="none" stroke-width="0.5"></path><path d="M211.43113,181.54692c0,0 1.92056,-1.60046 3.52102,0.32009c1.60046,1.92056 -0.3201,3.52102 -0.3201,3.52102c-5.51305,4.56855 -13.08314,9.29762 -20.30023,11.72136c-0.56247,-1.5425 -1.26893,-3.07683 -1.98165,-4.60787c6.73099,-2.16108 13.98653,-6.68204 19.08095,-10.9546z" fill="#698937" stroke="none" stroke-width="0.5"></path></g></g></svg>