<svg version="1.1" xmlns="http://www.w3.org/2000/svg" xmlns:xlink="http://www.w3.org/1999/xlink" width="268.49606" height="40.255" viewBox="0,0,268.49606,40.255"><g transform="translate(-225.75198,-159.8725)"><g data-paper-data="{&quot;isPaintingLayer&quot;:true}" fill="#66ffa3" fill-rule="nonzero" stroke="#4ab876" stroke-width="5" stroke-linecap="round" stroke-linejoin="miter" stroke-miterlimit="10" stroke-dasharray="" stroke-dashoffset="0" style="mix-blend-mode: normal"><path d="M232.37726,173.12379c7.08195,1.44455 17.37891,1.45155 30.57188,-4.04279c9.50426,-3.95815 22.92216,-0.01422 35.80055,-0.20994c7.93899,-0.12065 16.48299,-7.9148 24.50777,-6.27092c24.13464,4.94396 44.78407,16.15795 62.3005,17.71815c22.67439,2.01963 40.10168,-12.33428 52.18741,-14.93742c21.01018,-4.52537 47.9548,6.22894 47.9548,6.22894c0,0 -15.58877,3.35048 -35.54644,6.52067c-17.29995,2.74801 -37.87443,4.75661 -54.52545,11.74965c-20.87198,8.76575 -49.82108,-17.65221 -63.43575,-10.41325c-18.01457,9.57839 -43.36048,-1.23148 -65.48786,2.65097c-12.92431,2.26769 -24.73248,8.22452 -33.16648,13.48696c0.01297,-2.28205 -0.12145,-4.55161 -0.42884,-6.78274c-0.25436,-1.84623 -1.71021,-6.83167 -2.1687,-8.97205c-0.53949,-2.51852 -1.11614,-5.02327 -1.72536,-7.51661c0.97019,0.28931 2.02462,0.55839 3.16197,0.79038z"></path></g></g></svg>