<svg version="1.1" xmlns="http://www.w3.org/2000/svg" xmlns:xlink="http://www.w3.org/1999/xlink" width="216.70221" height="57.71527" viewBox="0,0,216.70221,57.71527"><g transform="translate(-253.74843,-107.02925)"><g data-paper-data="{&quot;isPaintingLayer&quot;:true}" stroke-miterlimit="10" stroke-dasharray="" stroke-dashoffset="0" style="mix-blend-mode: normal"><path d="M382.15105,117.98197v0c0,-4.94445 4.00826,-8.95272 8.95273,-8.95272h68.39414c2.37444,0 4.65157,0.94322 6.33054,2.62219c1.67897,1.67897 2.62219,3.95613 2.62219,6.33053v35.80983c0,4.94445 -4.00826,8.95272 -8.95273,8.95272h-68.39414c-4.94446,0 -8.95273,-4.00827 -8.95273,-8.95272z" fill="#595959" fill-rule="evenodd" stroke="none" stroke-width="1" stroke-linecap="square" stroke-linejoin="miter"/><path d="M382.15105,117.98197v0c0,-4.94445 4.00826,-8.95272 8.95273,-8.95272h68.39414c2.37444,0 4.65157,0.94322 6.33054,2.62219c1.67897,1.67897 2.62219,3.95613 2.62219,6.33053v35.80983c0,4.94445 -4.00826,8.95272 -8.95273,8.95272h-68.39414c-4.94446,0 -8.95273,-4.00827 -8.95273,-8.95272z" fill="none" fill-rule="evenodd" stroke="#434343" stroke-width="4" stroke-linecap="butt" stroke-linejoin="round"/><path d="M342.48641,129.91857v0c0,-1.64815 1.3361,-2.98424 2.98426,-2.98424h39.42148c0.79148,0 1.55054,0.31441 2.11018,0.87407c0.55964,0.55965 0.87408,1.3187 0.87408,2.11017v11.93662c0,1.64815 -1.3361,2.98423 -2.98426,2.98423h-39.42148v0c-1.64815,0 -2.98426,-1.33608 -2.98426,-2.98423z" fill="#595959" fill-rule="evenodd" stroke="#434343" stroke-width="4" stroke-linecap="square" stroke-linejoin="miter"/><path d="M344.3507,131.77175v0c0,-1.48465 0.56167,-2.68821 1.25451,-2.68821v0c0.3327,0 0.65178,0.28322 0.88705,0.78736c0.23528,0.50414 0.36744,1.1879 0.36744,1.90085v0c0,1.48466 -0.56167,2.6882 -1.25449,2.6882v0c-0.69284,0 -1.25451,-1.20355 -1.25451,-2.6882z" fill="#000000" fill-rule="evenodd" stroke="none" stroke-width="1" stroke-linecap="square" stroke-linejoin="miter"/><path d="M344.3507,140.04817v0c0,-1.48465 0.56167,-2.68821 1.25451,-2.68821v0c0.3327,0 0.65178,0.28322 0.88705,0.78736c0.23528,0.50414 0.36744,1.1879 0.36744,1.90085v0c0,1.48466 -0.56167,2.68821 -1.25449,2.68821v0c-0.69284,0 -1.25451,-1.20356 -1.25451,-2.68821z" fill="#000000" fill-rule="evenodd" stroke="none" stroke-width="1" stroke-linecap="square" stroke-linejoin="miter"/><path d="M423.41502,134.8917v0c0,-9.4928 7.69543,-17.18824 17.18826,-17.18824v0c4.55859,0 8.9305,1.8109 12.15391,5.03432c3.22341,3.22342 5.03432,7.59531 5.03432,12.15392v0c0,9.49281 -7.69543,17.18824 -17.18823,17.18824v0c-9.49283,0 -17.18826,-7.69544 -17.18826,-17.18824z" fill="#ff0000" fill-rule="evenodd" stroke="#980000" stroke-width="4" stroke-linecap="square" stroke-linejoin="miter"/><path d="M258.71441,133.10763l2.10726,-3.03373h84.62423v3.03373z" fill="#ff0000" fill-rule="nonzero" stroke="none" stroke-width="0" stroke-linecap="butt" stroke-linejoin="miter"/><path d="M253.74844,140.90492l2.10726,-3.03373h89.48898v3.03373z" fill="#ff0000" fill-rule="nonzero" stroke="none" stroke-width="0" stroke-linecap="butt" stroke-linejoin="miter"/></g></g></svg>