<svg version="1.1" xmlns="http://www.w3.org/2000/svg" xmlns:xlink="http://www.w3.org/1999/xlink" width="513.39337" height="551.47248" viewBox="0,0,513.39337,551.47248"><g transform="translate(13.29118,94.78388)"><g data-paper-data="{&quot;isPaintingLayer&quot;:true}" stroke-miterlimit="10" stroke-dasharray="" stroke-dashoffset="0" style="mix-blend-mode: normal"><g><path d="M-6.09992,257.23194c21.37082,-14.23188 48.75728,-16.35779 72.2231,-26.77954c24.5643,-10.90963 46.56327,-26.92737 70.60104,-38.95276c10.19754,-5.1015 24.52808,-4.0756 31.64829,-12.98163c3.38269,-4.23108 -1.19971,-11.2009 0.81103,-16.23096c9.69092,-24.24298 -0.13662,-53.13319 8.11548,-77.90289c3.99195,-11.98231 18.65994,-17.0379 27.59054,-25.9685c8.66012,-8.66013 8.47201,-24.85727 18.66406,-31.6483c12.31485,-8.20548 25.4476,-15.11181 38.1391,-22.72178c13.72744,-8.23115 25.38235,-24.34646 41.38846,-24.34646c15.31329,0 28.66034,11.62639 43.81891,13.7979c27.36603,3.92028 54.79804,11.17473 79.52753,23.5328c10.25415,5.1243 5.00213,22.92057 11.35962,32.45932c12.73114,19.1019 28.92938,41.4639 25.15747,64.1076c-2.57837,15.4783 -21.76611,23.57118 -27.59057,38.14174c-2.79151,6.98336 13.79529,10.33238 13.79529,17.85301c0,3.84472 -5.58429,5.48807 -7.30444,8.92652c-9.16021,18.31048 -30.15533,27.7196 -44.63257,42.19684c-8.2157,8.2157 -3.5832,27.97592 -14.60632,31.64832c-8.4065,2.80066 -17.22809,-4.22385 -25.96851,-5.67981c-10.83502,-1.80484 -22.2597,-1.60519 -32.45929,-5.68241c-10.72976,-4.28913 -10.05279,-21.50732 -18.66403,-29.21258c-13.34262,-11.93885 -31.25788,-17.68881 -47.87928,-24.34384c-5.29746,-2.12104 -5.75803,-9.86138 -8.92389,-14.60892c-10.78155,-16.16798 -25.73611,-29.27695 -36.51968,-45.44357" fill-opacity="0" fill="#000000" fill-rule="evenodd" stroke="none" stroke-width="1" stroke-linecap="square" stroke-linejoin="miter"></path><path d="M493.29118,439.02313l-492.04665,-5.95814c0,0 -3.43539,-178.29381 -1.75571,-179.22053c20.42149,-11.267 45.16836,-13.85847 66.63437,-23.39206c24.5643,-10.90963 46.56327,-26.92737 70.60104,-38.95276c10.19754,-5.1015 24.52807,-4.0756 31.64828,-12.98163c3.38269,-4.23108 -1.19971,-11.2009 0.81103,-16.23096c9.69092,-24.24298 -0.13662,-53.13319 8.11548,-77.90289c3.99195,-11.98231 18.65994,-17.0379 27.59054,-25.9685c8.66012,-8.66013 8.47201,-24.85727 18.66406,-31.6483c12.31485,-8.20548 25.4476,-15.11181 38.1391,-22.72178c13.72744,-8.23115 25.38235,-24.34646 41.38846,-24.34646c15.31329,0 28.66034,11.62639 43.81891,13.7979c27.36603,3.92028 54.79804,11.17473 79.52753,23.5328c10.25415,5.1243 5.00213,22.92057 11.35962,32.45932c12.73114,19.1019 28.92938,41.4639 25.15747,64.10761c-2.57837,15.4783 -21.76611,23.57118 -27.59057,38.14174c-2.79151,6.98335 13.79529,10.33238 13.79529,17.85301c0,3.84473 -5.58429,5.48807 -7.30444,8.92652c-9.16021,18.31048 -30.15533,27.7196 -44.63257,42.19684c-8.2157,8.2157 -3.5832,27.97592 -14.60632,31.64832c-8.4065,2.80066 -17.22809,-4.22385 -25.96851,-5.67981c-10.83502,-1.80484 -22.2597,-1.60519 -32.45929,-5.68241c-10.72976,-4.28913 -10.05279,-21.50733 -18.66403,-29.21259c-13.34262,-11.93885 -31.25788,-17.68881 -47.87927,-24.34384c-5.29746,-2.12104 -5.75803,-9.86138 -8.92389,-14.60891c-7.9231,-11.88145 -18.09979,-22.11091 -27.21866,-33.11585c-3.28986,-3.97031 -42.80027,-44.39979 -45.65926,-48.68597" fill="none" fill-rule="evenodd" stroke="#ff0000" stroke-width="24" stroke-linecap="butt" stroke-linejoin="round"></path><path d="M224.36436,12.16101c-7.36539,-22.10807 -11.35959,-45.6763 -11.35959,-68.979c0,-8.72259 -4.23459,-21.47673 3.24411,-25.96588c26.81595,-16.0965 45.38883,43.51205 71.41208,60.8609" fill-opacity="0" fill="#000000" fill-rule="evenodd" stroke="none" stroke-width="1" stroke-linecap="square" stroke-linejoin="miter"></path><path d="M224.36436,12.16101c-7.36539,-22.10807 -11.35959,-45.6763 -11.35959,-68.979c0,-8.72259 -4.23459,-21.47673 3.24411,-25.96588c26.81595,-16.0965 45.38883,43.51205 71.41208,60.8609" fill="none" fill-rule="evenodd" stroke="#ff0000" stroke-width="24" stroke-linecap="butt" stroke-linejoin="round"></path><path d="M427.23866,13.78237c14.95008,-14.9501 49.13349,-35.44329 60.86352,-17.85301c5.10498,7.65543 -7.24896,16.92657 -11.36219,25.15747c-6.37207,12.75097 -13.46154,25.61844 -23.53283,35.70603" fill-opacity="0" fill="#000000" fill-rule="evenodd" stroke="none" stroke-width="1" stroke-linecap="square" stroke-linejoin="miter"></path><path d="M427.23866,13.78237c14.95008,-14.9501 49.13349,-35.44329 60.86352,-17.85301c5.10498,7.65543 -7.24896,16.92657 -11.36219,25.15747c-6.37207,12.75097 -13.46154,25.61844 -23.53283,35.70603" fill="none" fill-rule="evenodd" stroke="#ff0000" stroke-width="24" stroke-linecap="butt" stroke-linejoin="round"></path><path d="M225.17756,7.29229c1.99686,5.99059 2.20652,12.43524 3.24408,18.66404" fill-opacity="0" fill="#000000" fill-rule="evenodd" stroke="none" stroke-width="1" stroke-linecap="square" stroke-linejoin="miter"></path><path d="M225.17756,7.29229c1.99686,5.99059 2.20652,12.43524 3.24408,18.66404" fill="none" fill-rule="evenodd" stroke="#ff0000" stroke-width="24" stroke-linecap="butt" stroke-linejoin="round"></path><path d="M421.55885,208.54163c9.41797,15.69824 12.06677,34.56891 17.85303,51.93701c5.55737,16.681 23.8905,28.10016 26.77954,45.44357c3.56561,21.40536 2.47406,43.35086 4.86877,64.91864c2.74402,24.7139 10.54852,48.98196 10.54852,73.84775" fill-opacity="0" fill="#000000" fill-rule="evenodd" stroke="none" stroke-width="1" stroke-linecap="square" stroke-linejoin="miter"></path><path d="M421.55885,208.54163c9.41797,15.69824 12.06677,34.56891 17.85303,51.93701c5.55737,16.681 23.8905,28.10016 26.77954,45.44357c3.56561,21.40536 2.47406,43.35086 4.86877,64.91864c2.74402,24.7139 10.54852,48.98196 10.54852,73.84775" fill="none" fill-rule="evenodd" stroke="#ff0000" stroke-width="24" stroke-linecap="butt" stroke-linejoin="round"></path><path d="M314.08581,98.99046c-15.8227,-6.45351 -36.13965,-6.35941 -46.89633,-21.09973c-8.79989,-12.0589 -10.36801,-38.99298 1.42029,-47.06562c20.18478,-13.82257 55.56061,4.35764 66.08139,28.40157c6.1991,14.16738 16.77636,37.56387 5.68335,47.06824c-2.28931,1.96144 -5.36158,-2.37691 -7.8161,-4.05774c-6.34888,-4.34774 -14.6228,-3.24672 -22.02557,-3.24672" fill-opacity="0" fill="#000000" fill-rule="evenodd" stroke="none" stroke-width="1" stroke-linecap="square" stroke-linejoin="miter"></path><path d="M314.08581,98.99046c-15.8227,-6.45351 -36.13965,-6.35941 -46.89633,-21.09973c-8.79989,-12.0589 -10.36801,-38.99298 1.42029,-47.06562c20.18478,-13.82257 55.56061,4.35764 66.08139,28.40157c6.1991,14.16738 16.77636,37.56387 5.68335,47.06824c-2.28931,1.96144 -5.36158,-2.37691 -7.8161,-4.05774c-6.34888,-4.34774 -14.6228,-3.24672 -22.02557,-3.24672" fill="none" fill-rule="evenodd" stroke="#ff0000" stroke-width="24" stroke-linecap="butt" stroke-linejoin="round"></path><path d="M380.98408,178.51897c0,-4.32809 1.60877,-8.96628 0,-12.98425c-1.9212,-4.79828 -11.36224,-5.38261 -11.36224,-10.55119c0,-4.65357 4.58166,-8.33174 8.11554,-11.35957c11.3888,-9.75807 32.92219,-3.69 44.63251,5.67978c1.99292,1.59461 -1.86939,5.17985 -4.05774,6.49344c-10.93951,6.56656 -7.90741,35.55148 -20.28607,32.45932c-4.49207,-1.1221 -9.255,2.52951 -13.79528,1.62204c-4.54041,-0.90747 -1.6247,-9.16507 -1.6247,-13.79526" fill-opacity="0" fill="#000000" fill-rule="evenodd" stroke="none" stroke-width="1" stroke-linecap="square" stroke-linejoin="miter"></path><path d="M380.98408,178.51897c0,-4.32809 1.60877,-8.96628 0,-12.98425c-1.9212,-4.79828 -11.36224,-5.38261 -11.36224,-10.55119c0,-4.65357 4.58166,-8.33174 8.11554,-11.35957c11.3888,-9.75807 32.92219,-3.69 44.63251,5.67978c1.99292,1.59461 -1.86939,5.17985 -4.05774,6.49344c-10.93951,6.56656 -7.90741,35.55148 -20.28607,32.45932c-4.49207,-1.1221 -9.255,2.52951 -13.79528,1.62204c-4.54041,-0.90747 -3.19406,-6.81102 -3.19406,-11.44121" fill="none" fill-rule="evenodd" stroke="#ff0000" stroke-width="8" stroke-linecap="butt" stroke-linejoin="round"></path><path d="M458.07594,340.00357c0,20.06314 -6.27258,40.11197 -4.05774,60.05249c1.34406,12.10096 11.69745,31.06503 0.81104,36.51706c-17.15698,8.59235 -32.6778,-25.20527 -37.32812,-43.8215c-3.37464,-13.50949 3.02313,-30.51598 -5.67975,-41.38583c-6.43799,-8.04093 -21.19452,-2.00315 -30.02625,-7.30448c-20.03113,-12.02383 -31.03815,-36.61749 -51.93442,-47.06561c-23.23782,-11.61892 -53.19409,-6.10388 -75.46982,-19.47506c-15.92887,-9.56143 -9.54785,-35.93326 -15.41995,-53.55905c-3.65231,-10.96289 -18.74102,-13.77823 -29.21258,-18.66404c-13.8342,-6.45477 -25.08472,-18.52972 -39.76377,-22.7218" fill-opacity="0" fill="#000000" fill-rule="evenodd" stroke="none" stroke-width="1" stroke-linecap="square" stroke-linejoin="miter"></path><path d="M458.07594,340.00357c0,20.06314 -6.27258,40.11197 -4.05774,60.05249c1.34406,12.10096 11.69745,31.06503 0.81104,36.51706c-17.15698,8.59235 -32.6778,-25.20527 -37.32812,-43.8215c-3.37464,-13.50949 3.02313,-30.51598 -5.67975,-41.38583c-6.43799,-8.04093 -21.19452,-2.00315 -30.02625,-7.30448c-20.03113,-12.02383 -31.03815,-36.61749 -51.93442,-47.06561c-23.23782,-11.61892 -53.19409,-6.10388 -75.46982,-19.47506c-15.92887,-9.56143 -9.54785,-35.93326 -15.41995,-53.55905c-3.65231,-10.96289 -18.74102,-13.77823 -29.21258,-18.66404c-13.8342,-6.45477 -25.08472,-18.52972 -39.76377,-22.7218" fill="none" fill-rule="evenodd" stroke="#ff0000" stroke-width="24" stroke-linecap="butt" stroke-linejoin="round"></path><path d="M214.62655,132.26028c-13.86908,-14.82785 -21.50903,-35.12249 -33.26983,-51.91025" fill-opacity="0" fill="#000000" fill-rule="evenodd" stroke="none" stroke-width="1" stroke-linecap="square" stroke-linejoin="miter"></path><path d="M434.80299,70.64269c6.02906,0 13.32635,-2.78499 18.03393,1.62204c5.82184,5.4501 1.64209,17.34623 2.77502,25.9685c0.40967,3.11801 5.16351,5.18686 4.16132,8.11548c-3.05182,8.91791 -16.06671,4.86878 -24.2771,4.86878c-9.29376,0 -21.16858,4.43908 -27.74298,-3.24672c-7.22564,-8.44724 -11.435,-29.37274 -2.7727,-35.70604c8.66168,-6.33284 20.30188,-3.2441 30.51569,-3.2441" fill-opacity="0" fill="#000000" fill-rule="evenodd" stroke="none" stroke-width="1" stroke-linecap="square" stroke-linejoin="miter"></path><path d="M434.80299,70.64269c6.02906,0 13.32635,-2.78499 18.03393,1.62204c5.82184,5.4501 1.64209,17.34623 2.77502,25.9685c0.40967,3.11801 5.16351,5.18686 4.16132,8.11548c-3.05182,8.91791 -16.06671,4.86878 -24.2771,4.86878c-9.29376,0 -21.16858,4.43908 -27.74298,-3.24672c-7.22564,-8.44724 -11.435,-29.37274 -2.7727,-35.70604c8.66168,-6.33284 20.30188,-3.2441 30.51569,-3.2441" fill="none" fill-rule="evenodd" stroke="#ff0000" stroke-width="24" stroke-linecap="butt" stroke-linejoin="round"></path><path d="M378.4465,185.51381c0.23025,0.41019 0.87213,0.42338 1.17236,0.7855c1.00345,1.21029 1.95953,2.45924 2.90734,3.71391c1.92848,-0.39858 5.27569,0.68144 6.81081,0.42724c1.11206,-0.18414 2.09273,-0.9063 3.20808,-1.06936c3.99735,-0.58441 8.64778,-0.16141 12.69588,-0.16141c0,0 0.63395,0 1.61631,0.14277c-4.02217,-6.81975 0.90784,-13.02218 2.12043,-14.38412c0.64111,-2.62789 1.43611,-5.26561 2.73989,-7.63365c1.23889,-2.25017 4.50031,-3.43581 4.12139,-4.86673c0,0 3.95285,-11.85854 15.81139,-7.90569c11.85854,3.95285 7.90569,15.81139 7.90569,15.81139c-1.41693,3.59786 -3.28213,7.17587 -5.96279,9.96258c-0.02995,1.63938 -0.08669,3.30756 -0.76342,4.7698c-1.10124,2.3795 -3.23225,4.12934 -4.84838,6.19401l-1.06936,1.06936c0,0 -4.44211,4.44211 -10.17723,3.87903c0.62665,1.48506 1.00608,3.28344 1.00608,5.46125c0,12.5 -12.5,12.5 -12.5,12.5c-2.27848,0 -6.39596,-0.63357 -8.69132,-0.16141c-0.18316,0.03768 -0.36816,0.07532 -0.55487,0.11286c0.41904,3.97812 0.03189,8.09802 -1.2151,12.1701c-4.92474,16.0819 -19.21363,27.50106 -37.07729,19.12633c-3.74607,-1.75621 -5.90211,-5.85029 -9.2688,-8.25502c-0.78515,-0.56081 -5.27518,0.24034 -6.64828,0.20074c-5.50698,-0.15884 -10.38771,-0.56106 -15.34466,-3.125c-6.07679,-3.14317 -12.32657,-11.01003 -13.94551,-17.38459c-0.59635,-2.34813 -0.66668,-4.90163 -0.53109,-7.25812c0.02956,-0.51382 0.31123,-1.24801 -0.11267,-1.53987c-4.32266,-2.97629 -9.3826,-4.25918 -14.03315,-6.4819c-4.42099,-2.113 -7.9497,-4.44258 -12.08573,-7.11222c-0.98997,-0.63899 -3.35979,-1.07733 -4.01938,-1.64023c-0.6956,-0.59363 -7.65256,-10.00838 -8.78438,-10.65195c-2.06276,-1.17293 -6.27314,-1.95894 -8.32538,-3.24973c-1.32548,-0.83368 -2.11045,-2.31575 -3.22454,-3.41608c-7.91225,-7.81456 -17.21983,-16.57896 -22.47471,-26.73841c-0.94285,-1.82283 -1.69183,-3.748 -2.33354,-5.69733c-0.2057,-0.62488 0.32108,-1.54874 -0.1887,-1.96456c-3.09301,-2.52292 -5.78606,-5.14143 -8.75559,-7.90712c-0.65846,-0.61326 -2.74019,-1.13775 -3.18089,-1.45894c-3.03751,-2.21377 -8.30433,-7.15682 -10.19579,-10.1958c-1.56909,-2.52102 -2.00773,-5.61437 -3.42628,-8.22307c-1.49533,-2.7499 -7.31732,-2.57138 -9.83242,-4.53666c-4.3122,-2.04418 -7.94613,-5.28603 -10.47219,-9.29594c-2.81292,-3.40434 -4.66511,-7.32891 -3.78093,-11.69774c-0.0338,-0.53206 -0.05096,-1.06863 -0.05096,-1.60921c0,-7.37809 3.19613,-14.0097 8.27938,-18.58579c1.16535,-1.54035 2.56413,-2.84072 4.31743,-3.77489c4.31584,-2.29951 8.78124,-2.98833 13.25393,-2.62512c0.22537,0.00754 0.44997,0.01806 0.67379,0.03152c0.04916,-1.06051 0.11897,-2.12263 0.20947,-3.18585c0.268,-3.14885 -0.07415,-6.35491 0.70003,-9.4535c2.16542,-8.66693 8.82332,-17.06519 8.92422,-26.04239c0.16014,-14.24782 -1.53677,-27.97968 -2.13872,-42.16595c-0.09944,-2.34351 -0.46013,-8.38409 -1.34653,-11.80737c-0.47371,-1.82947 -5.706,-5.54623 -6.37957,-6.36267c-6.12279,-7.42157 -6.66013,-20.35314 -2.4669,-28.51733c1.07408,-2.09123 3.60441,-3.02836 5.26677,-4.69072c1.66235,-1.66235 2.59949,-4.1927 4.69072,-5.26678c1.10618,-0.56815 12.03555,-3.5755 15.89705,-2.96978c5.29649,0.83082 17.84488,7.93771 21.80691,11.79266c3.00939,2.92805 3.39483,7.48108 5.96301,10.3478c3.25717,3.63579 9.65893,8.58225 13.1479,12.24633c7.22523,7.58786 12.04538,17.00019 14.08329,27.06341c2.0525,-1.346 4.68228,-2.37 8.2111,-3.07959c2.56793,-0.51638 5.18992,-0.5016 7.8091,-0.13199c1.68984,0.193 3.3285,0.55449 4.89877,1.06724c4.71366,1.35335 9.30052,3.51449 13.4192,5.42473c8.26806,3.83472 16.47008,4.86158 24.82274,7.4194c1.09947,0.33669 4.01876,1.93993 5.4914,2.30897c6.85957,1.71898 11.38066,2.94698 17.78775,5.00413c6.79154,2.18059 15.14884,0.37225 21.82066,2.83192c2.20168,0.81168 6.37127,3.19717 8.4359,4.18944c4.1179,1.97907 8.82688,2.52322 13.15851,3.8858c1.69472,0.5331 4.37476,2.07503 6.23573,2.33167c3.2525,0.44854 4.08272,-3.22921 6.75903,-4.18335c1.86747,-0.66578 3.78068,-1.31496 5.72097,-1.8383c3.38214,-9.80111 12.68813,-16.84142 23.63849,-16.84142c13.80712,0 25,11.19288 25,25c0,10.47185 -6.43846,19.43991 -15.57274,23.16154c-0.03686,0.2174 -0.08234,0.43415 -0.1372,0.65015c-0.77056,3.0341 -1.76577,6.01971 -2.96978,8.90933c-1.4253,3.42074 -5.04753,5.44948 -7.86118,7.86118c-7.1096,6.09394 -16.44758,5.02502 -24.98266,6.37426c-5.93786,0.93866 -10.69273,1.83287 -16.94901,1.17883c-4.03449,-0.42176 -7.77921,-2.1468 -11.42424,-3.85011c-0.3091,1.82067 -1.07208,3.51368 -1.91108,5.1853c-0.89961,2.3809 -2.15226,4.58847 -3.6941,6.55884c-1.85002,2.36423 -4.11638,4.38696 -6.68878,5.95788c-0.44269,0.79669 -0.70812,1.71615 -0.70812,2.82556c0,0.80594 -0.71622,1.85524 -0.13544,2.414c1.81484,1.74607 4.59837,2.68241 5.71799,4.93826c3.29702,6.643 4.68877,13.11858 3.48117,19.65475c2.98426,0.88294 6.08873,3.03609 7.60396,7.9247c3.15741,-0.26274 6.34954,-0.23156 9.52616,0.03832c2.67306,0.2271 5.42566,0.16877 7.99162,0.95151c0.25272,0.07709 0.5704,0.21332 0.88838,0.38479c0.71088,-0.23686 1.42734,-0.45789 2.13819,-0.69484l2.93127,-0.97709c1.321,-0.47493 2.74511,-0.73373 4.22965,-0.73373c6.90356,0 12.5,5.59644 12.5,12.5c0,4.40766 -2.2813,8.2825 -5.72756,10.50817l-2.57496,1.71664c-1.91192,2.92321 -4.42522,5.36038 -7.96881,6.8092c-2.63646,1.07793 -7.86685,0.95151 -11.1997,0.95151l-5.87667,-6.37941c-0.18249,-0.02208 -0.36297,-0.03675 -0.53949,-0.03675c-1.28379,0 -2.66001,-0.16828 -4.00788,-0.19683c-2.90011,1.26619 -5.61636,1.26619 -5.61636,1.26619h-3.20808c-3.24588,0 -7.72763,-0.89024 -10.83004,-0.16141c-3.29199,0.77337 -6.32662,2.45907 -9.62424,3.20808c-1.69446,0.38487 -3.47306,0.1281 -5.21036,0.16141c-1.56874,0.03008 -3.24772,0.08674 -4.96092,0.07855c-0.73482,3.03243 -2.57546,5.63281 -5.07093,7.35017c0.52214,0.97338 0.98865,1.83527 1.18849,2.31487c0.41034,0.98481 0.70373,2.43159 0.88333,3.99719c15.18019,1.98806 11.22321,13.33508 10.3373,22.16718l-0.44634,0.35687l0.30338,0.10113l-0.87837,2.63511c0.13512,0.52443 0.33238,1.11678 0.72232,1.81145zM296.502,96.4774c9.37651,-1.08429 19.7717,4.74863 27.95435,9.08577c2.07186,1.09817 5.88862,5.25725 8.13391,5.13632c3.19094,-0.17187 6.22837,-1.82026 9.34964,-2.40325c-1.59661,-3.61424 -2.49038,-7.57019 -2.49038,-11.712c0,-4.34093 0.01709,-8.83744 0.54639,-13.2023c0.05112,-0.42158 1.29057,-4.43766 1.26261,-4.57893c-1.0986,-5.55031 -5.43646,-7.42722 -8.30996,-11.75892c-0.26556,-0.40034 -4.29325,-9.20118 -4.36732,-10.48157c-0.10251,-1.77196 0.93039,-3.44851 1.05622,-5.21897c0.12583,-1.77046 -0.6596,-3.57624 -0.30753,-5.31589c0.28315,-1.3991 2.05307,-3.55236 2.94865,-4.95625c0.19333,-0.30306 0.39054,-0.60974 0.59181,-0.91871c-3.5827,-1.12357 -7.16423,-2.24636 -10.74497,-3.36436c-8.10405,-2.53032 -15.23509,-5.07984 -22.27165,-8.38377c-6.46871,-1.27649 -12.04105,-5.04826 -15.67258,-10.27087c-1.21815,1.31321 -2.55081,2.49428 -3.98159,3.49947c-2.11402,1.4852 -4.99542,1.56222 -7.15454,2.98106c-0.47926,0.31494 0.03972,1.14833 0,1.72044c-0.24145,3.47793 -0.42562,4.52772 -1.28292,7.9057c-2.39223,9.426 -3.90911,14.02529 -8.057,24.00143c-0.81326,1.95599 -0.85859,5.55228 -0.85859,7.6592c0,8.08762 6.99858,18.47415 12.7696,23.75819c0.88638,0.81159 1.81986,1.64045 2.75762,2.49618c1.61735,1.26086 3.07562,2.71625 4.33964,4.33102c1.10628,1.26735 2.10247,2.60724 2.89174,4.04133c2.4709,-2.09268 5.81932,-3.46312 10.89685,-4.05028z" fill="#ff0000" fill-rule="nonzero" stroke="none" stroke-width="0.5" stroke-linecap="butt" stroke-linejoin="miter"></path><path d="M397.50287,133.335c-0.32286,0.38759 -0.53283,0.59756 -0.53283,0.59756l-9.90819,4.73053c-1.06936,0 -2.208,0.37864 -3.20808,0c-0.3595,-0.13611 -0.71365,-0.26907 -1.06235,-0.39918c-1.65154,0.8977 -3.75194,1.46854 -6.42317,1.46854c-12.5,0 -12.5,-12.5 -12.5,-12.5c0,-10.33715 0,-20.67429 0,-31.01144c0,-5.47982 0.64074,-11.50678 0.06083,-16.9474c-0.52063,-4.88445 -1.13019,-9.10915 -1.13019,-14.06404v-3.20808c0,-6.90356 5.59644,-12.5 12.5,-12.5c4.40766,0 8.2825,2.2813 10.50817,5.72756l2.03118,3.04677l-0.50434,0.33623c0.01438,0.05116 0.02844,0.10245 0.04218,0.15388c0.43639,0.30789 0.86683,0.62473 1.29047,0.95176c1.33038,1.02699 1.14936,3.15886 1.69896,4.74713c2.15239,6.22012 4.89805,13.62493 5.82685,20.12969c0.56276,3.94121 -0.74951,8.99677 0,12.83232c0.52809,2.70243 1.78219,5.23984 2.20647,7.96051c0.16477,1.05659 -0.09112,2.14261 0,3.20808c0.02875,0.33614 0.08359,0.86265 0.15204,1.41072c0.66824,0.58305 1.23064,1.22576 1.70396,1.89461c2.51113,1.77703 4.65381,4.80963 4.65381,9.98491c0,7.02448 -3.94746,10.10149 -7.40577,11.44935z" fill="#ffffff" fill-rule="nonzero" stroke="none" stroke-width="0.5" stroke-linecap="butt" stroke-linejoin="miter"></path><path d="M82.40851,209.99066c6.44812,-5.29413 15.58727,-6.08776 23.54211,-6.54698c17.00415,-0.98163 31.61239,-16.01722 47.89221,-7.02559c10.54792,-5.83551 27.21593,-8.61794 37.19383,-2.68172c2.06811,1.23039 3.72868,3.07221 5.42221,4.6393c1.28284,1.18706 3.12209,1.59373 4.56331,2.5825c3.62181,2.48478 6.157,5.33948 9.48211,8.05742c9.77631,7.99112 22.40549,13.10955 28.40432,25.10722c3.46138,6.92275 2.70003,13.54787 3.125,20.90289c0.15209,2.63224 2.94971,4.37212 4.35614,6.60232c0.56635,0.89807 2.41151,5.04876 2.56859,5.09009c6.29565,1.65644 12.59712,2.94217 18.00347,6.79294c3.30835,2.35643 5.15674,4.88876 8.18729,7.63486c1.82977,1.65803 8.95375,4.04686 11.17241,4.63849c3.61984,0.96527 8.39155,0.941 11.98346,1.06936c9.03531,0.32289 24.80511,3.78446 32.15454,9.38366c5.13129,3.9093 8.9754,9.46145 10.85216,15.59007c0.50076,1.63526 0.35623,4.32677 1.07009,5.79496c0.71733,1.47531 3.87395,1.82899 4.78144,2.29839c1.11367,0.57604 2.26364,2.08236 3.39997,2.74285c5.63786,3.27698 12.06289,6.01418 17.32394,9.93198c2.91279,2.1691 6.05852,5.5661 7.99783,8.63668c0.71913,1.13863 1.28322,5.13365 2.34075,5.50558c3.95068,1.38947 9.20794,0.50176 13.32656,1.76256c6.55838,2.00767 14.20559,7.79944 17.38459,13.94552c2.95398,5.71104 4.35012,14.87145 4.35012,21.38306c0,1.90944 -0.05641,7.14887 1.00829,8.16557c1.79121,1.71045 4.52722,2.63551 5.62329,4.85648c2.20859,4.47525 3.90625,9.46256 3.90625,14.45313c0,20.47891 -16.03016,25.56426 -32.48552,25c-2.34976,-0.08057 -4.80055,0.29464 -7.04101,-0.41823c-1.7424,-0.5544 -3.4034,-1.31277 -4.96516,-2.24184c-1.64763,0.34175 -3.35464,0.52135 -5.10359,0.52135c-3.38183,0.6469 -9.09301,-0.33394 -13.56872,-1.17963c-7.75503,9.42361 -22.09332,13.34001 -33.55686,5.69765c-4.89966,-3.26644 -7.53534,-6.78524 -9.50503,-10.41572c-9.31522,-0.77857 -18.63724,-1.36717 -27.91349,-1.58781c-9.99979,-0.23785 -20.00577,-0.10319 -30.00785,0c-2.41232,0.02489 -4.88351,1.04886 -7.35508,1.06936c-4.43028,0.03675 -16.84837,0.6441 -24.48807,-0.19305c-5.61283,-0.61505 -9.68782,-1.40376 -15.02328,-2.29506c-1.73438,-0.28973 -3.60189,-1.33093 -5.28719,-1.18767c-0.12856,0.20834 -0.26437,0.41324 -0.40803,0.61443c-3.4734,4.8644 -7.391,7.40477 -11.61324,8.68664c-1.20886,0.4958 -2.46518,0.89963 -3.76025,1.20278c-3.01229,0.79649 -6.14903,1.1582 -9.21412,0.98791c-3.36554,-0.18697 -5.41418,-0.62972 -6.86616,-1.30343c-0.82135,-0.0219 -1.64568,-0.0355 -2.4723,-0.0355c-3.13945,0 -6.42437,0.98338 -9.62424,1.00847c-11.90504,0.09335 -25.13982,0.28391 -37.05641,-1.45998c-12.2233,-1.78878 -25.3624,-8.27695 -37.55371,-8.77426c-0.49431,-0.02016 -1.1634,1.47624 -1.30338,1.59714c-2.31975,2.00342 -6.24102,5.56869 -9.28457,6.53709c-7.15609,2.27694 -21.31118,0.93958 -26.53792,1.03066c-12.56581,0.21896 -23.34464,15.29282 -36.00886,10.35547c-1.99842,-0.77911 -6.93782,-1.04961 -9.11874,-2.78687c-2.96054,-2.35828 -5.87408,-4.78944 -8.59375,-7.42187c-5.32668,-5.15582 -4.22862,-15.2881 -2.66447,-21.96492c0.43128,-1.84098 2.30838,-7.52455 3.73383,-9.08005c1.46125,-1.59457 3.31463,-2.78139 4.91067,-4.24103c0.77871,-0.71216 1.40902,-1.57925 2.20766,-2.26898c0.23567,-0.20354 1.03151,-0.11952 0.85512,-0.37614c-4.36384,-6.34879 -9.41068,-13.69177 -11.58141,-21.02178c-1.85273,-6.25621 -2.59277,-12.84474 -2.59277,-19.33363c0,-2.62422 1.21075,-5.28624 1.22512,-7.81017c0.09086,-15.95563 0.34297,-18.70393 -0.84966,-33.13542c-0.15263,-1.84689 -3.59605,-8.70198 -3.75824,-9.35673c-0.42504,-1.71586 0.67182,-4.01647 0.10596,-5.97986c-3.93687,-13.65991 -5.31412,-34.18161 4.30975,-45.32504c6.61205,-7.65606 16.79529,-8.72604 26.39198,-9.26976c5.29298,-0.29989 11.04628,-2.66657 16.02623,-4.00656c3.912,-1.05263 6.95638,-4.15108 10.14604,-6.45543c11.68471,-8.44154 22.50123,-18.14323 35.45799,-24.38286c0.12332,-0.10402 0.24878,-0.20842 0.37643,-0.31321z" fill="#ff0000" fill-rule="nonzero" stroke="none" stroke-width="0.5" stroke-linecap="butt" stroke-linejoin="miter"></path></g></g></g></svg>